<svg xmlns="http://www.w3.org/2000/svg" width="24" height="24" viewBox="0 0 24 24"><path fill-rule="evenodd" d="M24 12s-5.37-8-12-8a10.4 10.4 0 0 0-5.07 1.48L1.45 0 0 1.45l5.17 5.17A25.3 25.3 0 0 0 0 12s5.37 8 12 8a10.4 10.4 0 0 0 5.07-1.48L22.55 24 24 22.55l-5.17-5.17A25.3 25.3 0 0 0 24 12M12 6c4.12 0 7.87 4 9.49 6a21.6 21.6 0 0 1-4.09 4l-2.32-2.32A3.46 3.46 0 0 0 15.5 12 3.5 3.5 0 0 0 12 8.5a3.46 3.46 0 0 0-1.63.42l-2-2A8.1 8.1 0 0 1 12 6m-9.49 6c1.62 2 5.37 6 9.49 6a8.1 8.1 0 0 0 3.63-.92l-2-2a3.46 3.46 0 0 1-1.63.42A3.5 3.5 0 0 1 8.5 12a3.46 3.46 0 0 1 .42-1.63L6.6 8.05A21.6 21.6 0 0 0 2.51 12" clip-rule="evenodd"/></svg>