<svg xmlns="http://www.w3.org/2000/svg" width="24" height="24" viewBox="0 0 24 24"><path fill-rule="evenodd" d="m14.772 4.813 3.112-3.112.33-.19c4.624-2.61 6.74-1.001 4.71 3.874l-.077.182-3.666 3.666 1.568 12.347L17.5 24l-3.774-9.312-3.155 3.154.5 3.001-2.79 2.79-2.583-4.52-.812-.812-4.519-2.582 2.79-2.79 2.999.499 3.213-3.213-9.343-4.39 2.906-2.994zm6.961-2.594-.004-.044h-.027q-.076.005-.206.037l-.195.055q-.164.052-.377.136l-.304.127q-.245.105-.534.249l-.405.207-.442.243-.123.069L6.843 15.57l-3-.5-.21.21 2.48 1.417 1.189 1.19 1.416 2.478.21-.21-.499-3L21.15 4.435l.136-.345c.22-.585.36-1.07.418-1.444l.02-.154q.017-.167.01-.272m-3.125 18.467-1.149-9.42-2.102 2.103 2.755 7.69zm-6.03-14.262L3.626 4.989l-.29.3 7.082 3.15z" clip-rule="evenodd"/></svg>