<svg xmlns="http://www.w3.org/2000/svg" width="24" height="24" viewBox="0 0 24 24"><path fill-rule="evenodd" d="M22 3V0h-7v3h-2v8h11V3zm-5-1h3v1h-3zm-2 7h7V5h-7zm-3.873.044A4.38 4.38 0 0 1 7.08 11.75 4.37 4.37 0 0 1 2.7 7.38a4.38 4.38 0 1 1 8.428 1.664M9.46 7.38a2.38 2.38 0 1 0-4.76 0 2.38 2.38 0 0 0 4.76 0m-2.37 5.24C3.17 12.62 0 16.79 0 21.93Q.006 22.972.18 24H14q.174-1.028.18-2.07c0-5.14-3.18-9.31-7.09-9.31M2 22v-.07c0-3.24 1.56-6.06 3.63-7l.8 1.07L5 19l2 2 2-2-1.43-3 .84-1.11c2.14.86 3.77 3.73 3.77 7V22z" clip-rule="evenodd"/></svg>