<svg xmlns="http://www.w3.org/2000/svg" width="24" height="24" viewBox="0 0 24 24"><path fill-rule="evenodd" d="M14.57 6.725C13.38 5.01 11.47 4 9.4 4c-3.398 0-6.16 2.772-6.16 6.18l-.2.062C1.253 10.837 0 12.506 0 14.384c0 2.407 1.957 4.373 4.363 4.373h15.263l.211-.005C22.147 18.641 24 16.72 24 14.394c.047-2.126-1.526-3.961-3.624-4.298a4.34 4.34 0 0 0-4.288-3.67c-.506 0-1.04.102-1.517.299M5.245 9.972C5.353 7.762 7.178 6 9.4 6c1.408 0 2.707.685 3.526 1.865l.917 1.322 1.487-.613.144-.052a2 2 0 0 1 .612-.097 2.34 2.34 0 0 1 2.313 1.987l.229 1.429 1.429.23.16.03c1.046.245 1.805 1.192 1.782 2.249-.001 1.337-1.073 2.407-2.374 2.407H4.363l-.16-.005A2.38 2.38 0 0 1 2 14.384c0-1.033.735-1.984 1.783-2.28l1.457-.41V10.18z" clip-rule="evenodd"/></svg>