<svg xmlns="http://www.w3.org/2000/svg" width="24" height="24" viewBox="0 0 24 24"><path fill-rule="evenodd" d="M16.185 17.142a4 4 0 0 1 2.818-1.172v.02A4 4 0 0 1 23 19.995 4 4 0 0 1 19.003 24a4 4 0 0 1-3.997-4.005c0-.373.053-.744.16-1.101l-8.344-5.006a3.99 3.99 0 0 1-4.466.818 4.01 4.01 0 0 1-2.349-3.893 4 4 0 0 1 2.8-3.582 3.99 3.99 0 0 1 4.335 1.35l8.923-3.914a4.4 4.4 0 0 1-.06-.631 3.996 3.996 0 0 1 7.766-1.366 4.01 4.01 0 0 1-1.831 4.838A3.99 3.99 0 0 1 16.875 6.5L7.95 10.414q.052.313.06.63c0 .37-.054.738-.16 1.092zm5.816-13.106a2 2 0 0 0-1.999-2.002 2 2 0 0 0-1.998 2.002 2 2 0 0 0 1.998 2.002 2 2 0 0 0 1.999-2.002m-17.987 9.01a2 2 0 0 1-1.999-2.002 2 2 0 0 1 1.999-2.002 2 2 0 0 1 1.998 2.002 2 2 0 0 1-1.998 2.003m13.19 7.71a1.94 1.94 0 0 0 1.8 1.192v-.01a1.93 1.93 0 0 0 1.928-1.933c0-.786-.474-1.495-1.2-1.795a1.94 1.94 0 0 0-2.113.425 1.945 1.945 0 0 0-.414 2.12" clip-rule="evenodd"/></svg>