<svg xmlns="http://www.w3.org/2000/svg" width="24" height="24" viewBox="0 0 24 24"><path fill-rule="evenodd" d="M6 23h1.2V10.778H6q-.606 0-1.2.122v-.122c0-4.05 3.224-7.334 7.2-7.334s7.2 3.284 7.2 7.334v.122a6 6 0 0 0-1.2-.122h-1.2V23H18c2.582 0 4.875-1.683 5.692-4.179.816-2.495-.026-5.243-2.092-6.821v-1.222C21.6 5.378 17.302 1 12 1s-9.6 4.378-9.6 9.778V12C.334 13.578-.508 16.326.308 18.821 1.125 21.317 3.418 23 6 23m13.2-9.57c1.44.516 2.405 1.903 2.405 3.459s-.964 2.942-2.405 3.459zM4.8 20.348V13.43c-1.44.516-2.405 1.903-2.405 3.459s.964 2.942 2.405 3.459" clip-rule="evenodd"/></svg>