<svg width="239" height="104" viewBox="0 0 239 104" fill="none" xmlns="http://www.w3.org/2000/svg">
<rect x="0.5" y="0.5" width="238" height="103" fill="#FFF4F4"/>
<rect x="0.5" y="0.5" width="238" height="103" stroke="#EB3636"/>
<path d="M20.8506 28.0166L23.5098 23.0059H24.7607L21.4316 29.124V33H20.2695V29.1787L16.9336 23.0059H18.2051L20.8506 28.0166ZM32.4238 29.2402C32.4238 29.8555 32.3441 30.4046 32.1846 30.8877C32.0251 31.3708 31.7949 31.7786 31.4941 32.1113C31.1934 32.444 30.8288 32.6992 30.4004 32.877C29.9766 33.0501 29.4958 33.1367 28.958 33.1367C28.4567 33.1367 27.9964 33.0501 27.5771 32.877C27.1624 32.6992 26.8024 32.444 26.4971 32.1113C26.1963 31.7786 25.9616 31.3708 25.793 30.8877C25.6289 30.4046 25.5469 29.8555 25.5469 29.2402C25.5469 28.4199 25.6859 27.7227 25.9639 27.1484C26.2419 26.5697 26.6383 26.1299 27.1533 25.8291C27.6729 25.5238 28.2904 25.3711 29.0059 25.3711C29.6895 25.3711 30.2865 25.5238 30.7969 25.8291C31.3118 26.1344 31.7106 26.5765 31.9932 27.1553C32.2803 27.7295 32.4238 28.4245 32.4238 29.2402ZM26.7227 29.2402C26.7227 29.8418 26.8024 30.3636 26.9619 30.8057C27.1214 31.2477 27.3675 31.5895 27.7002 31.8311C28.0329 32.0726 28.4613 32.1934 28.9854 32.1934C29.5049 32.1934 29.931 32.0726 30.2637 31.8311C30.6009 31.5895 30.8493 31.2477 31.0088 30.8057C31.1683 30.3636 31.248 29.8418 31.248 29.2402C31.248 28.6432 31.1683 28.1283 31.0088 27.6953C30.8493 27.2578 30.6032 26.9206 30.2705 26.6836C29.9378 26.4466 29.5072 26.3281 28.9785 26.3281C28.1992 26.3281 27.6273 26.5856 27.2627 27.1006C26.9027 27.6156 26.7227 28.3288 26.7227 29.2402ZM40.5723 25.5078V33H39.6426L39.4785 31.9473H39.417C39.262 32.207 39.0615 32.4258 38.8154 32.6035C38.5693 32.7812 38.2913 32.9134 37.9814 33C37.6761 33.0911 37.3503 33.1367 37.0039 33.1367C36.4115 33.1367 35.9147 33.041 35.5137 32.8496C35.1126 32.6582 34.8096 32.362 34.6045 31.9609C34.404 31.5599 34.3037 31.0449 34.3037 30.416V25.5078H35.4521V30.334C35.4521 30.9583 35.5934 31.4255 35.876 31.7354C36.1585 32.0407 36.5892 32.1934 37.168 32.1934C37.724 32.1934 38.166 32.0885 38.4941 31.8789C38.8268 31.6693 39.0661 31.3617 39.2119 30.9561C39.3577 30.5459 39.4307 30.0446 39.4307 29.4521V25.5078H40.5723ZM49.6094 33.1367C48.9349 33.1367 48.3402 32.9977 47.8252 32.7197C47.3102 32.4417 46.9092 32.0179 46.6221 31.4482C46.335 30.8786 46.1914 30.1608 46.1914 29.2949C46.1914 28.388 46.3418 27.6475 46.6426 27.0732C46.9479 26.4945 47.3672 26.0661 47.9004 25.7881C48.4336 25.5101 49.0397 25.3711 49.7188 25.3711C50.0924 25.3711 50.4525 25.4098 50.7988 25.4873C51.1497 25.5602 51.4368 25.6536 51.6602 25.7676L51.3184 26.7178C51.0905 26.6266 50.8262 26.5446 50.5254 26.4717C50.2292 26.3988 49.9512 26.3623 49.6914 26.3623C49.1719 26.3623 48.7389 26.474 48.3926 26.6973C48.0508 26.9206 47.7933 27.2487 47.6201 27.6816C47.4515 28.1146 47.3672 28.6478 47.3672 29.2812C47.3672 29.8874 47.4492 30.4046 47.6133 30.833C47.7819 31.2614 48.0303 31.5895 48.3584 31.8174C48.6911 32.0407 49.1058 32.1523 49.6025 32.1523C49.999 32.1523 50.3568 32.1113 50.6758 32.0293C50.9948 31.9427 51.2842 31.8424 51.5439 31.7285V32.7402C51.2933 32.8678 51.013 32.9658 50.7031 33.0342C50.3978 33.1025 50.0332 33.1367 49.6094 33.1367ZM56.124 25.3848C57.0173 25.3848 57.6803 25.5853 58.1133 25.9863C58.5462 26.3874 58.7627 27.0277 58.7627 27.9072V33H57.9355L57.7168 31.8926H57.6621C57.4525 32.166 57.2337 32.3962 57.0059 32.583C56.778 32.7653 56.5137 32.9043 56.2129 33C55.9167 33.0911 55.5521 33.1367 55.1191 33.1367C54.6634 33.1367 54.2578 33.057 53.9023 32.8975C53.5514 32.738 53.2734 32.4964 53.0684 32.1729C52.8678 31.8493 52.7676 31.4391 52.7676 30.9424C52.7676 30.195 53.0638 29.6208 53.6562 29.2197C54.2487 28.8187 55.151 28.5999 56.3633 28.5635L57.6553 28.5088V28.0508C57.6553 27.4036 57.5163 26.9502 57.2383 26.6904C56.9603 26.4307 56.5684 26.3008 56.0625 26.3008C55.6706 26.3008 55.2969 26.3577 54.9414 26.4717C54.5859 26.5856 54.2487 26.7201 53.9297 26.875L53.5811 26.0137C53.9183 25.8405 54.3057 25.6924 54.7432 25.5693C55.1807 25.4463 55.641 25.3848 56.124 25.3848ZM57.6416 29.3086L56.5 29.3564C55.5658 29.3929 54.9072 29.5456 54.5244 29.8145C54.1416 30.0833 53.9502 30.4639 53.9502 30.9561C53.9502 31.3844 54.0801 31.7012 54.3398 31.9062C54.5996 32.1113 54.9437 32.2139 55.3721 32.2139C56.0374 32.2139 56.582 32.0293 57.0059 31.6602C57.4297 31.291 57.6416 30.7373 57.6416 29.999V29.3086ZM64.6484 25.3711C65.5371 25.3711 66.2093 25.5898 66.665 26.0273C67.1208 26.4603 67.3486 27.1576 67.3486 28.1191V33H66.2275V28.1943C66.2275 27.57 66.084 27.1029 65.7969 26.793C65.5143 26.4831 65.0791 26.3281 64.4912 26.3281C63.6618 26.3281 63.0785 26.5628 62.7412 27.0322C62.404 27.5016 62.2354 28.1829 62.2354 29.0762V33H61.1006V25.5078H62.0166L62.1875 26.5879H62.249C62.4085 26.3236 62.6113 26.1025 62.8574 25.9248C63.1035 25.7425 63.3792 25.6058 63.6846 25.5146C63.9899 25.4189 64.3112 25.3711 64.6484 25.3711ZM70.6436 23.0059L70.3838 26.6152H69.666L69.4131 23.0059H70.6436ZM75.1826 32.207C75.3695 32.207 75.5609 32.1911 75.7568 32.1592C75.9528 32.1273 76.1123 32.0885 76.2354 32.043V32.9248C76.1032 32.984 75.9186 33.0342 75.6816 33.0752C75.4492 33.1162 75.2214 33.1367 74.998 33.1367C74.6016 33.1367 74.2415 33.0684 73.918 32.9316C73.5944 32.7904 73.3346 32.5534 73.1387 32.2207C72.9473 31.888 72.8516 31.4277 72.8516 30.8398V26.3965H71.7852V25.8428L72.8584 25.3984L73.3096 23.7715H73.9932V25.5078H76.1875V26.3965H73.9932V30.8057C73.9932 31.2751 74.1003 31.626 74.3145 31.8584C74.5332 32.0908 74.8226 32.207 75.1826 32.207ZM84.3906 33.1367C83.7161 33.1367 83.1214 32.9977 82.6064 32.7197C82.0915 32.4417 81.6904 32.0179 81.4033 31.4482C81.1162 30.8786 80.9727 30.1608 80.9727 29.2949C80.9727 28.388 81.123 27.6475 81.4238 27.0732C81.7292 26.4945 82.1484 26.0661 82.6816 25.7881C83.2148 25.5101 83.821 25.3711 84.5 25.3711C84.8737 25.3711 85.2337 25.4098 85.5801 25.4873C85.931 25.5602 86.2181 25.6536 86.4414 25.7676L86.0996 26.7178C85.8717 26.6266 85.6074 26.5446 85.3066 26.4717C85.0104 26.3988 84.7324 26.3623 84.4727 26.3623C83.9531 26.3623 83.5202 26.474 83.1738 26.6973C82.832 26.9206 82.5745 27.2487 82.4014 27.6816C82.2327 28.1146 82.1484 28.6478 82.1484 29.2812C82.1484 29.8874 82.2305 30.4046 82.3945 30.833C82.5632 31.2614 82.8115 31.5895 83.1396 31.8174C83.4723 32.0407 83.887 32.1523 84.3838 32.1523C84.7803 32.1523 85.138 32.1113 85.457 32.0293C85.776 31.9427 86.0654 31.8424 86.3252 31.7285V32.7402C86.0745 32.8678 85.7943 32.9658 85.4844 33.0342C85.179 33.1025 84.8145 33.1367 84.3906 33.1367ZM94.5625 29.2402C94.5625 29.8555 94.4827 30.4046 94.3232 30.8877C94.1637 31.3708 93.9336 31.7786 93.6328 32.1113C93.332 32.444 92.9674 32.6992 92.5391 32.877C92.1152 33.0501 91.6344 33.1367 91.0967 33.1367C90.5954 33.1367 90.1351 33.0501 89.7158 32.877C89.3011 32.6992 88.9411 32.444 88.6357 32.1113C88.335 31.7786 88.1003 31.3708 87.9316 30.8877C87.7676 30.4046 87.6855 29.8555 87.6855 29.2402C87.6855 28.4199 87.8245 27.7227 88.1025 27.1484C88.3805 26.5697 88.777 26.1299 89.292 25.8291C89.8115 25.5238 90.429 25.3711 91.1445 25.3711C91.8281 25.3711 92.4251 25.5238 92.9355 25.8291C93.4505 26.1344 93.8493 26.5765 94.1318 27.1553C94.4189 27.7295 94.5625 28.4245 94.5625 29.2402ZM88.8613 29.2402C88.8613 29.8418 88.9411 30.3636 89.1006 30.8057C89.2601 31.2477 89.5062 31.5895 89.8389 31.8311C90.1715 32.0726 90.5999 32.1934 91.124 32.1934C91.6436 32.1934 92.0697 32.0726 92.4023 31.8311C92.7396 31.5895 92.988 31.2477 93.1475 30.8057C93.307 30.3636 93.3867 29.8418 93.3867 29.2402C93.3867 28.6432 93.307 28.1283 93.1475 27.6953C92.988 27.2578 92.7419 26.9206 92.4092 26.6836C92.0765 26.4466 91.6458 26.3281 91.1172 26.3281C90.3379 26.3281 89.766 26.5856 89.4014 27.1006C89.0413 27.6156 88.8613 28.3288 88.8613 29.2402ZM104.659 25.3711C105.484 25.3711 106.106 25.5876 106.525 26.0205C106.945 26.4489 107.154 27.1393 107.154 28.0918V33H106.033V28.1465C106.033 27.5404 105.901 27.0869 105.637 26.7861C105.377 26.4808 104.99 26.3281 104.475 26.3281C103.75 26.3281 103.224 26.5378 102.896 26.957C102.567 27.3763 102.403 27.9938 102.403 28.8096V33H101.275V28.1465C101.275 27.7409 101.216 27.4036 101.098 27.1348C100.984 26.8659 100.811 26.6654 100.578 26.5332C100.35 26.3965 100.061 26.3281 99.71 26.3281C99.2132 26.3281 98.8145 26.4307 98.5137 26.6357C98.2129 26.8408 97.9941 27.1462 97.8574 27.5518C97.7253 27.9528 97.6592 28.4473 97.6592 29.0352V33H96.5244V25.5078H97.4404L97.6113 26.5674H97.6729C97.8232 26.3076 98.0124 26.0889 98.2402 25.9111C98.4681 25.7334 98.7233 25.599 99.0059 25.5078C99.2884 25.4167 99.5892 25.3711 99.9082 25.3711C100.478 25.3711 100.954 25.4782 101.337 25.6924C101.724 25.902 102.005 26.2233 102.178 26.6562H102.239C102.485 26.2233 102.823 25.902 103.251 25.6924C103.679 25.4782 104.149 25.3711 104.659 25.3711ZM113.006 25.3711C113.94 25.3711 114.685 25.6924 115.241 26.335C115.797 26.9775 116.075 27.9437 116.075 29.2334C116.075 30.0856 115.948 30.8011 115.692 31.3799C115.437 31.9587 115.077 32.3962 114.612 32.6924C114.152 32.9886 113.607 33.1367 112.979 33.1367C112.582 33.1367 112.233 33.0843 111.933 32.9795C111.632 32.8747 111.374 32.7334 111.16 32.5557C110.946 32.3779 110.768 32.1842 110.627 31.9746H110.545C110.559 32.1523 110.575 32.3665 110.593 32.6172C110.616 32.8678 110.627 33.0866 110.627 33.2734V36.3496H109.485V25.5078H110.422L110.572 26.6152H110.627C110.773 26.3874 110.951 26.18 111.16 25.9932C111.37 25.8018 111.625 25.6514 111.926 25.542C112.231 25.4281 112.591 25.3711 113.006 25.3711ZM112.808 26.3281C112.288 26.3281 111.869 26.4284 111.55 26.6289C111.235 26.8294 111.005 27.1302 110.859 27.5312C110.714 27.9277 110.636 28.4268 110.627 29.0283V29.2471C110.627 29.8805 110.695 30.416 110.832 30.8535C110.973 31.291 111.203 31.6237 111.522 31.8516C111.846 32.0794 112.279 32.1934 112.821 32.1934C113.286 32.1934 113.674 32.068 113.983 31.8174C114.293 31.5667 114.523 31.2181 114.674 30.7715C114.829 30.3203 114.906 29.8031 114.906 29.2197C114.906 28.3356 114.733 27.6338 114.387 27.1143C114.045 26.5902 113.519 26.3281 112.808 26.3281ZM120.86 25.3848C121.754 25.3848 122.417 25.5853 122.85 25.9863C123.283 26.3874 123.499 27.0277 123.499 27.9072V33H122.672L122.453 31.8926H122.398C122.189 32.166 121.97 32.3962 121.742 32.583C121.514 32.7653 121.25 32.9043 120.949 33C120.653 33.0911 120.288 33.1367 119.855 33.1367C119.4 33.1367 118.994 33.057 118.639 32.8975C118.288 32.738 118.01 32.4964 117.805 32.1729C117.604 31.8493 117.504 31.4391 117.504 30.9424C117.504 30.195 117.8 29.6208 118.393 29.2197C118.985 28.8187 119.887 28.5999 121.1 28.5635L122.392 28.5088V28.0508C122.392 27.4036 122.253 26.9502 121.975 26.6904C121.697 26.4307 121.305 26.3008 120.799 26.3008C120.407 26.3008 120.033 26.3577 119.678 26.4717C119.322 26.5856 118.985 26.7201 118.666 26.875L118.317 26.0137C118.655 25.8405 119.042 25.6924 119.479 25.5693C119.917 25.4463 120.377 25.3848 120.86 25.3848ZM122.378 29.3086L121.236 29.3564C120.302 29.3929 119.644 29.5456 119.261 29.8145C118.878 30.0833 118.687 30.4639 118.687 30.9561C118.687 31.3844 118.816 31.7012 119.076 31.9062C119.336 32.1113 119.68 32.2139 120.108 32.2139C120.774 32.2139 121.318 32.0293 121.742 31.6602C122.166 31.291 122.378 30.7373 122.378 29.999V29.3086ZM129.241 25.3711C129.392 25.3711 129.549 25.3802 129.713 25.3984C129.877 25.4121 130.023 25.4326 130.15 25.46L130.007 26.5127C129.884 26.4808 129.747 26.4557 129.597 26.4375C129.446 26.4193 129.305 26.4102 129.173 26.4102C128.872 26.4102 128.587 26.4717 128.318 26.5947C128.054 26.7132 127.822 26.8864 127.621 27.1143C127.421 27.3376 127.263 27.6087 127.149 27.9277C127.035 28.2422 126.979 28.5931 126.979 28.9805V33H125.837V25.5078H126.78L126.903 26.8887H126.951C127.106 26.6107 127.293 26.3577 127.512 26.1299C127.73 25.8975 127.983 25.7129 128.271 25.5762C128.562 25.4395 128.886 25.3711 129.241 25.3711ZM134.45 25.3711C135.088 25.3711 135.635 25.5124 136.091 25.7949C136.547 26.0775 136.895 26.474 137.137 26.9844C137.378 27.4902 137.499 28.0827 137.499 28.7617V29.4658H132.324C132.338 30.3454 132.557 31.0153 132.98 31.4756C133.404 31.9359 134.001 32.166 134.771 32.166C135.245 32.166 135.665 32.1227 136.029 32.0361C136.394 31.9495 136.772 31.8219 137.164 31.6533V32.6514C136.786 32.82 136.41 32.943 136.036 33.0205C135.667 33.098 135.229 33.1367 134.724 33.1367C134.004 33.1367 133.375 32.9909 132.837 32.6992C132.304 32.403 131.889 31.9701 131.593 31.4004C131.297 30.8307 131.148 30.1335 131.148 29.3086C131.148 28.502 131.283 27.8047 131.552 27.2168C131.825 26.6243 132.208 26.1686 132.7 25.8496C133.197 25.5306 133.78 25.3711 134.45 25.3711ZM134.437 26.3008C133.83 26.3008 133.347 26.499 132.987 26.8955C132.627 27.292 132.413 27.8457 132.345 28.5566H136.31C136.305 28.11 136.234 27.7181 136.098 27.3809C135.965 27.0391 135.763 26.7747 135.489 26.5879C135.216 26.3965 134.865 26.3008 134.437 26.3008ZM151.198 25.3711C152.023 25.3711 152.645 25.5876 153.064 26.0205C153.484 26.4489 153.693 27.1393 153.693 28.0918V33H152.572V28.1465C152.572 27.5404 152.44 27.0869 152.176 26.7861C151.916 26.4808 151.529 26.3281 151.014 26.3281C150.289 26.3281 149.763 26.5378 149.435 26.957C149.106 27.3763 148.942 27.9938 148.942 28.8096V33H147.814V28.1465C147.814 27.7409 147.755 27.4036 147.637 27.1348C147.523 26.8659 147.35 26.6654 147.117 26.5332C146.889 26.3965 146.6 26.3281 146.249 26.3281C145.752 26.3281 145.354 26.4307 145.053 26.6357C144.752 26.8408 144.533 27.1462 144.396 27.5518C144.264 27.9528 144.198 28.4473 144.198 29.0352V33H143.063V25.5078H143.979L144.15 26.5674H144.212C144.362 26.3076 144.551 26.0889 144.779 25.9111C145.007 25.7334 145.262 25.599 145.545 25.5078C145.827 25.4167 146.128 25.3711 146.447 25.3711C147.017 25.3711 147.493 25.4782 147.876 25.6924C148.263 25.902 148.544 26.2233 148.717 26.6562H148.778C149.024 26.2233 149.362 25.902 149.79 25.6924C150.218 25.4782 150.688 25.3711 151.198 25.3711ZM162.484 29.2402C162.484 29.8555 162.405 30.4046 162.245 30.8877C162.086 31.3708 161.855 31.7786 161.555 32.1113C161.254 32.444 160.889 32.6992 160.461 32.877C160.037 33.0501 159.556 33.1367 159.019 33.1367C158.517 33.1367 158.057 33.0501 157.638 32.877C157.223 32.6992 156.863 32.444 156.558 32.1113C156.257 31.7786 156.022 31.3708 155.854 30.8877C155.689 30.4046 155.607 29.8555 155.607 29.2402C155.607 28.4199 155.746 27.7227 156.024 27.1484C156.302 26.5697 156.699 26.1299 157.214 25.8291C157.733 25.5238 158.351 25.3711 159.066 25.3711C159.75 25.3711 160.347 25.5238 160.857 25.8291C161.372 26.1344 161.771 26.5765 162.054 27.1553C162.341 27.7295 162.484 28.4245 162.484 29.2402ZM156.783 29.2402C156.783 29.8418 156.863 30.3636 157.022 30.8057C157.182 31.2477 157.428 31.5895 157.761 31.8311C158.093 32.0726 158.522 32.1934 159.046 32.1934C159.565 32.1934 159.992 32.0726 160.324 31.8311C160.661 31.5895 160.91 31.2477 161.069 30.8057C161.229 30.3636 161.309 29.8418 161.309 29.2402C161.309 28.6432 161.229 28.1283 161.069 27.6953C160.91 27.2578 160.664 26.9206 160.331 26.6836C159.998 26.4466 159.568 26.3281 159.039 26.3281C158.26 26.3281 157.688 26.5856 157.323 27.1006C156.963 27.6156 156.783 28.3288 156.783 29.2402ZM167.851 25.3711C168.001 25.3711 168.158 25.3802 168.322 25.3984C168.486 25.4121 168.632 25.4326 168.76 25.46L168.616 26.5127C168.493 26.4808 168.356 26.4557 168.206 26.4375C168.056 26.4193 167.914 26.4102 167.782 26.4102C167.481 26.4102 167.197 26.4717 166.928 26.5947C166.663 26.7132 166.431 26.8864 166.23 27.1143C166.03 27.3376 165.873 27.6087 165.759 27.9277C165.645 28.2422 165.588 28.5931 165.588 28.9805V33H164.446V25.5078H165.39L165.513 26.8887H165.561C165.715 26.6107 165.902 26.3577 166.121 26.1299C166.34 25.8975 166.593 25.7129 166.88 25.5762C167.172 25.4395 167.495 25.3711 167.851 25.3711ZM173.06 25.3711C173.698 25.3711 174.244 25.5124 174.7 25.7949C175.156 26.0775 175.505 26.474 175.746 26.9844C175.988 27.4902 176.108 28.0827 176.108 28.7617V29.4658H170.934C170.947 30.3454 171.166 31.0153 171.59 31.4756C172.014 31.9359 172.611 32.166 173.381 32.166C173.855 32.166 174.274 32.1227 174.639 32.0361C175.003 31.9495 175.382 31.8219 175.773 31.6533V32.6514C175.395 32.82 175.019 32.943 174.646 33.0205C174.276 33.098 173.839 33.1367 173.333 33.1367C172.613 33.1367 171.984 32.9909 171.446 32.6992C170.913 32.403 170.498 31.9701 170.202 31.4004C169.906 30.8307 169.758 30.1335 169.758 29.3086C169.758 28.502 169.892 27.8047 170.161 27.2168C170.435 26.6243 170.817 26.1686 171.31 25.8496C171.806 25.5306 172.39 25.3711 173.06 25.3711ZM173.046 26.3008C172.44 26.3008 171.957 26.499 171.597 26.8955C171.237 27.292 171.022 27.8457 170.954 28.5566H174.919C174.914 28.11 174.844 27.7181 174.707 27.3809C174.575 27.0391 174.372 26.7747 174.099 26.5879C173.825 26.3965 173.474 26.3008 173.046 26.3008ZM184.093 32.207C184.28 32.207 184.471 32.1911 184.667 32.1592C184.863 32.1273 185.022 32.0885 185.146 32.043V32.9248C185.013 32.984 184.829 33.0342 184.592 33.0752C184.359 33.1162 184.132 33.1367 183.908 33.1367C183.512 33.1367 183.152 33.0684 182.828 32.9316C182.505 32.7904 182.245 32.5534 182.049 32.2207C181.857 31.888 181.762 31.4277 181.762 30.8398V26.3965H180.695V25.8428L181.769 25.3984L182.22 23.7715H182.903V25.5078H185.098V26.3965H182.903V30.8057C182.903 31.2751 183.01 31.626 183.225 31.8584C183.443 32.0908 183.733 32.207 184.093 32.207ZM187.798 22.3633V25.542C187.798 25.7243 187.793 25.9089 187.784 26.0957C187.775 26.278 187.759 26.4466 187.736 26.6016H187.812C187.966 26.3372 188.162 26.1162 188.399 25.9385C188.641 25.7562 188.914 25.6195 189.22 25.5283C189.525 25.4326 189.849 25.3848 190.19 25.3848C190.792 25.3848 191.293 25.4805 191.694 25.6719C192.1 25.8633 192.403 26.1595 192.604 26.5605C192.809 26.9616 192.911 27.4811 192.911 28.1191V33H191.79V28.1943C191.79 27.57 191.646 27.1029 191.359 26.793C191.077 26.4831 190.642 26.3281 190.054 26.3281C189.498 26.3281 189.053 26.4352 188.721 26.6494C188.393 26.859 188.156 27.1689 188.01 27.5791C187.868 27.9893 187.798 28.4906 187.798 29.083V33H186.663V22.3633H187.798ZM198.052 25.3848C198.945 25.3848 199.608 25.5853 200.041 25.9863C200.474 26.3874 200.69 27.0277 200.69 27.9072V33H199.863L199.645 31.8926H199.59C199.38 32.166 199.161 32.3962 198.934 32.583C198.706 32.7653 198.441 32.9043 198.141 33C197.844 33.0911 197.48 33.1367 197.047 33.1367C196.591 33.1367 196.186 33.057 195.83 32.8975C195.479 32.738 195.201 32.4964 194.996 32.1729C194.796 31.8493 194.695 31.4391 194.695 30.9424C194.695 30.195 194.992 29.6208 195.584 29.2197C196.176 28.8187 197.079 28.5999 198.291 28.5635L199.583 28.5088V28.0508C199.583 27.4036 199.444 26.9502 199.166 26.6904C198.888 26.4307 198.496 26.3008 197.99 26.3008C197.598 26.3008 197.225 26.3577 196.869 26.4717C196.514 26.5856 196.176 26.7201 195.857 26.875L195.509 26.0137C195.846 25.8405 196.233 25.6924 196.671 25.5693C197.108 25.4463 197.569 25.3848 198.052 25.3848ZM199.569 29.3086L198.428 29.3564C197.493 29.3929 196.835 29.5456 196.452 29.8145C196.069 30.0833 195.878 30.4639 195.878 30.9561C195.878 31.3844 196.008 31.7012 196.268 31.9062C196.527 32.1113 196.871 32.2139 197.3 32.2139C197.965 32.2139 198.51 32.0293 198.934 31.6602C199.357 31.291 199.569 30.7373 199.569 29.999V29.3086ZM206.576 25.3711C207.465 25.3711 208.137 25.5898 208.593 26.0273C209.049 26.4603 209.276 27.1576 209.276 28.1191V33H208.155V28.1943C208.155 27.57 208.012 27.1029 207.725 26.793C207.442 26.4831 207.007 26.3281 206.419 26.3281C205.59 26.3281 205.006 26.5628 204.669 27.0322C204.332 27.5016 204.163 28.1829 204.163 29.0762V33H203.028V25.5078H203.944L204.115 26.5879H204.177C204.336 26.3236 204.539 26.1025 204.785 25.9248C205.031 25.7425 205.307 25.6058 205.612 25.5146C205.918 25.4189 206.239 25.3711 206.576 25.3711ZM221.793 30.6826H220.296V33H219.188V30.6826H214.355V29.7256L219.113 22.9512H220.296V29.6572H221.793V30.6826ZM219.188 29.6572V26.3896C219.188 26.139 219.191 25.9134 219.195 25.7129C219.2 25.5078 219.207 25.3187 219.216 25.1455C219.225 24.9678 219.232 24.7992 219.236 24.6396C219.245 24.4801 219.252 24.3229 219.257 24.168H219.202C219.116 24.3503 219.015 24.5439 218.901 24.749C218.792 24.9495 218.68 25.1296 218.566 25.2891L215.483 29.6572H219.188ZM51.6396 49.3848C52.5329 49.3848 53.196 49.5853 53.6289 49.9863C54.0618 50.3874 54.2783 51.0277 54.2783 51.9072V57H53.4512L53.2324 55.8926H53.1777C52.9681 56.166 52.7493 56.3962 52.5215 56.583C52.2936 56.7653 52.0293 56.9043 51.7285 57C51.4323 57.0911 51.0677 57.1367 50.6348 57.1367C50.179 57.1367 49.7734 57.057 49.418 56.8975C49.0671 56.738 48.7891 56.4964 48.584 56.1729C48.3835 55.8493 48.2832 55.4391 48.2832 54.9424C48.2832 54.195 48.5794 53.6208 49.1719 53.2197C49.7643 52.8187 50.6667 52.5999 51.8789 52.5635L53.1709 52.5088V52.0508C53.1709 51.4036 53.0319 50.9502 52.7539 50.6904C52.4759 50.4307 52.084 50.3008 51.5781 50.3008C51.1862 50.3008 50.8125 50.3577 50.457 50.4717C50.1016 50.5856 49.7643 50.7201 49.4453 50.875L49.0967 50.0137C49.4339 49.8405 49.8213 49.6924 50.2588 49.5693C50.6963 49.4463 51.1566 49.3848 51.6396 49.3848ZM53.1572 53.3086L52.0156 53.3564C51.0814 53.3929 50.4229 53.5456 50.04 53.8145C49.6572 54.0833 49.4658 54.4639 49.4658 54.9561C49.4658 55.3844 49.5957 55.7012 49.8555 55.9062C50.1152 56.1113 50.4593 56.2139 50.8877 56.2139C51.5531 56.2139 52.0977 56.0293 52.5215 55.6602C52.9453 55.291 53.1572 54.7373 53.1572 53.999V53.3086ZM59.2822 57.1367C58.3343 57.1367 57.5824 56.8132 57.0264 56.166C56.4749 55.5189 56.1992 54.5573 56.1992 53.2812C56.1992 51.9915 56.4818 51.0186 57.0469 50.3623C57.612 49.7015 58.3639 49.3711 59.3027 49.3711C59.6992 49.3711 60.0456 49.4235 60.3418 49.5283C60.638 49.6331 60.8932 49.7744 61.1074 49.9521C61.3216 50.1253 61.5016 50.3236 61.6475 50.5469H61.7295C61.7113 50.4056 61.693 50.2119 61.6748 49.9658C61.6566 49.7197 61.6475 49.5192 61.6475 49.3643V46.3633H62.7822V57H61.8662L61.6953 55.9336H61.6475C61.5062 56.1569 61.3262 56.3597 61.1074 56.542C60.8932 56.7243 60.6357 56.8701 60.335 56.9795C60.0387 57.0843 59.6878 57.1367 59.2822 57.1367ZM59.46 56.1934C60.262 56.1934 60.8294 55.9655 61.1621 55.5098C61.4948 55.054 61.6611 54.3773 61.6611 53.4795V53.2744C61.6611 52.3219 61.5016 51.5905 61.1826 51.0801C60.8682 50.5697 60.2939 50.3145 59.46 50.3145C58.7627 50.3145 58.2409 50.5833 57.8945 51.1211C57.5482 51.6543 57.375 52.3835 57.375 53.3086C57.375 54.2292 57.5459 54.9401 57.8877 55.4414C58.234 55.9427 58.7581 56.1934 59.46 56.1934ZM70.0352 54.9492C70.0352 55.4277 69.9144 55.8311 69.6729 56.1592C69.4359 56.4827 69.0941 56.7266 68.6475 56.8906C68.2054 57.0547 67.6768 57.1367 67.0615 57.1367C66.5374 57.1367 66.084 57.0957 65.7012 57.0137C65.3184 56.9316 64.9834 56.8154 64.6963 56.665V55.6191C65.0016 55.7695 65.3662 55.9062 65.79 56.0293C66.2139 56.1523 66.6468 56.2139 67.0889 56.2139C67.736 56.2139 68.2054 56.109 68.4971 55.8994C68.7887 55.6898 68.9346 55.4049 68.9346 55.0449C68.9346 54.8398 68.8753 54.6598 68.7568 54.5049C68.6429 54.3454 68.4492 54.1927 68.1758 54.0469C67.9023 53.8965 67.5241 53.7324 67.041 53.5547C66.5625 53.3724 66.1478 53.1924 65.7969 53.0146C65.4505 52.8324 65.1816 52.6113 64.9902 52.3516C64.8034 52.0918 64.71 51.7546 64.71 51.3398C64.71 50.7064 64.9652 50.221 65.4756 49.8838C65.9906 49.542 66.665 49.3711 67.499 49.3711C67.9502 49.3711 68.3717 49.4167 68.7637 49.5078C69.1602 49.5944 69.5293 49.7129 69.8711 49.8633L69.4883 50.7725C69.1784 50.6403 68.848 50.5286 68.4971 50.4375C68.1462 50.3464 67.7884 50.3008 67.4238 50.3008C66.8997 50.3008 66.4964 50.3874 66.2139 50.5605C65.9359 50.7337 65.7969 50.9707 65.7969 51.2715C65.7969 51.5039 65.8607 51.6953 65.9883 51.8457C66.1204 51.9961 66.3301 52.1374 66.6172 52.2695C66.9043 52.4017 67.2826 52.5566 67.752 52.7344C68.2214 52.9076 68.627 53.0876 68.9688 53.2744C69.3105 53.4567 69.5726 53.68 69.7549 53.9443C69.9417 54.2041 70.0352 54.5391 70.0352 54.9492ZM78.2998 49.3848C79.193 49.3848 79.8561 49.5853 80.2891 49.9863C80.722 50.3874 80.9385 51.0277 80.9385 51.9072V57H80.1113L79.8926 55.8926H79.8379C79.6283 56.166 79.4095 56.3962 79.1816 56.583C78.9538 56.7653 78.6895 56.9043 78.3887 57C78.0924 57.0911 77.7279 57.1367 77.2949 57.1367C76.8392 57.1367 76.4336 57.057 76.0781 56.8975C75.7272 56.738 75.4492 56.4964 75.2441 56.1729C75.0436 55.8493 74.9434 55.4391 74.9434 54.9424C74.9434 54.195 75.2396 53.6208 75.832 53.2197C76.4245 52.8187 77.3268 52.5999 78.5391 52.5635L79.8311 52.5088V52.0508C79.8311 51.4036 79.6921 50.9502 79.4141 50.6904C79.1361 50.4307 78.7441 50.3008 78.2383 50.3008C77.8464 50.3008 77.4727 50.3577 77.1172 50.4717C76.7617 50.5856 76.4245 50.7201 76.1055 50.875L75.7568 50.0137C76.0941 49.8405 76.4814 49.6924 76.9189 49.5693C77.3564 49.4463 77.8167 49.3848 78.2998 49.3848ZM79.8174 53.3086L78.6758 53.3564C77.7415 53.3929 77.083 53.5456 76.7002 53.8145C76.3174 54.0833 76.126 54.4639 76.126 54.9561C76.126 55.3844 76.2559 55.7012 76.5156 55.9062C76.7754 56.1113 77.1195 56.2139 77.5479 56.2139C78.2132 56.2139 78.7578 56.0293 79.1816 55.6602C79.6055 55.291 79.8174 54.7373 79.8174 53.999V53.3086ZM85.6963 56.207C85.8831 56.207 86.0745 56.1911 86.2705 56.1592C86.4665 56.1273 86.626 56.0885 86.749 56.043V56.9248C86.6169 56.984 86.4323 57.0342 86.1953 57.0752C85.9629 57.1162 85.735 57.1367 85.5117 57.1367C85.1152 57.1367 84.7552 57.0684 84.4316 56.9316C84.1081 56.7904 83.8483 56.5534 83.6523 56.2207C83.4609 55.888 83.3652 55.4277 83.3652 54.8398V50.3965H82.2988V49.8428L83.3721 49.3984L83.8232 47.7715H84.5068V49.5078H86.7012V50.3965H84.5068V54.8057C84.5068 55.2751 84.6139 55.626 84.8281 55.8584C85.0469 56.0908 85.3363 56.207 85.6963 56.207ZM94.3232 56.207C94.5101 56.207 94.7015 56.1911 94.8975 56.1592C95.0934 56.1273 95.2529 56.0885 95.376 56.043V56.9248C95.2438 56.984 95.0592 57.0342 94.8223 57.0752C94.5898 57.1162 94.362 57.1367 94.1387 57.1367C93.7422 57.1367 93.3822 57.0684 93.0586 56.9316C92.735 56.7904 92.4753 56.5534 92.2793 56.2207C92.0879 55.888 91.9922 55.4277 91.9922 54.8398V50.3965H90.9258V49.8428L91.999 49.3984L92.4502 47.7715H93.1338V49.5078H95.3281V50.3965H93.1338V54.8057C93.1338 55.2751 93.2409 55.626 93.4551 55.8584C93.6738 56.0908 93.9632 56.207 94.3232 56.207ZM98.0283 46.3633V49.542C98.0283 49.7243 98.0238 49.9089 98.0146 50.0957C98.0055 50.278 97.9896 50.4466 97.9668 50.6016H98.042C98.1969 50.3372 98.3929 50.1162 98.6299 49.9385C98.8714 49.7562 99.1449 49.6195 99.4502 49.5283C99.7555 49.4326 100.079 49.3848 100.421 49.3848C101.022 49.3848 101.524 49.4805 101.925 49.6719C102.33 49.8633 102.633 50.1595 102.834 50.5605C103.039 50.9616 103.142 51.4811 103.142 52.1191V57H102.021V52.1943C102.021 51.57 101.877 51.1029 101.59 50.793C101.307 50.4831 100.872 50.3281 100.284 50.3281C99.7282 50.3281 99.2839 50.4352 98.9512 50.6494C98.623 50.859 98.3861 51.1689 98.2402 51.5791C98.099 51.9893 98.0283 52.4906 98.0283 53.083V57H96.8936V46.3633H98.0283ZM108.364 49.3711C109.002 49.3711 109.549 49.5124 110.005 49.7949C110.461 50.0775 110.809 50.474 111.051 50.9844C111.292 51.4902 111.413 52.0827 111.413 52.7617V53.4658H106.238C106.252 54.3454 106.471 55.0153 106.895 55.4756C107.318 55.9359 107.915 56.166 108.686 56.166C109.16 56.166 109.579 56.1227 109.943 56.0361C110.308 55.9495 110.686 55.8219 111.078 55.6533V56.6514C110.7 56.82 110.324 56.943 109.95 57.0205C109.581 57.098 109.144 57.1367 108.638 57.1367C107.918 57.1367 107.289 56.9909 106.751 56.6992C106.218 56.403 105.803 55.9701 105.507 55.4004C105.211 54.8307 105.062 54.1335 105.062 53.3086C105.062 52.502 105.197 51.8047 105.466 51.2168C105.739 50.6243 106.122 50.1686 106.614 49.8496C107.111 49.5306 107.694 49.3711 108.364 49.3711ZM108.351 50.3008C107.744 50.3008 107.261 50.499 106.901 50.8955C106.541 51.292 106.327 51.8457 106.259 52.5566H110.224C110.219 52.11 110.148 51.7181 110.012 51.3809C109.88 51.0391 109.677 50.7747 109.403 50.5879C109.13 50.3965 108.779 50.3008 108.351 50.3008ZM121.824 54.9492C121.824 55.4277 121.703 55.8311 121.462 56.1592C121.225 56.4827 120.883 56.7266 120.437 56.8906C119.994 57.0547 119.466 57.1367 118.851 57.1367C118.326 57.1367 117.873 57.0957 117.49 57.0137C117.107 56.9316 116.772 56.8154 116.485 56.665V55.6191C116.791 55.7695 117.155 55.9062 117.579 56.0293C118.003 56.1523 118.436 56.2139 118.878 56.2139C119.525 56.2139 119.994 56.109 120.286 55.8994C120.578 55.6898 120.724 55.4049 120.724 55.0449C120.724 54.8398 120.664 54.6598 120.546 54.5049C120.432 54.3454 120.238 54.1927 119.965 54.0469C119.691 53.8965 119.313 53.7324 118.83 53.5547C118.352 53.3724 117.937 53.1924 117.586 53.0146C117.24 52.8324 116.971 52.6113 116.779 52.3516C116.592 52.0918 116.499 51.7546 116.499 51.3398C116.499 50.7064 116.754 50.221 117.265 49.8838C117.78 49.542 118.454 49.3711 119.288 49.3711C119.739 49.3711 120.161 49.4167 120.553 49.5078C120.949 49.5944 121.318 49.7129 121.66 49.8633L121.277 50.7725C120.967 50.6403 120.637 50.5286 120.286 50.4375C119.935 50.3464 119.577 50.3008 119.213 50.3008C118.689 50.3008 118.285 50.3874 118.003 50.5605C117.725 50.7337 117.586 50.9707 117.586 51.2715C117.586 51.5039 117.65 51.6953 117.777 51.8457C117.91 51.9961 118.119 52.1374 118.406 52.2695C118.693 52.4017 119.072 52.5566 119.541 52.7344C120.01 52.9076 120.416 53.0876 120.758 53.2744C121.1 53.4567 121.362 53.68 121.544 53.9443C121.731 54.2041 121.824 54.5391 121.824 54.9492ZM126.452 49.3848C127.345 49.3848 128.008 49.5853 128.441 49.9863C128.874 50.3874 129.091 51.0277 129.091 51.9072V57H128.264L128.045 55.8926H127.99C127.781 56.166 127.562 56.3962 127.334 56.583C127.106 56.7653 126.842 56.9043 126.541 57C126.245 57.0911 125.88 57.1367 125.447 57.1367C124.992 57.1367 124.586 57.057 124.23 56.8975C123.88 56.738 123.602 56.4964 123.396 56.1729C123.196 55.8493 123.096 55.4391 123.096 54.9424C123.096 54.195 123.392 53.6208 123.984 53.2197C124.577 52.8187 125.479 52.5999 126.691 52.5635L127.983 52.5088V52.0508C127.983 51.4036 127.844 50.9502 127.566 50.6904C127.288 50.4307 126.896 50.3008 126.391 50.3008C125.999 50.3008 125.625 50.3577 125.27 50.4717C124.914 50.5856 124.577 50.7201 124.258 50.875L123.909 50.0137C124.246 49.8405 124.634 49.6924 125.071 49.5693C125.509 49.4463 125.969 49.3848 126.452 49.3848ZM127.97 53.3086L126.828 53.3564C125.894 53.3929 125.235 53.5456 124.853 53.8145C124.47 54.0833 124.278 54.4639 124.278 54.9561C124.278 55.3844 124.408 55.7012 124.668 55.9062C124.928 56.1113 125.272 56.2139 125.7 56.2139C126.366 56.2139 126.91 56.0293 127.334 55.6602C127.758 55.291 127.97 54.7373 127.97 53.999V53.3086ZM139.563 49.3711C140.388 49.3711 141.01 49.5876 141.43 50.0205C141.849 50.4489 142.059 51.1393 142.059 52.0918V57H140.938V52.1465C140.938 51.5404 140.805 51.0869 140.541 50.7861C140.281 50.4808 139.894 50.3281 139.379 50.3281C138.654 50.3281 138.128 50.5378 137.8 50.957C137.472 51.3763 137.308 51.9938 137.308 52.8096V57H136.18V52.1465C136.18 51.7409 136.12 51.4036 136.002 51.1348C135.888 50.8659 135.715 50.6654 135.482 50.5332C135.255 50.3965 134.965 50.3281 134.614 50.3281C134.118 50.3281 133.719 50.4307 133.418 50.6357C133.117 50.8408 132.898 51.1462 132.762 51.5518C132.63 51.9528 132.563 52.4473 132.563 53.0352V57H131.429V49.5078H132.345L132.516 50.5674H132.577C132.728 50.3076 132.917 50.0889 133.145 49.9111C133.372 49.7334 133.628 49.599 133.91 49.5078C134.193 49.4167 134.493 49.3711 134.812 49.3711C135.382 49.3711 135.858 49.4782 136.241 49.6924C136.629 49.902 136.909 50.2233 137.082 50.6562H137.144C137.39 50.2233 137.727 49.902 138.155 49.6924C138.584 49.4782 139.053 49.3711 139.563 49.3711ZM147.274 49.3711C147.912 49.3711 148.459 49.5124 148.915 49.7949C149.371 50.0775 149.719 50.474 149.961 50.9844C150.202 51.4902 150.323 52.0827 150.323 52.7617V53.4658H145.148C145.162 54.3454 145.381 55.0153 145.805 55.4756C146.229 55.9359 146.826 56.166 147.596 56.166C148.07 56.166 148.489 56.1227 148.854 56.0361C149.218 55.9495 149.596 55.8219 149.988 55.6533V56.6514C149.61 56.82 149.234 56.943 148.86 57.0205C148.491 57.098 148.054 57.1367 147.548 57.1367C146.828 57.1367 146.199 56.9909 145.661 56.6992C145.128 56.403 144.713 55.9701 144.417 55.4004C144.121 54.8307 143.973 54.1335 143.973 53.3086C143.973 52.502 144.107 51.8047 144.376 51.2168C144.649 50.6243 145.032 50.1686 145.524 49.8496C146.021 49.5306 146.604 49.3711 147.274 49.3711ZM147.261 50.3008C146.655 50.3008 146.172 50.499 145.812 50.8955C145.451 51.292 145.237 51.8457 145.169 52.5566H149.134C149.129 52.11 149.059 51.7181 148.922 51.3809C148.79 51.0391 148.587 50.7747 148.313 50.5879C148.04 50.3965 147.689 50.3008 147.261 50.3008ZM158.308 56.207C158.494 56.207 158.686 56.1911 158.882 56.1592C159.078 56.1273 159.237 56.0885 159.36 56.043V56.9248C159.228 56.984 159.044 57.0342 158.807 57.0752C158.574 57.1162 158.346 57.1367 158.123 57.1367C157.727 57.1367 157.367 57.0684 157.043 56.9316C156.719 56.7904 156.46 56.5534 156.264 56.2207C156.072 55.888 155.977 55.4277 155.977 54.8398V50.3965H154.91V49.8428L155.983 49.3984L156.435 47.7715H157.118V49.5078H159.312V50.3965H157.118V54.8057C157.118 55.2751 157.225 55.626 157.439 55.8584C157.658 56.0908 157.948 56.207 158.308 56.207ZM162.013 49.5078V57H160.878V49.5078H162.013ZM161.459 46.7051C161.646 46.7051 161.805 46.7666 161.938 46.8896C162.074 47.0081 162.143 47.195 162.143 47.4502C162.143 47.7008 162.074 47.8877 161.938 48.0107C161.805 48.1338 161.646 48.1953 161.459 48.1953C161.263 48.1953 161.099 48.1338 160.967 48.0107C160.839 47.8877 160.775 47.7008 160.775 47.4502C160.775 47.195 160.839 47.0081 160.967 46.8896C161.099 46.7666 161.263 46.7051 161.459 46.7051ZM172.554 49.3711C173.379 49.3711 174.001 49.5876 174.42 50.0205C174.839 50.4489 175.049 51.1393 175.049 52.0918V57H173.928V52.1465C173.928 51.5404 173.796 51.0869 173.531 50.7861C173.271 50.4808 172.884 50.3281 172.369 50.3281C171.645 50.3281 171.118 50.5378 170.79 50.957C170.462 51.3763 170.298 51.9938 170.298 52.8096V57H169.17V52.1465C169.17 51.7409 169.111 51.4036 168.992 51.1348C168.878 50.8659 168.705 50.6654 168.473 50.5332C168.245 50.3965 167.955 50.3281 167.604 50.3281C167.108 50.3281 166.709 50.4307 166.408 50.6357C166.107 50.8408 165.889 51.1462 165.752 51.5518C165.62 51.9528 165.554 52.4473 165.554 53.0352V57H164.419V49.5078H165.335L165.506 50.5674H165.567C165.718 50.3076 165.907 50.0889 166.135 49.9111C166.363 49.7334 166.618 49.599 166.9 49.5078C167.183 49.4167 167.484 49.3711 167.803 49.3711C168.372 49.3711 168.849 49.4782 169.231 49.6924C169.619 49.902 169.899 50.2233 170.072 50.6562H170.134C170.38 50.2233 170.717 49.902 171.146 49.6924C171.574 49.4782 172.043 49.3711 172.554 49.3711ZM180.265 49.3711C180.903 49.3711 181.45 49.5124 181.905 49.7949C182.361 50.0775 182.71 50.474 182.951 50.9844C183.193 51.4902 183.313 52.0827 183.313 52.7617V53.4658H178.139C178.152 54.3454 178.371 55.0153 178.795 55.4756C179.219 55.9359 179.816 56.166 180.586 56.166C181.06 56.166 181.479 56.1227 181.844 56.0361C182.208 55.9495 182.587 55.8219 182.979 55.6533V56.6514C182.6 56.82 182.224 56.943 181.851 57.0205C181.481 57.098 181.044 57.1367 180.538 57.1367C179.818 57.1367 179.189 56.9909 178.651 56.6992C178.118 56.403 177.703 55.9701 177.407 55.4004C177.111 54.8307 176.963 54.1335 176.963 53.3086C176.963 52.502 177.097 51.8047 177.366 51.2168C177.64 50.6243 178.022 50.1686 178.515 49.8496C179.011 49.5306 179.595 49.3711 180.265 49.3711ZM180.251 50.3008C179.645 50.3008 179.162 50.499 178.802 50.8955C178.442 51.292 178.228 51.8457 178.159 52.5566H182.124C182.119 52.11 182.049 51.7181 181.912 51.3809C181.78 51.0391 181.577 50.7747 181.304 50.5879C181.03 50.3965 180.679 50.3008 180.251 50.3008ZM185.07 56.2891C185.07 55.9701 185.148 55.7445 185.303 55.6123C185.458 55.4756 185.647 55.4072 185.87 55.4072C186.103 55.4072 186.299 55.4756 186.458 55.6123C186.618 55.7445 186.697 55.9701 186.697 56.2891C186.697 56.6035 186.618 56.8337 186.458 56.9795C186.299 57.1208 186.103 57.1914 185.87 57.1914C185.647 57.1914 185.458 57.1208 185.303 56.9795C185.148 56.8337 185.07 56.6035 185.07 56.2891ZM40.8047 75.9072C40.8047 77.0329 40.5996 77.974 40.1895 78.7305C39.7793 79.4824 39.1846 80.0498 38.4053 80.4326C37.6305 80.8109 36.6895 81 35.582 81H32.8682V71.0059H35.8828C36.8991 71.0059 37.7741 71.1927 38.5078 71.5664C39.2415 71.9355 39.8066 72.4847 40.2031 73.2139C40.6042 73.9385 40.8047 74.8363 40.8047 75.9072ZM39.5811 75.9482C39.5811 75.0505 39.4307 74.3099 39.1299 73.7266C38.8337 73.1432 38.3962 72.7103 37.8174 72.4277C37.2432 72.1406 36.5391 71.9971 35.7051 71.9971H34.0303V80.002H35.4453C36.8216 80.002 37.8538 79.6624 38.542 78.9834C39.2347 78.3044 39.5811 77.2926 39.5811 75.9482ZM45.7402 73.3711C46.3783 73.3711 46.9251 73.5124 47.3809 73.7949C47.8366 74.0775 48.1852 74.474 48.4268 74.9844C48.6683 75.4902 48.7891 76.0827 48.7891 76.7617V77.4658H43.6143C43.6279 78.3454 43.8467 79.0153 44.2705 79.4756C44.6943 79.9359 45.2913 80.166 46.0615 80.166C46.5355 80.166 46.9548 80.1227 47.3193 80.0361C47.6839 79.9495 48.0622 79.8219 48.4541 79.6533V80.6514C48.0758 80.82 47.6999 80.943 47.3262 81.0205C46.957 81.098 46.5195 81.1367 46.0137 81.1367C45.2936 81.1367 44.6647 80.9909 44.127 80.6992C43.5938 80.403 43.179 79.9701 42.8828 79.4004C42.5866 78.8307 42.4385 78.1335 42.4385 77.3086C42.4385 76.502 42.5729 75.8047 42.8418 75.2168C43.1152 74.6243 43.498 74.1686 43.9902 73.8496C44.487 73.5306 45.0703 73.3711 45.7402 73.3711ZM45.7266 74.3008C45.1204 74.3008 44.6374 74.499 44.2773 74.8955C43.9173 75.292 43.7031 75.8457 43.6348 76.5566H47.5996C47.5951 76.11 47.5244 75.7181 47.3877 75.3809C47.2555 75.0391 47.0527 74.7747 46.7793 74.5879C46.5059 74.3965 46.1549 74.3008 45.7266 74.3008ZM51.8584 81H50.7168V70.3633H51.8584V81ZM57.1426 73.3711C57.7806 73.3711 58.3275 73.5124 58.7832 73.7949C59.2389 74.0775 59.5876 74.474 59.8291 74.9844C60.0706 75.4902 60.1914 76.0827 60.1914 76.7617V77.4658H55.0166C55.0303 78.3454 55.249 79.0153 55.6729 79.4756C56.0967 79.9359 56.6937 80.166 57.4639 80.166C57.9378 80.166 58.3571 80.1227 58.7217 80.0361C59.0863 79.9495 59.4645 79.8219 59.8564 79.6533V80.6514C59.4782 80.82 59.1022 80.943 58.7285 81.0205C58.3594 81.098 57.9219 81.1367 57.416 81.1367C56.696 81.1367 56.0671 80.9909 55.5293 80.6992C54.9961 80.403 54.5814 79.9701 54.2852 79.4004C53.9889 78.8307 53.8408 78.1335 53.8408 77.3086C53.8408 76.502 53.9753 75.8047 54.2441 75.2168C54.5176 74.6243 54.9004 74.1686 55.3926 73.8496C55.8893 73.5306 56.4727 73.3711 57.1426 73.3711ZM57.1289 74.3008C56.5228 74.3008 56.0397 74.499 55.6797 74.8955C55.3197 75.292 55.1055 75.8457 55.0371 76.5566H59.002C58.9974 76.11 58.9268 75.7181 58.79 75.3809C58.6579 75.0391 58.4551 74.7747 58.1816 74.5879C57.9082 74.3965 57.5573 74.3008 57.1289 74.3008ZM64.5391 80.207C64.7259 80.207 64.9173 80.1911 65.1133 80.1592C65.3092 80.1273 65.4688 80.0885 65.5918 80.043V80.9248C65.4596 80.984 65.2751 81.0342 65.0381 81.0752C64.8057 81.1162 64.5778 81.1367 64.3545 81.1367C63.958 81.1367 63.598 81.0684 63.2744 80.9316C62.9508 80.7904 62.6911 80.5534 62.4951 80.2207C62.3037 79.888 62.208 79.4277 62.208 78.8398V74.3965H61.1416V73.8428L62.2148 73.3984L62.666 71.7715H63.3496V73.5078H65.5439V74.3965H63.3496V78.8057C63.3496 79.2751 63.4567 79.626 63.6709 79.8584C63.8896 80.0908 64.179 80.207 64.5391 80.207ZM69.9941 73.3711C70.6322 73.3711 71.179 73.5124 71.6348 73.7949C72.0905 74.0775 72.4391 74.474 72.6807 74.9844C72.9222 75.4902 73.043 76.0827 73.043 76.7617V77.4658H67.8682C67.8818 78.3454 68.1006 79.0153 68.5244 79.4756C68.9482 79.9359 69.5452 80.166 70.3154 80.166C70.7894 80.166 71.2087 80.1227 71.5732 80.0361C71.9378 79.9495 72.3161 79.8219 72.708 79.6533V80.6514C72.3298 80.82 71.9538 80.943 71.5801 81.0205C71.2109 81.098 70.7734 81.1367 70.2676 81.1367C69.5475 81.1367 68.9186 80.9909 68.3809 80.6992C67.8477 80.403 67.4329 79.9701 67.1367 79.4004C66.8405 78.8307 66.6924 78.1335 66.6924 77.3086C66.6924 76.502 66.8268 75.8047 67.0957 75.2168C67.3691 74.6243 67.752 74.1686 68.2441 73.8496C68.7409 73.5306 69.3242 73.3711 69.9941 73.3711ZM69.9805 74.3008C69.3743 74.3008 68.8913 74.499 68.5312 74.8955C68.1712 75.292 67.957 75.8457 67.8887 76.5566H71.8535C71.849 76.11 71.7783 75.7181 71.6416 75.3809C71.5094 75.0391 71.3066 74.7747 71.0332 74.5879C70.7598 74.3965 70.4089 74.3008 69.9805 74.3008ZM85.0674 77.2402C85.0674 77.8555 84.9876 78.4046 84.8281 78.8877C84.6686 79.3708 84.4385 79.7786 84.1377 80.1113C83.8369 80.444 83.4723 80.6992 83.0439 80.877C82.6201 81.0501 82.1393 81.1367 81.6016 81.1367C81.1003 81.1367 80.64 81.0501 80.2207 80.877C79.806 80.6992 79.446 80.444 79.1406 80.1113C78.8398 79.7786 78.6051 79.3708 78.4365 78.8877C78.2725 78.4046 78.1904 77.8555 78.1904 77.2402C78.1904 76.4199 78.3294 75.7227 78.6074 75.1484C78.8854 74.5697 79.2819 74.1299 79.7969 73.8291C80.3164 73.5238 80.9339 73.3711 81.6494 73.3711C82.333 73.3711 82.93 73.5238 83.4404 73.8291C83.9554 74.1344 84.3542 74.5765 84.6367 75.1553C84.9238 75.7295 85.0674 76.4245 85.0674 77.2402ZM79.3662 77.2402C79.3662 77.8418 79.446 78.3636 79.6055 78.8057C79.765 79.2477 80.0111 79.5895 80.3438 79.8311C80.6764 80.0726 81.1048 80.1934 81.6289 80.1934C82.1484 80.1934 82.5745 80.0726 82.9072 79.8311C83.2445 79.5895 83.4928 79.2477 83.6523 78.8057C83.8118 78.3636 83.8916 77.8418 83.8916 77.2402C83.8916 76.6432 83.8118 76.1283 83.6523 75.6953C83.4928 75.2578 83.2467 74.9206 82.9141 74.6836C82.5814 74.4466 82.1507 74.3281 81.6221 74.3281C80.8428 74.3281 80.2708 74.5856 79.9062 75.1006C79.5462 75.6156 79.3662 76.3288 79.3662 77.2402ZM90.5771 73.3711C91.4658 73.3711 92.138 73.5898 92.5938 74.0273C93.0495 74.4603 93.2773 75.1576 93.2773 76.1191V81H92.1562V76.1943C92.1562 75.57 92.0127 75.1029 91.7256 74.793C91.443 74.4831 91.0078 74.3281 90.4199 74.3281C89.5905 74.3281 89.0072 74.5628 88.6699 75.0322C88.3327 75.5016 88.1641 76.1829 88.1641 77.0762V81H87.0293V73.5078H87.9453L88.1162 74.5879H88.1777C88.3372 74.3236 88.54 74.1025 88.7861 73.9248C89.0322 73.7425 89.3079 73.6058 89.6133 73.5146C89.9186 73.4189 90.2399 73.3711 90.5771 73.3711ZM98.5 73.3711C99.138 73.3711 99.6849 73.5124 100.141 73.7949C100.596 74.0775 100.945 74.474 101.187 74.9844C101.428 75.4902 101.549 76.0827 101.549 76.7617V77.4658H96.374C96.3877 78.3454 96.6064 79.0153 97.0303 79.4756C97.4541 79.9359 98.0511 80.166 98.8213 80.166C99.2952 80.166 99.7145 80.1227 100.079 80.0361C100.444 79.9495 100.822 79.8219 101.214 79.6533V80.6514C100.836 80.82 100.46 80.943 100.086 81.0205C99.7168 81.098 99.2793 81.1367 98.7734 81.1367C98.0534 81.1367 97.4245 80.9909 96.8867 80.6992C96.3535 80.403 95.9388 79.9701 95.6426 79.4004C95.3464 78.8307 95.1982 78.1335 95.1982 77.3086C95.1982 76.502 95.3327 75.8047 95.6016 75.2168C95.875 74.6243 96.2578 74.1686 96.75 73.8496C97.2467 73.5306 97.8301 73.3711 98.5 73.3711ZM98.4863 74.3008C97.8802 74.3008 97.3971 74.499 97.0371 74.8955C96.6771 75.292 96.4629 75.8457 96.3945 76.5566H100.359C100.355 76.11 100.284 75.7181 100.147 75.3809C100.015 75.0391 99.8125 74.7747 99.5391 74.5879C99.2656 74.3965 98.9147 74.3008 98.4863 74.3008ZM109.533 80.207C109.72 80.207 109.911 80.1911 110.107 80.1592C110.303 80.1273 110.463 80.0885 110.586 80.043V80.9248C110.454 80.984 110.269 81.0342 110.032 81.0752C109.8 81.1162 109.572 81.1367 109.349 81.1367C108.952 81.1367 108.592 81.0684 108.269 80.9316C107.945 80.7904 107.685 80.5534 107.489 80.2207C107.298 79.888 107.202 79.4277 107.202 78.8398V74.3965H106.136V73.8428L107.209 73.3984L107.66 71.7715H108.344V73.5078H110.538V74.3965H108.344V78.8057C108.344 79.2751 108.451 79.626 108.665 79.8584C108.884 80.0908 109.173 80.207 109.533 80.207ZM118.563 77.2402C118.563 77.8555 118.484 78.4046 118.324 78.8877C118.165 79.3708 117.935 79.7786 117.634 80.1113C117.333 80.444 116.968 80.6992 116.54 80.877C116.116 81.0501 115.635 81.1367 115.098 81.1367C114.596 81.1367 114.136 81.0501 113.717 80.877C113.302 80.6992 112.942 80.444 112.637 80.1113C112.336 79.7786 112.101 79.3708 111.933 78.8877C111.769 78.4046 111.687 77.8555 111.687 77.2402C111.687 76.4199 111.826 75.7227 112.104 75.1484C112.382 74.5697 112.778 74.1299 113.293 73.8291C113.812 73.5238 114.43 73.3711 115.146 73.3711C115.829 73.3711 116.426 73.5238 116.937 73.8291C117.451 74.1344 117.85 74.5765 118.133 75.1553C118.42 75.7295 118.563 76.4245 118.563 77.2402ZM112.862 77.2402C112.862 77.8418 112.942 78.3636 113.102 78.8057C113.261 79.2477 113.507 79.5895 113.84 79.8311C114.173 80.0726 114.601 80.1934 115.125 80.1934C115.645 80.1934 116.071 80.0726 116.403 79.8311C116.741 79.5895 116.989 79.2477 117.148 78.8057C117.308 78.3636 117.388 77.8418 117.388 77.2402C117.388 76.6432 117.308 76.1283 117.148 75.6953C116.989 75.2578 116.743 74.9206 116.41 74.6836C116.077 74.4466 115.647 74.3281 115.118 74.3281C114.339 74.3281 113.767 74.5856 113.402 75.1006C113.042 75.6156 112.862 76.3288 112.862 77.2402ZM126.965 73.3848C127.858 73.3848 128.521 73.5853 128.954 73.9863C129.387 74.3874 129.604 75.0277 129.604 75.9072V81H128.776L128.558 79.8926H128.503C128.293 80.166 128.075 80.3962 127.847 80.583C127.619 80.7653 127.354 80.9043 127.054 81C126.757 81.0911 126.393 81.1367 125.96 81.1367C125.504 81.1367 125.099 81.057 124.743 80.8975C124.392 80.738 124.114 80.4964 123.909 80.1729C123.709 79.8493 123.608 79.4391 123.608 78.9424C123.608 78.195 123.905 77.6208 124.497 77.2197C125.09 76.8187 125.992 76.5999 127.204 76.5635L128.496 76.5088V76.0508C128.496 75.4036 128.357 74.9502 128.079 74.6904C127.801 74.4307 127.409 74.3008 126.903 74.3008C126.511 74.3008 126.138 74.3577 125.782 74.4717C125.427 74.5856 125.09 74.7201 124.771 74.875L124.422 74.0137C124.759 73.8405 125.146 73.6924 125.584 73.5693C126.021 73.4463 126.482 73.3848 126.965 73.3848ZM128.482 77.3086L127.341 77.3564C126.407 77.3929 125.748 77.5456 125.365 77.8145C124.982 78.0833 124.791 78.4639 124.791 78.9561C124.791 79.3844 124.921 79.7012 125.181 79.9062C125.44 80.1113 125.785 80.2139 126.213 80.2139C126.878 80.2139 127.423 80.0293 127.847 79.6602C128.271 79.291 128.482 78.7373 128.482 77.999V77.3086ZM134.607 81.1367C133.66 81.1367 132.908 80.8132 132.352 80.166C131.8 79.5189 131.524 78.5573 131.524 77.2812C131.524 75.9915 131.807 75.0186 132.372 74.3623C132.937 73.7015 133.689 73.3711 134.628 73.3711C135.024 73.3711 135.371 73.4235 135.667 73.5283C135.963 73.6331 136.218 73.7744 136.433 73.9521C136.647 74.1253 136.827 74.3236 136.973 74.5469H137.055C137.036 74.4056 137.018 74.2119 137 73.9658C136.982 73.7197 136.973 73.5192 136.973 73.3643V70.3633H138.107V81H137.191L137.021 79.9336H136.973C136.831 80.1569 136.651 80.3597 136.433 80.542C136.218 80.7243 135.961 80.8701 135.66 80.9795C135.364 81.0843 135.013 81.1367 134.607 81.1367ZM134.785 80.1934C135.587 80.1934 136.155 79.9655 136.487 79.5098C136.82 79.054 136.986 78.3773 136.986 77.4795V77.2744C136.986 76.3219 136.827 75.5905 136.508 75.0801C136.193 74.5697 135.619 74.3145 134.785 74.3145C134.088 74.3145 133.566 74.5833 133.22 75.1211C132.873 75.6543 132.7 76.3835 132.7 77.3086C132.7 78.2292 132.871 78.9401 133.213 79.4414C133.559 79.9427 134.083 80.1934 134.785 80.1934ZM143.18 81.1367C142.232 81.1367 141.48 80.8132 140.924 80.166C140.372 79.5189 140.097 78.5573 140.097 77.2812C140.097 75.9915 140.379 75.0186 140.944 74.3623C141.509 73.7015 142.261 73.3711 143.2 73.3711C143.597 73.3711 143.943 73.4235 144.239 73.5283C144.535 73.6331 144.791 73.7744 145.005 73.9521C145.219 74.1253 145.399 74.3236 145.545 74.5469H145.627C145.609 74.4056 145.59 74.2119 145.572 73.9658C145.554 73.7197 145.545 73.5192 145.545 73.3643V70.3633H146.68V81H145.764L145.593 79.9336H145.545C145.404 80.1569 145.224 80.3597 145.005 80.542C144.791 80.7243 144.533 80.8701 144.232 80.9795C143.936 81.0843 143.585 81.1367 143.18 81.1367ZM143.357 80.1934C144.16 80.1934 144.727 79.9655 145.06 79.5098C145.392 79.054 145.559 78.3773 145.559 77.4795V77.2744C145.559 76.3219 145.399 75.5905 145.08 75.0801C144.766 74.5697 144.191 74.3145 143.357 74.3145C142.66 74.3145 142.138 74.5833 141.792 75.1211C141.446 75.6543 141.272 76.3835 141.272 77.3086C141.272 78.2292 141.443 78.9401 141.785 79.4414C142.132 79.9427 142.656 80.1934 143.357 80.1934ZM155.143 80.207C155.329 80.207 155.521 80.1911 155.717 80.1592C155.913 80.1273 156.072 80.0885 156.195 80.043V80.9248C156.063 80.984 155.879 81.0342 155.642 81.0752C155.409 81.1162 155.181 81.1367 154.958 81.1367C154.562 81.1367 154.201 81.0684 153.878 80.9316C153.554 80.7904 153.295 80.5534 153.099 80.2207C152.907 79.888 152.812 79.4277 152.812 78.8398V74.3965H151.745V73.8428L152.818 73.3984L153.27 71.7715H153.953V73.5078H156.147V74.3965H153.953V78.8057C153.953 79.2751 154.06 79.626 154.274 79.8584C154.493 80.0908 154.783 80.207 155.143 80.207ZM158.848 70.3633V73.542C158.848 73.7243 158.843 73.9089 158.834 74.0957C158.825 74.278 158.809 74.4466 158.786 74.6016H158.861C159.016 74.3372 159.212 74.1162 159.449 73.9385C159.691 73.7562 159.964 73.6195 160.27 73.5283C160.575 73.4326 160.898 73.3848 161.24 73.3848C161.842 73.3848 162.343 73.4805 162.744 73.6719C163.15 73.8633 163.453 74.1595 163.653 74.5605C163.858 74.9616 163.961 75.4811 163.961 76.1191V81H162.84V76.1943C162.84 75.57 162.696 75.1029 162.409 74.793C162.127 74.4831 161.691 74.3281 161.104 74.3281C160.548 74.3281 160.103 74.4352 159.771 74.6494C159.442 74.859 159.205 75.1689 159.06 75.5791C158.918 75.9893 158.848 76.4906 158.848 77.083V81H157.713V70.3633H158.848ZM167.434 73.5078V81H166.299V73.5078H167.434ZM166.88 70.7051C167.067 70.7051 167.226 70.7666 167.358 70.8896C167.495 71.0081 167.563 71.195 167.563 71.4502C167.563 71.7008 167.495 71.8877 167.358 72.0107C167.226 72.1338 167.067 72.1953 166.88 72.1953C166.684 72.1953 166.52 72.1338 166.388 72.0107C166.26 71.8877 166.196 71.7008 166.196 71.4502C166.196 71.195 166.26 71.0081 166.388 70.8896C166.52 70.7666 166.684 70.7051 166.88 70.7051ZM174.687 78.9492C174.687 79.4277 174.566 79.8311 174.324 80.1592C174.087 80.4827 173.745 80.7266 173.299 80.8906C172.857 81.0547 172.328 81.1367 171.713 81.1367C171.189 81.1367 170.735 81.0957 170.353 81.0137C169.97 80.9316 169.635 80.8154 169.348 80.665V79.6191C169.653 79.7695 170.018 79.9062 170.441 80.0293C170.865 80.1523 171.298 80.2139 171.74 80.2139C172.387 80.2139 172.857 80.109 173.148 79.8994C173.44 79.6898 173.586 79.4049 173.586 79.0449C173.586 78.8398 173.527 78.6598 173.408 78.5049C173.294 78.3454 173.101 78.1927 172.827 78.0469C172.554 77.8965 172.175 77.7324 171.692 77.5547C171.214 77.3724 170.799 77.1924 170.448 77.0146C170.102 76.8324 169.833 76.6113 169.642 76.3516C169.455 76.0918 169.361 75.7546 169.361 75.3398C169.361 74.7064 169.617 74.221 170.127 73.8838C170.642 73.542 171.316 73.3711 172.15 73.3711C172.602 73.3711 173.023 73.4167 173.415 73.5078C173.812 73.5944 174.181 73.7129 174.522 73.8633L174.14 74.7725C173.83 74.6403 173.499 74.5286 173.148 74.4375C172.798 74.3464 172.44 74.3008 172.075 74.3008C171.551 74.3008 171.148 74.3874 170.865 74.5605C170.587 74.7337 170.448 74.9707 170.448 75.2715C170.448 75.5039 170.512 75.6953 170.64 75.8457C170.772 75.9961 170.981 76.1374 171.269 76.2695C171.556 76.4017 171.934 76.5566 172.403 76.7344C172.873 76.9076 173.278 77.0876 173.62 77.2744C173.962 77.4567 174.224 77.68 174.406 77.9443C174.593 78.2041 174.687 78.5391 174.687 78.9492ZM186.608 77.2402C186.608 77.8555 186.529 78.4046 186.369 78.8877C186.21 79.3708 185.979 79.7786 185.679 80.1113C185.378 80.444 185.013 80.6992 184.585 80.877C184.161 81.0501 183.68 81.1367 183.143 81.1367C182.641 81.1367 182.181 81.0501 181.762 80.877C181.347 80.6992 180.987 80.444 180.682 80.1113C180.381 79.7786 180.146 79.3708 179.978 78.8877C179.813 78.4046 179.731 77.8555 179.731 77.2402C179.731 76.4199 179.87 75.7227 180.148 75.1484C180.426 74.5697 180.823 74.1299 181.338 73.8291C181.857 73.5238 182.475 73.3711 183.19 73.3711C183.874 73.3711 184.471 73.5238 184.981 73.8291C185.496 74.1344 185.895 74.5765 186.178 75.1553C186.465 75.7295 186.608 76.4245 186.608 77.2402ZM180.907 77.2402C180.907 77.8418 180.987 78.3636 181.146 78.8057C181.306 79.2477 181.552 79.5895 181.885 79.8311C182.217 80.0726 182.646 80.1934 183.17 80.1934C183.689 80.1934 184.116 80.0726 184.448 79.8311C184.785 79.5895 185.034 79.2477 185.193 78.8057C185.353 78.3636 185.433 77.8418 185.433 77.2402C185.433 76.6432 185.353 76.1283 185.193 75.6953C185.034 75.2578 184.788 74.9206 184.455 74.6836C184.122 74.4466 183.692 74.3281 183.163 74.3281C182.384 74.3281 181.812 74.5856 181.447 75.1006C181.087 75.6156 180.907 76.3288 180.907 77.2402ZM192.118 73.3711C193.007 73.3711 193.679 73.5898 194.135 74.0273C194.59 74.4603 194.818 75.1576 194.818 76.1191V81H193.697V76.1943C193.697 75.57 193.554 75.1029 193.267 74.793C192.984 74.4831 192.549 74.3281 191.961 74.3281C191.132 74.3281 190.548 74.5628 190.211 75.0322C189.874 75.5016 189.705 76.1829 189.705 77.0762V81H188.57V73.5078H189.486L189.657 74.5879H189.719C189.878 74.3236 190.081 74.1025 190.327 73.9248C190.573 73.7425 190.849 73.6058 191.154 73.5146C191.46 73.4189 191.781 73.3711 192.118 73.3711ZM200.041 73.3711C200.679 73.3711 201.226 73.5124 201.682 73.7949C202.137 74.0775 202.486 74.474 202.728 74.9844C202.969 75.4902 203.09 76.0827 203.09 76.7617V77.4658H197.915C197.929 78.3454 198.147 79.0153 198.571 79.4756C198.995 79.9359 199.592 80.166 200.362 80.166C200.836 80.166 201.256 80.1227 201.62 80.0361C201.985 79.9495 202.363 79.8219 202.755 79.6533V80.6514C202.377 80.82 202.001 80.943 201.627 81.0205C201.258 81.098 200.82 81.1367 200.314 81.1367C199.594 81.1367 198.965 80.9909 198.428 80.6992C197.895 80.403 197.48 79.9701 197.184 79.4004C196.887 78.8307 196.739 78.1335 196.739 77.3086C196.739 76.502 196.874 75.8047 197.143 75.2168C197.416 74.6243 197.799 74.1686 198.291 73.8496C198.788 73.5306 199.371 73.3711 200.041 73.3711ZM200.027 74.3008C199.421 74.3008 198.938 74.499 198.578 74.8955C198.218 75.292 198.004 75.8457 197.936 76.5566H201.9C201.896 76.11 201.825 75.7181 201.688 75.3809C201.556 75.0391 201.354 74.7747 201.08 74.5879C200.807 74.3965 200.456 74.3008 200.027 74.3008ZM204.847 80.2891C204.847 79.9701 204.924 79.7445 205.079 79.6123C205.234 79.4756 205.423 79.4072 205.646 79.4072C205.879 79.4072 206.075 79.4756 206.234 79.6123C206.394 79.7445 206.474 79.9701 206.474 80.2891C206.474 80.6035 206.394 80.8337 206.234 80.9795C206.075 81.1208 205.879 81.1914 205.646 81.1914C205.423 81.1914 205.234 81.1208 205.079 80.9795C204.924 80.8337 204.847 80.6035 204.847 80.2891Z" fill="#EB3636"/>
</svg>
