<svg xmlns="http://www.w3.org/2000/svg" width="25" height="25" viewBox="0 0 25 25"><path d="M9.055 1v3h-4v8.188l-3 2.007 2.51 7.586-2.659-.885L0 22.168l1.11 1.664 1.093-.728 2.852.95 2.968-.99 2.5 1 3-1 2.532 1.012 2.53-1.012 3.046 1.016 2.371-1.185-.895-1.79-1.628.815-2.2-.733c1.02-2.422 2.776-6.984 2.776-6.984l-3-2.012V4h-4V1zm2 2h2v1h-2zm-4 3h10v4.63l-5-3.331-5 3.332zm4 4.68v11.1l-.47.156-2.5-1-1.405.468-2.092-6.324zm2 .01 6.357 4.382-2.598 6.547-.76.305-2.468-.988-.531.177zm-5 7.31v2h2v-2zm6 0v2h2v-2z"/></svg>