<svg xmlns="http://www.w3.org/2000/svg" width="24" height="24" viewBox="0 0 24 24"><path fill-rule="evenodd" d="M0 0v24h24V0zm22 22H2V2h20zm-4.36-7a1.7 1.7 0 0 1-.66-.12 3 3 0 0 1-.46-.25l-.33-.26a.4.4 0 0 0-.25-.12.3.3 0 0 0-.15 0 .4.4 0 0 0-.11.12l-.33.62q.2.241.45.43.253.194.54.33.317.16.66.25.325.078.66.08a2.5 2.5 0 0 0 1-.2 2.1 2.1 0 0 0 .75-.54c.21-.235.37-.511.47-.81a2.9 2.9 0 0 0 .16-1 2.3 2.3 0 0 0-.14-.83 2 2 0 0 0-.37-.57 2.3 2.3 0 0 0-.53-.4q-.298-.15-.61-.27l-.61-.23a2.5 2.5 0 0 1-.52-.25 1.25 1.25 0 0 1-.38-.34.9.9 0 0 1-.14-.51q.001-.223.08-.43a.9.9 0 0 1 .18-.37 1 1 0 0 1 .38-.23c.162-.067.335-.1.51-.1a1.35 1.35 0 0 1 .55.1q.204.077.39.19.151.09.29.2a.32.32 0 0 0 .2.09.25.25 0 0 0 .15-.05.4.4 0 0 0 .11-.15l.28-.61a2.4 2.4 0 0 0-.86-.6A2.7 2.7 0 0 0 17.88 8a2.3 2.3 0 0 0-.95.19 2 2 0 0 0-.71.5 2 2 0 0 0-.43.71c-.1.265-.15.547-.15.83-.007.306.04.61.14.9a1.85 1.85 0 0 0 .9 1q.295.152.61.26l.6.22q.282.084.53.24c.148.087.275.207.37.35a.94.94 0 0 1 .14.55A1.18 1.18 0 0 1 17.64 15m-9.21.31a2.2 2.2 0 0 1-.79.48 3.2 3.2 0 0 1-1.07.21H4V8h2.33c.39.004.779.068 1.15.19a2 2 0 0 1 .79.41c.2.18.355.407.45.66.095.28.142.574.14.87a2 2 0 0 1-.07.54 1.5 1.5 0 0 1-.24.49 1.7 1.7 0 0 1-.39.41 2.2 2.2 0 0 1-.57.3 1.71 1.71 0 0 1 1.49 1.79 2.3 2.3 0 0 1-.17.93 2 2 0 0 1-.48.72m-2.1-6.26H5.14v2.47h1.14c.39.034.78-.08 1.09-.32a1.16 1.16 0 0 0 .36-.92 1.16 1.16 0 0 0-.34-.94 1.56 1.56 0 0 0-1.06-.29m-1.19 5.89v-2.51h1.41a1.54 1.54 0 0 1 1.07.32c.23.234.353.552.34.88 0 .176-.027.352-.08.52a1 1 0 0 1-.24.41 1.15 1.15 0 0 1-.44.28 1.7 1.7 0 0 1-.65.1zm5.97.87a2.6 2.6 0 0 1-.9-.68 3.3 3.3 0 0 1-.57-1.06 4.2 4.2 0 0 1-.19-1.3V8h1.12v4.77c-.001.29.036.58.11.86a2 2 0 0 0 .34.67c.15.178.333.324.54.43.226.103.472.154.72.15a1.54 1.54 0 0 0 1.27-.58c.15-.199.266-.422.34-.66q.113-.428.11-.87V8h1.16v4.83c.002.441-.065.88-.2 1.3a2.9 2.9 0 0 1-.57 1 2.44 2.44 0 0 1-.9.68 3.07 3.07 0 0 1-2.38 0" clip-rule="evenodd"/></svg>