<svg xmlns="http://www.w3.org/2000/svg" width="24" height="24" viewBox="0 0 24 24"><path fill-rule="evenodd" d="M16.45 7.36a4.38 4.38 0 0 1-4.37 4.38A4.38 4.38 0 0 1 7.7 7.36a4.3 4.3 0 0 1 .38-1.76V0h8v5.6a4.5 4.5 0 0 1 .37 1.76m-6.75 0a2.39 2.39 0 0 0 2.38 2.38A2.38 2.38 0 0 0 14 6h-3.86a2.3 2.3 0 0 0-.44 1.36M10.08 2h4v2h-4zM5 21.92c0-5.14 3.17-9.31 7.09-9.31 3.91 0 7.09 4.17 7.09 9.32A13 13 0 0 1 19 24H5.18A13 13 0 0 1 5 21.92m2 .01V22h10.18v-.07c0-3.96-2.33-7.31-5.09-7.31S7 17.93 7 21.93M10.08 18l2-1 2 1v-2l-2 1-2-1z" clip-rule="evenodd"/></svg>