<svg xmlns="http://www.w3.org/2000/svg" width="24" height="24" viewBox="0 0 24 24"><path fill-rule="evenodd" d="M13.1 5a5 5 0 1 1-10 0 5 5 0 0 1 10 0m-2 0a3 3 0 1 0-6 0 3 3 0 0 0 6 0m10.51 3.92a4 4 0 1 1-8 0 4 4 0 0 1 8 0m-2 .08a2 2 0 1 0-4 0 2 2 0 0 0 4 0m-5.25 5.88a5.26 5.26 0 0 1 3.25-1.17c3.54 0 6.39 3.77 6.39 8.42q.015.941-.14 1.87H16q.02-.133.045-.266c.042-.242.085-.485.085-.734-.04.34-.08.67-.13 1H.21A14 14 0 0 1 0 21.64C0 15.76 3.63 11 8.1 11a7.54 7.54 0 0 1 6.26 3.88M2 21.64V22h12.2v-.36c0-4.69-2.79-8.64-6.1-8.64S2 17 2 21.64m14.2.36v-.37a13.3 13.3 0 0 0-.92-4.93 3.44 3.44 0 0 1 2.33-1C20 15.71 22 18.57 22 22z" clip-rule="evenodd"/></svg>