<svg xmlns="http://www.w3.org/2000/svg" width="24" height="24" viewBox="0 0 24 24"><path fill-rule="evenodd" d="M0 0v24h24V0zm22 22H2V2h20zM5.45 12.77h.66a.63.63 0 0 1 .31.06.6.6 0 0 1 .19.2l1.72 2.67a.5.5 0 0 0 .47.3h1.07l-2-3a1.1 1.1 0 0 0-.38-.4 2.6 2.6 0 0 0 .73-.34c.204-.135.384-.304.53-.5a2 2 0 0 0 .33-.65A2.63 2.63 0 0 0 9 9.36a1.9 1.9 0 0 0-.5-.71 2.5 2.5 0 0 0-.86-.45A4.3 4.3 0 0 0 6.42 8H4.25v8h1.2zm0-3.72h1c.43-.034.86.087 1.21.34.28.254.427.623.4 1a1.6 1.6 0 0 1-.1.59 1.2 1.2 0 0 1-.31.46 1.4 1.4 0 0 1-.51.3 2.2 2.2 0 0 1-.72.1h-.97zm9.16 5.87h-3.4v-2.45h2.71v-1h-2.71V9.08h3.39V8.04H10v7.92h4.6zm1.7-2.15H17a.63.63 0 0 1 .31.06.7.7 0 0 1 .19.2l1.7 2.67c.09.169.27.27.46.26h1.07l-2-3a1.3 1.3 0 0 0-.38-.4c.257-.072.5-.187.72-.34a2.4 2.4 0 0 0 .54-.5q.213-.301.33-.65c.073-.25.11-.51.11-.77a2.4 2.4 0 0 0-.16-.92 1.8 1.8 0 0 0-.5-.71 2.4 2.4 0 0 0-.86-.45A4.2 4.2 0 0 0 17.29 8h-2.18v8h1.2zm-.08-3.72h1a1.8 1.8 0 0 1 1.21.34c.28.254.427.623.4 1 .003.201-.03.401-.1.59a1.2 1.2 0 0 1-.31.46 1.3 1.3 0 0 1-.51.3 2.2 2.2 0 0 1-.72.1h-.94z" clip-rule="evenodd"/></svg>