<svg xmlns="http://www.w3.org/2000/svg" width="24" height="24" viewBox="0 0 24 24"><path fill-rule="evenodd" d="M12 6.34A3.17 3.17 0 1 0 12 0a3.17 3.17 0 0 0 0 6.34m0-4.56a1.39 1.39 0 1 1 0 2.78 1.39 1.39 0 0 1 0-2.78m4.64 9.41C15.81 8.7 14.05 7 12 7s-3.79 1.7-4.62 4.18C3.05 12 0 14 0 16.27s3.5 4.53 8.33 5.24l-1 1L8.64 24 11 21.78l1.46-1.36L11 19.05 8.78 17 7.3 18.36l1.24 1.16C4.42 18.9 2 17.26 2 16.27s1.8-2.19 4.93-2.95c0 .174-.015.348-.03.522-.015.178-.03.357-.03.538A11 11 0 0 0 7 16h10q.127-.815.13-1.64 0-.526-.06-1.05c3.12.76 4.91 2.09 4.91 2.94 0 1-2.59 2.75-7 3.32v2c5.17-.61 9-2.76 9-5.33C24 14 21 12 16.64 11.19m-8 3.05C8.7 11 10.44 8.75 12 8.75s3.31 2.25 3.36 5.49z" clip-rule="evenodd"/></svg>