<svg id="Embleme" xmlns="http://www.w3.org/2000/svg" xmlns:xlink="http://www.w3.org/1999/xlink" viewBox="0 0 219.6 45.36"><defs><style>.cls-1{fill:url(#linear-gradient);}.cls-2{fill:url(#linear-gradient-2);}.cls-3{fill:url(#linear-gradient-3);}.cls-4{fill:url(#linear-gradient-4);}.cls-5{fill:url(#linear-gradient-5);}.cls-6{fill:url(#linear-gradient-6);}.cls-7{fill:#fff;}.cls-8{fill:#1a171b;}</style><linearGradient id="linear-gradient" x1="22.68" y1="-1.12" x2="22.68" y2="46.76" gradientUnits="userSpaceOnUse"><stop offset="0" stop-color="#007448"/><stop offset="0.6" stop-color="#8dc9ab"/><stop offset="1" stop-color="#00925b"/></linearGradient><linearGradient id="linear-gradient-2" x1="22.61" y1="-11.27" x2="22.61" y2="42.53" gradientUnits="userSpaceOnUse"><stop offset="0" stop-color="#00925b"/><stop offset="0.3" stop-color="#8dc9ab"/><stop offset="0.55" stop-color="#00925b"/><stop offset="0.84" stop-color="#007448"/><stop offset="0.89" stop-color="#007d50"/><stop offset="0.98" stop-color="#009566"/><stop offset="1" stop-color="#009c6c"/></linearGradient><linearGradient id="linear-gradient-3" x1="31.22" y1="39.56" x2="31.22" y2="4.75" gradientUnits="userSpaceOnUse"><stop offset="0" stop-color="#00a678"/><stop offset="1" stop-color="#00925b"/></linearGradient><linearGradient id="linear-gradient-4" x1="9.62" y1="39.57" x2="9.62" y2="4.74" xlink:href="#linear-gradient-3"/><linearGradient id="linear-gradient-5" x1="16.35" y1="39.56" x2="16.35" y2="4.75" xlink:href="#linear-gradient-3"/><linearGradient id="linear-gradient-6" x1="22.17" y1="39.56" x2="22.17" y2="4.75" xlink:href="#linear-gradient-3"/><symbol id="Quadri" data-name="Quadri" viewBox="0 0 45.35 45.35"><rect class="cls-1" width="45.35" height="45.36"/><path class="cls-2" d="M44,22.94c0,9.47.44,19.16,0.44,19.16a1.64,1.64,0,0,1-1.59,1.78H3.54A1.75,1.75,0,0,1,2,42.1,170.53,170.53,0,0,1,.82,21.18C0.82,8.54,2,2.58,2,2.58A1.75,1.75,0,0,1,3.54.8H42.8a1.69,1.69,0,0,1,1.59,1.78S44,13.47,44,22.94Z"/><path class="cls-3" d="M35.22,12.25c-2.8,1.64-3.66,1.77-6.7,3.6l0.15-.34a31.25,31.25,0,0,0,3.34-4,68.45,68.45,0,0,0-9.81,1.13h0l0.15-.31a41.67,41.67,0,0,1,10.06-2.9c-0.61-.86-5.59-3.55-6.83-4.07h0L25.73,5A32.59,32.59,0,0,1,36.68,8.56a17.45,17.45,0,0,1,3.57-.47s-0.25,1-2.11,2.31h0c0.46,1.23-.65,8.08-1.56,9.89h0C36.53,17.43,36.28,13.82,35.22,12.25Z"/><path class="cls-4" d="M14.73,36.77l0.14-.32a12,12,0,0,1-4.18-2.17h0a12.31,12.31,0,0,1,1.52-2.93h0L12.36,31c-1.28.19-2.44,0.66-3.55,0.88h0a21.07,21.07,0,0,1-1.65-5.63L7,26.6H7a19.2,19.2,0,0,0,0,5.73H7a21.27,21.27,0,0,0-2.47.61l-0.14.31h0a31.5,31.5,0,0,0,3.48,1.91h0a11.89,11.89,0,0,0,2.65,3.76h0l0.15-.32a6.79,6.79,0,0,1-.39-2.55h0A16.64,16.64,0,0,0,14.73,36.77Z"/><path class="cls-5" d="M18.86,14a16.25,16.25,0,0,0-1.08,2.47H17.67a24.92,24.92,0,0,1,7.62,2.37l-0.15.31h0a24.45,24.45,0,0,0-6.88-.44h0a5,5,0,0,0-1.62.3h0a26.36,26.36,0,0,0-1.42,5.5l-0.15.32h0C14.41,23.22,13.45,20,13.45,20h0c-1.83,1-6,4.93-6,4.93h0a24.34,24.34,0,0,1,4.67-6.74h0c-0.81-.81-2.93-1.23-4.47-1.29h0l0.14-.31a24,24,0,0,1,4.31-.47h0a22.59,22.59,0,0,1,2.54,0h0A12.65,12.65,0,0,1,18.86,14Z"/><path class="cls-6" d="M23.31,33.89c-0.73,1-1.36,1.78-2.17,2.68h0a16.29,16.29,0,0,1-3.73.22l-0.14.32h0a9.53,9.53,0,0,0,2.51.87h0a19.2,19.2,0,0,1-2.31,1.58l-0.15.31h0A18,18,0,0,0,22,38.11h0A8.29,8.29,0,0,0,23.89,38h0L24,37.68a6.18,6.18,0,0,1-.46-1h0a32.86,32.86,0,0,0,3.34-3h0l0.15-.32a28.48,28.48,0,0,1-3.64,2.36h0C23.38,35.11,23.34,34.59,23.31,33.89Z"/><path class="cls-7" d="M35.36,11.93c-2.8,1.65-3.66,1.78-6.7,3.61a31.16,31.16,0,0,0,3.49-4.35,67.47,67.47,0,0,0-9.8,1.13h0A39,39,0,0,1,32.57,9.1C32,8.25,27,5.55,25.73,5h0A29.31,29.31,0,0,1,36.83,8.24a18.25,18.25,0,0,1,3.58-.45h0a4.73,4.73,0,0,1-2.13,2.29h0c0.46,1.24-.65,8.08-1.56,9.89h0C36.68,17.11,36.43,13.5,35.36,11.93Z"/><path class="cls-7" d="M14.87,36.45a11.14,11.14,0,0,1-4-2.48h0A12.55,12.55,0,0,1,12.36,31h0c-1.31.2-2.27,0.34-3.4,0.56H9a17.42,17.42,0,0,1-1.8-5.31h0a19.27,19.27,0,0,0,0,5.74h0a16.88,16.88,0,0,0-2.62.92h0A32.44,32.44,0,0,0,8,34.85H8a11.88,11.88,0,0,0,2.66,3.75h0a7,7,0,0,1-.24-2.87h0A16.62,16.62,0,0,0,14.87,36.45Z"/><path class="cls-7" d="M19.06,13.72h0a9.3,9.3,0,0,0-1.24,2.43h0a20.63,20.63,0,0,1,7.47,2.69h0a24.24,24.24,0,0,0-6.89-.44h0a5.26,5.26,0,0,0-1.62.29h0a28.67,28.67,0,0,0-1.56,5.82h0c-0.66-1.59-1.61-4.77-1.61-4.77h0c-1.83,1-6,4.93-6,4.93h0a24,24,0,0,1,4.66-6.74h0c-0.81-.82-2.93-1.23-4.47-1.29h0a17.4,17.4,0,0,1,4.45-.78h0a23.09,23.09,0,0,1,2.55,0h0A12.74,12.74,0,0,1,19.06,13.72Z"/><path class="cls-7" d="M23.45,33.58a34.39,34.39,0,0,1-2.17,2.68h0a13.34,13.34,0,0,1-3.87.54h0a9.67,9.67,0,0,0,2.51.87h0a17.38,17.38,0,0,1-2.45,1.89h0a18,18,0,0,0,4.67-1.76h0a8.54,8.54,0,0,0,1.9-.12h0a10.63,10.63,0,0,1-.31-1.28h0a31.91,31.91,0,0,0,3.34-3h0a22.63,22.63,0,0,1-3.49,2h0C23.52,34.8,23.49,34.27,23.45,33.58Z"/></symbol></defs><title>bnp_logo_green</title><use width="45.35" height="45.36" transform="translate(0)" xlink:href="#Quadri"/><path class="cls-8" d="M68.07,15.18c0.12,1.66.21,5.83,0.21,7.36s0,6.09-.23,8.13l0,0.16h7.35c3.59,0,7.42-1.14,7.42-4.34,0-2-1.45-3.49-4.17-4.31,2-.53,3.35-1.92,3.35-3.51,0-2.61-3-3.6-5.81-3.66H68.06v0.16Zm5.68,1.61c3.07,0,4.21.64,4.21,2.32a1.74,1.74,0,0,1-.41,1.16,3.92,3.92,0,0,1-3.21,1H74.27l-0.85,2.22h0.86a4.83,4.83,0,0,1,3.91,1.4,2.17,2.17,0,0,1,.52,1.43c0,1.76-1.53,2.65-4.56,2.65-0.51,0-1.33,0-1.85,0-0.11-2.32-.12-5.46-0.12-6.4,0-1.1,0-3.56.12-5.66A8.7,8.7,0,0,1,73.75,16.79Z" transform="translate(-11.34 -11.34)"/><path class="cls-8" d="M99.75,15H96.18l0.15,4c0.06,2,.13,4,0.26,6h0a12.94,12.94,0,0,0-1.51-2.5c0-.06-3.74-5.78-5-7.39L90,15H85.86v0.16c0.12,1.66.21,5.83,0.21,7.36s0,6.1-.23,8.13l0,0.16h3.69V30.68c-0.22-3.87-.22-7.76-0.22-11.52h0a5.46,5.46,0,0,0,.89,1.72c0.06,0.1,6.4,9.35,6.72,9.9l0,0.06h3l0-.16c-0.22-2-.23-6.73-0.23-8.13s0.09-5.71.21-7.36V15H99.75Z" transform="translate(-11.34 -11.34)"/><path class="cls-8" d="M104,15.18c0.12,1.67.21,5.83,0.21,7.37s0,6.09-.23,8.12l0,0.16h4.41l0-.16c-0.15-1.45-.2-4.23-0.22-6.37l0.81,0,0.62,0c5.8,0,8.62-1.55,8.62-4.76,0-3.66-4-4.51-7.26-4.59H104v0.16Zm5.39,1.75c2.06,0,3.51.39,4.2,1.25a2.23,2.23,0,0,1,.48,1.44c0,2.29-2.56,2.77-4.71,2.77l-0.87,0-0.35-.05c0-.52,0-1.21,0-2,0-1,0-2.17.05-3.26A8.3,8.3,0,0,1,109.43,16.92Z" transform="translate(-11.34 -11.34)"/><path class="cls-8" d="M126.6,15.18c0.13,1.67.21,5.83,0.21,7.37s0,6.09-.24,8.12l0,0.16H131l0-.16c-0.15-1.45-.21-4.23-0.22-6.37l0.8,0,0.62,0c5.79,0,8.62-1.55,8.62-4.76,0-3.66-3.95-4.51-7.27-4.59h-6.9v0.16Zm5.4,1.75c2.06,0,3.5.39,4.2,1.25a2.26,2.26,0,0,1,.47,1.44c0,2.29-2.56,2.77-4.71,2.77l-0.87,0-0.34-.05c0-.52,0-1.22,0-2,0-1,0-2.16.06-3.26A8.3,8.3,0,0,1,132,16.92Z" transform="translate(-11.34 -11.34)"/><path class="cls-8" d="M146.65,15h-0.07l0,0.09c-0.82,2.25-6.08,13.74-6.91,15.51l-0.1.22h3.78l0-.09c0.33-1.08.75-2.3,1.25-3.62l3.12,0,2.57,0,0.56,0c0.69,1.7,1.19,3,1.41,3.63l0,0.08h4.37l-7-15.81h-3Zm1.07,4.66C148.08,20.43,149,22.54,150,25h-0.34l-1.93,0-2.32,0C146.23,23,147,21.22,147.73,19.68Z" transform="translate(-11.34 -11.34)"/><path class="cls-8" d="M158.39,15.18c0.11,1.66.21,5.83,0.21,7.36s0,6.09-.23,8.12l0,0.17h4.41l0-.16c-0.22-2-.24-6.73-0.24-8.13,0-1.1,0-3.56.13-5.52,0.36,0,.86-0.09,1.19-0.09,2.06,0,3.51.39,4.2,1.25a2.21,2.21,0,0,1,.48,1.43c0,1.82-1.72,2.75-3.31,2.84a4.82,4.82,0,0,1-.93,0l-0.3-.05,0.19,0.28c1.54,2.28,3.89,6.25,4.87,8.15l0,0.07h4.71l-0.14-.23c-0.16-.25-3.25-4.79-4.56-6.72L169,23.76c2.4-.72,3.58-2.08,3.58-4.15,0-3.66-4-4.51-7.27-4.58h-6.9v0.16Z" transform="translate(-11.34 -11.34)"/><path class="cls-8" d="M180,15h-4.22l0,0.16c0.12,1.67.21,5.84,0.21,7.37s0,6.09-.24,8.12l0,0.16h4.4l0-.16c-0.22-2-.24-6.73-0.24-8.12s0.09-5.7.21-7.37V15H180Z" transform="translate(-11.34 -11.34)"/><path class="cls-8" d="M184.13,15.18c0.12,1.66.21,5.83,0.21,7.36s0,6.09-.23,8.13l0,0.16h7.35c3.59,0,7.42-1.14,7.42-4.34,0-2-1.46-3.49-4.17-4.31,2-.53,3.35-1.92,3.35-3.51,0-2.61-3-3.6-5.81-3.66h-8.11v0.16Zm5.68,1.61h0c3.07,0,4.21.64,4.21,2.32a1.74,1.74,0,0,1-.42,1.16,3.88,3.88,0,0,1-3.2,1h-0.08l-0.84,2.22h0.86a4.84,4.84,0,0,1,3.91,1.4,2.19,2.19,0,0,1,.52,1.43c0,1.76-1.53,2.65-4.55,2.65-0.52,0-1.34,0-1.86,0-0.1-2.32-.11-5.46-0.11-6.4,0-1.1,0-3.57.12-5.66A8.49,8.49,0,0,1,189.81,16.79Z" transform="translate(-11.34 -11.34)"/><path class="cls-8" d="M209.68,15h-3l0,0.09c-0.86,2.39-6.44,14.51-6.9,15.51l-0.1.21h3.78l0-.09c0.33-1.08.75-2.3,1.25-3.62l3.12,0,2.58,0H211c0.68,1.71,1.18,3,1.41,3.63l0,0.09h4.37l-7-15.81h-0.07Zm-1.82,4.66c0.35,0.75,1.25,2.86,2.27,5.35l-0.33,0-1.94,0-2.31,0C206.36,23,207.17,21.21,207.86,19.67Z" transform="translate(-11.34 -11.34)"/><path class="cls-8" d="M218,19.11c0,2.79,2.8,3.91,5.26,4.91,1.92,0.77,3.9,1.58,3.9,2.9a1.42,1.42,0,0,1-.31,1c-0.45.54-1.4,0.77-2.88,0.7a13.59,13.59,0,0,1-5-1.39l-0.77-.36V30.3l0.5,0.11,0.3,0.06a19.58,19.58,0,0,0,4.45.64c4.64,0,7.41-1.84,7.41-4.91,0-2.85-2.86-4-5.38-5-1.86-.74-3.79-1.51-3.79-2.72,0-.36,0-1.41,2.38-1.41a12,12,0,0,1,4.47,1.12l0.91,0.38V15.09l-0.9-.16a21.56,21.56,0,0,0-3.95-.46C220.69,14.47,218,16.33,218,19.11Z" transform="translate(-11.34 -11.34)"/><path class="cls-8" d="M74.87,37.64c3.28,0,7.18.91,7.18,4.53,0,2-1.18,3.38-3.52,4.1a80.1,80.1,0,0,0,4.72,7H78.6c-1-1.94-3.34-5.87-5-8.41a5.91,5.91,0,0,0,1.21.11C76.12,45,78,44,78,42.17c0-2.26-2.72-2.66-4.08-2.66a14.63,14.63,0,0,0-1.7.09c-0.09,1.94-.13,4.37-0.13,5.46,0,1.38,0,6,.24,8.19H68c0.22-2.17.26-5,.26-8.19,0-2.72,0-6-.22-7.42h6.8Z" transform="translate(-11.34 -11.34)"/><path class="cls-8" d="M97.36,37.64v2.27a57.43,57.43,0,0,0-6.51-.2c-0.58,0-1,0-1.87,0,0,1.47-.07,3.23-0.07,4.46l5.71-.14v2.37l-5.73-.13c0,1.36.05,3.32,0.11,4.93,2.95,0,5.87-.06,8.79-0.25v2.26h-13c0.2-2.17.22-6.8,0.22-8.16,0-1.52-.09-5.64-0.2-7.45H97.36Z" transform="translate(-11.34 -11.34)"/><path class="cls-8" d="M109,37.64c0.6,1.6,5.74,13,6.94,15.61h-4.31c-0.24-.71-0.76-2-1.43-3.68-0.89,0-1.81,0-3.08,0s-2.08,0-3.1,0c-0.49,1.32-.89,2.52-1.25,3.68H99c0.89-1.94,6.13-13.32,7-15.61h3Zm0.38,9.88c-1-2.45-1.92-4.55-2.23-5.28-0.72,1.52-1.49,3.3-2.32,5.28,0.67,0,1.58,0,2.32,0S108.61,47.54,109.36,47.52Z" transform="translate(-11.34 -11.34)"/><path class="cls-8" d="M129.53,53.25H117.31c0.22-2.17.22-6.8,0.22-8.16,0-1.52-.09-5.64-0.22-7.45h4.28c-0.11,1.8-.2,5.91-0.2,7.45,0,1,0,3.93.09,6.15h2.3c2.36,0,4.11-.13,5.75-0.27v2.28Z" transform="translate(-11.34 -11.34)"/><path class="cls-8" d="M149.43,37.64v2.27a57.3,57.3,0,0,0-6.51-.2c-0.58,0-1,0-1.87,0,0,1.47-.07,3.23-0.07,4.46l5.71-.14v2.37L141,46.32c0,1.36,0,3.32.11,4.93,2.95,0,5.87-.06,8.79-0.25v2.26h-13c0.2-2.17.22-6.8,0.22-8.16,0-1.52-.09-5.64-0.2-7.45h12.53Z" transform="translate(-11.34 -11.34)"/><path class="cls-8" d="M158.63,37.33a18.85,18.85,0,0,1,4.79.6v3.43a9.88,9.88,0,0,0-5.31-1.47c-2.23,0-2.36.82-2.36,1.4,0,2.83,9.05,2.46,9.05,7.41,0,3.05-2.72,4.86-7.31,4.86a16.5,16.5,0,0,1-5.2-.8V49.35a14.32,14.32,0,0,0,6.13,1.76c1.76,0,2.68-.51,2.68-1.67,0-3.06-9.05-2.61-9.05-7.81C152,38.89,154.68,37.33,158.63,37.33Z" transform="translate(-11.34 -11.34)"/><path class="cls-8" d="M179.8,37.64v2.27a44.39,44.39,0,0,0-5.11-.31c-0.06,1.89-.09,4.37-0.09,5.46,0,1.36,0,6,.24,8.19h-4.37c0.22-2.17.27-6.83,0.27-8.19,0-1.09-.06-3.57-0.11-5.46a44.33,44.33,0,0,0-5.08.31V37.64H179.8Z" transform="translate(-11.34 -11.34)"/><path class="cls-8" d="M188.21,37.64c0.6,1.6,5.73,13,6.94,15.61h-4.3c-0.25-.71-0.76-2-1.42-3.68-0.89,0-1.81,0-3.08,0s-2.07,0-3.1,0c-0.49,1.32-.9,2.52-1.25,3.68h-3.75c0.89-1.94,6.13-13.32,7-15.61h3Zm0.38,9.88c-1-2.45-1.92-4.55-2.23-5.28-0.71,1.52-1.49,3.3-2.32,5.28,0.67,0,1.58,0,2.32,0S187.84,47.54,188.6,47.52Z" transform="translate(-11.34 -11.34)"/><path class="cls-8" d="M207.85,37.64v2.27a44.49,44.49,0,0,0-5.11-.31c-0.07,1.89-.09,4.37-0.09,5.46,0,1.36,0,6,.25,8.19h-4.37c0.22-2.17.26-6.83,0.26-8.19,0-1.09-.06-3.57-0.11-5.46a44.28,44.28,0,0,0-5.09.31V37.64h14.25Z" transform="translate(-11.34 -11.34)"/><path class="cls-8" d="M222.76,37.64v2.27a57.43,57.43,0,0,0-6.51-.2c-0.58,0-1,0-1.87,0,0,1.47-.07,3.23-0.07,4.46l5.71-.14v2.37l-5.73-.13c0,1.36,0,3.32.11,4.93,2.95,0,5.87-.06,8.79-0.25v2.26h-13c0.2-2.17.22-6.8,0.22-8.16,0-1.52-.09-5.64-0.2-7.45h12.53Z" transform="translate(-11.34 -11.34)"/><style xmlns="http://www.w3.org/1999/xhtml" charset="utf-8" type="text/css" class="firebugResetStyles">/* See license.txt for terms of usage */
/** reset styling **/
.firebugResetStyles {
    z-index: 2147483646 !important;
    top: 0 !important;
    left: 0 !important;
    display: block !important;
    border: 0 none !important;
    margin: 0 !important;
    padding: 0 !important;
    outline: 0 !important;
    min-width: 0 !important;
    max-width: none !important;
    min-height: 0 !important;
    max-height: none !important;
    position: fixed !important;
    transform: rotate(0deg) !important;
    transform-origin: 50% 50% !important;
    border-radius: 0 !important;
    box-shadow: none !important;
    background: transparent none !important;
    pointer-events: none !important;
    white-space: normal !important;
}
style.firebugResetStyles {
    display: none !important;
}

.firebugBlockBackgroundColor {
    background-color: transparent !important;
}

.firebugResetStyles:before, .firebugResetStyles:after {
    content: "" !important;
}
/**actual styling to be modified by firebug theme**/
.firebugCanvas {
    display: none !important;
}

/* * * * * * * * * * * * * * * * * * * * * * * * * * * * * * * * * * * * * * * * * * * * * * * * */
.firebugLayoutBox {
    width: auto !important;
    position: static !important;
}

.firebugLayoutBoxOffset {
    opacity: 0.8 !important;
    position: fixed !important;
}

.firebugLayoutLine {
    opacity: 0.4 !important;
    background-color: #000000 !important;
}

.firebugLayoutLineLeft, .firebugLayoutLineRight {
    width: 1px !important;
    height: 100% !important;
}

.firebugLayoutLineTop, .firebugLayoutLineBottom {
    width: 100% !important;
    height: 1px !important;
}

.firebugLayoutLineTop {
    margin-top: -1px !important;
    border-top: 1px solid #999999 !important;
}

.firebugLayoutLineRight {
    border-right: 1px solid #999999 !important;
}

.firebugLayoutLineBottom {
    border-bottom: 1px solid #999999 !important;
}

.firebugLayoutLineLeft {
    margin-left: -1px !important;
    border-left: 1px solid #999999 !important;
}

/* * * * * * * * * * * * * * * * * * * * * * * * * * * * * * * * * * * * * * * * * * * * * * * * */
.firebugLayoutBoxParent {
    border-top: 0 none !important;
    border-right: 1px dashed #E00 !important;
    border-bottom: 1px dashed #E00 !important;
    border-left: 0 none !important;
    position: fixed !important;
    width: auto !important;
}

.firebugRuler{
    position: absolute !important;
}

.firebugRulerH {
    top: -15px !important;
    left: 0 !important;
    width: 100% !important;
    height: 14px !important;
    background: url("data:image/png,%89PNG%0D%0A%1A%0A%00%00%00%0DIHDR%00%00%13%88%00%00%00%0E%08%02%00%00%00L%25a%0A%00%00%00%04gAMA%00%00%D6%D8%D4OX2%00%00%00%19tEXtSoftware%00Adobe%20ImageReadyq%C9e%3C%00%00%04%F8IDATx%DA%EC%DD%D1n%E2%3A%00E%D1%80%F8%FF%EF%E2%AF2%95%D0D4%0E%C1%14%B0%8Fa-%E9%3E%CC%9C%87n%B9%81%A6W0%1C%A6i%9A%E7y%0As8%1CT%A9R%A5J%95*U%AAT%A9R%A5J%95*U%AAT%A9R%A5J%95*U%AAT%A9R%A5J%95*U%AAT%A9R%A5J%95*U%AAT%A9R%A5J%95*U%AAT%A9R%A5J%95*U%AATE9%FE%FCw%3E%9F%AF%2B%2F%BA%97%FDT%1D~K(%5C%9D%D5%EA%1B%5C%86%B5%A9%BDU%B5y%80%ED%AB*%03%FAV9%AB%E1%CEj%E7%82%EF%FB%18%BC%AEJ8%AB%FA'%D2%BEU9%D7U%ECc0%E1%A2r%5DynwVi%CFW%7F%BB%17%7Dy%EACU%CD%0E%F0%FA%3BX%FEbV%FEM%9B%2B%AD%BE%AA%E5%95v%AB%AA%E3E5%DCu%15rV9%07%B5%7F%B5w%FCm%BA%BE%AA%FBY%3D%14%F0%EE%C7%60%0EU%AAT%A9R%A5J%95*U%AAT%A9R%A5J%95*U%AAT%A9R%A5J%95*U%AAT%A9R%A5J%95*U%AAT%A9R%A5JU%88%D3%F5%1F%AE%DF%3B%1B%F2%3E%DAUCNa%F92%D02%AC%7Dm%F9%3A%D4%F2%8B6%AE*%BF%5C%C2Ym~9g5%D0Y%95%17%7C%C8c%B0%7C%18%26%9CU%CD%13i%F7%AA%90%B3Z%7D%95%B4%C7%60%E6E%B5%BC%05%B4%FBY%95U%9E%DB%FD%1C%FC%E0%9F%83%7F%BE%17%7DkjMU%E3%03%AC%7CWj%DF%83%9An%BCG%AE%F1%95%96yQ%0Dq%5Dy%00%3Et%B5'%FC6%5DS%95pV%95%01%81%FF'%07%00%00%00%00%00%00%00%00%00%F8x%C7%F0%BE%9COp%5D%C9%7C%AD%E7%E6%EBV%FB%1E%E0(%07%E5%AC%C6%3A%ABi%9C%8F%C6%0E9%AB%C0'%D2%8E%9F%F99%D0E%B5%99%14%F5%0D%CD%7F%24%C6%DEH%B8%E9rV%DFs%DB%D0%F7%00k%FE%1D%84%84%83J%B8%E3%BA%FB%EF%20%84%1C%D7%AD%B0%8E%D7U%C8Y%05%1E%D4t%EF%AD%95Q%BF8w%BF%E9%0A%BF%EB%03%00%00%00%00%00%00%00%00%00%B8vJ%8E%BB%F5%B1u%8Cx%80%E1o%5E%CA9%AB%CB%CB%8E%03%DF%1D%B7T%25%9C%D5(%EFJM8%AB%CC'%D2%B2*%A4s%E7c6%FB%3E%FA%A2%1E%80~%0E%3E%DA%10x%5D%95Uig%15u%15%ED%7C%14%B6%87%A1%3B%FCo8%A8%D8o%D3%ADO%01%EDx%83%1A~%1B%9FpP%A3%DC%C6'%9C%95gK%00%00%00%00%00%00%00%00%00%20%D9%C9%11%D0%C0%40%AF%3F%EE%EE%92%94%D6%16X%B5%BCMH%15%2F%BF%D4%A7%C87%F1%8E%F2%81%AE%AAvzr%DA2%ABV%17%7C%E63%83%E7I%DC%C6%0Bs%1B%EF6%1E%00%00%00%00%00%00%00%00%00%80cr%9CW%FF%7F%C6%01%0E%F1%CE%A5%84%B3%CA%BC%E0%CB%AA%84%CE%F9%BF)%EC%13%08WU%AE%AB%B1%AE%2BO%EC%8E%CBYe%FE%8CN%ABr%5Dy%60~%CFA%0D%F4%AE%D4%BE%C75%CA%EDVB%EA(%B7%F1%09g%E5%D9%12%00%00%00%00%00%00%00%00%00H%F6%EB%13S%E7y%5E%5E%FB%98%F0%22%D1%B2'%A7%F0%92%B1%BC%24z3%AC%7Dm%60%D5%92%B4%7CEUO%5E%F0%AA*%3BU%B9%AE%3E%A0j%94%07%A0%C7%A0%AB%FD%B5%3F%A0%F7%03T%3Dy%D7%F7%D6%D4%C0%AAU%D2%E6%DFt%3F%A8%CC%AA%F2%86%B9%D7%F5%1F%18%E6%01%F8%CC%D5%9E%F0%F3z%88%AA%90%EF%20%00%00%00%00%00%00%00%00%00%C0%A6%D3%EA%CFi%AFb%2C%7BB%0A%2B%C3%1A%D7%06V%D5%07%A8r%5D%3D%D9%A6%CAu%F5%25%CF%A2%99%97zNX%60%95%AB%5DUZ%D5%FBR%03%AB%1C%D4k%9F%3F%BB%5C%FF%81a%AE%AB'%7F%F3%EA%FE%F3z%94%AA%D8%DF%5B%01%00%00%00%00%00%00%00%00%00%8E%FB%F3%F2%B1%1B%8DWU%AAT%A9R%A5J%95*U%AAT%A9R%A5J%95*U%AAT%A9R%A5J%95*U%AAT%A9R%A5J%95*U%AAT%A9R%A5J%95*U%AAT%A9R%A5J%95*U%AAT%A9R%A5J%95*UiU%C7%BBe%E7%F3%B9%CB%AAJ%95*U%AAT%A9R%A5J%95*U%AAT%A9R%A5J%95*U%AAT%A9R%A5J%95*U%AAT%A9R%A5J%95*U%AAT%A9R%A5J%95*U%AAT%A9R%A5J%95*U%AAT%A9R%A5*%AAj%FD%C6%D4%5Eo%90%B5Z%ADV%AB%D5j%B5Z%ADV%AB%D5j%B5Z%ADV%AB%D5j%B5Z%ADV%AB%D5j%B5Z%ADV%AB%D5j%B5Z%ADV%AB%D5j%B5Z%ADV%AB%D5j%B5%86%AF%1B%9F%98%DA%EBm%BBV%AB%D5j%B5Z%ADV%AB%D5j%B5Z%ADV%AB%D5j%B5Z%ADV%AB%D5j%B5Z%ADV%AB%D5j%B5Z%ADV%AB%D5j%B5Z%ADV%AB%D5j%B5Z%AD%D6%E4%F58%01%00%00%00%00%00%00%00%00%00%00%00%00%00%40%85%7F%02%0C%008%C2%D0H%16j%8FX%00%00%00%00IEND%AEB%60%82") repeat-x !important;
    border-top: 1px solid #BBBBBB !important;
    border-right: 1px dashed #BBBBBB !important;
    border-bottom: 1px solid #000000 !important;
}

.firebugRulerV {
    top: 0 !important;
    left: -15px !important;
    width: 14px !important;
    height: 100% !important;
    background: url("data:image/png,%89PNG%0D%0A%1A%0A%00%00%00%0DIHDR%00%00%00%0E%00%00%13%88%08%02%00%00%00%0E%F5%CB%10%00%00%00%04gAMA%00%00%D6%D8%D4OX2%00%00%00%19tEXtSoftware%00Adobe%20ImageReadyq%C9e%3C%00%00%06~IDATx%DA%EC%DD%D1v%A20%14%40Qt%F1%FF%FF%E4%97%D9%07%3BT%19%92%DC%40(%90%EEy%9A5%CB%B6%E8%F6%9Ac%A4%CC0%84%FF%DC%9E%CF%E7%E3%F1%88%DE4%F8%5D%C7%9F%2F%BA%DD%5E%7FI%7D%F18%DDn%BA%C5%FB%DF%97%BFk%F2%10%FF%FD%B4%F2M%A7%FB%FD%FD%B3%22%07p%8F%3F%AE%E3%F4S%8A%8F%40%EEq%9D%BE8D%F0%0EY%A1Uq%B7%EA%1F%81%88V%E8X%3F%B4%CEy%B7h%D1%A2E%EBohU%FC%D9%AF2fO%8BBeD%BE%F7X%0C%97%A4%D6b7%2Ck%A5%12%E3%9B%60v%B7r%C7%1AI%8C%BD%2B%23r%00c0%B2v%9B%AD%CA%26%0C%1Ek%05A%FD%93%D0%2B%A1u%8B%16-%95q%5Ce%DCSO%8E%E4M%23%8B%F7%C2%FE%40%BB%BD%8C%FC%8A%B5V%EBu%40%F9%3B%A72%FA%AE%8C%D4%01%CC%B5%DA%13%9CB%AB%E2I%18%24%B0n%A9%0CZ*Ce%9C%A22%8E%D8NJ%1E%EB%FF%8F%AE%CAP%19*%C3%BAEKe%AC%D1%AAX%8C*%DEH%8F%C5W%A1e%AD%D4%B7%5C%5B%19%C5%DB%0D%EF%9F%19%1D%7B%5E%86%BD%0C%95%A12%AC%5B*%83%96%CAP%19%F62T%86%CAP%19*%83%96%CA%B8Xe%BC%FE)T%19%A1%17xg%7F%DA%CBP%19*%C3%BA%A52T%86%CAP%19%F62T%86%CA%B0n%A9%0CZ%1DV%C6%3D%F3%FCH%DE%B4%B8~%7F%5CZc%F1%D6%1F%AF%84%F9%0F6%E6%EBVt9%0E~%BEr%AF%23%B0%97%A12T%86%CAP%19%B4T%86%CA%B8Re%D8%CBP%19*%C3%BA%A52huX%19%AE%CA%E5%BC%0C%7B%19*CeX%B7h%A9%0C%95%E1%BC%0C%7B%19*CeX%B7T%06%AD%CB%5E%95%2B%BF.%8F%C5%97%D5%E4%7B%EE%82%D6%FB%CF-%9C%FD%B9%CF%3By%7B%19%F62T%86%CA%B0n%D1R%19*%A3%D3%CA%B0%97%A12T%86uKe%D0%EA%B02*%3F1%99%5DB%2B%A4%B5%F8%3A%7C%BA%2B%8Co%7D%5C%EDe%A8%0C%95a%DDR%19%B4T%C66%82fA%B2%ED%DA%9FC%FC%17GZ%06%C9%E1%B3%E5%2C%1A%9FoiB%EB%96%CA%A0%D5qe4%7B%7D%FD%85%F7%5B%ED_%E0s%07%F0k%951%ECr%0D%B5C%D7-g%D1%A8%0C%EB%96%CA%A0%A52T%C6)*%C3%5E%86%CAP%19%D6-%95A%EB*%95q%F8%BB%E3%F9%AB%F6%E21%ACZ%B7%22%B7%9B%3F%02%85%CB%A2%5B%B7%BA%5E%B7%9C%97%E1%BC%0C%EB%16-%95%A12z%AC%0C%BFc%A22T%86uKe%D0%EA%B02V%DD%AD%8A%2B%8CWhe%5E%AF%CF%F5%3B%26%CE%CBh%5C%19%CE%CB%B0%F3%A4%095%A1%CAP%19*Ce%A8%0C%3BO*Ce%A8%0C%95%A12%3A%AD%8C%0A%82%7B%F0v%1F%2FD%A9%5B%9F%EE%EA%26%AF%03%CA%DF9%7B%19*Ce%A8%0C%95%A12T%86%CA%B8Ze%D8%CBP%19*Ce%A8%0C%95%D1ae%EC%F7%89I%E1%B4%D7M%D7P%8BjU%5C%BB%3E%F2%20%D8%CBP%19*Ce%A8%0C%95%A12T%C6%D5*%C3%5E%86%CAP%19*Ce%B4O%07%7B%F0W%7Bw%1C%7C%1A%8C%B3%3B%D1%EE%AA%5C%D6-%EBV%83%80%5E%D0%CA%10%5CU%2BD%E07YU%86%CAP%19*%E3%9A%95%91%D9%A0%C8%AD%5B%EDv%9E%82%FFKOee%E4%8FUe%A8%0C%95%A12T%C6%1F%A9%8C%C8%3D%5B%A5%15%FD%14%22r%E7B%9F%17l%F8%BF%ED%EAf%2B%7F%CF%ECe%D8%CBP%19*Ce%A8%0C%95%E1%93~%7B%19%F62T%86%CAP%19*Ce%A8%0C%E7%13%DA%CBP%19*Ce%A8%0CZf%8B%16-Z%B4h%D1R%19f%8B%16-Z%B4h%D1R%19%B4%CC%16-Z%B4h%D1R%19%B4%CC%16-Z%B4h%D1%A2%A52%CC%16-Z%B4h%D1%A2%A52h%99-Z%B4h%D1%A2%A52h%99-Z%B4h%D1%A2EKe%98-Z%B4h%D1%A2EKe%D02%5B%B4h%D1%A2EKe%D02%5B%B4h%D1%A2E%8B%96%CA0%5B%B4h%D1%A2E%8B%96%CA%A0e%B6h%D1%A2E%8B%96%CA%A0e%B6h%D1%A2E%8B%16-%95a%B6h%D1%A2E%8B%16-%95A%CBl%D1%A2E%8B%16-%95A%CBl%D1%A2E%8B%16-Z*%C3l%D1%A2E%8B%16-Z*%83%96%D9%A2E%8B%16-Z*%83%96%D9%A2E%8B%16-Z%B4T%86%D9%A2E%8B%16-Z%B4T%06-%B3E%8B%16-Z%B4T%06-%B3E%8B%16-Z%B4h%A9%0C%B3E%8B%16-Z%B4h%A9%0CZf%8B%16-Z%B4h%A9%0CZf%8B%16-Z%B4h%D1R%19f%8B%16-Z%B4h%D1R%19%B4%CC%16-Z%B4h%D1R%19%B4%CC%16-Z%B4h%D1%A2%A52%CC%16-Z%B4h%D1%A2%A52h%99-Z%B4h%D1%A2%A52h%99-Z%B4h%D1%A2EKe%98-Z%B4h%D1%A2EKe%D02%5B%B4h%D1%A2EKe%D02%5B%B4h%D1%A2E%8B%96%CA0%5B%B4h%D1%A2E%8B%96%CA%A0e%B6h%D1%A2E%8B%96%CA%A0e%B6h%D1%A2E%8B%16-%95a%B6h%D1%A2E%8B%16-%95A%CBl%D1%A2E%8B%16-%95A%CBl%D1%A2E%8B%16-Z*%C3l%D1%A2E%8B%16-Z*%83%96%D9%A2E%8B%16-Z*%83%96%D9%A2E%8B%16-Z%B4T%86%D9%A2E%8B%16-Z%B4T%06-%B3E%8B%16-Z%B4T%06-%B3E%8B%16-Z%B4h%A9%0C%B3E%8B%16-Z%B4h%A9%0CZf%8B%16-Z%B4h%A9%0CZf%8B%16-Z%B4h%D1R%19f%8B%16-Z%B4h%D1R%19%B4%CC%16-Z%B4h%D1R%19%B4%CC%16-Z%B4h%D1%A2%A52%CC%16-Z%B4h%D1%A2%A52h%99-Z%B4h%D1%A2%A52h%99-Z%B4h%D1%A2EKe%98-Z%B4h%D1%A2EKe%D02%5B%B4h%D1%A2EKe%D02%5B%B4h%D1%A2E%8B%96%CA0%5B%B4h%D1%A2E%8B%96%CA%A0e%B6h%D1%A2E%8B%96%CA%A0e%B6h%D1%A2E%8B%16-%95a%B6h%D1%A2E%8B%16-%95A%CBl%D1%A2E%8B%16-%95A%CBl%D1%A2E%8B%16-Z*%C3l%D1%A2E%8B%16-Z*%83%96%D9%A2E%8B%16-Z*%83%96%D9%A2E%8B%16-Z%B4T%86%D9%A2E%8B%16-Z%B4T%06-%B3E%8B%16-Z%B4%AE%A4%F5%25%C0%00%DE%BF%5C'%0F%DA%B8q%00%00%00%00IEND%AEB%60%82") repeat-y !important;
    border-left: 1px solid #BBBBBB !important;
    border-right: 1px solid #000000 !important;
    border-bottom: 1px dashed #BBBBBB !important;
}

.overflowRulerX &gt; .firebugRulerV {
    left: 0 !important;
}

.overflowRulerY &gt; .firebugRulerH {
    top: 0 !important;
}

/* * * * * * * * * * * * * * * * * * * * * * * * * * * * * * * * * * * * * * * * * * * * * * * * */
.fbProxyElement {
    position: fixed !important;
    pointer-events: auto !important;
}
</style></svg>