<svg xmlns="http://www.w3.org/2000/svg" version="1.1" viewBox="0.00 0.00 160.00 160.00">
<g stroke-width="2.00" fill="none" stroke-linecap="butt" data-svg-id="svg-elem-1776078384759-3g8i4ln1n" id="svg-elem-1776078384759-3g8i4ln1n">
<path stroke="#c7ddd3" vector-effect="non-scaling-stroke" d="   M 125.55 145.60   Q 124.85 138.59 124.69 131.72   Q 124.56 125.68 123.42 123.25   Q 121.52 119.16 117.22 117.52   Q 108.70 114.25 100.38 110.84" data-svg-id="svg-elem-1776078384759-0rb1ui838" id="svg-elem-1776078384759-0rb1ui838"></path>
<path stroke="#e2d1bf" vector-effect="non-scaling-stroke" d="   M 100.38 110.84   Q 92.72 108.97 90.87 101.83" data-svg-id="svg-elem-1776078384759-t1tqqms5n" id="svg-elem-1776078384759-t1tqqms5n"></path>
<path stroke="#838281" vector-effect="non-scaling-stroke" d="   M 90.87 101.83   Q 97.35 103.14 102.37 106.09   A 0.99 0.98 -57.5 0 0 103.67 105.80   Q 111.20 95.06 113.07 82.54   C 115.29 67.71 113.54 44.47 96.31 40.01   A 4.50 4.49 -19.3 0 1 94.79 39.28   C 85.12 32.20 72.71 32.09 61.80 36.83   Q 49.54 42.15 46.09 55.05   C 41.47 72.34 43.64 93.69 56.09 107.31   A 0.57 0.56 -38.4 0 0 56.83 107.39   Q 61.80 103.96 67.83 102.42" data-svg-id="svg-elem-1776078384759-o03mxdzjl" id="svg-elem-1776078384759-o03mxdzjl"></path>
<path stroke="#e2d1bf" vector-effect="non-scaling-stroke" d="   M 67.83 102.42   L 68.09 102.72   A 0.71 0.70 -54.8 0 1 68.22 103.49   Q 65.68 109.25 59.29 110.74" data-svg-id="svg-elem-1776078384759-tmnyzbiel" id="svg-elem-1776078384759-tmnyzbiel"></path>
<path stroke="#c7ddd3" vector-effect="non-scaling-stroke" d="   M 59.29 110.74   Q 52.17 113.91 44.75 116.95   Q 40.95 118.50 39.94 119.47   Q 37.91 121.42 36.60 123.88   Q 35.66 125.63 35.56 131.96   Q 35.46 138.75 34.97 145.72" data-svg-id="svg-elem-1776078384759-av5aof7ml" id="svg-elem-1776078384759-av5aof7ml"></path>
<path stroke="#7e6d5a" vector-effect="non-scaling-stroke" d="   M 90.87 101.83   L 90.59 99.68" data-svg-id="svg-elem-1776078384759-atvp2tzpv" id="svg-elem-1776078384759-atvp2tzpv"></path>
<path stroke="#8a7963" vector-effect="non-scaling-stroke" d="   M 90.59 99.68   Q 97.70 91.80 100.88 81.76   A 6.41 6.17 -17.3 0 1 102.04 79.65   Q 105.18 75.88 105.51 71.18   A 3.83 3.81 -75.0 0 0 103.39 67.48   Q 101.67 66.65 100.01 70.06   A 0.44 0.44 0.0 0 1 99.18 69.96   C 98.24 65.61 97.50 58.33 94.46 53.97   C 93.10 52.01 91.58 51.43 89.22 51.02   C 74.06 48.34 64.51 56.64 60.48 70.68   A 0.35 0.35 0.0 0 1 59.81 70.70   Q 58.08 66.06 55.69 67.81   C 51.58 70.81 56.04 77.57 58.04 80.36   A 5.83 5.81 -71.4 0 1 58.88 82.06   Q 61.95 92.15 69.01 100.00" data-svg-id="svg-elem-1776078384759-et0d0czy9" id="svg-elem-1776078384759-et0d0czy9"></path>
<path stroke="#7e6d5a" vector-effect="non-scaling-stroke" d="   M 69.01 100.00   Q 68.48 102.39 67.83 102.42" data-svg-id="svg-elem-1776078384759-9gw8vp649" id="svg-elem-1776078384759-9gw8vp649"></path>
<path stroke="#eac8a1" vector-effect="non-scaling-stroke" d="   M 90.59 99.68   C 84.94 104.26 80.03 107.74 72.91 102.82   Q 70.84 101.39 69.01 100.00" data-svg-id="svg-elem-1776078384759-8x9nj2th1" id="svg-elem-1776078384759-8x9nj2th1"></path>
<path stroke="#c2c8ac" vector-effect="non-scaling-stroke" d="   M 100.38 110.84   C 98.96 113.80 97.87 117.49 96.51 119.81   Q 90.29 130.35 77.98 129.34   C 67.23 128.47 62.25 119.93 59.29 110.74" data-svg-id="svg-elem-1776078384759-os62h22c5" id="svg-elem-1776078384759-os62h22c5"></path>
</g>
<path fill="#e7e6e6" d="   M 160.00 76.16   L 160.00 83.93   Q 157.19 122.80 125.55 145.60   Q 124.85 138.59 124.69 131.72   Q 124.56 125.68 123.42 123.25   Q 121.52 119.16 117.22 117.52   Q 108.70 114.25 100.38 110.84   Q 92.72 108.97 90.87 101.83   Q 97.35 103.14 102.37 106.09   A 0.99 0.98 -57.5 0 0 103.67 105.80   Q 111.20 95.06 113.07 82.54   C 115.29 67.71 113.54 44.47 96.31 40.01   A 4.50 4.49 -19.3 0 1 94.79 39.28   C 85.12 32.20 72.71 32.09 61.80 36.83   Q 49.54 42.15 46.09 55.05   C 41.47 72.34 43.64 93.69 56.09 107.31   A 0.57 0.56 -38.4 0 0 56.83 107.39   Q 61.80 103.96 67.83 102.42   L 68.09 102.72   A 0.71 0.70 -54.8 0 1 68.22 103.49   Q 65.68 109.25 59.29 110.74   Q 52.17 113.91 44.75 116.95   Q 40.95 118.50 39.94 119.47   Q 37.91 121.42 36.60 123.88   Q 35.66 125.63 35.56 131.96   Q 35.46 138.75 34.97 145.72   C -15.60 110.00 -9.86 34.13 46.69 7.61   C 77.77 -6.96 114.78 0.47 138.62 25.64   Q 158.14 46.25 160.00 76.16   Z" data-svg-id="svg-elem-1776078384759-vnthfxwv5" id="svg-elem-1776078384759-vnthfxwv5"></path>
<path fill="#1e1e1c" d="   M 90.87 101.83   L 90.59 99.68   Q 97.70 91.80 100.88 81.76   A 6.41 6.17 -17.3 0 1 102.04 79.65   Q 105.18 75.88 105.51 71.18   A 3.83 3.81 -75.0 0 0 103.39 67.48   Q 101.67 66.65 100.01 70.06   A 0.44 0.44 0.0 0 1 99.18 69.96   C 98.24 65.61 97.50 58.33 94.46 53.97   C 93.10 52.01 91.58 51.43 89.22 51.02   C 74.06 48.34 64.51 56.64 60.48 70.68   A 0.35 0.35 0.0 0 1 59.81 70.70   Q 58.08 66.06 55.69 67.81   C 51.58 70.81 56.04 77.57 58.04 80.36   A 5.83 5.81 -71.4 0 1 58.88 82.06   Q 61.95 92.15 69.01 100.00   Q 68.48 102.39 67.83 102.42   Q 61.80 103.96 56.83 107.39   A 0.57 0.56 -38.4 0 1 56.09 107.31   C 43.64 93.69 41.47 72.34 46.09 55.05   Q 49.54 42.15 61.80 36.83   C 72.71 32.09 85.12 32.20 94.79 39.28   A 4.50 4.49 -19.3 0 0 96.31 40.01   C 113.54 44.47 115.29 67.71 113.07 82.54   Q 111.20 95.06 103.67 105.80   A 0.99 0.98 -57.5 0 1 102.37 106.09   Q 97.35 103.14 90.87 101.83   Z" data-svg-id="svg-elem-1776078384759-8vjdwx6qu" id="svg-elem-1776078384759-8vjdwx6qu"></path>
<path fill="#f6d3a9" d="   M 90.59 99.68   C 84.94 104.26 80.03 107.74 72.91 102.82   Q 70.84 101.39 69.01 100.00   Q 61.95 92.15 58.88 82.06   A 5.83 5.81 -71.4 0 0 58.04 80.36   C 56.04 77.57 51.58 70.81 55.69 67.81   Q 58.08 66.06 59.81 70.70   A 0.35 0.35 0.0 0 0 60.48 70.68   C 64.51 56.64 74.06 48.34 89.22 51.02   C 91.58 51.43 93.10 52.01 94.46 53.97   C 97.50 58.33 98.24 65.61 99.18 69.96   A 0.44 0.44 0.0 0 0 100.01 70.06   Q 101.67 66.65 103.39 67.48   A 3.83 3.81 -75.0 0 1 105.51 71.18   Q 105.18 75.88 102.04 79.65   A 6.41 6.17 -17.3 0 0 100.88 81.76   Q 97.70 91.80 90.59 99.68   Z" data-svg-id="svg-elem-1776078384759-pjeen81ak" id="svg-elem-1776078384759-pjeen81ak"></path>
<path fill="#ddbc98" d="   M 90.59 99.68   L 90.87 101.83   Q 92.72 108.97 100.38 110.84   C 98.96 113.80 97.87 117.49 96.51 119.81   Q 90.29 130.35 77.98 129.34   C 67.23 128.47 62.25 119.93 59.29 110.74   Q 65.68 109.25 68.22 103.49   A 0.71 0.70 -54.8 0 0 68.09 102.72   L 67.83 102.42   Q 68.48 102.39 69.01 100.00   Q 70.84 101.39 72.91 102.82   C 80.03 107.74 84.94 104.26 90.59 99.68   Z" data-svg-id="svg-elem-1776078384759-sfb7gxa00" id="svg-elem-1776078384759-sfb7gxa00"></path>
<path fill="#a7d4bf" d="   M 59.29 110.74   C 62.25 119.93 67.23 128.47 77.98 129.34   Q 90.29 130.35 96.51 119.81   C 97.87 117.49 98.96 113.80 100.38 110.84   Q 108.70 114.25 117.22 117.52   Q 121.52 119.16 123.42 123.25   Q 124.56 125.68 124.69 131.72   Q 124.85 138.59 125.55 145.60   Q 103.08 161.04 75.50 159.55   Q 53.37 158.36 34.97 145.72   Q 35.46 138.75 35.56 131.96   Q 35.66 125.63 36.60 123.88   Q 37.91 121.42 39.94 119.47   Q 40.95 118.50 44.75 116.95   Q 52.17 113.91 59.29 110.74   Z" data-svg-id="svg-elem-1776078384759-rvyd2n7kj" id="svg-elem-1776078384759-rvyd2n7kj"></path>
</svg>