<svg xmlns="http://www.w3.org/2000/svg" version="1.1" viewBox="0.00 0.00 160.00 160.00">
<g stroke-width="2.00" fill="none" stroke-linecap="butt" data-svg-id="svg-elem-1776078620400-855q6cq44" id="svg-elem-1776078620400-855q6cq44">
<path stroke="#f8f8f8" vector-effect="non-scaling-stroke" d="   M 135.33 137.81   C 134.21 127.14 135.12 116.99 122.89 113.13   Q 108.94 108.72 103.05 106.81   A 2.08 2.06 86.5 0 1 101.81 105.70   L 97.04 95.26   A 0.52 0.52 0.0 0 0 96.32 95.02   Q 94.72 95.92 93.52 97.40" data-svg-id="svg-elem-1776078620400-9d96tb2yn" id="svg-elem-1776078620400-9d96tb2yn"></path>
<path stroke="#f4e2cd" vector-effect="non-scaling-stroke" d="   M 93.52 97.40   L 93.01 93.40" data-svg-id="svg-elem-1776078620400-zbqhcf24i" id="svg-elem-1776078620400-zbqhcf24i"></path>
<path stroke="#7a7a7a" vector-effect="non-scaling-stroke" d="   M 93.01 93.40   L 97.81 89.88   A 3.65 3.62 79.9 0 0 99.13 87.97   L 103.35 73.06" data-svg-id="svg-elem-1776078620400-knsrvlcu7" id="svg-elem-1776078620400-knsrvlcu7"></path>
<path stroke="#f4e2cd" vector-effect="non-scaling-stroke" d="   M 103.35 73.06   Q 109.21 71.20 109.85 63.51   Q 110.17 59.63 106.34 58.48" data-svg-id="svg-elem-1776078620400-yqu544frs" id="svg-elem-1776078620400-yqu544frs"></path>
<path stroke="#7a7a7a" vector-effect="non-scaling-stroke" d="   M 106.34 58.48   C 106.68 54.34 107.61 48.94 107.11 45.46   Q 105.99 37.70 100.62 31.67   Q 97.79 28.49 95.75 21.63   A 1.05 1.04 -1.0 0 0 95.02 20.93   Q 84.54 18.26 74.70 18.71   C 60.64 19.36 52.57 28.24 52.44 42.01   Q 52.38 48.69 54.01 58.32" data-svg-id="svg-elem-1776078620400-70wfflb2t" id="svg-elem-1776078620400-70wfflb2t"></path>
<path stroke="#f4e2cd" vector-effect="non-scaling-stroke" d="   M 54.01 58.32   Q 49.57 60.72 50.90 65.82   Q 52.53 72.05 57.15 73.96" data-svg-id="svg-elem-1776078620400-i7qhge38s" id="svg-elem-1776078620400-i7qhge38s"></path>
<path stroke="#7a7a7a" vector-effect="non-scaling-stroke" d="   M 57.15 73.96   L 61.10 87.99   A 3.43 3.41 10.3 0 0 62.38 89.83   L 67.17 93.31" data-svg-id="svg-elem-1776078620400-0gog8n1qk" id="svg-elem-1776078620400-0gog8n1qk"></path>
<path stroke="#f4e2cd" vector-effect="non-scaling-stroke" d="   M 67.17 93.31   L 66.57 97.19" data-svg-id="svg-elem-1776078620400-nhb86j1wo" id="svg-elem-1776078620400-nhb86j1wo"></path>
<path stroke="#f8f8f8" vector-effect="non-scaling-stroke" d="   M 66.57 97.19   L 63.97 94.60   A 0.50 0.50 0.0 0 0 63.16 94.75   L 58.13 105.51   A 2.63 2.59 -86.3 0 1 56.59 106.88   Q 47.79 109.78 41.12 111.75   C 32.01 114.44 26.08 118.13 25.57 127.54   Q 25.25 133.47 24.06 137.23" data-svg-id="svg-elem-1776078620400-usydc1zrx" id="svg-elem-1776078620400-usydc1zrx"></path>
<path stroke="#7c6b56" vector-effect="non-scaling-stroke" d="   M 106.34 58.48   Q 106.02 64.23 104.10 69.21   A 0.69 0.69 0.0 0 1 102.77 68.95   Q 102.92 62.96 103.74 57.04   C 105.10 47.34 98.97 45.73 91.10 46.83   C 87.80 47.30 81.28 48.28 76.51 47.73   Q 69.62 46.93 64.53 46.51   C 57.31 45.92 55.43 51.76 56.36 57.69   Q 57.30 63.69 57.24 68.44   A 0.66 0.66 0.0 0 1 56.24 69.00   Q 56.18 68.97 56.09 68.68   Q 54.40 63.57 54.01 58.32" data-svg-id="svg-elem-1776078620400-g7sflc5u9" id="svg-elem-1776078620400-g7sflc5u9"></path>
<path stroke="#7c6b56" vector-effect="non-scaling-stroke" d="   M 103.35 73.06   L 103.52 71.46   A 0.21 0.21 0.0 0 0 103.12 71.34   Q 100.02 77.90 95.06 83.78   C 93.89 85.17 92.69 85.68 90.96 84.72   Q 85.66 81.80 84.41 81.80   Q 77.26 81.78 77.25 81.78   C 73.79 81.83 71.08 83.96 68.76 85.01   A 2.64 2.63 56.5 0 1 65.74 84.39   Q 60.74 78.95 57.17 71.42   A 0.22 0.22 0.0 0 0 56.76 71.51   Q 56.72 72.31 57.15 73.96" data-svg-id="svg-elem-1776078620400-9flqo2vmm" id="svg-elem-1776078620400-9flqo2vmm"></path>
<path stroke="#7c6b56" vector-effect="non-scaling-stroke" d="   M 93.01 93.40   C 89.71 95.77 86.29 97.89 82.32 99.20   C 77.55 100.77 70.78 95.97 67.17 93.31" data-svg-id="svg-elem-1776078620400-ivn9pactn" id="svg-elem-1776078620400-ivn9pactn"></path>
<path stroke="#7c6b56" vector-effect="non-scaling-stroke" d="   M 85.8701 87.2302   A 1.57 1.57 0.0 0 0 84.3028 85.6575   L 75.7228 85.6425   A 1.57 1.57 0.0 0 0 74.1501 87.2098   L 74.1499 87.3098   A 1.57 1.57 0.0 0 0 75.7172 88.8825   L 84.2972 88.8975   A 1.57 1.57 0.0 0 0 85.8699 87.3302   L 85.8701 87.2302" data-svg-id="svg-elem-1776078620400-zdd0gawes" id="svg-elem-1776078620400-zdd0gawes"></path>
<path stroke="#fbe9d4" vector-effect="non-scaling-stroke" d="   M 93.52 97.40   L 80.25 110.70   A 0.49 0.49 0.0 0 1 79.56 110.69   L 66.57 97.19" data-svg-id="svg-elem-1776078620400-uahub8mix" id="svg-elem-1776078620400-uahub8mix"></path>
<path stroke="#d3eadf" vector-effect="non-scaling-stroke" d="   M 83.93 160.00   L 83.35 121.55   A 1.76 1.65 54.6 0 1 83.43 120.97   L 84.51 117.64   A 1.47 1.45 -55.6 0 0 84.26 116.28   L 80.66 111.76   A 0.86 0.86 0.0 0 0 79.31 111.76   L 76.03 115.93   A 2.45 2.45 0.0 0 0 75.78 118.59   Q 76.69 120.33 76.63 122.75   Q 76.33 134.63 76.13 158.50   Q 76.13 159.24 76.32 160.00" data-svg-id="svg-elem-1776078620400-hft37k1xk" id="svg-elem-1776078620400-hft37k1xk"></path>
</g>
<path fill="#f1f1f0" d="   M 85.19 0.00   C 125.83 3.41 156.72 34.22 160.00 74.90   L 160.00 84.70   Q 157.57 116.02 135.33 137.81   C 134.21 127.14 135.12 116.99 122.89 113.13   Q 108.94 108.72 103.05 106.81   A 2.08 2.06 86.5 0 1 101.81 105.70   L 97.04 95.26   A 0.52 0.52 0.0 0 0 96.32 95.02   Q 94.72 95.92 93.52 97.40   L 93.01 93.40   L 97.81 89.88   A 3.65 3.62 79.9 0 0 99.13 87.97   L 103.35 73.06   Q 109.21 71.20 109.85 63.51   Q 110.17 59.63 106.34 58.48   C 106.68 54.34 107.61 48.94 107.11 45.46   Q 105.99 37.70 100.62 31.67   Q 97.79 28.49 95.75 21.63   A 1.05 1.04 -1.0 0 0 95.02 20.93   Q 84.54 18.26 74.70 18.71   C 60.64 19.36 52.57 28.24 52.44 42.01   Q 52.38 48.69 54.01 58.32   Q 49.57 60.72 50.90 65.82   Q 52.53 72.05 57.15 73.96   L 61.10 87.99   A 3.43 3.41 10.3 0 0 62.38 89.83   L 67.17 93.31   L 66.57 97.19   L 63.97 94.60   A 0.50 0.50 0.0 0 0 63.16 94.75   L 58.13 105.51   A 2.63 2.59 -86.3 0 1 56.59 106.88   Q 47.79 109.78 41.12 111.75   C 32.01 114.44 26.08 118.13 25.57 127.54   Q 25.25 133.47 24.06 137.23   Q 2.62 115.88 0.00 85.51   L 0.00 74.53   C 3.41 34.08 34.00 3.49 74.44 0.00   L 85.19 0.00   Z" data-svg-id="svg-elem-1776078620400-8mupgodpd" id="svg-elem-1776078620400-8mupgodpd"></path><use href="#svg-elem-1776078620400-8mupgodpd" xlink:href="#svg-elem-1776078620400-8mupgodpd" fill="none" stroke="#007bff" vector-effect="non-scaling-stroke" stroke-width="1.5" data-selection-highlight="true" style="pointer-events: none;"></use>
<path fill="#020203" d="   M 106.34 58.48   Q 106.02 64.23 104.10 69.21   A 0.69 0.69 0.0 0 1 102.77 68.95   Q 102.92 62.96 103.74 57.04   C 105.10 47.34 98.97 45.73 91.10 46.83   C 87.80 47.30 81.28 48.28 76.51 47.73   Q 69.62 46.93 64.53 46.51   C 57.31 45.92 55.43 51.76 56.36 57.69   Q 57.30 63.69 57.24 68.44   A 0.66 0.66 0.0 0 1 56.24 69.00   Q 56.18 68.97 56.09 68.68   Q 54.40 63.57 54.01 58.32   Q 52.38 48.69 52.44 42.01   C 52.57 28.24 60.64 19.36 74.70 18.71   Q 84.54 18.26 95.02 20.93   A 1.05 1.04 -1.0 0 1 95.75 21.63   Q 97.79 28.49 100.62 31.67   Q 105.99 37.70 107.11 45.46   C 107.61 48.94 106.68 54.34 106.34 58.48   Z" data-svg-id="svg-elem-1776078620400-86delh5e5" id="svg-elem-1776078620400-86delh5e5"></path>
<path fill="#f6d3a9" d="   M 106.34 58.48   Q 110.17 59.63 109.85 63.51   Q 109.21 71.20 103.35 73.06   L 103.52 71.46   A 0.21 0.21 0.0 0 0 103.12 71.34   Q 100.02 77.90 95.06 83.78   C 93.89 85.17 92.69 85.68 90.96 84.72   Q 85.66 81.80 84.41 81.80   Q 77.26 81.78 77.25 81.78   C 73.79 81.83 71.08 83.96 68.76 85.01   A 2.64 2.63 56.5 0 1 65.74 84.39   Q 60.74 78.95 57.17 71.42   A 0.22 0.22 0.0 0 0 56.76 71.51   Q 56.72 72.31 57.15 73.96   Q 52.53 72.05 50.90 65.82   Q 49.57 60.72 54.01 58.32   Q 54.40 63.57 56.09 68.68   Q 56.18 68.97 56.24 69.00   A 0.66 0.66 0.0 0 0 57.24 68.44   Q 57.30 63.69 56.36 57.69   C 55.43 51.76 57.31 45.92 64.53 46.51   Q 69.62 46.93 76.51 47.73   C 81.28 48.28 87.80 47.30 91.10 46.83   C 98.97 45.73 105.10 47.34 103.74 57.04   Q 102.92 62.96 102.77 68.95   A 0.69 0.69 0.0 0 0 104.10 69.21   Q 106.02 64.23 106.34 58.48   Z" data-svg-id="svg-elem-1776078620400-nsc0oyqpq" id="svg-elem-1776078620400-nsc0oyqpq"></path>
<path fill="#020203" d="   M 103.35 73.06   L 99.13 87.97   A 3.65 3.62 79.9 0 1 97.81 89.88   L 93.01 93.40   C 89.71 95.77 86.29 97.89 82.32 99.20   C 77.55 100.77 70.78 95.97 67.17 93.31   L 62.38 89.83   A 3.43 3.41 10.3 0 1 61.10 87.99   L 57.15 73.96   Q 56.72 72.31 56.76 71.51   A 0.22 0.22 0.0 0 1 57.17 71.42   Q 60.74 78.95 65.74 84.39   A 2.64 2.63 56.5 0 0 68.76 85.01   C 71.08 83.96 73.79 81.83 77.25 81.78   Q 77.26 81.78 84.41 81.80   Q 85.66 81.80 90.96 84.72   C 92.69 85.68 93.89 85.17 95.06 83.78   Q 100.02 77.90 103.12 71.34   A 0.21 0.21 0.0 0 1 103.52 71.46   L 103.35 73.06   Z   M 85.8701 87.2302   A 1.57 1.57 0.0 0 0 84.3028 85.6575   L 75.7228 85.6425   A 1.57 1.57 0.0 0 0 74.1501 87.2098   L 74.1499 87.3098   A 1.57 1.57 0.0 0 0 75.7172 88.8825   L 84.2972 88.8975   A 1.57 1.57 0.0 0 0 85.8699 87.3302   L 85.8701 87.2302   Z" data-svg-id="svg-elem-1776078620400-o8kl4866h" id="svg-elem-1776078620400-o8kl4866h"></path>
<rect fill="#f6d3a9" x="-5.86" y="-1.62" transform="translate(80.01,87.27) rotate(0.1)" width="11.72" height="3.24" rx="1.57" data-svg-id="svg-elem-1776078620400-d7141o1h3" id="svg-elem-1776078620400-d7141o1h3"></rect>
<path fill="#f6d3a9" d="   M 93.01 93.40   L 93.52 97.40   L 80.25 110.70   A 0.49 0.49 0.0 0 1 79.56 110.69   L 66.57 97.19   L 67.17 93.31   C 70.78 95.97 77.55 100.77 82.32 99.20   C 86.29 97.89 89.71 95.77 93.01 93.40   Z" data-svg-id="svg-elem-1776078620400-eq4hcqdx8" id="svg-elem-1776078620400-eq4hcqdx8"></path>
<path fill="#ffffff" d="   M 66.57 97.19   L 79.56 110.69   A 0.49 0.49 0.0 0 0 80.25 110.70   L 93.52 97.40   Q 94.72 95.92 96.32 95.02   A 0.52 0.52 0.0 0 1 97.04 95.26   L 101.81 105.70   A 2.08 2.06 86.5 0 0 103.05 106.81   Q 108.94 108.72 122.89 113.13   C 135.12 116.99 134.21 127.14 135.33 137.81   Q 114.14 157.70 84.72 160.00   L 83.93 160.00   L 83.35 121.55   A 1.76 1.65 54.6 0 1 83.43 120.97   L 84.51 117.64   A 1.47 1.45 -55.6 0 0 84.26 116.28   L 80.66 111.76   A 0.86 0.86 0.0 0 0 79.31 111.76   L 76.03 115.93   A 2.45 2.45 0.0 0 0 75.78 118.59   Q 76.69 120.33 76.63 122.75   Q 76.33 134.63 76.13 158.50   Q 76.13 159.24 76.32 160.00   L 75.62 160.00   Q 45.42 157.72 24.06 137.23   Q 25.25 133.47 25.57 127.54   C 26.08 118.13 32.01 114.44 41.12 111.75   Q 47.79 109.78 56.59 106.88   A 2.63 2.59 -86.3 0 0 58.13 105.51   L 63.16 94.75   A 0.50 0.50 0.0 0 1 63.97 94.60   L 66.57 97.19   Z" data-svg-id="svg-elem-1776078620400-mulrjl48n" id="svg-elem-1776078620400-mulrjl48n"></path>
<path fill="#a7d4bf" d="   M 83.93 160.00   L 76.32 160.00   Q 76.13 159.24 76.13 158.50   Q 76.33 134.63 76.63 122.75   Q 76.69 120.33 75.78 118.59   A 2.45 2.45 0.0 0 1 76.03 115.93   L 79.31 111.76   A 0.86 0.86 0.0 0 1 80.66 111.76   L 84.26 116.28   A 1.47 1.45 -55.6 0 1 84.51 117.64   L 83.43 120.97   A 1.76 1.65 54.6 0 0 83.35 121.55   L 83.93 160.00   Z" data-svg-id="svg-elem-1776078620400-w74st2j4c" id="svg-elem-1776078620400-w74st2j4c"></path>
</svg>