<svg width="32" height="43" viewBox="0 0 32 43" fill="none" xmlns="http://www.w3.org/2000/svg">
<circle cx="15.5" cy="15.5" r="8.5" fill="white"/>
<path d="M15.573 0C6.98599 0 0 6.98599 0 15.5729C0 26.2295 13.9363 41.874 14.5296 42.5348C15.087 43.1555 16.06 43.1544 16.6163 42.5348C17.2097 41.874 31.1459 26.2295 31.1459 15.5729C31.1458 6.98599 24.1599 0 15.573 0ZM15.573 23.408C11.2526 23.408 7.7379 19.8932 7.7379 15.5729C7.7379 11.2526 11.2527 7.73782 15.573 7.73782C19.8932 7.73782 23.408 11.2526 23.408 15.573C23.408 19.8933 19.8932 23.408 15.573 23.408Z" fill="#009258"/>
</svg>
