<svg xmlns="http://www.w3.org/2000/svg" version="1.1" viewBox="0.00 0.00 320.00 320.00">
<g stroke-width="2.00" fill="none" stroke-linecap="butt">
<path stroke="#80cbaf" vector-effect="non-scaling-stroke" d="   M 157.81 100.59   Q 157.90 100.29 161.25 99.70   Q 188.96 94.78 218.20 93.53   A 0.28 0.27 -74.4 0 1 218.44 93.96   Q 209.22 107.72 197.34 120.20   A 0.12 0.12 0.0 0 0 197.48 120.38   L 239.25 98.48   A 0.38 0.38 0.0 0 1 239.77 98.64   C 242.40 103.47 244.05 108.89 245.00 114.14   Q 247.94 130.55 247.67 148.42   A 0.31 0.31 0.0 0 0 248.27 148.54   Q 250.74 142.60 252.30 136.28   Q 256.97 117.27 258.55 97.50   Q 258.99 91.99 258.22 86.69   A 0.89 0.87 71.8 0 1 258.66 85.80   Q 267.32 81.03 271.37 71.96   A 0.20 0.19 8.9 0 0 271.17 71.69   C 261.83 72.43 256.12 72.48 249.24 74.31   A 1.24 1.24 0.0 0 1 248.31 74.19   Q 242.34 70.79 237.81 68.91   Q 209.47 57.18 179.18 54.31   A 0.26 0.26 0.0 0 0 179.04 54.81   Q 198.15 63.78 217.21 76.25   Q 217.32 76.32 221.16 79.48   A 0.25 0.25 0.0 0 1 221.05 79.92   Q 189.31 85.62 160.20 98.66   Q 157.59 99.83 157.60 100.55   A 0.11 0.11 0.0 0 0 157.81 100.59" data-svg-id="svg-elem-1777329073713-yd9ife89f" id="svg-elem-1777329073713-yd9ife89f"></path>
<path stroke="#80cbaf" vector-effect="non-scaling-stroke" d="   M 112.77 176.72   C 115.04 164.26 117.57 152.65 122.05 141.67   A 2.76 2.75 5.9 0 1 124.11 140.00   C 141.09 136.98 158.52 138.35 175.49 141.55   A 0.24 0.23 -11.8 0 0 175.73 141.19   L 175.53 140.90   A 0.16 0.08 63.4 0 0 175.49 140.87   Q 153.90 128.17 129.47 124.31   A 0.30 0.29 14.8 0 1 129.24 123.92   Q 132.10 116.27 136.71 109.47   A 0.24 0.23 -77.5 0 0 136.48 109.10   Q 133.91 109.59 131.51 110.52   Q 119.90 114.98 109.87 122.34   A 1.38 1.37 28.9 0 1 108.95 122.60   C 94.42 121.58 79.55 122.93 65.78 127.12   A 0.33 0.33 0.0 0 0 65.87 127.76   Q 77.42 128.09 87.80 132.16   Q 90.80 133.34 92.92 135.28   A 0.52 0.52 0.0 0 1 92.94 136.02   C 81.19 148.24 71.93 162.59 64.33 177.76   A 0.26 0.26 0.0 0 0 64.74 178.07   C 76.13 167.55 88.63 156.28 101.43 147.67   A 0.52 0.51 63.7 0 1 102.21 147.94   L 112.06 176.77   A 0.37 0.37 0.0 0 0 112.77 176.72" data-svg-id="svg-elem-1777329073713-16ll3eabs" id="svg-elem-1777329073713-16ll3eabs"></path>
<path stroke="#80cbaf" vector-effect="non-scaling-stroke" d="   M 61.40 188.92   Q 61.29 190.92 60.28 203.75   Q 59.65 211.80 61.28 223.79   A 0.45 0.43 77.4 0 1 60.99 224.27   L 44.70 229.84   A 0.37 0.37 0.0 0 0 44.64 230.52   L 66.94 242.81   A 0.34 0.34 0.0 0 1 67.09 242.96   C 71.54 251.60 76.32 259.01 83.28 265.68   A 0.36 0.36 0.0 0 0 83.88 265.32   Q 81.59 257.33 82.43 248.73   A 0.50 0.50 0.0 0 1 83.07 248.30   Q 96.07 252.12 109.87 252.59   A 0.29 0.29 0.0 0 0 109.98 252.02   Q 96.27 247.12 85.53 237.05   A 0.84 0.82 32.1 0 1 85.32 236.16   Q 88.60 227.22 94.53 218.70   A 0.38 0.38 0.0 0 0 94.16 218.11   L 74.30 221.32   A 1.82 1.82 0.0 0 1 72.38 220.32   Q 64.99 205.12 62.18 188.88   A 0.39 0.39 0.0 0 0 61.40 188.92" data-svg-id="svg-elem-1777329073713-jtx0uip37" id="svg-elem-1777329073713-jtx0uip37"></path>
<path stroke="#80cbaf" vector-effect="non-scaling-stroke" d="   M 127.19 271.57   A 0.20 0.20 0.0 0 0 127.36 271.93   Q 142.78 268.47 156.14 261.21   A 0.62 0.56 26.0 0 1 156.38 261.14   L 167.97 260.59   A 0.33 0.33 0.0 0 0 168.27 260.18   L 166.39 252.61   A 0.58 0.57 65.3 0 1 166.60 252.03   Q 177.56 243.42 187.10 233.27   A 0.16 0.16 0.0 0 0 186.89 233.03   Q 176.75 240.08 165.93 245.31   A 0.54 0.53 75.6 0 1 165.16 244.85   L 164.68 234.98   A 0.33 0.33 0.0 0 0 164.09 234.78   L 151.39 250.35   A 2.27 2.27 0.0 0 1 150.25 251.11   Q 138.93 254.38 126.89 254.39   A 0.32 0.32 0.0 0 0 126.75 254.99   Q 132.87 258.14 140.99 259.93   A 0.64 0.63 32.7 0 1 141.24 261.06   L 127.19 271.57" data-svg-id="svg-elem-1777329073713-q4a86p01x" id="svg-elem-1777329073713-q4a86p01x"></path>
</g>
<path fill="#00975f" d="   M 320.00 0.00   L 320.00 320.00   L 0.00 320.00   L 0.00 0.00   L 320.00 0.00   Z   M 157.81 100.59   Q 157.90 100.29 161.25 99.70   Q 188.96 94.78 218.20 93.53   A 0.28 0.27 -74.4 0 1 218.44 93.96   Q 209.22 107.72 197.34 120.20   A 0.12 0.12 0.0 0 0 197.48 120.38   L 239.25 98.48   A 0.38 0.38 0.0 0 1 239.77 98.64   C 242.40 103.47 244.05 108.89 245.00 114.14   Q 247.94 130.55 247.67 148.42   A 0.31 0.31 0.0 0 0 248.27 148.54   Q 250.74 142.60 252.30 136.28   Q 256.97 117.27 258.55 97.50   Q 258.99 91.99 258.22 86.69   A 0.89 0.87 71.8 0 1 258.66 85.80   Q 267.32 81.03 271.37 71.96   A 0.20 0.19 8.9 0 0 271.17 71.69   C 261.83 72.43 256.12 72.48 249.24 74.31   A 1.24 1.24 0.0 0 1 248.31 74.19   Q 242.34 70.79 237.81 68.91   Q 209.47 57.18 179.18 54.31   A 0.26 0.26 0.0 0 0 179.04 54.81   Q 198.15 63.78 217.21 76.25   Q 217.32 76.32 221.16 79.48   A 0.25 0.25 0.0 0 1 221.05 79.92   Q 189.31 85.62 160.20 98.66   Q 157.59 99.83 157.60 100.55   A 0.11 0.11 0.0 0 0 157.81 100.59   Z   M 112.77 176.72   C 115.04 164.26 117.57 152.65 122.05 141.67   A 2.76 2.75 5.9 0 1 124.11 140.00   C 141.09 136.98 158.52 138.35 175.49 141.55   A 0.24 0.23 -11.8 0 0 175.73 141.19   L 175.53 140.90   A 0.16 0.08 63.4 0 0 175.49 140.87   Q 153.90 128.17 129.47 124.31   A 0.30 0.29 14.8 0 1 129.24 123.92   Q 132.10 116.27 136.71 109.47   A 0.24 0.23 -77.5 0 0 136.48 109.10   Q 133.91 109.59 131.51 110.52   Q 119.90 114.98 109.87 122.34   A 1.38 1.37 28.9 0 1 108.95 122.60   C 94.42 121.58 79.55 122.93 65.78 127.12   A 0.33 0.33 0.0 0 0 65.87 127.76   Q 77.42 128.09 87.80 132.16   Q 90.80 133.34 92.92 135.28   A 0.52 0.52 0.0 0 1 92.94 136.02   C 81.19 148.24 71.93 162.59 64.33 177.76   A 0.26 0.26 0.0 0 0 64.74 178.07   C 76.13 167.55 88.63 156.28 101.43 147.67   A 0.52 0.51 63.7 0 1 102.21 147.94   L 112.06 176.77   A 0.37 0.37 0.0 0 0 112.77 176.72   Z   M 61.40 188.92   Q 61.29 190.92 60.28 203.75   Q 59.65 211.80 61.28 223.79   A 0.45 0.43 77.4 0 1 60.99 224.27   L 44.70 229.84   A 0.37 0.37 0.0 0 0 44.64 230.52   L 66.94 242.81   A 0.34 0.34 0.0 0 1 67.09 242.96   C 71.54 251.60 76.32 259.01 83.28 265.68   A 0.36 0.36 0.0 0 0 83.88 265.32   Q 81.59 257.33 82.43 248.73   A 0.50 0.50 0.0 0 1 83.07 248.30   Q 96.07 252.12 109.87 252.59   A 0.29 0.29 0.0 0 0 109.98 252.02   Q 96.27 247.12 85.53 237.05   A 0.84 0.82 32.1 0 1 85.32 236.16   Q 88.60 227.22 94.53 218.70   A 0.38 0.38 0.0 0 0 94.16 218.11   L 74.30 221.32   A 1.82 1.82 0.0 0 1 72.38 220.32   Q 64.99 205.12 62.18 188.88   A 0.39 0.39 0.0 0 0 61.40 188.92   Z   M 127.19 271.57   A 0.20 0.20 0.0 0 0 127.36 271.93   Q 142.78 268.47 156.14 261.21   A 0.62 0.56 26.0 0 1 156.38 261.14   L 167.97 260.59   A 0.33 0.33 0.0 0 0 168.27 260.18   L 166.39 252.61   A 0.58 0.57 65.3 0 1 166.60 252.03   Q 177.56 243.42 187.10 233.27   A 0.16 0.16 0.0 0 0 186.89 233.03   Q 176.75 240.08 165.93 245.31   A 0.54 0.53 75.6 0 1 165.16 244.85   L 164.68 234.98   A 0.33 0.33 0.0 0 0 164.09 234.78   L 151.39 250.35   A 2.27 2.27 0.0 0 1 150.25 251.11   Q 138.93 254.38 126.89 254.39   A 0.32 0.32 0.0 0 0 126.75 254.99   Q 132.87 258.14 140.99 259.93   A 0.64 0.63 32.7 0 1 141.24 261.06   L 127.19 271.57   Z" data-svg-id="svg-elem-1777329073713-1pk1lrr10" id="svg-elem-1777329073713-1pk1lrr10"></path>
<path fill="#ffffff" d="   M 157.60 100.55   Q 157.59 99.83 160.20 98.66   Q 189.31 85.62 221.05 79.92   A 0.25 0.25 0.0 0 0 221.16 79.48   Q 217.32 76.32 217.21 76.25   Q 198.15 63.78 179.04 54.81   A 0.26 0.26 0.0 0 1 179.18 54.31   Q 209.47 57.18 237.81 68.91   Q 242.34 70.79 248.31 74.19   A 1.24 1.24 0.0 0 0 249.24 74.31   C 256.12 72.48 261.83 72.43 271.17 71.69   A 0.20 0.19 8.9 0 1 271.37 71.96   Q 267.32 81.03 258.66 85.80   A 0.89 0.87 71.8 0 0 258.22 86.69   Q 258.99 91.99 258.55 97.50   Q 256.97 117.27 252.30 136.28   Q 250.74 142.60 248.27 148.54   A 0.31 0.31 0.0 0 1 247.67 148.42   Q 247.94 130.55 245.00 114.14   C 244.05 108.89 242.40 103.47 239.77 98.64   A 0.38 0.38 0.0 0 0 239.25 98.48   L 197.48 120.38   A 0.12 0.12 0.0 0 1 197.34 120.20   Q 209.22 107.72 218.44 93.96   A 0.28 0.27 -74.4 0 0 218.20 93.53   Q 188.96 94.78 161.25 99.70   Q 157.90 100.29 157.81 100.59   A 0.11 0.11 0.0 0 1 157.60 100.55   Z" data-svg-id="svg-elem-1777329073713-sd95i2l8d" id="svg-elem-1777329073713-sd95i2l8d"></path>
<path fill="#ffffff" d="   M 112.77 176.72   A 0.37 0.37 0.0 0 1 112.06 176.77   L 102.21 147.94   A 0.52 0.51 63.7 0 0 101.43 147.67   C 88.63 156.28 76.13 167.55 64.74 178.07   A 0.26 0.26 0.0 0 1 64.33 177.76   C 71.93 162.59 81.19 148.24 92.94 136.02   A 0.52 0.52 0.0 0 0 92.92 135.28   Q 90.80 133.34 87.80 132.16   Q 77.42 128.09 65.87 127.76   A 0.33 0.33 0.0 0 1 65.78 127.12   C 79.55 122.93 94.42 121.58 108.95 122.60   A 1.38 1.37 28.9 0 0 109.87 122.34   Q 119.90 114.98 131.51 110.52   Q 133.91 109.59 136.48 109.10   A 0.24 0.23 -77.5 0 1 136.71 109.47   Q 132.10 116.27 129.24 123.92   A 0.30 0.29 14.8 0 0 129.47 124.31   Q 153.90 128.17 175.49 140.87   A 0.16 0.08 63.4 0 1 175.53 140.90   L 175.73 141.19   A 0.24 0.23 -11.8 0 1 175.49 141.55   C 158.52 138.35 141.09 136.98 124.11 140.00   A 2.76 2.75 5.9 0 0 122.05 141.67   C 117.57 152.65 115.04 164.26 112.77 176.72   Z" data-svg-id="svg-elem-1777329073713-e94cvy6rh" id="svg-elem-1777329073713-e94cvy6rh"></path>
<path fill="#ffffff" d="   M 61.40 188.92   A 0.39 0.39 0.0 0 1 62.18 188.88   Q 64.99 205.12 72.38 220.32   A 1.82 1.82 0.0 0 0 74.30 221.32   L 94.16 218.11   A 0.38 0.38 0.0 0 1 94.53 218.70   Q 88.60 227.22 85.32 236.16   A 0.84 0.82 32.1 0 0 85.53 237.05   Q 96.27 247.12 109.98 252.02   A 0.29 0.29 0.0 0 1 109.87 252.59   Q 96.07 252.12 83.07 248.30   A 0.50 0.50 0.0 0 0 82.43 248.73   Q 81.59 257.33 83.88 265.32   A 0.36 0.36 0.0 0 1 83.28 265.68   C 76.32 259.01 71.54 251.60 67.09 242.96   A 0.34 0.34 0.0 0 0 66.94 242.81   L 44.64 230.52   A 0.37 0.37 0.0 0 1 44.70 229.84   L 60.99 224.27   A 0.45 0.43 77.4 0 0 61.28 223.79   Q 59.65 211.80 60.28 203.75   Q 61.29 190.92 61.40 188.92   Z" data-svg-id="svg-elem-1777329073713-pr4dyzkb5" id="svg-elem-1777329073713-pr4dyzkb5"></path>
<path fill="#ffffff" d="   M 127.19 271.57   L 141.24 261.06   A 0.64 0.63 32.7 0 0 140.99 259.93   Q 132.87 258.14 126.75 254.99   A 0.32 0.32 0.0 0 1 126.89 254.39   Q 138.93 254.38 150.25 251.11   A 2.27 2.27 0.0 0 0 151.39 250.35   L 164.09 234.78   A 0.33 0.33 0.0 0 1 164.68 234.98   L 165.16 244.85   A 0.54 0.53 75.6 0 0 165.93 245.31   Q 176.75 240.08 186.89 233.03   A 0.16 0.16 0.0 0 1 187.10 233.27   Q 177.56 243.42 166.60 252.03   A 0.58 0.57 65.3 0 0 166.39 252.61   L 168.27 260.18   A 0.33 0.33 0.0 0 1 167.97 260.59   L 156.38 261.14   A 0.62 0.56 26.0 0 0 156.14 261.21   Q 142.78 268.47 127.36 271.93   A 0.20 0.20 0.0 0 1 127.19 271.57   Z" data-svg-id="svg-elem-1777329073713-4l37r2uov" id="svg-elem-1777329073713-4l37r2uov"></path>
</svg>