<svg xmlns="http://www.w3.org/2000/svg" width="24" height="24" viewBox="0 0 24 24"><path fill-rule="evenodd" d="m22 6.015-.69-4.01H2.69L2 6.015c.002.74.45 1.407 1.134 1.686.684.28 1.469.116 1.986-.413l1.24-1.273h.38L8 7.288c.332.347.79.546 1.27.552a1.83 1.83 0 0 0 1.3-.552l1.24-1.273h.38l1.22 1.273c.342.35.81.55 1.3.552.487 0 .953-.2 1.29-.552l1.26-1.273h.38l1.24 1.273c.517.53 1.302.692 1.986.413A1.825 1.825 0 0 0 22 6.015m2 0a3.8 3.8 0 0 1-1 2.566V24H1V8.581a3.8 3.8 0 0 1-1-2.566L1 0h22zm-13 15.98v-8.02H5v8.02H3V9.745q.405.096.82.1a3.86 3.86 0 0 0 2.73-1.153 3.795 3.795 0 0 0 5.45 0 3.795 3.795 0 0 0 5.45 0 3.86 3.86 0 0 0 2.73 1.153q.415-.004.82-.1v12.25zm8-8.02h-4v4.01h4z" clip-rule="evenodd"/></svg>