<svg width="24" height="24" viewBox="0 0 24 24" fill="none" xmlns="http://www.w3.org/2000/svg">
<path fill-rule="evenodd" clip-rule="evenodd" d="M22 22V4.99H24V22V24H2H0V22V0H2V22H10V18H12V22H14V14.99H16V22H18V9.99H20V22H22ZM16 8C16 11.3137 13.3137 14 10 14C6.68629 14 4 11.3137 4 8C4 4.68629 6.68629 2 10 2C13.3137 2 16 4.68629 16 8ZM11 9V11.86C12.4006 11.4944 13.4944 10.4006 13.86 9H11ZM10 4C11.8192 4.00591 13.4052 5.2386 13.86 7H9V11.86C7.07399 11.3372 5.82805 9.47463 6.07993 7.49488C6.3318 5.51512 8.00443 4.02392 10 4Z" fill="#333333"/>
</svg>
