<svg width="24" height="24" viewBox="0 0 24 24" fill="none" xmlns="http://www.w3.org/2000/svg">
<path fill-rule="evenodd" clip-rule="evenodd" d="M14 9V0H24V9H16L14 11V9ZM16 7H22V2H16V7ZM8.55994 8.46999C10.4695 8.46999 12.0181 6.92292 12.0199 5.01332C12.0218 3.10372 10.4762 1.55368 8.56659 1.55C6.65699 1.54632 5.10546 3.0904 5.09994 4.99999C5.0946 5.92019 5.4571 6.80438 6.10685 7.456C6.7566 8.10763 7.63974 8.47268 8.55994 8.46999ZM8.55994 3.54999C9.15137 3.55001 9.68436 3.90682 9.90974 4.45361C10.1351 5.0004 10.0084 5.62915 9.58873 6.04591C9.1691 6.46267 8.53949 6.5851 7.99426 6.35597C7.44903 6.12683 7.09589 5.5914 7.09994 4.99999C7.10544 4.19757 7.7575 3.54997 8.55994 3.54999ZM8.5 9.18C5.56 9.18 3.17 12.2 3 16H0V21H2V24H15V21H17V16H14C13.82 12.2 11.43 9.18 8.5 9.18ZM4 22V21H13V22H4ZM11.99 16C11.85 13.35 10.31 11.18 8.5 11.18C6.69 11.18 5.15 13.35 5 16H11.99ZM2 19V18H15V19H2Z" fill="#333333"/>
</svg>
