<svg width="24" height="24" viewBox="0 0 24 24" fill="none" xmlns="http://www.w3.org/2000/svg">
<path fill-rule="evenodd" clip-rule="evenodd" d="M0 7.988L11.984 0H11.987L23.985 7.998V23.999H20.004V22H21.985V9.069L11.985 2.402L1.985 9.069V22H3.995V23.999H0V7.988ZM5.333 11.991V8.001H18.657V11.991H20.005V14.656H18.657V22.657H16.9806V24H14.3126V22.657H9.7023V24H7.0353V22.657H5.333V14.656H3.996V11.991H5.333ZM16.6531 18.001H7.33653V11.985H16.6531V18.001ZM16.6531 21.329H14.6591V19.335H16.6531V21.329ZM9.33053 21.329H7.33653V19.335H9.33053V21.329Z" fill="#333333"/>
</svg>
