<svg width="24" height="24" viewBox="0 0 24 24" fill="none" xmlns="http://www.w3.org/2000/svg">
<path d="M 11.8125 0 C 11.785758 0 11.758502 0.0013810033 11.732422 0.00390625 L 11.730469 0.00390625 L 11.728516 0.00390625 C 5.2262799 0.14801551 0 5.4631695 0 12 C 0 18.6274 5.37258 24 12 24 C 18.533997 23.9928 23.845323 18.770912 23.996094 12.271484 C 23.996206 12.270375 23.996102 12.266766 23.996094 12.265625 C 23.99599 12.263319 23.995904 12.260042 23.996094 12.257812 C 23.998048 12.234831 24 12.210988 24 12.1875 C 24 12.173873 23.99871 12.159947 23.998047 12.146484 C 23.998103 12.142143 23.997982 12.13716 23.998047 12.132812 C 23.998714 12.088439 23.999951 12.044443 24 12 C 24 10.111436 23.550719 8.3316637 22.773438 6.7421875 C 22.761258 6.7107118 22.745369 6.6790803 22.728516 6.6484375 C 22.725661 6.6427258 22.723566 6.6365659 22.720703 6.6308594 C 20.749335 2.7018848 16.695255 5.3290705e-15 12 0 C 11.95032 0 11.901102 -0.00060210366 11.851562 0 C 11.863399 0.0005545644 11.875022 0.0028491953 11.886719 0.00390625 C 11.862494 0.0017325532 11.83729 0 11.8125 0 z M 12.625 1.6171875 C 16.137549 1.8254009 19.181121 3.7793093 20.902344 6.6210938 L 12.625 10.835938 L 12.625 1.6171875 z M 11 1.6464844 L 11 12.1875 C 11 12.6362 11.3638 13 11.8125 13 L 22.353516 13 C 21.850277 18.274687 17.406476 22.400391 12 22.400391 C 6.25898 22.393791 1.6062194 17.741 1.5996094 12 C 1.5996094 6.5935639 5.7253447 2.1497302 11 1.6464844 z M 21.619141 8.0410156 C 22.046828 9.0788728 22.313182 10.200325 22.382812 11.375 L 15.070312 11.375 L 21.619141 8.0410156 z " fill="#333333" />
</svg>
