<svg width="24" height="24" viewBox="0 0 24 24" fill="none" xmlns="http://www.w3.org/2000/svg">
<path fill-rule="evenodd" clip-rule="evenodd" d="M0.81451 0H0.840592H0.840789H1.48241H4.36578H6.18485C6.64369 0 6.98035 0.374675 6.99936 0.81451C7.01837 1.25435 6.61111 1.62902 6.18485 1.62902H5.51695H2.84468L5.62506 4.40867L7.75356 6.53661C8.09493 6.87501 8.06911 7.40843 7.75356 7.75257C7.44089 8.09385 6.85569 8.0709 6.53728 7.75257L5.76562 6.98112L2.37494 3.59133L1.62902 2.84561V4.36578V6.18485C1.62902 6.64097 1.25706 6.98035 0.81451 6.99936C0.374675 7.01837 0 6.61111 0 6.18485V5.51695V2.63358V0.870435V0.81451C0 0.37196 0.374675 0 0.81451 0ZM19.6342 1.62902H17.8152C17.3563 1.62902 17.0196 1.25706 17.0006 0.81451C16.9816 0.374675 17.3889 0 17.8152 0H18.483H21.3664H23.1296H23.1855C23.628 0 24 0.374675 24 0.81451V1.48241V4.36578V6.18485C24 6.64097 23.628 6.98035 23.1855 6.99936C22.7457 7.01837 22.371 6.61111 22.371 6.18485V5.51695V2.84468L19.5913 5.62506L17.4634 7.75356C17.125 8.09493 16.5916 8.06911 16.2474 7.75356C15.9062 7.44089 15.9291 6.85569 16.2474 6.53728L17.0189 5.76562C17.3955 5.38887 17.7719 5.01212 18.1482 4.63536C18.9008 3.88189 19.6535 3.12841 20.4087 2.37494L21.1544 1.62902H19.6342ZM19.6342 24H17.8152C17.3563 24 17.0196 23.6253 17.0006 23.1855C16.9816 22.7457 17.3889 22.371 17.8152 22.371H18.483H21.3664H21.5106L19.0774 19.5913L17.2147 17.4634C16.9185 17.1221 16.9386 16.5887 17.2147 16.2474C17.4883 15.9062 18.0004 15.9291 18.2791 16.2474L18.9544 17.0189L21.9216 20.4087L22.371 20.922V19.6342V17.8152C22.371 17.359 22.7429 17.0196 23.1855 17.0006C23.6253 16.9816 24 17.3889 24 17.8152V18.483V21.3664V23.1286V23.1305V23.1855C24 23.3274 23.9615 23.462 23.8947 23.5795C23.8642 23.6408 23.8273 23.699 23.7843 23.7526C23.641 23.9313 23.4322 24.0102 23.2259 23.999C23.2125 23.9996 23.199 24 23.1855 24H22.5176H19.6342ZM4.36578 22.371H6.18485C6.64369 22.371 6.98035 22.7429 6.99936 23.1855C7.01837 23.6253 6.61111 24 6.18485 24H5.51695H2.63358H0.871375C0.870748 24 0.870121 24 0.869494 24H0.81451C0.672621 24 0.537988 23.9615 0.420544 23.8947C0.359215 23.8642 0.301025 23.8273 0.247426 23.7843C0.0686584 23.641 -0.0101709 23.4322 0.00104548 23.2259C0.00035141 23.2125 0 23.199 0 23.1855V22.5176V19.6342V17.8152C0 17.359 0.37196 17.0196 0.81451 17.0006C1.25435 16.9816 1.62902 17.3889 1.62902 17.8152V18.483V21.3664V21.5106L4.40867 19.0774L6.53661 17.2147C6.87788 16.9185 7.4113 16.9386 7.75257 17.2147C8.09385 17.4883 8.0709 18.0004 7.75257 18.2791L6.98112 18.9544L3.59133 21.9216L3.07801 22.371H4.36578Z" fill="#333333"/>
</svg>
