<svg width="24" height="24" viewBox="0 0 24 24" fill="none" xmlns="http://www.w3.org/2000/svg">
<path d="M24 4.31C23.0982 4.70237 22.1454 4.96498 21.17 5.09C22.1967 4.47609 22.9646 3.50912 23.33 2.37C22.3629 2.93636 21.3086 3.33848 20.21 3.56C18.8299 2.08732 16.6904 1.60686 14.8132 2.34805C12.9359 3.08924 11.7017 4.90174 11.7 6.92C11.6979 7.2829 11.7348 7.64498 11.81 8C7.85959 7.8153 4.17356 5.96138 1.67 2.9C0.363472 5.14576 1.02408 8.02004 3.18 9.47C2.41598 9.44607 1.66867 9.24038 1 8.87C0.994146 11.2123 2.6151 13.2447 4.9 13.76C4.47913 13.871 4.04523 13.9248 3.61 13.92C3.29759 13.9253 2.9856 13.8951 2.68 13.83C3.33942 15.8269 5.17792 17.1978 7.28 17.26C5.53818 18.6215 3.39077 19.3607 1.18 19.36C0.785567 19.3622 0.391406 19.3388 0 19.29C2.24919 20.7431 4.8723 21.5109 7.55 21.5C11.2704 21.5242 14.8454 20.0569 17.4761 17.4262C20.1069 14.7954 21.5742 11.2204 21.55 7.5C21.55 7.28 21.55 7.07 21.55 6.86C22.5142 6.16526 23.3444 5.30126 24 4.31Z" fill="#333333"/>
</svg>
