<svg width="24" height="24" viewBox="0 0 24 24" fill="none" xmlns="http://www.w3.org/2000/svg">
<path fill-rule="evenodd" clip-rule="evenodd" d="M20.211 4.14022C21.6532 4.22034 22.3643 4.43066 23.0354 5.59244C23.6964 6.75423 24.0369 8.74729 23.9968 12.2627C23.9968 15.758 23.6463 17.7511 22.9953 18.9129C22.3443 20.0747 21.6432 20.305 20.201 20.3851C18.7588 20.4653 15.1332 20.5153 11.9984 20.5153C8.8636 20.5153 5.22802 20.4853 3.79583 20.3851C2.36363 20.285 1.65254 20.0546 1.00154 18.9129C0.350538 17.7711 0 15.758 0 12.2627C0 8.74729 0.330507 6.75423 1.00154 5.59244C1.67257 4.43066 2.39367 4.28043 3.82587 4.14022C5.25807 4 8.88363 4 12.0184 4C15.1533 4 18.7688 4.06009 20.211 4.14022ZM16.5254 12.2627L9.01383 7.75576V16.7696L16.5254 12.2627Z" fill="#333333"/>
</svg>
