<svg width="24" height="24" viewBox="0 0 24 24" fill="none" xmlns="http://www.w3.org/2000/svg">
<path fill-rule="evenodd" clip-rule="evenodd" d="M12 0C18.6274 0 24 5.37258 24 12C24 15.913 22.1271 19.3886 19.2288 21.5792C19.2125 21.5915 19.1962 21.6038 19.1798 21.616C18.6503 22.012 18.087 22.3653 17.495 22.6708C15.8486 23.5203 13.9803 24 12 24C10.0896 24 8.28347 23.5536 6.68023 22.7594C6.67575 22.7572 6.67127 22.7549 6.66679 22.7527C6.0552 22.4488 5.47321 22.0942 4.92632 21.6945C1.93992 19.5117 0 15.9824 0 12C0 5.37258 5.37258 0 12 0ZM7.556 20.9608C8.89473 21.626 10.4037 22 12 22C13.6606 22 15.2266 21.5952 16.6049 20.879C15.4799 19.1216 13.8638 18 12.1 18C10.3157 18 8.6825 19.1624 7.556 20.9608ZM18.291 19.7737C16.8062 17.4651 14.5855 16 12.1 16C9.58182 16 7.33023 17.5107 5.84404 19.8812C3.50406 18.0508 2 15.2011 2 12C2 6.47715 6.47715 2 12 2C17.5228 2 22 6.47715 22 12C22 15.1391 20.5536 17.9403 18.291 19.7737ZM12.1 5C9.33858 5 7.1 7.23858 7.1 10C7.1 12.7614 9.33858 15 12.1 15C14.8614 15 17.1 12.7614 17.1 10C17.1 8.67392 16.5732 7.40215 15.6355 6.46447C14.6979 5.52678 13.4261 5 12.1 5ZM12.1 7C13.7569 7 15.1 8.34315 15.1 10C15.1 11.6569 13.7569 13 12.1 13C10.4431 13 9.1 11.6569 9.1 10C9.1 8.34315 10.4431 7 12.1 7Z" fill="#333333"/>
</svg>
