<svg width="24" height="24" viewBox="0 0 24 24" fill="none" xmlns="http://www.w3.org/2000/svg">
<path fill-rule="evenodd" clip-rule="evenodd" d="M11.0304 19.4478C14.0735 20.6598 17.548 19.8942 19.8 17.5155L21.8 18.3155C19.1282 21.596 14.6811 22.8401 10.6949 21.4223C7.69415 20.3549 5.44348 17.9528 4.51412 15.0255H2V13.0255H4.09864C4.06395 12.6876 4.04624 12.3456 4.04624 12.0005C4.04624 11.6725 4.06225 11.3472 4.09364 11.0255H2V9.02554H4.49839C5.4179 6.07562 7.67708 3.65227 10.6949 2.57882C14.6811 1.16094 19.1282 2.40505 21.8 5.68554L19.8 6.51554C17.548 4.13687 14.0735 3.37132 11.0304 4.58332C8.95872 5.40844 7.37193 7.03661 6.56999 9.02554H14V11.0255H6.05178C6.01128 11.3511 5.99053 11.6816 5.99053 12.0155C5.99053 12.3563 6.01214 12.6935 6.05429 13.0255H14V15.0255H6.57809C7.38258 17.0054 8.96567 18.6254 11.0304 19.4478Z" fill="#333333"/>
</svg>
