<svg xmlns="http://www.w3.org/2000/svg" width="24" height="24" viewBox="0 0 24 24"><path fill-rule="evenodd" d="m0 8 12-8 12 8v16H0zm9.4 9.31c-1.75 0-3.25 2.11-3.4 4.69h6.8c-.15-2.58-1.65-4.69-3.4-4.69M14.8 22a10 10 0 0 0-.19-1.47 1.8 1.8 0 0 1 1.38-1c.8 0 1.68 1 1.93 2.42zm5.14 0H22V9.07L12 2.4 2 9.07V22h2.02c.16-3.69 2.51-6.69 5.39-6.69a5.21 5.21 0 0 1 4.46 3.09 3.35 3.35 0 0 1 2.13-.82c1.94 0 3.63 1.92 3.94 4.42M6.06 10.96a3.34 3.34 0 1 1 6.68.02 3.34 3.34 0 0 1-6.68-.02m2.1.516a1.34 1.34 0 1 0 2.481-1.012 1.34 1.34 0 0 0-2.482 1.012M16 16.58a2.47 2.47 0 1 0 0-4.94 2.47 2.47 0 0 0 0 4.94m0-3.47a1 1 0 1 1 0 2 1 1 0 0 1 0-2" clip-rule="evenodd"/></svg>