<svg width="24" height="24" viewBox="0 0 24 24" fill="none" xmlns="http://www.w3.org/2000/svg">
<path fill-rule="evenodd" clip-rule="evenodd" d="M0 0V24H24V0H0ZM22 22H2V2H22V22ZM7.17 15.62L5.76 14.21L6.96 13H5V11H6.96L5.76 9.79L7.17 8.38L9.79 11H11V9.81L8.38 7.19L9.79 5.78L11 6.98V5H13V6.98L14.21 5.78L15.62 7.19L13 9.81V11H14.21L16.83 8.38L18.24 9.79L17.04 11H19V13H17.04L18.24 14.21L16.83 15.62L14.21 13H13V14.21L15.62 16.83L14.21 18.24L13 17.04V19H11V17.04L9.79 18.24L8.38 16.83L11 14.21V13H9.79L7.17 15.62Z" fill="#333333"/>
</svg>
