<svg width="24" height="24" viewBox="0 0 24 24" fill="none" xmlns="http://www.w3.org/2000/svg">
<path fill-rule="evenodd" clip-rule="evenodd" d="M0 2H24V20H0V2ZM22 18V4H2V18H22ZM19.48 10.5C20.0323 10.5 20.48 10.0523 20.48 9.5C20.48 8.94772 20.0323 8.5 19.48 8.5C18.9277 8.5 18.48 8.94772 18.48 9.5C18.48 10.0523 18.9277 10.5 19.48 10.5ZM19.48 13.5C20.0323 13.5 20.48 13.0523 20.48 12.5C20.48 11.9477 20.0323 11.5 19.48 11.5C18.9277 11.5 18.48 11.9477 18.48 12.5C18.48 13.0523 18.9277 13.5 19.48 13.5ZM4 6H16V16H4V6ZM4 20.05H6V22H4V20.05ZM20 20.05H18V22H20V20.05Z" fill="#333333"/>
</svg>
