<svg width="24" height="24" viewBox="0 0 24 24" fill="none" xmlns="http://www.w3.org/2000/svg">
<path fill-rule="evenodd" clip-rule="evenodd" d="M17.6603 2C19.2829 2 20.9053 2.61995 22.1432 3.85985C24.6189 6.33964 24.6189 10.3604 22.1432 12.8402L12 23L1.8568 12.8402C-0.618933 10.3604 -0.618933 6.33964 1.8568 3.85985C3.09467 2.61995 4.71707 2 6.33973 2C7.96213 2 9.58453 2.61995 10.8224 3.85985L12 5.03938L13.1776 3.85985C14.4155 2.61995 16.0379 2 17.6603 2ZM12 20L20.7531 11.2644C22.4156 9.60527 22.4156 6.90556 20.7531 5.2464C19.9478 4.44244 18.8771 4 17.7379 4C16.599 4 15.5283 4.44244 14.723 5.2464L12 7.96365L9.27702 5.2464C8.47172 4.44244 7.40096 4 6.26208 4C5.12293 4 4.05217 4.44244 3.24687 5.2464C1.58438 6.90556 1.58438 9.60527 3.24687 11.2644L12 20Z" fill="#333333"/>
</svg>
