<svg width="24" height="24" viewBox="0 0 24 24" fill="none" xmlns="http://www.w3.org/2000/svg">
<path fill-rule="evenodd" clip-rule="evenodd" d="M16.45 7.36C16.45 9.77511 14.4951 11.7345 12.08 11.74C9.66099 11.74 7.7 9.77901 7.7 7.36C7.70134 6.75312 7.83084 6.15337 8.08 5.6V0H16.08V5.6C16.3213 6.15554 16.4472 6.75432 16.45 7.36ZM9.7 7.36C9.70548 8.67216 10.7678 9.73452 12.08 9.74C12.9604 9.72779 13.7622 9.2305 14.1643 8.44718C14.5664 7.66386 14.5032 6.72253 14 6H10.14C9.85261 6.3951 9.6985 6.87144 9.7 7.36ZM10.08 2H14.08V4H10.08V2ZM5 21.92C5 16.78 8.17 12.61 12.09 12.61C16 12.61 19.18 16.78 19.18 21.93C19.1764 22.6237 19.1162 23.316 19 24H5.18C5.06324 23.3128 5.00304 22.6171 5 21.92ZM7 21.93V22H17.18V21.93C17.18 17.97 14.85 14.62 12.09 14.62C9.33 14.62 7 17.93 7 21.93ZM10.08 18L12.08 17L14.08 18V16L12.08 17L10.08 16V18Z" fill="#333333"/>
</svg>
