<svg width="24" height="24" viewBox="0 0 24 24" fill="none" xmlns="http://www.w3.org/2000/svg">
<path fill-rule="evenodd" clip-rule="evenodd" d="M0 0V24H24V0H0ZM22 22H2V2H22V22ZM10 14.55H12.63C12.8662 14.5702 13.1038 14.5702 13.34 14.55C14.4561 14.379 15.411 13.6572 15.88 12.63C16.1633 12.0036 16.2804 11.3148 16.22 10.63C16.2117 10.0084 16.028 9.40177 15.69 8.88C15.0541 7.83983 13.9086 7.22126 12.69 7.26H8V17.8H10V14.55ZM10 9.22H12.75C13.4211 9.18331 14.0156 9.64948 14.14 10.31C14.3364 10.9052 14.2199 11.5593 13.83 12.05C13.5605 12.3574 13.1687 12.5295 12.76 12.52H10V9.22Z" fill="#333333"/>
</svg>
