<svg width="24" height="24" viewBox="0 0 24 24" fill="none" xmlns="http://www.w3.org/2000/svg">
<path fill-rule="evenodd" clip-rule="evenodd" d="M13.1 5C13.1 7.76142 10.8614 10 8.1 10C5.33858 10 3.1 7.76142 3.1 5C3.1 2.23858 5.33858 0 8.1 0C10.8614 0 13.1 2.23858 13.1 5ZM11.1 5C11.1 3.34315 9.75685 2 8.1 2C6.44315 2 5.1 3.34315 5.1 5C5.1 6.65685 6.44315 8 8.1 8C9.75685 8 11.1 6.65685 11.1 5ZM21.61 8.92C21.61 11.1291 19.8191 12.92 17.61 12.92C15.4009 12.92 13.61 11.1291 13.61 8.92C13.61 6.71086 15.4009 4.92 17.61 4.92C19.8191 4.92 21.61 6.71086 21.61 8.92ZM19.61 9C19.61 7.89543 18.7146 7 17.61 7C16.5054 7 15.61 7.89543 15.61 9C15.61 10.1046 16.5054 11 17.61 11C18.7146 11 19.61 10.1046 19.61 9ZM14.36 14.88C15.2807 14.1353 16.4258 13.723 17.61 13.71C21.15 13.71 24 17.48 24 22.13C24.0097 22.7563 23.9629 23.3822 23.86 24H16C16.0134 23.9114 16.029 23.8228 16.0446 23.7341C16.0872 23.4921 16.13 23.2487 16.13 23C16.09 23.34 16.05 23.67 16 24H0.21C0.0734394 23.2207 0.00318791 22.4312 0 21.64C0 15.76 3.63 11 8.1 11C10.7193 11.1169 13.0899 12.5862 14.36 14.88ZM2 21.64V22H14.2V21.64C14.2 16.95 11.41 13 8.1 13C4.79 13 2 17 2 21.64ZM16.2 22V21.63C16.2085 19.9432 15.8963 18.2702 15.28 16.7C15.901 16.0822 16.7343 15.7245 17.61 15.7C20 15.71 22 18.57 22 22H16.2Z" fill="#333333"/>
</svg>
