<svg width="24" height="24" viewBox="0 0 24 24" fill="none" xmlns="http://www.w3.org/2000/svg">
<path fill-rule="evenodd" clip-rule="evenodd" d="M13.26 6.07L14.66 7.47L13.28 8.88L8.66 13.6L8.08 14.2H7.24H1.99H0V12.2V12.1H2H2.29H7.25L11.86 7.48L10.7 6.32L8.21 8.57L7.09 7.45L11.12 4.1H18.09L18.11 2.1H9.59L3.39 8.1H2.29H1.99H0V6.34H1.99H2.55L8.15 0.6L8.73 0H9.57H18.09H20.08V2V3.82V5.82H18.09H13.02L13.26 6.07ZM18 17.08V15H20V13H14V15H16V17.08C12.5591 17.5767 10.0041 20.5234 10 24H24C23.9959 20.5234 21.4409 17.5767 18 17.08ZM12.42 22C13.2167 20.181 15.0142 19.0059 17 19.0059C18.9858 19.0059 20.7833 20.181 21.58 22H12.42Z" fill="#333333"/>
</svg>
