<svg width="24" height="24" viewBox="0 0 24 24" fill="none" xmlns="http://www.w3.org/2000/svg">
<path fill-rule="evenodd" clip-rule="evenodd" d="M12 6.34C13.7507 6.34 15.17 4.92074 15.17 3.17C15.17 1.41926 13.7507 0 12 0C10.2493 0 8.83 1.41926 8.83 3.17C8.83 4.92074 10.2493 6.34 12 6.34ZM12 1.78C12.7677 1.78 13.39 2.40232 13.39 3.17C13.39 3.93768 12.7677 4.56 12 4.56C11.2323 4.56 10.61 3.93768 10.61 3.17C10.61 2.40232 11.2323 1.78 12 1.78ZM16.64 11.19C15.81 8.7 14.05 7 12 7C9.95 7 8.21 8.7 7.38 11.18C3.05 12 0 14 0 16.27C0 18.54 3.5 20.8 8.33 21.51L7.33 22.51L8.64 24L11 21.78L12.46 20.42L11 19.05L8.78 17L7.3 18.36L8.54 19.52C4.42 18.9 2 17.26 2 16.27C2 15.28 3.8 14.08 6.93 13.32C6.93 13.4938 6.91521 13.6675 6.90032 13.8425V13.8425C6.88521 14.02 6.87 14.1987 6.87 14.38C6.87333 14.9225 6.91678 15.4639 7 16H17C17.0842 15.4573 17.1277 14.9091 17.13 14.36C17.1305 14.0091 17.1105 13.6585 17.07 13.31C20.19 14.07 21.98 15.4 21.98 16.25C21.98 17.25 19.39 19 14.98 19.57V21.57C20.15 20.96 23.98 18.81 23.98 16.24C24 14 21 12 16.64 11.19ZM8.64 14.24C8.7 11 10.44 8.75 12 8.75C13.56 8.75 15.31 11 15.36 14.24H8.64Z" fill="#333333"/>
</svg>
