<svg width="24" height="24" viewBox="0 0 24 24" fill="none" xmlns="http://www.w3.org/2000/svg">
<path fill-rule="evenodd" clip-rule="evenodd" d="M12 6C12 2.68629 14.6863 0 18 0C19.5913 0 21.1174 0.632141 22.2426 1.75736C23.3679 2.88258 24 4.4087 24 6C24 9.31371 21.3137 12 18 12C14.6863 12 12 9.31371 12 6ZM14 6C14 8.20914 15.7909 10 18 10C19.0609 10 20.0783 9.57857 20.8284 8.82843C21.5786 8.07828 22 7.06087 22 6C22 3.79086 20.2091 2 18 2C15.7909 2 14 3.79086 14 6ZM6.35 13C7.93821 13 9.36945 12.0416 9.97439 10.5731C10.5793 9.10462 10.2384 7.41623 9.11108 6.29751C7.98373 5.1788 6.29278 4.85087 4.82898 5.46707C3.36518 6.08328 2.41785 7.52183 2.43 9.11C2.44648 11.2632 4.19671 13.0001 6.35 13ZM6.35 7.16C7.40645 7.16013 8.26432 8.01372 8.26974 9.07016C8.27516 10.1266 7.42608 10.9889 6.36969 10.9999C5.31329 11.0109 4.44651 10.1663 4.43 9.11C4.43 8.04961 5.28961 7.19 6.35 7.19V7.16ZM6.35 13.81C2.84 13.81 0 17.54 0 22.15C0.00230787 22.77 0.0558231 23.3888 0.16 24H12.54C12.6442 23.3888 12.6977 22.77 12.7 22.15C12.7 17.54 9.86 13.81 6.35 13.81ZM2 22C2.06 18.63 4 15.81 6.35 15.81C8.7 15.81 10.65 18.63 10.7 22H2ZM17.5 7V3.63H18.5V6H20.04V7H18.5H17.5Z" fill="#333333"/>
</svg>
