<?xml version="1.0" standalone="no"?>
<!DOCTYPE svg PUBLIC "-//W3C//DTD SVG 1.1//EN" "http://www.w3.org/Graphics/SVG/1.1/DTD/svg11.dtd">
<svg xmlns="http://www.w3.org/2000/svg">
<metadata>Copyright (C) 2020 by original authors @ fontello.com</metadata>
<defs>
<font id="fontello" horiz-adv-x="1000" >
<font-face font-family="fontello" font-weight="400" font-stretch="normal" units-per-em="1000" ascent="850" descent="-150" />
<missing-glyph horiz-adv-x="1000" />
<glyph glyph-name="sport" unicode="&#xe800;" d="M705 385h24a11 11 0 0 1 10 5l58 103a13 13 0 0 1-2 14l-40 39 4 1c0 0 0 1 1 2l23 22a12 12 0 0 1 0 16l-46 46a12 12 0 0 1-16 0l-22-23-2-2-1-3-39 39a11 11 0 0 1-14 2l-103-57a11 11 0 0 1-6-10v-24a71 71 0 0 0-71-70h-7l-13 1h-2a11 11 0 0 1-8-4l-218-240a45 45 0 0 1 0-62l58-57 58-58a44 44 0 0 1 30-12 41 41 0 0 1 30 12l242 218a13 13 0 0 1 4 10l-2 14a71 71 0 0 0 63 77z m8 207a2 2 0 0 0 0 1v2l16 15 30-31-14-16a2 2 0 0 1-1-1l-2-3-31 31z m-74-213a92 92 0 0 1-26-66 47 47 0 0 1 0-10v-7l-237-215a23 23 0 0 0-31 0l-115 115a21 21 0 0 0-6 15 22 22 0 0 0 7 16l215 237h7a93 93 0 0 1 68 20 94 94 0 0 1 34 63 44 44 0 0 1 1 9v16l91 51 126-127-51-90h-17a93 93 0 0 1-66-27z m-48 143a11 11 0 0 1 3-8l69-69a11 11 0 0 1 8-4h0a11 11 0 0 1 8 4 11 11 0 0 1 0 16l-69 68a11 11 0 0 1-8 4 10 10 0 0 1-8-4 11 11 0 0 1-3-7z m-84-96a11 11 0 0 1-8 3 11 11 0 0 1-8-3 11 11 0 0 1 0-16l69-69a11 11 0 0 1 16 0 11 11 0 0 1 3 8 12 12 0 0 1-3 8z" horiz-adv-x="1000" />

<glyph glyph-name="theme_1" unicode="&#xe801;" d="M518 80h-308a10 10 0 0 1 0-20h580a10 10 0 0 1 0 20h-272z m-143 210a20 20 0 0 1 0-40 20 20 0 1 1 0 40z m90-50a10 10 0 0 1-10-10v-20h90v20a11 11 0 0 1-10 10z m160 50a20 20 0 0 1 0-40 21 21 0 0 1 20 20 20 20 0 0 1-20 20z m-260-200a10 10 0 0 1 10-10h20a11 11 0 0 1 10 10v40h-40z m230 0a10 10 0 0 1 10-10h20a11 11 0 0 1 10 10h0v40h-40z m-20 40h-150v-40a53 53 0 0 0-2-10h154a26 26 0 0 0-2 10z m-200 180a40 40 0 0 1 0-80 40 40 0 1 1 0 80z m0-60a20 20 0 0 0 0 40 20 20 0 1 0 0-40z m250 60a40 40 0 0 1 0-80 40 40 0 0 1 40 40 41 41 0 0 1-40 40z m0-60a20 20 0 0 0 0 40 20 20 0 0 0 20-20 21 21 0 0 0-20-20z m28-170a26 26 0 0 1 2 10v40h8a20 20 0 0 1 18 11l23 55h0a7 7 0 0 1 1 3h0v411a49 49 0 0 1-46 50h-318a48 48 0 0 1-46-50v-410h0a7 7 0 0 1 1-3h0l23-55a20 20 0 0 1 18-11h8v-40a26 26 0 0 1 2-10h76a53 53 0 0 1 2 10v40h150v-40a26 26 0 0 1 2-10h76z m-338 130v400a28 28 0 0 0 26 30h318a29 29 0 0 0 26-30v-400h-120v20a31 31 0 0 1-30 30h-70a30 30 0 0 1-30-30v-20z m230 20v-20h-90v20a10 10 0 0 0 10 10h70a11 11 0 0 0 10-10z m-140-140a11 11 0 0 0-10-10h-20a10 10 0 0 0-10 10v40h40z m-68 60l-17 40h360l-17-40z m298-60a11 11 0 0 0-10-10h-20a10 10 0 0 0-10 10v40h40z m-270 460h270a31 31 0 0 1 30 30v10a31 31 0 0 1-30 30h-270a30 30 0 0 1-30-30v-10a30 30 0 0 1 30-30z m-10 40a10 10 0 0 0 10 10h270a11 11 0 0 0 10-10v-10a11 11 0 0 0-10-10h-270a10 10 0 0 0-10 10z m10-260h270a31 31 0 0 1 30 30v140a31 31 0 0 1-30 30h-270a30 30 0 0 1-30-30v-140a30 30 0 0 1 30-30z m-10 170a10 10 0 0 0 10 10h270a11 11 0 0 0 10-10v-140a11 11 0 0 0-10-10h-270a10 10 0 0 0-10 10z" horiz-adv-x="1000" />

<glyph glyph-name="theme_14" unicode="&#xe802;" d="M733 491v47h66a11 11 0 0 1 8 5 11 11 0 0 1-2 15l-77 55-3 2h-4a11 11 0 0 1-11-11v-108a914 914 0 0 1-143 18v13h22a11 11 0 0 1 10 11v67a11 11 0 0 1-10 10h-178a11 11 0 0 1-10-10v-67a11 11 0 0 1 10-11h22v-13a914 914 0 0 1-143-18v109c0 0-1 2-1 2h0a11 11 0 0 1-10 8 11 11 0 0 1-7-2l-77-55a11 11 0 0 1-5-9 12 12 0 0 1 11-11h66v-47c-65-17-110-42-110-74v-233c0-57 138-91 276-98 23-1 45-1 67-1s44 0 67 1c138 7 276 41 276 98v233c0 32-45 57-110 74z m0 69v23l31-23z m-497 0l31 23v-23z m585-181v-84c0-14-24-31-66-44-62-22-154-34-255-34s-193 13-255 34c-42 12-66 29-66 44v84c0 0 0 0 1 0a135 135 0 0 1 28-17 249 249 0 0 1 49-17 934 934 0 0 1 243-28 934 934 0 0 1 243 28 249 249 0 0 1 49 17 135 135 0 0 1 28 17c1 0 1 0 1 0z m-321-7a1018 1018 0 0 0 191-16l-41-7h-1l-10-2a1068 1068 0 0 0-139-8 1068 1068 0 0 0-139 8l-10 2h-1l-41 7a1018 1018 0 0 0 191 16z m-77 221h154v-44h-154z m33-66h88v-12h-88z m44-33c199 0 321-45 321-77 0-14-22-33-80-50-28 6-54 12-82 16l48 48a11 11 0 1 1-16 16l-59-60a815 815 0 0 1-121 7v67a11 11 0 0 1-22 0v-67a815 815 0 0 1-121-7l-59 60a11 11 0 0 1-16-16l48-48c-28-4-54-10-82-16-58 17-80 36-80 50 0 32 122 77 321 77z m55-386h-110v43h110z m22 1v53a11 11 0 0 1-10 11h-134a11 11 0 0 1-10-11v-53c-151 10-244 46-244 75v73a117 117 0 0 1 26-16 230 230 0 0 1 32-13c65-21 160-33 263-33s198 12 263 33l20 8a159 159 0 0 1 37 21v-73c0-29-92-65-243-75z m-77 180a12 12 0 0 1-11-11v-33a11 11 0 0 1 22 0v33a12 12 0 0 1-11 11z m111 6a11 11 0 0 1-12-12v-32a11 11 0 0 1 23 0v32a11 11 0 0 1-11 12z m-222 0a11 11 0 0 1-11-12v-32a11 11 0 1 1 23 0v32a11 11 0 0 1-12 12z m-99 22a11 11 0 0 1-11-11v-33a12 12 0 0 1 11-12 11 11 0 0 1 11 12v33a11 11 0 0 1-11 11z m-78 22a11 11 0 0 1-11-11v-33a11 11 0 0 1 11-12 11 11 0 0 1 11 12v33a11 11 0 0 1-11 11z m498-22a11 11 0 0 1-11-11v-33a11 11 0 0 1 11-12 12 12 0 0 1 11 12v33a11 11 0 0 1-11 11z m78 22a11 11 0 0 1-11-11v-33a11 11 0 0 1 11-12 11 11 0 0 1 11 12v33a11 11 0 0 1-11 11z" horiz-adv-x="1000" />

<glyph glyph-name="theme_23" unicode="&#xe803;" d="M651 413a140 140 0 0 1-140 140h-84c-10 0-14-5-14-16v-374c0-11 4-16 14-16s16 5 16 16v110h68a140 140 0 0 1 140 140z m-208 110h68a110 110 0 1 0 0-220h-68z m336-464h-558a12 12 0 0 0-12 12v558a12 12 0 0 0 12 12h558a12 12 0 0 0 12-12v-558a12 12 0 0 0-12-12z m-547 23h536v536h-536z" horiz-adv-x="1000" />

<glyph glyph-name="theme_32" unicode="&#xe804;" d="M554 640h-215a11 11 0 0 1-11-11v-172a11 11 0 0 1 11-10h215a11 11 0 0 1 11 10v172a11 11 0 0 1-11 11z m-11-172h-194v151h194z m224-284l-12 12a63 63 0 0 0-18 45v302a11 11 0 0 1-4 8l-42 43a12 12 0 0 1-8 3h-32v32a11 11 0 0 1-11 11h-33v33a11 11 0 0 1-10 10h-301a11 11 0 0 1-11-10v-592h-54a11 11 0 0 1-10-10v-44a11 11 0 0 1 10-10h430a11 11 0 0 1 11 10v44a11 11 0 0 1-11 10h-54v237h22a33 33 0 0 0 32-33v-98a83 83 0 0 1 26-60l11-12a44 44 0 0 1 31-12h8a43 43 0 0 1 42 43v8a40 40 0 0 1-12 30z m-460 478h279v-581h-279z m344-602v-22h-409v22z m42 501l22-22v-28h-22z m-86 58h22v-108h-22z m151-473a21 21 0 0 0-21-22h-8a22 22 0 0 0-16 7l-11 11a63 63 0 0 0-19 45v98a53 53 0 0 1-54 54h-22v151h33a11 11 0 0 1 11 11v75h21v-75a11 11 0 0 1 11-11h32v-249a83 83 0 0 1 25-60l12-12a22 22 0 0 0 6-15z" horiz-adv-x="1000" />

<glyph glyph-name="theme_67" unicode="&#xe805;" d="M805 347h-21v76a57 57 0 0 1-57 57h-5v13a50 50 0 0 1-100 0v-146h-260v146a50 50 0 0 1-49 50 51 51 0 0 1-50-50v-13h-5a58 58 0 0 1-58-57v-76h-21a11 11 0 0 1-10-10v-16a11 11 0 0 1 10-11h21v-75a58 58 0 0 1 58-58h5v-12a51 51 0 0 1 50-50 50 50 0 0 1 49 50v145h260v-145a50 50 0 0 1 100 0v12h5a57 57 0 0 1 57 58v75h21a11 11 0 0 1 10 11v16a11 11 0 0 1-10 10z m-542-148h-5a36 36 0 0 0-37 36v188a36 36 0 0 0 37 36h5z m78-34a28 28 0 0 0-28-29 29 29 0 0 0-29 29v328a29 29 0 0 0 29 28 28 28 0 0 0 28-28z m360 0a29 29 0 0 0-58 0v328a29 29 0 1 0 58 0z m62 70a35 35 0 0 0-36-36h-5v260h5a35 35 0 0 0 36-36z" horiz-adv-x="1000" />

<glyph glyph-name="theme_68" unicode="&#xe806;" d="M794 22h-588a11 11 0 0 0-10 11 11 11 0 0 0 10 10h588a11 11 0 0 0 10-10 11 11 0 0 0-10-11z m-233 0h-334a11 11 0 0 0-11 11v32a21 21 0 0 0 21 22h314a21 21 0 0 0 20-22v-32a11 11 0 0 0-10-11z m-324 21h313v22h-313z m304 23h-294a11 11 0 0 0-11 10v296a11 11 0 0 0 11 11h294a11 11 0 0 0 10-11v-296a11 11 0 0 0-10-10z m-284 21h273v274h-273z m314 274h-354a11 11 0 0 0-10 7 12 12 0 0 0 2 11l177 186a11 11 0 0 0 15 0l178-186a12 12 0 0 0 2-11 11 11 0 0 0-10-7z m-330 22h305l-153 160z m542-361h-334a11 11 0 0 0-10 11 11 11 0 0 0 10 10h324v22h-314a11 11 0 1 0 0 21h314a21 21 0 0 0 21-21v-33a11 11 0 0 0-11-10z m-20 44h-222a11 11 0 0 0-11 10v296a11 11 0 0 0 11 11h222a11 11 0 0 0 11-11v-296a11 11 0 0 0-11-10z m-212 21h202v274h-202z m243 274h-355a11 11 0 0 0 0 22h330l-160 168a11 11 0 0 0 15 14l177-186a11 11 0 0 0 2-11 10 10 0 0 0-9-7z m-253-54h-294a11 11 0 0 0-11 10v55a11 11 0 0 0 11 11h294a11 11 0 0 0 10-11v-55a11 11 0 0 0-10-10z m-284 21h273v33h-273z m81-65h-41a21 21 0 0 0-20 21v33a11 11 0 0 0 10 11h61a11 11 0 0 0 11-11v-33a21 21 0 0 0-21-21z m-40 44v-23h40v23z m50-241h-61a11 11 0 0 0-10 10v33a21 21 0 0 0 20 22h41a21 21 0 0 0 21-22v-33a11 11 0 0 0-11-10z m-50 21h39v22h-39z m40 22h-41a11 11 0 0 0-10 11v153a11 11 0 0 0 10 11h41a11 11 0 0 0 11-11v-153a11 11 0 0 0-11-11z m-30 22h19v132h-19z m182 132h-41a21 21 0 0 0-20 21v33a11 11 0 0 0 10 11h61a11 11 0 0 0 11-11v-33a21 21 0 0 0-21-21z m-40 44v-23h40v23z m50-241h-61a11 11 0 0 0-10 10v33a21 21 0 0 0 20 22h41a21 21 0 0 0 21-22v-33a11 11 0 0 0-11-10z m-50 21h39v22h-39z m40 22h-41a11 11 0 0 0-10 11v153a11 11 0 0 0 10 11h41a11 11 0 0 0 11-11v-153a11 11 0 0 0-11-11z m-30 22h19v132h-19z m-71 274a43 43 0 0 0 0 87 43 43 0 0 0 0-87z m0 66a23 23 0 0 1 0-45 23 23 0 0 1 0 45z m228 76h-224a11 11 0 0 0 0 22h224a11 11 0 1 0 0-22z m146-240h-222a11 11 0 0 0-11 10 11 11 0 0 0 11 11h222a11 11 0 0 0 11-11 11 11 0 0 0-11-10z m-142-154h-40a11 11 0 0 0-10 11v65a31 31 0 0 0 30 33 32 32 0 0 0 31-33v-65a11 11 0 0 0-11-11z m-30 22h20v54a10 10 0 1 1-20 0z m132-22h-40a11 11 0 0 0-11 11v65a31 31 0 0 0 31 33 32 32 0 0 0 30-33v-65a11 11 0 0 0-10-11z m-30 22h19v54a10 10 0 0 1-9 12 11 11 0 0 1-10-12z m-183 372a11 11 0 0 0-11 11v109a11 11 0 0 0 6 10 10 10 0 0 0 10 0s35-19 60-1a10 10 0 0 0 11 1 10 10 0 0 0 5-10v-43a11 11 0 0 0-10-11 11 11 0 0 0-10 11v27a83 83 0 0 0-50 1v-94a11 11 0 0 0-11-11z m39 55a97 97 0 0 0-44 11 11 11 0 0 0-4 14 11 11 0 0 0 14 5c1-1 36-19 60-1a11 11 0 0 0 14-2 11 11 0 0 0-2-15 67 67 0 0 0-38-12z" horiz-adv-x="1000" />

<glyph glyph-name="transport" unicode="&#xe807;" d="M757 277l-398-2c-26 0-46 20-46 46s20 46 46 46l128 0c6 0 12 6 12 13 0 7-5 13-12 13l-128-1c-40 0-71-32-71-71s32-71 71-71l399 3c25 0 46-21 46-46s-21-46-46-46h-414c-7 0-13-6-13-13s6-13 13-13h414c39 0 71 32 71 71s-32 71-72 71z m-514-58c-40 0-71-32-71-70s32-71 71-71 70 31 70 70-32 71-70 71z m45-71c0-25-21-46-46-46s-46 21-46 46 21 46 46 46 46-21 46-46z m261 213c1 0 2-1 2-1l1 0c3-1 4-1 6-1 2 0 3 0 5 1 0 0 0 1 2 1 0 0 25 19 50 50 31 38 47 74 47 108-1 58-47 103-104 103-57 0-103-45-103-104 0-67 66-131 94-157z m9 242c46 0 83-38 83-84 0-19-8-71-83-138-31 27-83 85-83 138 0 46 37 84 83 84z m1-136c28 0 50 23 50 51s-22 51-50 51-51-23-51-51 23-51 51-51z m-32 50c0 18 14 31 31 31s31-13 31-31-14-30-31-30-31 13-31 30z" horiz-adv-x="1000" />

<glyph glyph-name="autre" unicode="&#xe808;" d="M780 641h-559a12 12 0 0 1-12-11v-559a12 12 0 0 1 12-12h559a12 12 0 0 1 11 12v559a12 12 0 0 1-11 11z m-209-300l78 61 119-154v-162z m97 75l100 77v-206z m100 107l-212-164-79 103 203 156h88z m-194 43l-40 52h107z m-18-15l-93-71-107 138h149z m-229 67l414-536h-163l-346 447v89z m-95-127l123-158-55-42-68 88z m137-177l105-136-54-42-105 136z m119-154l60-78h-160z m-256 181l169-219-51-40h-118z m85 172a12 12 0 0 1 18 15l-19 24a12 12 0 0 1-18-14z m64-83a12 12 0 1 1 19 14l-19 25a12 12 0 1 1-18-14z m176-227a12 12 0 1 1 19 14l-19 24a12 12 0 0 1-19-14z m64-83a12 12 0 0 1 16-2 12 12 0 0 1 2 16l-19 25a12 12 0 0 1-16 2h0a12 12 0 0 1-2-16z m-171 168a11 11 0 0 1 20 0l8 20a11 11 0 0 0 9 7l22 2a11 11 0 0 1 5 20l-70 40a11 11 0 0 1-15-12z" horiz-adv-x="1000" />

<glyph glyph-name="commerce" unicode="&#xe809;" d="M839 224a34 34 0 0 1-33 28h-12v231a56 56 0 0 1 34 52 50 50 0 0 1-8 27l-56 88a68 68 0 0 1-57 32h-414a68 68 0 0 1-57-31l-56-89a51 51 0 0 1-8-27 57 57 0 0 1 17-40 58 58 0 0 1 17-12v-231h-11a34 34 0 0 1-12-66v-134a34 34 0 0 1 34-34h566a34 34 0 0 1 34 34v134a34 34 0 0 1 22 38z m-43 287a34 34 0 0 0-25-10h-33a34 34 0 0 0-34 34h101a34 34 0 0 0-9-24z m-25-32v-227h-22v227z m-418 0h34a56 56 0 0 1 45 22 56 56 0 0 1 45-22h45a56 56 0 0 1 46 22 56 56 0 0 1 45-22h34a56 56 0 0 1 46 22 56 56 0 0 1 34-21v-228h-453v228a57 57 0 0 1 34 21 56 56 0 0 1 45-22z m-34 56h102a34 34 0 0 0-34-34h-34a34 34 0 0 0-34 34z m125 0h113a34 34 0 0 0-34-34h-46a34 34 0 0 0-33 34z m136 0h101a34 34 0 0 0-34-34h-34a34 34 0 0 0-34 34z m-324 104a45 45 0 0 0 37 20h414a45 45 0 0 0 38-21l51-80h-96l-20 49a11 11 0 0 1-21-8l16-41h-96v11a11 11 0 0 1-22 0v-11h-114v11a11 11 0 0 1-22 0v-11h-96l16 41a11 11 0 0 1-21 8l-20-49h-96z m-51-128a34 34 0 0 0-10 24h101a34 34 0 0 0-33-34h-34a34 34 0 0 0-24 10z m46-32v-227h-22v227z m543-427a11 11 0 0 0-11-11h-566a11 11 0 0 0-11 11v132h588z m11 155h-610a11 11 0 1 0 0 22h610a11 11 0 1 0 0-22z" horiz-adv-x="1000" />

<glyph glyph-name="education" unicode="&#xe80a;" d="M723 618l-231 31a18 18 0 0 1-2 0l-4 0-211-31a21 21 0 0 1-2-41l77-19 0-2-29-126a10 10 0 0 1 3-9c31-32 106-43 166-43s134 11 165 43a10 10 0 0 1 3 9l-29 125 73 16v-37a10 10 0 0 1 20 0v42l5 1a21 21 0 0 1 0 40z m-86-187l-1 0c-25-20-81-33-146-33s-122 12-147 33l-1 0 0 1 28 121 115-29a21 21 0 0 1 9 0l116 27z m-147 112h-1l-204 52a2 2 0 0 0 0 4l204 31h0l225-31a2 2 0 0 0 0-4z m-201-451a36 36 0 1 0 35 35 36 36 0 0 0-35-35z m0 51a16 16 0 1 1 15-16 16 16 0 0 1-15 16z m564 61h-645a11 11 0 0 1-11-11v-131a11 11 0 0 1 11-11h645a11 11 0 0 1 11 11v131a11 11 0 0 1-11 11z m-112-131h-522v109h522z m22 109h18v-109h-18z m78-109h-38v109h38z m-613 150a36 36 0 1 0 36 35 36 36 0 0 0-36-35z m0 51a16 16 0 1 1 16-16 16 16 0 0 1-16 16z m564 61h-644a11 11 0 0 1-12-11v-131a11 11 0 0 1 12-11h644a11 11 0 0 1 11 11v131a11 11 0 0 1-11 11z m-633-22h521v-109h-521z m561-109h-18v109h18z m61 0h-39v109h39z" horiz-adv-x="1000" />

<glyph glyph-name="hotel" unicode="&#xe80b;" d="M868 91a11 11 0 0 1-11 12h-14v14h14a11 11 0 0 1 0 23h-14v39h14a11 11 0 0 1 0 22h-14v1a11 11 0 0 1-22 0v-1h-199v1a11 11 0 0 1-22 0v-1h-14a11 11 0 1 1 0-22h14v-39h-14a11 11 0 1 1 0-23h14v-14h-14a11 11 0 1 1 0-23h14v-39h-212v105l2-1a123 123 0 0 1 59-15 127 127 0 0 1 54 240l-1 1 1 1a112 112 0 0 1 21 66 109 109 0 0 1-88 109l-1 0 1 1a95 95 0 0 1 8 39 92 92 0 1 1-183 0 95 95 0 0 1 9-39l0-1-1 0a109 109 0 0 1-88-108 112 112 0 0 1 21-67l1-1-1-1a127 127 0 0 1 54-241 122 122 0 0 1 59 16l2 1v-105h-173a11 11 0 0 1 0-22h713a11 11 0 0 1 0 22h-14v39h14a11 11 0 0 1 11 11z m-502-50h-27v121l1 1a124 124 0 0 1 12 13l1 1 1-1a131 131 0 0 1 12-13l0 0z m15 138c-2 2-4 4-6 6l0 0a96 96 0 0 0-10 13l0 0 82 82a11 11 0 1 1-16 16l-67-67v128l58 58a11 11 0 0 1-16 16l-42-42v59a11 11 0 1 1-22 0v-59l-43 42a11 11 0 0 1-15-16l58-58v-128l-68 67a11 11 0 0 1-15-16l81-81 0-1a97 97 0 0 0-10-13l0 0c-2-2-4-4-6-6l-1-1a86 86 0 0 0-6-5 101 101 0 0 0-60-21 105 105 0 0 0-31 204 11 11 0 0 1 4 19 90 90 0 0 0-27 64 87 87 0 0 0 85 88 11 11 0 0 1 11 6 11 11 0 0 1-1 12 73 73 0 0 0-14 43 69 69 0 1 0 138 0 73 73 0 0 0-14-43 11 11 0 0 1-1-12 12 12 0 0 1 10-6 87 87 0 0 0 85-89 90 90 0 0 0-26-63 11 11 0 0 1 4-19 105 105 0 0 0 71-100 103 103 0 0 0-102-104 101 101 0 0 0-60 20 89 89 0 0 0-7 6z m440-138h-199v39h199z m0 62h-199v14h199z m0 37h-199v39h199z" horiz-adv-x="1000" />

<glyph glyph-name="loisir" unicode="&#xe80c;" d="M888 473l-309 67 305 37a17 17 0 0 1 15 18l-2 18a44 44 0 0 1-34 37 45 45 0 0 1-15 1l-311-37a44 44 0 0 1-38-49l2-18a16 16 0 0 1 2-6l-35-160-62 150a11 11 0 0 1-6 5 11 11 0 0 1-8 0l-261-108a56 56 0 0 1-29-73l131-315a56 56 0 0 1 51-34 55 55 0 0 1 21 4l254 106a11 11 0 0 1 5 14l-30 73a11 11 0 0 1 3 4 11 11 0 0 1 0 8l-43 103 321-70a36 36 0 0 1 7 0 34 34 0 0 1 18 5 33 33 0 0 1 15 21l41 187a10 10 0 0 1-8 12z m-405-118l5 21 352-76-5-22a13 13 0 0 0-6-8 13 13 0 0 0-10-2l-325 71h-1a13 13 0 0 0-8 6 13 13 0 0 0-2 10z m-206-285l8-20 247 103 9-21-244-102a34 34 0 0 0-26 62l244 102 9-21z m-14 42a52 52 0 0 1-5-2l-2-1-1 0a28 28 0 0 1-2-2l-1-1-2-1-2-1-1-1-1-1c0-1-1-1-2-2l-1-2-1-1-1-1a9 9 0 0 1-1-1l-2-3c0-1-1-1-1-2l-1-1 0 0-115 274a34 34 0 0 0 19 45l3 1 117-281 20 9-117 281 227 94 123-295z m350 453l-32 34 50 6 32-34z m75 9l-32 34 50 6 32-34z m75 9l-32 34 50 6 32-34z m44 42l44 6a24 24 0 0 0 26-21l1-14-40-5z m-268-31l17 2 32-34-68-8-2 14a24 24 0 0 0 21 26z m335-139l-8-36-67 14 35 31z m-148-6l34 31 50-11-35-30z m-74 16l35 31 49-10-35-31z m-74 16l35 31 49-10-35-31z m-65 14l8 37 67-14-35-31z m348-96l-17-79-352 76 17 79z" horiz-adv-x="1000" />

<glyph glyph-name="parc" unicode="&#xe80d;" d="M868 91a11 11 0 0 1-11 12h-14v14h14a11 11 0 0 1 0 23h-14v39h14a11 11 0 0 1 0 22h-14v1a11 11 0 0 1-22 0v-1h-199v1a11 11 0 0 1-22 0v-1h-14a11 11 0 1 1 0-22h14v-39h-14a11 11 0 1 1 0-23h14v-14h-14a11 11 0 1 1 0-23h14v-39h-212v105l2-1a123 123 0 0 1 59-15 127 127 0 0 1 54 240l-1 1 1 1a112 112 0 0 1 21 66 109 109 0 0 1-88 109l-1 0 1 1a95 95 0 0 1 8 39 92 92 0 1 1-183 0 95 95 0 0 1 9-39l0-1-1 0a109 109 0 0 1-88-108 112 112 0 0 1 21-67l1-1-1-1a127 127 0 0 1 54-241 122 122 0 0 1 59 16l2 1v-105h-173a11 11 0 0 1 0-22h713a11 11 0 0 1 0 22h-14v39h14a11 11 0 0 1 11 11z m-502-50h-27v121l1 1a124 124 0 0 1 12 13l1 1 1-1a131 131 0 0 1 12-13l0 0z m15 138c-2 2-4 4-6 6l0 0a96 96 0 0 0-10 13l0 0 82 82a11 11 0 1 1-16 16l-67-67v128l58 58a11 11 0 0 1-16 16l-42-42v59a11 11 0 1 1-22 0v-59l-43 42a11 11 0 0 1-15-16l58-58v-128l-68 67a11 11 0 0 1-15-16l81-81 0-1a97 97 0 0 0-10-13l0 0c-2-2-4-4-6-6l-1-1a86 86 0 0 0-6-5 101 101 0 0 0-60-21 105 105 0 0 0-31 204 11 11 0 0 1 4 19 90 90 0 0 0-27 64 87 87 0 0 0 85 88 11 11 0 0 1 11 6 11 11 0 0 1-1 12 73 73 0 0 0-14 43 69 69 0 1 0 138 0 73 73 0 0 0-14-43 11 11 0 0 1-1-12 12 12 0 0 1 10-6 87 87 0 0 0 85-89 90 90 0 0 0-26-63 11 11 0 0 1 4-19 105 105 0 0 0 71-100 103 103 0 0 0-102-104 101 101 0 0 0-60 20 89 89 0 0 0-7 6z m440-138h-199v39h199z m0 62h-199v14h199z m0 37h-199v39h199z" horiz-adv-x="1000" />

<glyph glyph-name="sante" unicode="&#xe80e;" d="M826 628a11 11 0 0 1-11 10h-226a11 11 0 0 1-11-10 78 78 0 0 0-67-78v23a56 56 0 1 1-21 0v-23a78 78 0 0 0-68 78 11 11 0 0 1-11 10h-226a11 11 0 0 1-10-10 55 55 0 0 1 16-40 55 55 0 0 1 19-12 11 11 0 0 1 0-6 55 55 0 0 1 23-36 57 57 0 0 1 22-9 11 11 0 0 1 0-6 56 56 0 0 1 30-30 59 59 0 0 1 23-5 11 11 0 0 1 2-5 56 56 0 0 1 58-25 11 11 0 0 1 3-5 55 55 0 0 1 39-17h1a55 55 0 0 1 21 4 11 11 0 0 1 4-4 56 56 0 0 1 42-10 58 58 0 0 1 12 4v-399a11 11 0 1 1 21 0v399a58 58 0 0 1 11-4 61 61 0 0 1 10 0 56 56 0 0 1 32 10 11 11 0 0 1 4 4 57 57 0 0 1 22-4h1a55 55 0 0 1 39 17 11 11 0 0 1 3 5 56 56 0 0 1 58 25 11 11 0 0 1 1 5 56 56 0 0 1 23 5 55 55 0 0 1 30 30 10 10 0 0 1 1 6 56 56 0 0 1 21 9 56 56 0 0 1 23 36 11 11 0 0 1 0 6 56 56 0 0 1 35 52z m-360 0a35 35 0 1 0 34-35 35 35 0 0 0-35 35z m8-185a35 35 0 0 0-17 2l17 27a11 11 0 0 1-16 13l-23-22a35 35 0 0 0-24-10h-1a35 35 0 0 0-16 5l32 30a11 11 0 0 1-13 17l-38-25a35 35 0 0 0-41 3l37 24a11 11 0 0 1-9 18l-42-17a35 35 0 0 0-40 10l41 17a11 11 0 0 1 6 12 11 11 0 0 1-12 8l-44-9a35 35 0 0 0-37 17l44 9a11 11 0 0 1 8 11 11 11 0 0 1-10 10h-46a35 35 0 0 0-33 24h204a99 99 0 0 1 89-88v-79a35 35 0 0 0-16-7z m320 160a35 35 0 0 0-24-10h-46a11 11 0 0 1-10-10 11 11 0 0 1 9-11l43-9a34 34 0 0 0-11-12 35 35 0 0 0-26-5l-44 9a11 11 0 0 1-12-8 11 11 0 0 1 6-13l41-16a35 35 0 0 0-40-10l-42 17a11 11 0 0 1-10-19l38-24a34 34 0 0 0-15-7 35 35 0 0 0-26 5l-38 24a11 11 0 0 1-13-16l31-31a35 35 0 0 0-15-4h-1a35 35 0 0 0-24 10l-23 22a11 11 0 0 1-14 0 11 11 0 0 1-3-14l17-27a34 34 0 0 0-17-1 35 35 0 0 0-15 7v79a99 99 0 0 1 89 88h204a35 35 0 0 0-9-14z m-234-402l-1 1a10 10 0 0 0 0 13 34 34 0 0 1 8 22 39 39 0 0 1-18 31 85 85 0 0 1-49 14 128 128 0 0 0-75 23c-21 15-32 35-32 58a69 69 0 0 0 23 50 11 11 0 0 0 16-1h0a11 11 0 0 0-2-14 48 48 0 0 1-16-35 52 52 0 0 1 24-41 107 107 0 0 1 62-19 104 104 0 0 0 61-18 60 60 0 0 0 27-48 55 55 0 0 0-13-35 10 10 0 0 0-15-1z m-33-151h0a11 11 0 0 0 0 12 11 11 0 0 1 2 6 14 14 0 0 1-7 12 37 37 0 0 1-21 6 82 82 0 0 0-47 13l-1 1a54 54 0 0 0-12 12 43 43 0 0 0-9 26 42 42 0 0 0 1 10 11 11 0 0 0 16 6h0a11 11 0 0 0 5-11 20 20 0 0 1-1-5 23 23 0 0 1 5-13 35 35 0 0 1 8-8l0 0a60 60 0 0 1 34-10 57 57 0 0 0 33-10 35 35 0 0 0 16-29 32 32 0 0 0-6-18 11 11 0 0 0-16 0z m41 264a11 11 0 0 0 2 14 45 45 0 0 1 0 70 11 11 0 0 0-2 14h0a11 11 0 0 0 16 1 66 66 0 0 0 0-101 11 11 0 0 0-16 2z m-18-195h0a11 11 0 0 0-4 12 21 21 0 0 1 2 8 27 27 0 0 1-13 21 61 61 0 0 1-35 10 105 105 0 0 0-61 18 60 60 0 0 0-27 49 54 54 0 0 0 10 30 10 10 0 0 0 15 2l1-1a10 10 0 0 0 1-13 33 33 0 0 1-6-18 39 39 0 0 1 19-31 85 85 0 0 1 48-15 81 81 0 0 0 47-14 47 47 0 0 0 22-38 42 42 0 0 0-3-15 11 11 0 0 0-16-5z" horiz-adv-x="1000" />

<glyph glyph-name="service_pub" unicode="&#xe80f;" d="M818 95h-17v40a11 11 0 0 1-11 11h-10v23a32 32 0 0 1-20 29l-1 1v191l1 1a32 32 0 0 1 20 29v22h10a11 11 0 0 1 11 12v51h3a11 11 0 0 1 5 21l-304 152a12 12 0 0 1-10 0l-304-152a11 11 0 0 1 5-21h3v-51a11 11 0 0 1 11-12h10v-22a32 32 0 0 1 20-29l1-1v-191l-1-1a32 32 0 0 1-20-29v-23h-10a11 11 0 0 1-11-11v-40h-17a11 11 0 0 1-11-12v-51a11 11 0 0 1 11-11h636a11 11 0 0 1 11 11v51a11 11 0 0 1-11 12z m-318 561l257-129h-514z m-279-191v40h558v-40z m527-286a10 10 0 0 0 10-10v-23h-71v23a10 10 0 0 0 10 10z m-40 22v187h29v-187z m40 209h-51a10 10 0 0 0-10 10v22h71v-22a10 10 0 0 0-10-10z m-136-212l-1 1v191l1 1a32 32 0 0 1 20 29v22h33v-22a32 32 0 0 1 19-29l2-1v-191l-2-1a32 32 0 0 1-19-29v-23h-33v23a32 32 0 0 1-20 29z m-63 212a10 10 0 0 0-10 10v22h71v-22a10 10 0 0 0-10-10z m40-22v-187h-30v187z m-40-210h51a10 10 0 0 0 10-10v-22h-71v23a10 10 0 0 0 10 10z m-85 20l-1 1v191l1 1a32 32 0 0 1 20 29v22h33v-22a32 32 0 0 1 19-29l1-1v-191l-1-1a32 32 0 0 1-19-29v-23h-33v23a32 32 0 0 1-20 29z m-64 212a10 10 0 0 0-10 10v22h71v-22a10 10 0 0 0-3-7 10 10 0 0 0-6-2z m40-22v-187h-29v187z m-50-219a10 10 0 0 0 10 10h51a10 10 0 0 0 10-10v-23h-71z m-74 29l-1 1v191l1 1a32 32 0 0 1 19 29v22h33v-22a32 32 0 0 1 20-29l1-1v-191l-1-1a32 32 0 0 1-20-29v-23h-33v23a32 32 0 0 1-19 29z m-13-20a10 10 0 0 0 10-10v-22h-71v23a10 10 0 0 0 10 10z m-40 23v187h29v-187z m40 209h-51a10 10 0 0 0-10 10v22h71v-22a10 10 0 0 0-10-10z m-82-286h558v-29h-558z m586-81h-614v29h614z" horiz-adv-x="1000" />

<glyph glyph-name="service" unicode="&#xe810;" d="M500 668a318 318 0 1 1 318-318 319 319 0 0 1-318 318z m0-613a295 295 0 1 0 295 295 295 295 0 0 0-295-295z m40 345h-12l-69-11-2-8c2 0 5 0 7 0a15 15 0 0 0 10-3 11 11 0 0 0 4-8 85 85 0 0 0-4-21l-28-98a70 70 0 0 1-4-19 25 25 0 0 1 8-19 29 29 0 0 1 21-7q35 0 66 53l-7 4a118 118 0 0 0-22-27 10 10 0 0 0-7-3 5 5 0 0 0-4 2 7 7 0 0 0-2 4 82 82 0 0 0 4 17z m-12 94a28 28 0 0 1-21-8 30 30 0 0 1-9-22 29 29 0 0 1 9-21 28 28 0 0 1 21-8 29 29 0 0 1 21 8 29 29 0 0 1 9 22 30 30 0 0 1-30 30z" horiz-adv-x="1000" />

<glyph glyph-name="theme_2" unicode="&#xe811;" d="M590 649a233 233 0 0 1-117 31 11 11 0 0 1-8-4 11 11 0 0 1-3-9l14-89a2 2 0 0 0 0-1 48 48 0 0 1-6-15 2 2 0 0 0-2-1h-39a2 2 0 0 0-2 1l-27 110a11 11 0 0 1-5 6 11 11 0 0 1-8 2 11 11 0 0 1-7-5 11 11 0 0 1-2-9l26-103a2 2 0 0 0 0-1 2 2 0 0 0-2-1h-41a11 11 0 0 1-9-4 12 12 0 0 1-2-10l8-26a180 180 0 0 0 9-46c0-1 0-1 0-2a177 177 0 0 0-9-64l-28-87a131 131 0 0 1 47-147l64-46a2 2 0 0 0 0-2v-40a2 2 0 0 0-1-1l-67-28a20 20 0 0 1 8-38h195a20 20 0 0 1 8 38l-67 28a2 2 0 0 0-1 2v40a2 2 0 0 0 0 1l64 47a131 131 0 0 1 47 147l-28 86a178 178 0 0 0 0 112l0 1a2 2 0 0 0 1 1l69 24a11 11 0 0 1 6 7 11 11 0 0 1 0 10 233 233 0 0 1-85 85z m-34-603a2 2 0 0 0 1-2 2 2 0 0 0-2-2h-153a2 2 0 0 0-2 1 2 2 0 0 0 1 2l56 24a11 11 0 0 1 6 10v43a2 2 0 0 0 2 1h26a2 2 0 0 0 2-1v-43a11 11 0 0 1 7-10z m50 269a109 109 0 0 0-39-121l-65-48a2 2 0 0 0-1 0h-45a2 2 0 0 0-1 0l-65 48a109 109 0 0 0-39 121l29 87a202 202 0 0 1 10 60 2 2 0 0 0 2 2h96a11 11 0 0 1 0 22h-98a2 2 0 0 0-1 2 203 203 0 0 1-9 40l-3 8a2 2 0 0 0 0 2 2 2 0 0 0 1 0h89a2 2 0 0 0 2-1 48 48 0 0 1 92 0 2 2 0 0 0 1 1h16a2 2 0 0 0 2 0 2 2 0 0 0 0-2l-3-8a201 201 0 0 1 0-126z m-116 235a25 25 0 1 0 25-25 25 25 0 0 0-25 25z m156 13l-36-13-1 0a1 1 0 0 0-1 0 1 1 0 0 0-1 1 11 11 0 0 1-11 10h-34a2 2 0 0 0-1 1 48 48 0 0 1-63 32 2 2 0 0 0-1 0 2 2 0 0 0-1 1l-9 60a2 2 0 0 0 0 2 2 2 0 0 0 2 0 211 211 0 0 0 158-91 2 2 0 0 0 0-2 2 2 0 0 0-1-1z" horiz-adv-x="1000" />

<glyph glyph-name="theme_3" unicode="&#xe812;" d="M826 401h-559l515 177a22 22 0 0 1 14 28l-10 28a68 68 0 0 1-64 46 67 67 0 0 1-21-4l-494-170a68 68 0 0 1-41-85l10-29a22 22 0 0 1 5-8l1-1v-312a51 51 0 0 1 50-50h555a51 51 0 0 1 35 14 50 50 0 0 1 15 36v319a11 11 0 0 1-11 11z m-11-23v-73h-129l54 73z m-103 0l-54-73h-98l54 73z m-126 0l-54-73h-98l54 73z m-126 0l-54-73h-98l54 73z m-126 0l-54-73h-76v73z m375 277a45 45 0 0 0 56-28l10-28-72-24-75 52z m-107-37l1-1 74-51-93-32-75 52z m-120-41l76-52-93-32-1 0-74 52z m-119-41l1-1 74-52-92-31-1 0-74 52z m-176-108a45 45 0 0 0 28 57l29 10 75-52-122-42z m17-146h611l0-146h-611z m611-211a28 28 0 0 0-8-20 28 28 0 0 0-20-8h-554a28 28 0 0 0-28 28v42h2l609 0z" horiz-adv-x="1000" />

<glyph glyph-name="theme_4" unicode="&#xe813;" d="M333 36c-41 0-82 14-100 29a176 176 0 0 0-29 33 288 288 0 0 0-51 203c10 81 38 190 113 246 48 37 124 85 212 106 90 22 171 10 239-35 145-97 150-216 111-288-37-69-132-107-202-107-137 0-155-20-182-111a99 99 0 0 0-68-70 146 146 0 0 0-43-6z m226 607c-72 0-167-25-282-111-69-53-95-156-104-233a269 269 0 0 1 47-189l0 0a154 154 0 0 1 26-29c17-15 76-34 124-20a79 79 0 0 1 55 56c31 107 61 126 200 126 66 0 153 36 186 96 56 104-22 206-105 262a263 263 0 0 1-147 42z m-228-560a138 138 0 0 0-67 18l-2 1a130 130 0 0 0-20 24 242 242 0 0 0-42 169 598 598 0 0 0 21 108 39 39 0 0 0 60 20 329 329 0 0 0 75-79c11-16 21-30 30-42h0a166 166 0 0 0 22-148c-3-8-6-17-9-29-3-10-13-42-66-42z m-56 34a118 118 0 0 1 58-14c39 0 44 18 47 27 3 12 7 22 9 30a146 146 0 0 1-19 130c-9 12-19 27-30 42a308 308 0 0 1-71 75 19 19 0 0 1-29-10 565 565 0 0 1-20-104 222 222 0 0 1 39-156 111 111 0 0 1 16-20z m383 166a158 158 0 0 0-86 25 242 242 0 0 1-103 31 197 197 0 0 0-127 61c-60 65-34 111-12 132 49 50 145 85 232 85a227 227 0 0 0 129-39c153-102 107-207 96-226l0-1a138 138 0 0 0-54-49 157 157 0 0 0-75-19z m-93 314h-3c-82 0-172-32-219-79-29-29-24-64 14-105a177 177 0 0 1 114-54 264 264 0 0 0 111-33l0-1a138 138 0 0 1 141-6 118 118 0 0 1 47 43c10 18 48 108-90 201a207 207 0 0 1-115 34z m110-245a57 57 0 1 0 57 56 57 57 0 0 0-57-56z m0 93a37 37 0 1 1 37-37 37 37 0 0 1-37 37z" horiz-adv-x="1000" />

<glyph glyph-name="theme_5" unicode="&#xe814;" d="M817 667a63 63 0 0 1-47 16c-52 0-131-37-223-106a16 16 0 0 0-10-3c-10-1-23-3-49-29a186 186 0 0 1-33-40 61 61 0 0 0-13-16c-14-13-28-27-41-40-7-7-14-13-20-20a28 28 0 0 0-13-8 65 65 0 0 1-28-17 158 158 0 0 1-17-20 215 215 0 0 1-27-47 59 59 0 0 0-9-16c-106-136-146-246-104-288a63 63 0 0 1 47-16c81 0 230 94 370 234 85 85 154 174 195 251 42 79 50 137 22 165z m-425-459h0a392 392 0 0 0-79 39c-12 8-24 16-36 25 7 10 15 20 23 30 11-6 23-13 35-20a388 388 0 0 0 69-54c14-14 18-22 18-25-3-1-11-1-30 5z m47-20a19 19 0 0 1 2 3c8 12 1 29-21 52a409 409 0 0 1-73 57c-12 7-23 14-35 20 2 3 3 6 4 9a193 193 0 0 0 25 43 131 131 0 0 0 14 17 44 44 0 0 0 20 12 55 55 0 0 1 15 8c8-5 14-10 20-13a544 544 0 0 1 110-55c34-12 57-12 68-1a24 24 0 0 1 3 3c9 15 0 37-28 65a537 537 0 0 1-96 75 89 89 0 0 1 6 11 171 171 0 0 0 30 36c21 20 29 21 37 22a44 44 0 0 1 13 3l8-5a407 407 0 0 1 83-41c27-9 45-9 54 0a20 20 0 0 1 2 3c17 27-43 74-72 94 59 36 109 56 142 56a43 43 0 0 0 32-10c21-21 10-75-30-147-41-75-108-160-188-239-132-133-281-228-354-228a43 43 0 0 0-32 10c-27 27-1 106 67 206 12-9 24-17 37-25a408 408 0 0 1 83-42c27-8 45-8 54 1z m133 167a17 17 0 0 0-9-2 122 122 0 0 0-36 8 516 516 0 0 0-106 53c-5 3-11 7-15 10 14 15 30 29 45 44l3-2a518 518 0 0 0 93-73c24-24 26-36 25-38z m79 174a386 386 0 0 0-79 40h0c13 9 25 17 36 25 55-37 73-65 74-70-2-1-10-2-31 5z" horiz-adv-x="1000" />

<glyph glyph-name="theme_6" unicode="&#xe815;" d="M171 577v-485a11 11 0 0 1 11-10h264l1-4a55 55 0 0 1 107 0l0 4h264a11 11 0 0 1 11 10v485a11 11 0 0 1-11 11h-49v65a11 11 0 0 1-11 11h-1c-98 0-186-30-254-87l-3-2-3 2c-68 57-156 87-254 87h-2a11 11 0 0 1-9-11v-65h-51a11 11 0 0 1-10-11z m340-20l1 2c60 50 140 79 230 82l5 0v-418h-5c-85-2-165-26-225-69l-6-5z m-258 84l5 0c90-3 170-31 230-82l1-2v-408l-7 5c-60 43-140 67-225 70h-4z m-60-75h39v-352a11 11 0 0 1 10-11c98 0 190-30 251-84a11 11 0 0 1 14 0c62 54 153 84 251 84a11 11 0 0 1 11 11v352h38v-463h-261a11 11 0 0 1-11-11 35 35 0 0 0-69 0 11 11 0 0 1-11 11h-262z m262-302a10 10 0 0 0-7 3 301 301 0 0 1-155 59 10 10 0 1 0 2 20 316 316 0 0 0 166-64 10 10 0 0 0 2-14 10 10 0 0 0-8-4z m0 90a10 10 0 0 0-7 3 302 302 0 0 1-155 60 10 10 0 1 0 2 20 316 316 0 0 0 166-65 10 10 0 0 0-6-18z m0 90a10 10 0 0 0-7 2 302 302 0 0 1-155 60 10 10 0 1 0 2 20 316 316 0 0 0 166-64 10 10 0 0 0-6-18z m94-180a10 10 0 0 0-8 4 10 10 0 0 0 1 14 316 316 0 0 0 166 64 10 10 0 1 0 2-20 301 301 0 0 1-155-59 10 10 0 0 0-6-3z m0 90a10 10 0 0 0-7 18 316 316 0 0 0 166 64 10 10 0 0 0 11-9 10 10 0 0 0-9-11 301 301 0 0 1-155-60 10 10 0 0 0-6-2z m0 90a10 10 0 0 0-7 18 316 316 0 0 0 166 64 10 10 0 1 0 2-20 301 301 0 0 1-155-60 10 10 0 0 0-6-2z" horiz-adv-x="1000" />

<glyph glyph-name="theme_7" unicode="&#xe816;" d="M787 655l-10 28a11 11 0 0 1-10 6l-110-12-1 5a10 10 0 0 1-5 5 10 10 0 0 1-4 1 8 8 0 0 1-3-1l-442-161a28 28 0 0 1-17-37l26-72a29 29 0 0 1 15-17 33 33 0 0 1 12-2 39 39 0 0 1 10 2l440 160a13 13 0 0 1 6 5 10 10 0 0 1 0 7l-3 8 92 63a10 10 0 0 1 4 12z m-546-237a20 20 0 0 0-4-1 17 17 0 0 0-4 0l0 0a12 12 0 0 0-5 6l-25 72a17 17 0 0 0 0 8l0 1a12 12 0 0 0 5 5l26 9 1-1 33-90z m44 15l-1 2-32 89 13 5 1-2 32-89z m305 112l-274-100-33 91 1 0 275 100 32-90z m19 6l-1 2-32 89 14 5 32-91z m31 12l-33 90 33 13 33-91z m45 36l-23 60 100 10 5-14z m129-105l-21 21a11 11 0 0 1-13 1l-93-60-3 2a11 11 0 0 1-7 3 11 11 0 0 1-8-3l-319-344a30 30 0 0 1 2-42l56-52a31 31 0 0 1 21-9l2 0a26 26 0 0 1 18 10l320 345a10 10 0 0 1-1 14l-5 5 0 1 53 96a9 9 0 0 1-2 12z m-380-458a9 9 0 0 0-6-4h-1a7 7 0 0 0-6 3l-56 52a8 8 0 0 0-3 6 9 9 0 0 0 2 7l19 20 70-65z m33 34l-1 1-69 64 9 9 1-1 68-64z m219 236l-198-212-1 2-68 63 1 1 198 212 69-65z m19 21l-3-4-2 1-68 64 8 9 1-1 69-64z m18 20l-69 65 23 25 70-64z m24 52l-45 42 82 53 10-10z" horiz-adv-x="1000" />

<glyph glyph-name="theme_8" unicode="&#xe817;" d="M647 577h-30a118 118 0 0 1-234 0h-30a111 111 0 0 1-110-111v-337a111 111 0 0 1 110-111h294a111 111 0 0 1 110 111v337a111 111 0 0 1-110 111z m-147 38a51 51 0 0 0 49-38h-98a51 51 0 0 0 49 38z m-96-38a97 97 0 0 0 192 0h-24a73 73 0 0 1-144 0z m-30-342v-102a22 22 0 0 1 21-22h31a22 22 0 0 1 21 22v102a28 28 0 0 1 17 25v12h72v-12a28 28 0 0 1 17-25v-102a22 22 0 0 1 22-22h30a22 22 0 0 1 21 22v102a29 29 0 0 1 9 5 27 27 0 0 1 8 20v15h0l1 0a136 136 0 0 1 40 13v-159a37 37 0 0 0-37-37h-294a37 37 0 0 0-37 37v160a137 137 0 0 1 41-14v-15a28 28 0 0 1 17-25z m230-3v-99h-29v99z m17 28a6 6 0 0 0-6-6h-51a6 6 0 0 0-6 6v56a6 6 0 0 0 6 6h51a6 6 0 0 0 6-6z m-179 0a6 6 0 0 0-6-6h-51a6 6 0 0 0-6 6v56a6 6 0 0 0 6 6h51a6 6 0 0 0 6-6z m-17-28v-99h-29v99z m311 179a117 117 0 0 0-93-114v20a28 28 0 0 1-28 27h-51a28 28 0 0 1-28-27v-23h-72v22a28 28 0 0 1-28 28h-51a28 28 0 0 1-28-28v-20a117 117 0 0 0-93 115v55a89 89 0 0 0 89 89h294a89 89 0 0 0 89-89z m-383-341h294a59 59 0 0 1 58 59v174l1 0a139 139 0 0 1 30 34v-208a89 89 0 0 0-89-89h-294a89 89 0 0 0-88 89v208a138 138 0 0 1 30-34v-173a59 59 0 0 1 58-60z" horiz-adv-x="1000" />

<glyph glyph-name="theme_9" unicode="&#xe818;" d="M827 446l11 2a27 27 0 0 1 0 52l-5 1-345 47a29 29 0 0 1-3 0 28 28 0 0 1-4 0l-316-48a27 27 0 0 1-2-52l120-30-2-6-43-188a11 11 0 0 1 2-10c46-46 156-62 244-62s199 16 245 62a11 11 0 0 1 2 10l-43 190 2 1 115 26v-61a11 11 0 0 1 21 0z m-118-221l-3-2c-38-31-123-50-221-50s-184 19-222 50l-4 2 1 4 43 184 2 0 173-43a27 27 0 0 1 12 0l177 40 0-4z m-224 165l-2 0-312 78a6 6 0 0 0-4 6 6 6 0 0 0 5 6l312 47h0l344-47a6 6 0 0 0 0-12z" horiz-adv-x="1000" />

<glyph glyph-name="theme_10" unicode="&#xe819;" d="M822 617h-644a11 11 0 0 1-11-11v-511a11 11 0 0 1 11-12h644a11 11 0 0 1 11 12v511a11 11 0 0 1-11 11z m-11-511h-622v489h622z m-169 139v-79a11 11 0 0 1 11-12 12 12 0 0 1 5 2l40 20 39-20a11 11 0 0 1 15 5 11 11 0 0 1 1 5v79a78 78 0 1 1-111 0z m89-62l-28 15a11 11 0 0 1-10 0l-28-15v46l1-1c2-1 4-2 6-2l1-1a75 75 0 0 1 49 0l2 1c2 0 4 1 6 2l1 1z m-33 171a56 56 0 0 0 37-97h0a57 57 0 0 0-57-10 51 51 0 0 0-17 11 56 56 0 0 0 37 96z m-460 174h289a11 11 0 1 1 0 22h-289a11 11 0 1 1 0-22z m-11-100a11 11 0 0 1 11-11h267a11 11 0 0 1 0 22h-267a11 11 0 0 1-11-11z m166 44a11 11 0 0 1 0 23h-155a11 11 0 0 1 0-23z m-155-273h133a11 11 0 0 1 0 22h-133a11 11 0 0 1 0-22z m67-22h-67a11 11 0 1 1 0-22h67a11 11 0 0 1 0 22z" horiz-adv-x="1000" />

<glyph glyph-name="theme_12" unicode="&#xe81a;" d="M743 681h-420a78 78 0 0 1-77-77v-508a78 78 0 0 1 77-77h409a11 11 0 0 1 11 11v121h0a11 11 0 0 1 11 11v508a11 11 0 0 1-11 11z m-22-574h-398v-22h398v-44h-398a55 55 0 1 0 0 110h398z m11 66h-409c-2 0-5 0-8 0l-2 0c-2 0-4 0-5-1l-3-1-5-1-3-1-4-2-3-1-4-2-3-2-3-2c-1-1-2-1-3-2l-3-2-3-3-3-2 0 0v453a55 55 0 0 0 55 55h11v-452h22v452h376z" horiz-adv-x="1000" />

<glyph glyph-name="theme_13" unicode="&#xe81b;" d="M818 95h-17v40a11 11 0 0 1-11 11h-10v23a32 32 0 0 1-20 29l-1 1v191l1 1a32 32 0 0 1 20 29v22h10a11 11 0 0 1 11 12v51h3a11 11 0 0 1 5 21l-304 152a12 12 0 0 1-10 0l-304-152a11 11 0 0 1 5-21h3v-51a11 11 0 0 1 11-12h10v-22a32 32 0 0 1 20-29l1-1v-191l-1-1a32 32 0 0 1-20-29v-23h-10a11 11 0 0 1-11-11v-40h-17a11 11 0 0 1-11-12v-51a11 11 0 0 1 11-11h636a11 11 0 0 1 11 11v51a11 11 0 0 1-11 12z m-318 561l257-129h-514z m-279-191v40h558v-40z m527-286a10 10 0 0 0 10-10v-23h-71v23a10 10 0 0 0 10 10z m-40 22v187h29v-187z m40 209h-51a10 10 0 0 0-10 10v22h71v-22a10 10 0 0 0-10-10z m-136-212l-1 1v191l1 1a32 32 0 0 1 20 29v22h33v-22a32 32 0 0 1 19-29l2-1v-191l-2-1a32 32 0 0 1-19-29v-23h-33v23a32 32 0 0 1-20 29z m-63 212a10 10 0 0 0-10 10v22h71v-22a10 10 0 0 0-10-10z m40-22v-187h-30v187z m-40-210h51a10 10 0 0 0 10-10v-22h-71v23a10 10 0 0 0 10 10z m-85 20l-1 1v191l1 1a32 32 0 0 1 20 29v22h33v-22a32 32 0 0 1 19-29l1-1v-191l-1-1a32 32 0 0 1-19-29v-23h-33v23a32 32 0 0 1-20 29z m-64 212a10 10 0 0 0-10 10v22h71v-22a10 10 0 0 0-3-7 10 10 0 0 0-6-2z m40-22v-187h-29v187z m-50-219a10 10 0 0 0 10 10h51a10 10 0 0 0 10-10v-23h-71z m-74 29l-1 1v191l1 1a32 32 0 0 1 19 29v22h33v-22a32 32 0 0 1 20-29l1-1v-191l-1-1a32 32 0 0 1-20-29v-23h-33v23a32 32 0 0 1-19 29z m-13-20a10 10 0 0 0 10-10v-22h-71v23a10 10 0 0 0 10 10z m-40 23v187h29v-187z m40 209h-51a10 10 0 0 0-10 10v22h71v-22a10 10 0 0 0-10-10z m-82-286h558v-29h-558z m586-81h-614v29h614z" horiz-adv-x="1000" />

<glyph glyph-name="theme_15" unicode="&#xe81c;" d="M868 91a11 11 0 0 1-11 12h-14v14h14a11 11 0 0 1 0 23h-14v39h14a11 11 0 0 1 0 22h-14v1a11 11 0 0 1-22 0v-1h-199v1a11 11 0 0 1-22 0v-1h-14a11 11 0 1 1 0-22h14v-39h-14a11 11 0 1 1 0-23h14v-14h-14a11 11 0 1 1 0-23h14v-39h-212v105l2-1a123 123 0 0 1 59-15 127 127 0 0 1 54 240l-1 1 1 1a112 112 0 0 1 21 66 109 109 0 0 1-88 109l-1 0 1 1a95 95 0 0 1 8 39 92 92 0 1 1-183 0 95 95 0 0 1 9-39l0-1-1 0a109 109 0 0 1-88-108 112 112 0 0 1 21-67l1-1-1-1a127 127 0 0 1 54-241 122 122 0 0 1 59 16l2 1v-105h-173a11 11 0 0 1 0-22h713a11 11 0 0 1 0 22h-14v39h14a11 11 0 0 1 11 11z m-502-50h-27v121l1 1a124 124 0 0 1 12 13l1 1 1-1a131 131 0 0 1 12-13l0 0z m15 138c-2 2-4 4-6 6l0 0a96 96 0 0 0-10 13l0 0 82 82a11 11 0 1 1-16 16l-67-67v128l58 58a11 11 0 0 1-16 16l-42-42v59a11 11 0 1 1-22 0v-59l-43 42a11 11 0 0 1-15-16l58-58v-128l-68 67a11 11 0 0 1-15-16l81-81 0-1a97 97 0 0 0-10-13l0 0c-2-2-4-4-6-6l-1-1a86 86 0 0 0-6-5 101 101 0 0 0-60-21 105 105 0 0 0-31 204 11 11 0 0 1 4 19 90 90 0 0 0-27 64 87 87 0 0 0 85 88 11 11 0 0 1 11 6 11 11 0 0 1-1 12 73 73 0 0 0-14 43 69 69 0 1 0 138 0 73 73 0 0 0-14-43 11 11 0 0 1-1-12 12 12 0 0 1 10-6 87 87 0 0 0 85-89 90 90 0 0 0-26-63 11 11 0 0 1 4-19 105 105 0 0 0 71-100 103 103 0 0 0-102-104 101 101 0 0 0-60 20 89 89 0 0 0-7 6z m440-138h-199v39h199z m0 62h-199v14h199z m0 37h-199v39h199z" horiz-adv-x="1000" />

<glyph glyph-name="theme_16" unicode="&#xe81d;" d="M723 33c0 0-1 1-1 1l-81 171h27a26 26 0 0 1 25 25v382a26 26 0 0 1-25 26h-69v34a12 12 0 0 1-12 11h-175a12 12 0 0 1-12-11v-34h-69a26 26 0 0 1-25-26v-382a26 26 0 0 1 25-25h28l-82-170a12 12 0 0 1 22-11l9 20h383l10-20a12 12 0 1 1 22 9z m-53 344h-158v137h158z m-246 283h151v-22h-151z m-94-48a2 2 0 0 0 1 2h337a2 2 0 0 0 2-2v-74h-340z m0-98h158v-137l-158 0z m1-285a2 2 0 0 0-1 1v123h340v-123a2 2 0 0 0-2-1z m293-43h-248l9 19h229z m-304-118l45 95h270l45-95z m86 261a36 36 0 1 1 35-36 36 36 0 0 1-35 36z m0-49a13 13 0 1 0 13 13 13 13 0 0 0-13-13z m187 49h0a36 36 0 0 1-35-36 36 36 0 0 1 35-35h0a36 36 0 0 1 36 35v0a36 36 0 0 1-36 36z m0-49h0a13 13 0 0 0 0 27h0a13 13 0 0 0 14-14v0a13 13 0 0 0-14-13z" horiz-adv-x="1000" />

<glyph glyph-name="theme_17" unicode="&#xe81e;" d="M258 117h484a11 11 0 0 1 11 11v79l80 240a11 11 0 0 1-3 11 381 381 0 0 1-86 63 513 513 0 0 1-488 0 379 379 0 0 1-86-63 11 11 0 0 1-3-11l80-240v-79a11 11 0 0 1 11-11z m473 22h-462v59h462z m-541 309l5 4a404 404 0 0 0 73 50 492 492 0 0 0 464 0 408 408 0 0 0 74-50l4-4-76-228h-468z m422-98v81a11 11 0 0 1-11 11h-50v49a11 11 0 0 1-11 11h-80a11 11 0 0 1-11-11v-49h-50a11 11 0 0 1-11-11v-81a11 11 0 0 1 11-11h50v-49a11 11 0 0 1 11-11h80a11 11 0 0 1 11 11v49h50a11 11 0 0 1 11 11z m-22 11h-50a11 11 0 0 1-11-11v-49h-58v49a11 11 0 0 1-11 11h-50v59h50a11 11 0 0 1 11 11v49h59v-49a11 11 0 0 1 10-11h50z" horiz-adv-x="1000" />

<glyph glyph-name="theme_18" unicode="&#xe81f;" d="M825 423l0 1h0a329 329 0 0 1-43 104 336 336 0 0 1-104 104 328 328 0 0 1-105 43 339 339 0 0 1-146 0 329 329 0 0 1-105-43 337 337 0 0 1-103-104 331 331 0 0 1-44-105 339 339 0 0 1 0-146 330 330 0 0 1 44-105 337 337 0 0 1 103-103 328 328 0 0 1 105-44 339 339 0 0 1 146 0 328 328 0 0 1 105 44 338 338 0 0 1 104 103 328 328 0 0 1 43 105 337 337 0 0 1 0 146z m-19-130l-45 12v90l45 12a307 307 0 0 0 0-114z m-522-96l64-63-24-41a312 312 0 0 0-81 81z m432 305l-63 64 23 41a312 312 0 0 0 81-81z m-9-283l-76-76a11 11 0 0 1-1-13l28-49a305 305 0 0 0-79-33l-15 55a11 11 0 0 1-11 8h-106a11 11 0 0 1-11-8l-14-54a306 306 0 0 0-79 33l28 48a11 11 0 0 1-2 13l-76 76a11 11 0 0 1-13 1l-49-27a306 306 0 0 0-33 79l55 14a11 11 0 0 1 8 11v106a11 11 0 0 1-8 11l-54 15a307 307 0 0 0 33 79l49-28a11 11 0 0 1 13 1l75 76a11 11 0 0 1 2 13l-28 49a307 307 0 0 0 79 33l14-55a11 11 0 0 1 11-8h106a11 11 0 0 1 11 8l15 54a308 308 0 0 0 79-33l-28-49a11 11 0 0 1 1-13l76-75a11 11 0 0 1 13-2l49 28a308 308 0 0 0 33-78l-55-15a11 11 0 0 1-8-11v-106a11 11 0 0 1 8-11l54-15a304 304 0 0 0-33-78l-48 28a11 11 0 0 1-13-2z m-162 392h-90l-12 45a310 310 0 0 0 114 0z m-302-85a312 312 0 0 0 81 81l24-41-64-63z m212-436h90l12-46a315 315 0 0 0-114 0z m302 84a313 313 0 0 0-81-81l-23 41 63 64z m-517 221v-90l-46-12a307 307 0 0 0 0 114z m260 159h0a204 204 0 1 1 204-204 204 204 0 0 1-204 204z m182-204a182 182 0 1 0-182 182 182 182 0 0 0 182-182z m-174 120a11 11 0 0 1-16 0l-76-77a65 65 0 0 1 47-111 126 126 0 0 0-16-38 11 11 0 0 1-1-8 11 11 0 0 1 5-7 11 11 0 0 1 5-2h88a11 11 0 0 1 11 11 11 11 0 0 1-2 6 124 124 0 0 0-16 38h2a65 65 0 0 1 46 111z m5-173a10 10 0 0 1 0-4 150 150 0 0 1 13-44h-51a150 150 0 0 1 12 44 11 11 0 0 1-10 12 10 10 0 0 1-4 0 44 44 0 0 0-42 72l69 70 69-70a44 44 0 0 0 0-61l0-1a44 44 0 0 0-42-10 11 11 0 0 1-9-1 11 11 0 0 1-5-7z" horiz-adv-x="1000" />

<glyph glyph-name="theme_19" unicode="&#xe820;" d="M839 224a34 34 0 0 1-33 28h-12v231a56 56 0 0 1 34 52 50 50 0 0 1-8 27l-56 88a68 68 0 0 1-57 32h-414a68 68 0 0 1-57-31l-56-89a51 51 0 0 1-8-27 57 57 0 0 1 17-40 58 58 0 0 1 17-12v-231h-11a34 34 0 0 1-12-66v-134a34 34 0 0 1 34-34h566a34 34 0 0 1 34 34v134a34 34 0 0 1 22 38z m-43 287a34 34 0 0 0-25-10h-33a34 34 0 0 0-34 34h101a34 34 0 0 0-9-24z m-25-32v-227h-22v227z m-418 0h34a56 56 0 0 1 45 22 56 56 0 0 1 45-22h45a56 56 0 0 1 46 22 56 56 0 0 1 45-22h34a56 56 0 0 1 46 22 56 56 0 0 1 34-21v-228h-453v228a57 57 0 0 1 34 21 56 56 0 0 1 45-22z m-34 56h102a34 34 0 0 0-34-34h-34a34 34 0 0 0-34 34z m125 0h113a34 34 0 0 0-34-34h-46a34 34 0 0 0-33 34z m136 0h101a34 34 0 0 0-34-34h-34a34 34 0 0 0-34 34z m-324 104a45 45 0 0 0 37 20h414a45 45 0 0 0 38-21l51-80h-96l-20 49a11 11 0 0 1-21-8l16-41h-96v11a11 11 0 0 1-22 0v-11h-114v11a11 11 0 0 1-22 0v-11h-96l16 41a11 11 0 0 1-21 8l-20-49h-96z m-51-128a34 34 0 0 0-10 24h101a34 34 0 0 0-33-34h-34a34 34 0 0 0-24 10z m46-32v-227h-22v227z m543-427a11 11 0 0 0-11-11h-566a11 11 0 0 0-11 11v132h588z m11 155h-610a11 11 0 1 0 0 22h610a11 11 0 1 0 0-22z" horiz-adv-x="1000" />

<glyph glyph-name="theme_20" unicode="&#xe821;" d="M500 668a318 318 0 1 1 318-318 319 319 0 0 1-318 318z m0-613a295 295 0 1 0 295 295 295 295 0 0 0-295-295z m153 145v291c0 17 4 34-24 34-13 0-16-9-25-27l-103-188h-1l-104 188c-9 18-11 27-25 27-28 0-23-17-23-34v-291c0-16-1-25 14-25 13 0 15 9 15 25v263h1l95-168c6-12 14-18 27-18s21 6 27 18l96 168h0v-263c0-16 2-25 15-25 15 0 15 9 15 25z" horiz-adv-x="1000" />

<glyph glyph-name="theme_22" unicode="&#xe822;" d="M406 328a36 36 0 1 1 35-35 36 36 0 0 1-35 35z m0-49a13 13 0 1 0 13 13 13 13 0 0 0-13-13z m188 49h0a36 36 0 0 1-36-35 36 36 0 0 1 35-36h0a36 36 0 0 1 36 35v0a36 36 0 0 1-35 36z m0-49h0a13 13 0 0 0 0 27h0a13 13 0 0 0 13-13v0a13 13 0 0 0-13-14z m129-245l-82 170h27a26 26 0 0 1 25 26v382a26 26 0 0 1-25 25h-137l23 21a10 10 0 0 1 1 1h92a12 12 0 0 1 0 24h-294a12 12 0 0 1 0-24h91a10 10 0 0 1 1-1l24-21h-137a26 26 0 0 1-26-26v-381a26 26 0 0 1 26-25h27l-82-171a12 12 0 0 1 6-16h0a12 12 0 0 1 16 6l86 179a6 6 0 0 1 0 2h230a6 6 0 0 1 1-2l85-179a12 12 0 0 1 16-5h0a12 12 0 0 1 6 15z m-201 625l-22-20-22 20z m-192-47a2 2 0 0 0 2 1h336a2 2 0 0 0 2-1v-75h-340z m0-235v137h340v-138h-340z m2-149a2 2 0 0 0-2 2v122h340v-122a2 2 0 0 0-2-2z" horiz-adv-x="1000" />

<glyph glyph-name="theme_24" unicode="&#xe823;" d="M802 530a100 100 0 0 1-100 100h-60c-7 0-11-3-11-11v-268c0-8 4-11 11-11s11 3 11 11v79h49a100 100 0 0 1 100 100z m-149 79h49a79 79 0 0 0 0-158h-49z m234-304v361a10 10 0 0 1-11 11h-361a10 10 0 0 1-11-11v-361a10 10 0 0 1 11-12h361a10 10 0 0 1 11 12z m-22 11h-339v338h339z m-354-293a91 91 0 1 1-18 179l-4 0-65 180a10 10 0 0 1-9 6h-45a10 10 0 0 1 0-19h38l15-42-67-101h-44l-34 68h33a10 10 0 1 1 0 19h-70a10 10 0 0 1 0-19h15l28-56-13 6a148 148 0 0 1-122 8 10 10 0 0 1-5-13 10 10 0 0 1 12-5 128 128 0 0 0 105-6l5-2-22-33-4 2a90 90 0 1 1 51-95l0 4h66a9 9 0 0 1 8 4l0 1 89 132 17-46-4-2a91 91 0 0 1 44-170z m-240 75a70 70 0 1 0-44 81l6-2-3-5c-24-35-32-48-36-52l0 0h0a10 10 0 0 1 9-16h69z m-50 25l28 43 4-4a70 70 0 0 0 18-33l1-6z m70 0l0 4a90 90 0 0 1-28 52l-3 3 30 45 51-104z m67 10l-36 73h39a10 10 0 0 1 8 5l62 93 15-40z m114 40l5 4 24-67a10 10 0 1 1 19 7l-24 66 6 1a71 71 0 1 0-29-11z" horiz-adv-x="1000" />

<glyph glyph-name="theme_25" unicode="&#xe824;" d="M780 59h-559a12 12 0 0 0-12 12v559a12 12 0 0 0 12 11h559a12 12 0 0 0 11-11v-559a12 12 0 0 0-11-12z m-548 23h536v536h-536z m391 224v89a12 12 0 0 1-12 12h-54v54a12 12 0 0 1-12 12h-89a12 12 0 0 1-13-12v-54h-54a12 12 0 0 1-12-12v-89a12 12 0 0 1 12-13h54v-54a12 12 0 0 1 13-12h89a12 12 0 0 1 12 12v54h54a12 12 0 0 1 12 13z m-24 12h-54a12 12 0 0 1-13-12v-55h-64v55a12 12 0 0 1-12 12h-55v64h55a12 12 0 0 1 12 13v54h64v-54a12 12 0 0 1 13-13h54z" horiz-adv-x="1000" />

<glyph glyph-name="theme_26" unicode="&#xe825;" d="M401 671a20 20 0 0 1-21-2 204 204 0 0 1-89-168v-98a64 64 0 0 1 35-56l-14-282a45 45 0 0 1 44-47h11a45 45 0 0 1 44 47v588a20 20 0 0 1-10 18z m-10-607a24 24 0 0 0-24-25h-11a24 24 0 0 0-24 25l15 276a66 66 0 0 1 8 0h36v-276z m0 296h-36a43 43 0 0 0-43 43v98a184 184 0 0 0 79 151z m0 292l-6 9 6-9z m289 30a29 29 0 0 1-29-29v-107a9 9 0 0 0-19 0v107a29 29 0 0 1-58 0v-107a9 9 0 1 0-19 0v107a29 29 0 1 1-58 0v-140a107 107 0 0 1 67-99l-18-349a45 45 0 0 1 45-47h24a45 45 0 0 1 45 47l-18 349a107 107 0 0 1 67 99v140a29 29 0 0 1-29 29z m-48-636a24 24 0 0 0-17-7h-24a24 24 0 0 0-24 25l17 344a105 105 0 0 1 37 0l18-344a24 24 0 0 0-7-18z m57 467a86 86 0 0 0-172 0v140a9 9 0 1 0 17 0v-107a30 30 0 1 1 60 0v107a9 9 0 1 0 17 0v-107a30 30 0 0 1 60 0v107a9 9 0 0 0 17 0v-140z" horiz-adv-x="1000" />

<glyph glyph-name="theme_27" unicode="&#xe826;" d="M780 600h-559a54 54 0 0 1-54-54v-392a54 54 0 0 1 54-53h559a54 54 0 0 1 53 53v392a54 54 0 0 1-53 54z m29-54v-392a24 24 0 0 0-1-6l-1-5-2 3c-34 32-149 141-222 204l-2 1 2 2c70 64 178 162 222 202l2 2 1-4a28 28 0 0 0 1-7z m-22 25c-48-44-209-191-265-242a30 30 0 0 0-44 0c-51 46-187 171-265 242l-2 3 5 1a20 20 0 0 0 5 1h559a18 18 0 0 0 4-1l2-1 4 0z m-594-14l3-2c33-31 147-136 221-203l2-1-2-2c-73-63-188-172-221-204l-3-2-1 5a24 24 0 0 0-1 6v392a27 27 0 0 0 1 7z m20-428c34 33 150 143 222 205l2 1 1-1 24-22a54 54 0 0 1 76 0c6 6 15 13 24 22l1 1 2-1c72-62 188-172 222-205l3-2-5-2a20 20 0 0 0-5-1h-559a19 19 0 0 0-6 1l-5 2z" horiz-adv-x="1000" />

<glyph glyph-name="theme_28" unicode="&#xe827;" d="M450 412a13 13 0 0 1-24 0l-45-113a13 13 0 0 1 7-17 13 13 0 0 1 5-1 13 13 0 0 1 12 8l10 25h46l10-25a13 13 0 0 1 12-8 13 13 0 0 1 5 1 13 13 0 0 1 7 17z m-25-72l13 33 14-33z m216 77a13 13 0 0 1-19-1l-39-45-39 45a13 13 0 0 1-19-17l41-48-41-48a13 13 0 0 1 1-18 13 13 0 0 1 18 1l39 45 39-45a13 13 0 1 1 20 17l-42 48 42 47a13 13 0 0 1-1 19z m46 0a13 13 0 0 1-14-13v-111a13 13 0 1 1 26 0v111a13 13 0 0 1-12 13z m-317 2h-57a13 13 0 0 1 0-26h16v-100a13 13 0 1 1 26 0v100h15a13 13 0 1 1 0 26z m494-176h-36l-59 231a13 13 0 0 1-12 9h-514a13 13 0 0 1-12-9l-59-231h-36a13 13 0 1 1 0-26h728a13 13 0 0 1 0 26z m-611 215h494l54-215h-602z" horiz-adv-x="1000" />

<glyph glyph-name="theme_29" unicode="&#xe828;" d="M765 227a11 11 0 0 1 11 8l87 294a11 11 0 0 1-10 14h-574l-32 109a11 11 0 0 1-11 7h-89a11 11 0 0 1-7-3 11 11 0 0 1 7-19h81l116-387-15-1a76 76 0 0 1 6-151h30l2-8a68 68 0 0 1 131 0l3 8h135l2-8a68 68 0 0 1 131 0l2 8h37a11 11 0 0 1 0 22h-37l-2 8a68 68 0 0 1-131 0l-2-8h-135l-3 8a68 68 0 0 1-131 0l-2-8h-30a53 53 0 0 0 0 107z m-116 294h189l-37-125h-152z m0-147h145l-37-125h-108z m-164 147h142v-125h-142z m0-147h142v-125h-142z m-199 147h177v-125h-140z m43-147h134v-125h-96z m374-219a46 46 0 1 0-46-46 46 46 0 0 0 46 46z m-270 0a46 46 0 1 0-46-46 47 47 0 0 0 46 46z" horiz-adv-x="1000" />

<glyph glyph-name="theme_30" unicode="&#xe829;" d="M832 476h-275v155a52 52 0 0 1-51 51h-12a52 52 0 0 1-51-51v-155h-275a12 12 0 0 1-11-11v-126a11 11 0 0 1 11-12h71l46-299a12 12 0 0 1 11-10h412a11 11 0 0 1 11 10l46 299h67a11 11 0 0 1 12 12v126a12 12 0 0 1-12 11z m-366 155a29 29 0 0 0 28 28h12a29 29 0 0 0 28-28v-207a29 29 0 0 0-28-28h-12a29 29 0 0 0-28 28z m232-590h-392l-44 286h480z m123 309h-641v103h263v-29a52 52 0 0 1 51-51h12a52 52 0 0 1 51 51v29h264z m-458-286a34 34 0 0 1 34 34v172a34 34 0 0 1-69 0v-172a34 34 0 0 1 35-34z m-12 206a12 12 0 1 0 23 0v-172a12 12 0 1 0-23 0z m103-206a34 34 0 0 1 35 34v172a34 34 0 0 1-69 0v-172a34 34 0 0 1 34-34z m-11 206a12 12 0 1 0 23 0v-172a12 12 0 0 0-23 0z m103-206a34 34 0 0 1 34 34v172a34 34 0 0 1-69 0v-172a34 34 0 0 1 35-34z m-12 206a12 12 0 1 0 23 0v-172a12 12 0 0 0-23 0z m103-206a34 34 0 0 1 35 34v172a34 34 0 0 1-69 0v-172a34 34 0 0 1 34-34z m-11 206a12 12 0 1 0 23 0v-172a12 12 0 1 0-23 0z" horiz-adv-x="1000" />

<glyph glyph-name="theme_31" unicode="&#xe82a;" d="M789 657l-10 2a747 747 0 0 1-361 0l-11-2a55 55 0 0 1-42-54v-78a749 749 0 0 1-158-65l-10-5a55 55 0 0 1-27-63l33-121a344 344 0 0 1 215-234l33-12a100 100 0 0 1 111 29l22 27a338 338 0 0 1 52 84 97 97 0 0 1 20 10l29 20a345 345 0 0 1 147 282v126a55 55 0 0 1-43 54z m-222-561l-22-27a78 78 0 0 0-87-23l-33 12a322 322 0 0 0-201 219l-32 121a33 33 0 0 0 16 37l10 6a724 724 0 0 0 147 61v-24a344 344 0 0 1 118-259 210 210 0 0 0-61-15l-83-7a11 11 0 0 1-4-21l111-50a56 56 0 0 1 68 18l24 34 3-2a100 100 0 0 1 57-18 97 97 0 0 1 10 0 319 319 0 0 0-41-62z m-64 107c3-3 6-5 9-7l8-5-24-34a33 33 0 0 0-41-11l-71 33 40 3a232 232 0 0 1 79 21z m306 275a322 322 0 0 0-137-264l-29-20a78 78 0 0 0-89 0l-29 20a322 322 0 0 0-137 264v125a33 33 0 0 0 25 32l11 3a724 724 0 0 0 349 0l11-3a33 33 0 0 0 25-32z m-252-4l15 16a89 89 0 0 1-125 0l-1 0 16-16a67 67 0 0 0 95 0z m67 16l0 0 16-15a67 67 0 0 0 95-1l15 16a89 89 0 0 1-126 0z m-297-177a67 67 0 0 0 51-7l10 20a89 89 0 0 1-121-33l0 0 9-6 10-5a66 66 0 0 0 41 31z m391 58l-82-15a208 208 0 0 0-75 0l-83 15a11 11 0 0 1-9-20l94-77a56 56 0 0 1 71 0l94 77a11 11 0 0 1-10 20z m-98-79a33 33 0 0 0-43 0l-60 49 40-7a233 233 0 0 1 83 0l40 7z" horiz-adv-x="1000" />

<glyph glyph-name="theme_34" unicode="&#xe82b;" d="M833 224a122 122 0 0 1-146 120l-7-1-1 1-89 247a11 11 0 0 1-11 7h-62a12 12 0 0 1 0-23h54l21-60-93-140h-62l-48 98h47a12 12 0 0 1 0 22h-96a12 12 0 1 1 0-22h23l41-83-23 12a200 200 0 0 1-165 9 11 11 0 0 1-6-6 12 12 0 0 1 0-8 12 12 0 0 1 6-7 12 12 0 0 1 9 0 178 178 0 0 0 144-8l9-4-32-48-7 4a121 121 0 1 1-51-231 122 122 0 0 1 119 103l2 7h91c4 0 6 1 9 5l1 1 123 184 25-68-6-4a122 122 0 1 1 181-107z m-450-22a98 98 0 1 0-60 113l10-3-6-9c-30-45-42-63-48-71l0 0-1-1a12 12 0 0 1 10-18h98z m-73 33l42 64 7-8a98 98 0 0 0 24-45l3-11z m99 0l-2 8a122 122 0 0 1-37 70l-5 5 43 65 73-148z m214 194l-122-182-52 106h56a12 12 0 0 1 10 5l87 131 22-59z m88-304a99 99 0 0 0-54 182l9 6 34-93a11 11 0 0 1 15-7 11 11 0 0 1 6 15l-33 93 10 1a99 99 0 1 0 13-197z" horiz-adv-x="1000" />

<glyph glyph-name="theme_35" unicode="&#xe82c;" d="M872 308a93 93 0 1 1-93-108 95 95 0 0 1 13 1l4 1c-2-115-90-207-197-207-91 0-170 67-192 161 4 0 9 0 14 0a25 25 0 0 1 26 25l0 24h8a25 25 0 0 1 25 25l0 24a132 132 0 0 1 83 58c39 58 40 151 6 278a25 25 0 0 1-20 18l-11 2 0 3a17 17 0 0 1-2 13 18 18 0 0 1-11 7l-38 8a32 32 0 0 1-38-25l0-2a32 32 0 0 1 25-37h0l38-8a15 15 0 0 1 3 0 18 18 0 0 1 10 3 17 17 0 0 1 7 11l2 8 11-2a6 6 0 0 0 5-4c18-66 26-123 23-170-2-38-11-69-27-93a110 110 0 0 0-66-47v3a25 25 0 0 1-7 18 25 25 0 0 1-18 7l-2 0a286 286 0 0 0-39-4 10 10 0 1 1 1-20 318 318 0 0 1 41 4 5 5 0 0 0 3-1 5 5 0 0 0 1-4l0-48a5 5 0 0 0-5-5h-9a20 20 0 0 1-19-19l0-25a5 5 0 0 0-6-5s-18-1-26-1h0c-7 0-21 2-22 2a5 5 0 0 0-5 5l0 24a19 19 0 0 1-19 20h-9a6 6 0 0 0-3 1 6 6 0 0 0-2 4l1 48a5 5 0 0 0 4 5c10-1 19-3 29-4a10 10 0 1 1 2 20 271 271 0 0 0-28 4 10 10 0 0 1-2 0h0a25 25 0 0 1-25-25v-4a111 111 0 0 0-66 48c-15 23-24 54-27 92-3 46 4 103 21 169a6 6 0 0 0 5 4l11 2 1-8a17 17 0 0 1 17-13 17 17 0 0 1 4 0l38 8a32 32 0 0 1 25 38l-1 2a32 32 0 0 1-38 24l-38-8a17 17 0 0 1-11-7 17 17 0 0 1-2-14l0-2-11-3a25 25 0 0 1-19-18c-33-126-30-219 8-277a131 131 0 0 1 82-57l0-24a25 25 0 0 1 8-18 25 25 0 0 1 17-7h8l0-24a25 25 0 0 1 24-25c5-1 10-1 15-1a237 237 0 0 1 73-126 206 206 0 0 1 293 14 239 239 0 0 1 64 164s0 0 0 0a94 94 0 0 1 56 100z m-359 281l-35 7h0a12 12 0 0 0-10 14l0 2a12 12 0 0 0 14 10l36-8z m-203 33a12 12 0 0 0 14-9l1-2a12 12 0 0 0-9-14l-36-8-5 25z m480-401a74 74 0 1 0-22 146 73 73 0 0 0 11 1 74 74 0 0 0 11-147z m-11 128a55 55 0 0 1-47-28 10 10 0 0 1 17-9 35 35 0 1 0 0-35 10 10 0 1 1-17-10 55 55 0 1 1 47 82z" horiz-adv-x="1000" />

<glyph glyph-name="theme_36" unicode="&#xe82d;" d="M833 492c0 49-17 73-32 84h0a56 56 0 0 1-49 10c-30-9-49-45-58-65l-1-1-1 0-3 1c-17 5-35 12-55 20l-1 0c-42 16-89 35-133 35-48 0-105-22-150-40-14-6-28-12-40-16l-2 0-1-1-1 2c-9 20-28 56-58 64a55 55 0 0 1-14 2 57 57 0 0 1-35-12c-15-10-32-34-32-83 0-69 80-200 96-226l0-1c14-41 28-72 35-80 42-42 140-72 202-72s159 30 201 72c8 8 22 40 36 81 1 2 96 150 96 226z m-121 18c5 11 22 48 46 55a35 35 0 0 0 30-6c16-12 25-36 25-67 0-35-25-90-45-130l-5-10 2 11a201 201 0 0 1 3 25c1 41-24 95-56 120l-1 1z m-395-9c12 4 27 10 41 16 43 17 97 38 142 38 40 0 83-17 125-33l9-4c18-6 34-13 50-17a45 45 0 0 0 9-4l2-1c15-10 29-29 40-52l1-2-3 0c-168-12-220-14-233-14-33 0-225 13-233 13l-3 0 1 2c13 30 33 52 52 58z m-83-143c-21 42-46 98-46 134 0 32 8 56 24 67a35 35 0 0 0 30 7c24-7 40-41 47-56l0-1-1-1c-32-25-55-72-55-114a236 236 0 0 1 5-34l2-12z m22 16l0 2a128 128 0 0 0-2 19 111 111 0 0 0 3 25l1 1h1c52-3 209-14 241-14s189 11 241 14h2l0-1a115 115 0 0 0 4-32 105 105 0 0 0-1-12l0-2-10 0c-170-11-222-14-236-14-35 0-240 14-242 14z m441-154a96 96 0 0 0-10-20c-34-35-125-67-187-67s-152 32-187 67a87 87 0 0 0-10 20l-1 2 3 0c45-4 164-13 193-13s151 9 197 13l3 0z m24 62c-4-13-9-25-13-37l-1-1-5 0c-143-11-190-14-204-14-34 0-202 14-203 14l-1 0-1 1c-4 12-9 25-13 37l-1 2 3 0c60-4 192-12 218-12s159 8 219 13l3 0z m8 24h-2c-163-11-213-13-227-13-32 0-194 11-227 13l-1 0 0 1c-5 16-8 31-11 44l-1 2 2 0c2 0 200-13 238-13 32 0 184 10 239 14l3 0-1-3c-3-13-7-27-12-44z" horiz-adv-x="1000" />

<glyph glyph-name="theme_47" unicode="&#xe82e;" d="M790 527h-175a44 44 0 0 1-44-43l0-15a56 56 0 0 1-1-112l0-73h-63a58 58 0 0 1-1 11 56 56 0 0 1-110-10v-1h-33a44 44 0 0 1-44-44v-178a44 44 0 0 1 44-44h210l216-1h0a43 43 0 0 1 30 12 44 44 0 0 1 13 31l1 202v221a44 44 0 0 1-43 44z m-205-76l2-2-1 2h0l2-2 1 1 3 4s0 1 0 1l1 29a22 22 0 0 0 21 22h176a22 22 0 0 0 22-23v-200h-55a14 14 0 0 1-11-5 14 14 0 0 1-3-11 35 35 0 0 0-11-32 33 33 0 0 0-26-9 34 34 0 0 0-30 29 35 35 0 0 0 0 12 14 14 0 0 1-14 16l-71 1 1 84v1l-3 0 3 1-1 2-2-1h0l2 2-1 1-3 3-5 1 0-2h0l-1 2-9 0a34 34 0 0 0-34 35 35 35 0 0 0 35 34l10 0 3 1-1 2z m-9-333a18 18 0 0 1-3 0 37 37 0 0 0-6-1 34 34 0 0 0 0 69h0a31 31 0 0 0 7-1 14 14 0 0 1 16 11 12 12 0 0 1 0 3l1 63 62 0a59 59 0 0 1 1-11 56 56 0 0 1 49-46c2 0 4 0 6 0a55 55 0 0 1 38 14 56 56 0 0 1 18 42v1h47l-2-202h0a22 22 0 0 0-6-15 22 22 0 0 0-15-7h0l-199 2 0 63a14 14 0 0 1-14 15z m-158 161a34 34 0 0 0 11 32 33 33 0 0 0 26 8 34 34 0 0 0 30-28 35 35 0 0 0 0-12 14 14 0 0 1 3-12 14 14 0 0 1 11-5h71l-1-55a56 56 0 0 1-57-50 57 57 0 0 1 14-43 56 56 0 0 1 41-19h1l0-55h-205a22 22 0 0 0-22 22v179a22 22 0 0 0 22 21h41a14 14 0 0 1 14 17z m171 90z m0 1z m-1 3z m-6 3z m7 79z m-2-2z m0-1z m-1-1h0z m-219-108h0a44 44 0 0 1 37 21l19 31a14 14 0 0 1-5 20l-1 1a34 34 0 0 0-16 45 35 35 0 0 0 45 17 32 32 0 0 0 7-4 14 14 0 0 1 20 2l1 1 23 39a44 44 0 0 1-14 60l-35 21a56 56 0 0 1-13 75 55 55 0 0 1-44 10 56 56 0 0 1-38-25l0-1-28 17a43 43 0 0 1-60-14l-92-153a44 44 0 0 1 15-60l27-16a13 13 0 0 1 18 4 7 7 0 0 1 1 1 30 30 0 1 0 54-26 31 31 0 0 0-3-5 13 13 0 0 1 2-19l1 0 56-35a43 43 0 0 1 23-7z m55 312a34 34 0 0 0 6-49 21 21 0 0 0-1-2 14 14 0 0 1-4-11 14 14 0 0 1 7-10l42-26a22 22 0 0 0 7-30l-19-31-4 2a56 56 0 0 1-69-17 57 57 0 0 1 11-79 30 30 0 0 1 3-2l-16-25a22 22 0 0 0-29-7l-50 31a52 52 0 0 1 6 27 52 52 0 0 1-55 48 52 52 0 0 1-39-21l-19 11a22 22 0 0 0-7 31l92 152a22 22 0 0 0 29 7l36-21a14 14 0 0 1 12-2 14 14 0 0 1 8 9 34 34 0 0 0 26 21 33 33 0 0 0 27-6z" horiz-adv-x="1000" />

<glyph glyph-name="theme_48" unicode="&#xe82f;" d="M500 361a67 67 0 1 1-67 67 67 67 0 0 1 67-67z m0 111a45 45 0 1 0-44-44 45 45 0 0 0 44 44z m0-55h11a11 11 0 0 1 0 22v11a11 11 0 0 1-22 0v-22a11 11 0 0 1 11-11z m89-134v45a11 11 0 0 1-11 11h-156a11 11 0 0 1-11-11v-45a11 11 0 0 1 11-11h156a11 11 0 0 1 11 11z m-22 12h-134v22h134z m-322 44h88a11 11 0 0 1 0 22v78a11 11 0 0 1-11 11h-66a11 11 0 0 1-11-11v-78a11 11 0 0 1 0-22z m22 89h44v-67h-44z m66-200v78a11 11 0 0 1-11 11h-66a11 11 0 0 1-11-11v-78a11 11 0 0 1 0-22h88a11 11 0 0 1 0 22z m-66 67h44v-67h-44z m66-200v77a11 11 0 0 1-11 11h-66a11 11 0 0 1-11-11v-77a11 11 0 0 1 0-23h88a11 11 0 0 1 0 23z m-66 66h44v-66h-44z m400 178h89a11 11 0 0 1 0 22v78a11 11 0 0 1-11 11h-67a11 11 0 0 1-11-11v-78a11 11 0 0 1 0-22z m22 89h44v-67h-44z m-22-222h89a11 11 0 0 1 0 22v78a11 11 0 0 1-11 11h-67a11 11 0 0 1-11-11v-78a11 11 0 0 1 0-22z m22 89h44v-67h-44z m-22-223h89a11 11 0 0 1 0 23v77a11 11 0 0 1-11 11h-67a11 11 0 0 1-11-11v-77a11 11 0 0 1 0-23z m22 89h44v-66h-44z m133 322a11 11 0 1 1 0 23h-196l-115 83v26l54-9a11 11 0 0 1 13 9 8 8 0 0 1 0 2v44a11 11 0 0 1-10 11l-66 11h0a11 11 0 0 1-13-9 10 10 0 0 1 0-2v-83l-115-83h-196a11 11 0 1 1 0-23h11v-444h-11a11 11 0 1 1 0-22h644a11 11 0 1 1 0 22h-11v444z m-333-444h-44v122a56 56 0 0 0 44 55z m22 177a56 56 0 0 0 45-55v-122h-45z m-11 23a78 78 0 0 1-78-78v-122h-33v450l111 81 111-81v-450h-33v122a78 78 0 0 1-78 78z m56 391l-45 7v22l45-7z m-345-147h156v-444h-156z m578-444h-156v444h156z" horiz-adv-x="1000" />

<glyph glyph-name="theme_49" unicode="&#xe830;" d="M500 668a318 318 0 1 1 318-318 319 319 0 0 1-318 318z m0-613a295 295 0 1 0 295 295 295 295 0 0 0-295-295z m113 164a12 12 0 0 1-6 6 12 12 0 0 1-9 0 138 138 0 0 0-178 55l-13 23h133a12 12 0 0 1 0 23h-137l-1 14a125 125 0 0 0 0 20l1 14h149a12 12 0 0 1 0 23h-145l13 23a138 138 0 0 0 178 56 12 12 0 0 1 9-1 11 11 0 0 1 7 6 12 12 0 0 1 0 9 11 11 0 0 1-6 7 162 162 0 0 1-220-90l-3-10h-46a12 12 0 1 1 0-23h40l-1-16c0-5 0-11 0-16l1-16h-52a12 12 0 1 1 0-23h58l3-10a162 162 0 0 1 220-90 12 12 0 0 1 5 16z" horiz-adv-x="1000" />

<glyph glyph-name="theme_50" unicode="&#xe831;" d="M801 640v22a22 22 0 0 1-22 21h-451a22 22 0 0 1-21-21v-237h-75a11 11 0 0 1-11-10v-33h-32a11 11 0 0 1-11-10v-258a97 97 0 0 1 96-97h495a54 54 0 0 1 53 54v548a22 22 0 0 1-21 21z m-430-526l0 504h325l105 0v-547a32 32 0 0 0-32-32h-433a96 96 0 0 1 35 75z m-97-54a54 54 0 0 1 54 54l0 547 451 0v-21h-408a22 22 0 0 1-21-22v-505a75 75 0 0 0-151 0v247h22v-247a54 54 0 0 1 53-53z m33 54a32 32 0 0 0-64 0v289h64z m107 268h344a21 21 0 0 1 22 21v23a21 21 0 0 1-22 21h-344a21 21 0 0 1-22-21v-23a21 21 0 0 1 22-21z m0 22v21h344v-21z m0-194h151a21 21 0 0 1 21 21v109a21 21 0 0 1-21 21h-151a21 21 0 0 1-22-21v-108a21 21 0 0 1 22-22z m0 22v107h150v-107z m355 129h-151a11 11 0 1 1 0-22h151a11 11 0 1 1 0 22z m0-65a11 11 0 1 1 0 22h-65a11 11 0 1 1 0-22z m0-21h-151a11 11 0 1 1 0-22h151a11 11 0 1 1 0 22z m0-43h-151a11 11 0 1 1 0-22h151a11 11 0 1 1 0 22z m-366-65h366a11 11 0 1 1 0 22h-366a11 11 0 1 1 0-22z m0-43h366a11 11 0 1 1 0 22h-366a11 11 0 1 1 0-22z m377-32a11 11 0 0 1-11 11h-366a11 11 0 1 1 0-22h366a11 11 0 0 1 11 11z m-366 374h344a21 21 0 0 1 22 22v87a21 21 0 0 1-22 21h-344a21 21 0 0 1-22-21v-87a21 21 0 0 1 22-22z m0 22v86h344v-86z" horiz-adv-x="1000" />

<glyph glyph-name="theme_51" unicode="&#xe832;" d="M882 43h-14v212a43 43 0 0 1-43 43h-13a43 43 0 0 1-43-37l0-2h-28v27a11 11 0 0 1-12 11h-267a11 11 0 0 1-11-11v-27h-29v34a43 43 0 0 1-43 43h-89a43 43 0 0 1-43-43v-34h-16v123a43 43 0 0 1-43 43h-13a43 43 0 0 1-43-43v-339h-14a11 11 0 1 1 0-23h764a11 11 0 1 1 0 23z m-673 0h-54v339a21 21 0 0 0 20 21h13a21 21 0 0 0 21-21z m264 232h245v-173a21 21 0 0 0-20-21h-204a21 21 0 0 0-21 21z m-204 18a21 21 0 0 0 21 20h89a21 21 0 0 0 21-20v-34h-131z m-38-56h220v-131h-220z m538-194h-538v41h223l1-1a43 43 0 0 1 39-24h204a43 43 0 0 1 38 24l1 1h32z m0 63h-28v131h28z m76-63h-53v212a21 21 0 0 0 20 20h13a21 21 0 0 0 20-20z m-376 430a11 11 0 0 1-7 3h-51a11 11 0 1 1 0-23h27l-36-45a11 11 0 0 1 9-18h51a11 11 0 1 1 0 23h-28l37 45a11 11 0 0 1-2 15z m45 119a11 11 0 0 1 12-11h27l-36-46a11 11 0 0 1 9-18h50a11 11 0 1 1 0 23h-27l36 45a11 11 0 0 1-9 18h-50a11 11 0 0 1-12-11z m-141 65h27l-36-45a11 11 0 0 1 8-18h51a11 11 0 0 1 0 22h-27l36 45a11 11 0 0 1-8 19h-51a11 11 0 0 1 0-23z" horiz-adv-x="1000" />

<glyph glyph-name="theme_52" unicode="&#xe833;" d="M855 130h0a11 11 0 0 1-15-7l-23-69-306 558 33 28a11 11 0 0 1-15 17l-20-18v33a11 11 0 0 1-22 0v-35l-23 20a11 11 0 0 1-15-1 10 10 0 0 1-3-8 12 12 0 0 1 4-7l35-31-308-555-19 65a12 12 0 0 1-13 7 12 12 0 0 1-8-13l27-89a3 3 0 0 1 1-3 3 3 0 0 1 2-2l0 0a8 8 0 0 1 3-2v-1h654a3 3 0 0 1 2 1 3 3 0 0 1 2 2l1 0 1 0v1h1v2l32 93v1a15 15 0 0 1-8 13z m-92-92h-255v308c30-104 99-236 255-308z m33 10c-145 57-215 168-249 251a533 533 0 0 0-39 175v96z m-310 522v-97a529 529 0 0 0-39-174c-33-83-104-194-249-251z m0-226v-306h-254c163 75 229 218 254 307z" horiz-adv-x="1000" />

<glyph glyph-name="theme_54" unicode="&#xe834;" d="M577 291l-90 90v88a11 11 0 1 1-22 0v-66l-100 100a11 11 0 0 1-16 0l-212-212a11 11 0 1 1 16-16l204 205 111-112h0l94-93a11 11 0 0 1 7-3 11 11 0 0 1 8 3 11 11 0 0 1 0 16z m-254-30h-49a11 11 0 0 0-11 11v48a11 11 0 0 0 11 11h49a11 11 0 0 0 11-11v-48a11 11 0 0 0-11-11z m-38 22h27v26h-27z m135-22h-49a11 11 0 0 0-11 11v48a11 11 0 0 0 11 11h49a11 11 0 0 0 11-11v-48a11 11 0 0 0-11-11z m-38 22h27v26h-27z m-59-119h-49a11 11 0 0 0-11 11v48a11 11 0 0 0 11 11h49a11 11 0 0 0 11-11v-48a11 11 0 0 0-11-11z m-38 22h27v27h-27z m135-22h-49a11 11 0 0 0-11 11v48a11 11 0 0 0 11 11h49a11 11 0 0 0 11-11v-48a11 11 0 0 0-11-11z m-38 22h27v27h-27z m377 353l-57 57v56a11 11 0 0 1-22 0v-34l-59 59a11 11 0 0 1-15 0l-138-138a11 11 0 0 1 16-16l129 130 70-69h0l60-61a11 11 0 0 1 8-3 11 11 0 0 1 8 19z m-168-22h-31a7 7 0 0 0-7 7v32a7 7 0 0 0 7 7h31a7 7 0 0 0 7-7v-32a7 7 0 0 0-7-7z m-24 14h17v18h-17z m87-14h-31a7 7 0 0 0-7 7v32a7 7 0 0 0 7 7h31a7 7 0 0 0 7-7v-32a7 7 0 0 0-7-7z m-24 14h17v18h-17z m-39-77h-31a7 7 0 0 0-7 7v32a7 7 0 0 0 7 7h31a7 7 0 0 0 7-7v-32a7 7 0 0 0-7-7z m-24 14h17v18h-17z m87-14h-31a7 7 0 0 0-7 7v32a7 7 0 0 0 7 7h31a7 7 0 0 0 7-7v-32a7 7 0 0 0-7-7z m-24 14h17v18h-17z m-242-428a10 10 0 0 1 0-20h468a10 10 0 0 1 0 20h-111v62l1-1a86 86 0 0 1 76 154l-1 0 1 1a77 77 0 0 1 13 42 74 74 0 0 1-57 74l-1 0 1 0a66 66 0 0 1 4 24 63 63 0 1 1-125 0 65 65 0 0 1 4-23l1-1-1 0a74 74 0 0 1-57-74 77 77 0 0 1 13-42l0-1 0 0a86 86 0 0 1 75-154l1 1v-62z m337 0h-12v76l0 0c2 2 4 4 5 6l1 0 1 0c1-2 3-4 5-6l0 0z m-69 73a65 65 0 0 0-64 66 66 66 0 0 0 45 63 10 10 0 0 1 6 7 10 10 0 0 1-3 9 56 56 0 0 0-16 40 55 55 0 0 0 53 56 10 10 0 0 1 9 5 10 10 0 0 1-1 10 46 46 0 0 0-9 27 43 43 0 1 0 86 0 45 45 0 0 0-9-27 10 10 0 0 1-1-10 10 10 0 0 1 10-5 54 54 0 0 0 53-56 57 57 0 0 0-17-40 10 10 0 0 1 4-16 66 66 0 0 0 44-63 65 65 0 0 0-63-66 64 64 0 0 0-38 13c-2 1-3 2-5 4a56 56 0 0 0-4 4 55 55 0 0 0-5 6l0 1 0 0 52 52a10 10 0 0 1-14 14l-40-40v77l0 0 38 37a10 10 0 0 1-14 14l-24-23v33a10 10 0 0 1-20 0v-33l-23 23a10 10 0 0 1-14-14l37-37v-77l-39 40a10 10 0 0 1-7 3h0a10 10 0 0 1-7-3 10 10 0 0 1-3-7 10 10 0 0 1 3-7l52-53 0 0a62 62 0 0 0-5-7c-1-1-3-2-4-4l0 0a53 53 0 0 0-5-3 63 63 0 0 0-38-13z" horiz-adv-x="1000" />

<glyph glyph-name="theme_56" unicode="&#xe835;" d="M332 497a39 39 0 0 1 37 32 28 28 0 0 1-28 33 39 39 0 0 1-37-33 28 28 0 0 1 28-32z m-3-16l71 39a39 39 0 0 0 19 6 26 26 0 0 0 26-31 36 36 0 0 0-17-25l-53-30s-7-51-11-77a13 13 0 0 0-18-9c-11 7-32 20-32 20s-25-13-37-20c-7-4-17 1-16 9 4 26 11 77 11 77l-45 30a26 26 0 0 0-10 25 36 36 0 0 0 35 30 27 27 0 0 0 16-4z m202 122a39 39 0 0 1 37 33 28 28 0 0 1-28 32 39 39 0 0 1-37-32 28 28 0 0 1 28-33z m-3-16l71 40a39 39 0 0 0 19 5 26 26 0 0 0 26-30 36 36 0 0 0-16-25l-54-30s-7-51-11-78a13 13 0 0 0-18-8c-11 6-32 20-32 20s-24-14-37-20c-7-4-17 1-16 8l11 78-45 30a26 26 0 0 0-9 25 36 36 0 0 0 34 30 27 27 0 0 0 16-4z m172-90a39 39 0 0 1 37 32 28 28 0 0 1-28 33 39 39 0 0 1-37-33 28 28 0 0 1 28-32z m-3-16l71 39a39 39 0 0 0 19 6 26 26 0 0 0 26-31 37 37 0 0 0-17-25l-53-30s-7-51-11-77a13 13 0 0 0-18-9c-11 7-32 20-32 20s-25-13-37-20c-7-4-17 1-16 9 4 26 11 77 11 77l-45 30a27 27 0 0 0-10 25 36 36 0 0 0 35 31 27 27 0 0 0 16-5z m-28-199a39 39 0 0 1 37 33 28 28 0 0 1-28 32 39 39 0 0 1-37-32 28 28 0 0 1 28-33z m-3-16l71 39a39 39 0 0 0 19 6 26 26 0 0 0 26-31 36 36 0 0 0-17-25l-53-30s-7-51-11-77a13 13 0 0 0-18-9c-11 7-32 20-32 20s-25-13-37-20c-7-3-17 1-16 9l11 77-45 30a27 27 0 0 0-10 25 36 36 0 0 0 35 31 27 27 0 0 0 16-5z m-165 124a39 39 0 0 1 37 32 28 28 0 0 1-28 33 39 39 0 0 1-37-33 28 28 0 0 1 28-32z m-3-17l71 40a39 39 0 0 0 19 5 26 26 0 0 0 26-30 36 36 0 0 0-16-25l-54-30s-7-51-11-77a13 13 0 0 0-18-9c-10 6-31 20-31 20s-25-13-38-20c-7-4-16 1-15 9 3 26 10 77 10 77l-45 30a26 26 0 0 0-9 25 36 36 0 0 0 34 30 27 27 0 0 0 16-4z m-27-197a39 39 0 0 1 37 32 28 28 0 0 1-28 33 39 39 0 0 1-37-33 28 28 0 0 1 28-32z m-3-16l71 39a39 39 0 0 0 19 5 26 26 0 0 0 26-30 36 36 0 0 0-16-25l-54-30s-7-51-11-77a13 13 0 0 0-18-9c-10 6-31 20-31 20s-25-13-38-20c-7-4-16 1-15 9 3 26 10 77 10 77l-45 30a26 26 0 0 0-9 25 36 36 0 0 0 35 30 27 27 0 0 0 15-4z m-166 123a39 39 0 0 1 37 33 28 28 0 0 1-28 32 39 39 0 0 1-38-32 28 28 0 0 1 29-33z m-3-16l71 40a39 39 0 0 0 19 5 26 26 0 0 0 26-31 36 36 0 0 0-17-24l-53-30s-7-51-11-78a13 13 0 0 0-18-8c-11 6-32 20-32 20s-25-14-37-20c-7-4-17 1-16 8l11 78-45 30a26 26 0 0 0-10 25 36 36 0 0 0 35 30 28 28 0 0 0 16-4z" horiz-adv-x="1000" />

<glyph glyph-name="theme_57" unicode="&#xe836;" d="M701 147h-16l-41 231a86 86 0 0 1-85 71h-118a87 87 0 0 1-84-71l-42-231h-16a36 36 0 0 1-36-36v-50a11 11 0 0 1 11-11h452a11 11 0 0 1 11 11v50a36 36 0 0 1-36 36z m-323 227a65 65 0 0 0 63 53h118a64 64 0 0 0 63-53l41-227h-325z m337-302h-430v39a14 14 0 0 0 14 14h402a14 14 0 0 0 14-14z m-111 225a11 11 0 0 1-6 2 10 10 0 0 1-2 0 11 11 0 0 1-9-13l18-101a11 11 0 0 1 5-7 11 11 0 0 1 17 11l-18 101a11 11 0 0 1-5 7z m205 51h-108a11 11 0 0 1 0-21h108a11 11 0 1 1 0 21z m-510 0h-108a11 11 0 1 1 0-21h108a11 11 0 0 1 0 21z m425 203a11 11 0 0 1-18 8l-72-72a11 11 0 0 1 0-15 11 11 0 0 1 16 0l71 71a11 11 0 0 1 3 8z m-355-71a11 11 0 0 1-3 7l-71 72a11 11 0 0 1-19-8 11 11 0 0 1 3-8l71-71a11 11 0 0 1 16 0 11 11 0 0 1 3 8z m131 170a11 11 0 0 1-11-11v-100a11 11 0 1 1 22 0v100a11 11 0 0 1-11 11z" horiz-adv-x="1000" />

<glyph glyph-name="theme_58" unicode="&#xe837;" d="M252 440a49 49 0 0 0-8-48c17-22 60-13 83-7 6 2 11 13 17 8 1-1 12 10 10 0a16 16 0 0 0-9-15c-5-2-18-6-18-6a384 384 0 0 1-63-23c-11-6-8-28-6-36s9-36 2-50c-5-11-24-22-25-36 0-7 11-14 5-19-4-3-7-4-9-2 0 0-19 19-17 26 0 2 21 32 12 45-5-4-5-17-15-21-5-3-12 3-16 1-1-1-1-8-3-9a8 8 0 0 0-10 1 50 50 0 0 0 0 28c2 9 22-1 15 13a44 44 0 0 0-5 22c0 8 7 17 0 21s-25 12-25 21c-2 23 39 23 48 42 0 10-12 18-10 33a21 21 0 0 0 17 18 35 35 0 0 0 30-7m575 44c-25 17-47 45-75 40-15 2-3 17-7 24-7 12-8 16-34 14a18 18 0 0 1-16-10c-2-7 0-5-2-12s-10-10-2-15a42 42 0 0 0 0-12c-1-5 5-5 8-6-30-22-84-18-111-1-5 3-22 2-22 1 0-5 11-6 15-11-1 0-5 0-3-2s21-7 21-7c16-10 40-15 59-19 38-6 49-4 54-28s-1-48-6-82c-5-30 1-49 6-79 1-5 4-15 1-17-5-5-19-9-25-14-3-9 22-3 38-4 8-1 9 8 9 13 2 46 3 61 11 90 4-25 5-67 10-93-7-7-23-14-19-18a20 20 0 0 1 18-3 47 47 0 0 1 24 13s15 101 12 152c-1 28 26 44 40 69a11 11 0 0 1-4 17m-36-50c1 11-5 35-2 45l19-9a237 237 0 0 1-17-36z m-301 140c11-2 36-9 39-10s11-7 13-8 2 0 3 2 5-2 9 0c3 0 6 8 5 9-2 4-17 8-24 8-9 2-28 10-43 15-33 10-67 27-99 7-13 6-13 23-36 21a26 26 0 0 1-22-17 32 32 0 0 1 2-26 22 22 0 0 1 13-9c2-1 5-2 8-3 4-1 4-4 9-3a35 35 0 0 0 9 0c3 0 11-1 12 3h0c0-7-1-19-5-20-6-2-8 2-21 5s-42 8-43-15c0-36 4-48-21-79-5-6-12-6-8-12 4-3 9 0 12 2 6-17 28 8 33 11 10 8-1 15 3 22 8 16 21 22 23 34a66 66 0 0 1 44-17 35 35 0 0 1 20 11c8 8 10 32 10 48 2 33 25 26 55 21m220-477a62 62 0 0 0-36 24 203 203 0 0 0-13 26c-14 32-23 66-32 77a363 363 0 0 1-70 63 120 120 0 0 1-17 9 243 243 0 0 1 4 52c0 5 0 6 2 8a17 17 0 0 1 7 18 102 102 0 0 1-6 13c8-3 42-11 52-10 17 1 57 29 63 33a33 33 0 0 0 9 4 18 18 0 0 1 10 8c0 2-2 13-6 14-1 0-6-3-8-2s-2 2-2 2c-3 0-5-4-6-5a79 79 0 0 0-4-9c-2-3-41-14-54-20a9 9 0 0 0-7-1c-10 3-51 26-68 23-5-1-13-4-16 0a7 7 0 0 0-2 8c2 4 11 4 12 9a31 31 0 0 1-1 14c0 2 2 3 2 4s-2 4-5 7-3 12-5 16a12 12 0 0 1-7 14c-9 5-24 7-33-1-5-4-11-3-16-5-10-5-4-15-20-30-6-6-3-18-1-21-7-13 5-28 16-25a11 11 0 0 1 10-5 7 7 0 0 1 0-1c-3-1-8-3-10-5a60 60 0 0 1-15-13c-18-18-45-45-109-77-7-4-28-2-28-7a19 19 0 0 1 6-4c0-3-8-4-12-5-4-2 3-5 6-8 14-2 21 1 33 11a641 641 0 0 1 125 63c8 6 13 0 20-25 2-10-10-18-15-31a46 46 0 0 1-1-36 106 106 0 0 0-19-23s-33-28-50-45c-14-14-32-11-45-17a197 197 0 0 1-38-27 105 105 0 0 0-28-18 36 36 0 0 0-12-3 11 11 0 0 1-9-11 93 93 0 0 1 9-24c3-4 8-16 15-17 5-1 15-3 17 1 3 6-10 8-11 15a46 46 0 0 0 1 17c3 8 14 14 21 17 21 12 83 26 101 32a444 444 0 0 1 66 33 154 154 0 0 1 38 36c22-11 56-26 79-34 13-5 6-13 13-32 5-14 15-24 46-61 5-6 0-11 1-17s4-8 11-8 13 0 19 0h26c3 0 9 1 9 6s-8 5-12 6" horiz-adv-x="1000" />

<glyph glyph-name="theme_59" unicode="&#xe838;" d="M777 166l-16 36v398c0 49-234 51-261 51s-261-2-261-51v-398l-16-36a71 71 0 0 1 48-98c52-12 129-19 229-19s177 7 229 19a71 71 0 0 1 48 98z m-20-51h0a49 49 0 0 0-33-26c-51-12-126-18-224-18s-173 6-224 18a49 49 0 0 0-33 68l10 24c51-31 227-32 247-32s196 1 247 32l10-24a49 49 0 0 0 0-42z m-386 508l5 1 3 0 6 0 9 1 4 0 7 1 8 0 8 1 6 0 11 1 6 0 6 0c5 0 9 0 13 0h3l4 0h4c16 0 34 0 52 0h8l3 0 13 0 7 0 4 0 12-1 6 0 7 0 8-1 8 0 3 0 10-1 5 0 5-1 9-1 6 0 2 0 10-1 2-1 5 0 2 0 7-1 5-1 5-1 4-1 5 0 3-1 5-1 5-1 2 0 5-2 4-1 2 0 4-1 3-1 1 0 4-1 3-2 1 0 2-1 3-1 2-1 1-1 0 0c-13-14-97-31-237-31-134 0-223 17-238 29l0 0 2 1 2 1 2 2c1 0 2 0 3 1l1 0 3 1 4 1 1 1 3 1 5 1 2 1 3 1 4 0 2 1 5 1 7 1 2 1 5 0 5 1 4 1 5 1 7 1 3 0 6 1c3 0 6 1 10 1l2 0 6 1z m368-62c-10-12-100-30-239-30s-229 18-239 30v16c59-27 221-28 239-28s181 1 239 28z m0-300c-10-12-100-30-239-30s-229 18-239 30v276c59-27 221-28 239-28s181 1 239 28z m0-60c-10-12-100-30-239-30s-229 18-239 30v36c59-27 221-28 239-28s181 1 239 28z m-247 286c-5-6-43-53-43-87a38 38 0 0 1 13-33 61 61 0 1 1 76 0 39 39 0 0 1 13 33c0 33-38 82-43 87a11 11 0 0 1-16 0z m32-104a56 56 0 0 0-23-2h-2a57 57 0 0 0-22 2c-2 1-6 3-6 17 0 19 20 49 29 62 9-13 29-43 29-62 0-14-4-16-5-17z m15-63a39 39 0 1 0-39 39 39 39 0 0 0 39-39z" horiz-adv-x="1000" />

<glyph glyph-name="theme_60" unicode="&#xe839;" d="M642 149a234 234 0 0 1 71 11c37 15 80 51 88 86 4 23-8 28-17 30h-4a41 41 0 0 1-20-7c-4-4-21-19-28-26a197 197 0 0 0-25-19 192 192 0 0 0-31-15 94 94 0 0 0-34-4 86 86 0 0 0-52 15 127 127 0 0 0-38 43 128 128 0 0 0-13 58c0 6 4 11 13 11h189a133 133 0 0 1 58 10c13 5 17 20 19 46a145 145 0 0 1-21 77 193 193 0 0 1-65 60 196 196 0 0 1-96 26 188 188 0 0 1-80-15 167 167 0 0 1-60-41 188 188 0 0 1-37-65 250 250 0 0 1-12-81c0-63 17-112 51-147s82-53 144-53z m-103 239c4 32 13 58 30 75a82 82 0 0 0 64 28c28 0 52-9 67-28 15-17 26-45 28-77a12 12 0 0 0-11-11h-170c-4 2-10 6-8 13z m-58-340c165 0 299 135 299 303a300 300 0 0 1-299 301c-166 0-299-135-299-303a300 300 0 0 1 299-301z m155 501a188 188 0 0 1-80-15 168 168 0 0 1-60-41 159 159 0 0 1-37-64 251 251 0 0 1-12-82c0-63 17-112 51-146s82-54 144-54a319 319 0 0 1 69 8 337 337 0 0 1 58 114c-4-2-6-4-11-4-4-4-21-19-28-26a210 210 0 0 0-25-19 196 196 0 0 0-30-15 95 95 0 0 0-35-4 86 86 0 0 0-51 15 108 108 0 0 0-39 43 128 128 0 0 0-13 58c0 6 4 10 13 10h189a212 212 0 0 1 41 5v15a322 322 0 0 1-60 185c-27 13-52 17-84 17z m81-172h-170c-6 0-13 4-10 11 4 32 13 58 30 75a82 82 0 0 0 64 28c28 0 52-9 67-28 15-17 26-45 28-78 4-4-2-8-9-8z" horiz-adv-x="1000" />

<glyph glyph-name="theme_61" unicode="&#xe83a;" d="M673 311v288c-3 42-76 84-209 84s-206-42-209-84v-291c0-52 91-80 177-86a158 158 0 0 1-7-45 160 160 0 1 1 248 133z m-22 12a157 157 0 0 1-45 13 175 175 0 0 1 37 18l8 5z m-188 336c88 0 186-27 186-63s-98-63-186-63-186 27-186 63 98 63 186 63z m-186-103l8-6c38-26 101-40 178-40s140 14 178 40l8 6v-53c0-35-98-62-186-62s-186 26-186 62z m0-94l8-5c38-26 101-40 178-40s140 14 178 40l8 5v-60c0-36-98-63-186-63s-186 27-186 63z m160-216c-76 4-158 29-158 62v51l8-5c38-26 101-40 178-40q21 0 41 2a161 161 0 0 1-65-71 12 12 0 0 1-4 1z m219-188a135 135 0 0 0-38-16v59a7 7 0 0 1-7 7h-49a7 7 0 0 1-6-7v-60a137 137 0 0 0-38 15v179h138z m-80-19v49h22v-49c-4-1-8-1-13-1-3 0-6 0-9 1z m100 33v170a13 13 0 0 1-13 13h-152a13 13 0 0 1-13-13v-173a139 139 0 1 0 178 3z" horiz-adv-x="1000" />

<glyph glyph-name="theme_62" unicode="&#xe83b;" d="M681 306v289c-4 41-76 83-209 83s-206-42-209-83v-292c0-51 91-80 177-85a160 160 0 1 1 241 89z m-23 13a159 159 0 0 1-44 12 169 169 0 0 1 36 19l8 5z m-187 335c88 0 186-26 186-62s-98-63-186-63-186 27-186 63 98 62 186 62z m-186-103l8-5c38-26 101-40 178-40s140 14 178 40l8 5v-52c0-36-98-62-186-62s-186 26-186 62z m0-93l8-6c38-25 101-40 178-40s140 15 178 40l8 6v-61c0-36-98-62-186-62s-186 26-186 62z m160-217c-76 4-158 30-158 62v52l8-5c37-26 100-40 178-40q20 0 40 1a160 160 0 0 1-65-70 16 16 0 0 1-3 0z m71-184a81 81 0 0 0 43 70 71 71 0 0 1 68 0 81 81 0 0 0 43-70 139 139 0 0 0-154 0z m25 133a52 52 0 1 0 52-53 52 52 0 0 0-52 53z m146-119a99 99 0 0 1-43 69 71 71 0 1 1-101 0 99 99 0 0 1-44-69 139 139 0 1 0 188 0z" horiz-adv-x="1000" />

<glyph glyph-name="theme_63" unicode="&#xe83c;" d="M764 207a60 60 0 0 1 18 40c4 45-20 85-68 115a274 274 0 0 1-65 29 146 146 0 0 1 33 91 179 179 0 0 1-11 60 63 63 0 1 1-67 97 160 160 0 0 1-104 42 160 160 0 0 1-104-42 63 63 0 1 1-67-97 179 179 0 0 1-11-60 146 146 0 0 1 33-91 269 269 0 0 1-65-29c-48-29-71-69-67-115a61 61 0 0 1 17-40 65 65 0 0 1-18-64l22-76a67 67 0 0 1 66-47 76 76 0 0 1 20 3h0l114 32a243 243 0 0 1 120 0l113-32h0a76 76 0 0 1 21-3 67 67 0 0 1 66 47l22 76a65 65 0 0 1-18 64z m-3 42a39 39 0 0 0-14-29 78 78 0 0 1-16 6 75 75 0 0 1-19 3c0 1 0 3 0 4 0 42-16 88-43 129 38-16 97-51 92-113z m-105 396a42 42 0 0 0 6-83 237 237 0 0 1-33 52c-3 4-6 7-9 10a42 42 0 0 0 36 21z m-353-42a42 42 0 0 0 77 21c-3-3-7-6-9-10a237 237 0 0 1-34-52 42 42 0 0 0-34 41z m84-3c32 38 73 59 113 59s81-21 113-59c30-35 48-79 48-118 0-73-67-133-150-137v125c21 3 36 13 36 27 0 16-20 27-47 27s-46-11-46-27c0-14 14-25 36-27v-125c-84 5-150 65-150 137 0 39 17 83 47 118z m113-109a43 43 0 0 0-25 6 43 43 0 0 0 25 6 43 43 0 0 0 25-6 43 43 0 0 0-25-6z m-203-147a227 227 0 0 0 33 17c-26-40-42-87-42-128 0-2 0-3 0-4a75 75 0 0 1-19-3 78 78 0 0 1-15-6 38 38 0 0 0-14 29c-3 37 16 69 57 95z m23-301h0c-26-7-53 6-60 29l-21 77c-7 24 10 49 36 56a53 53 0 0 0 38-3 42 42 0 0 0 22-26l21-77a42 42 0 0 0-5-33 53 53 0 0 0-31-23z m59 37a219 219 0 0 1 25-13l-33-9a64 64 0 0 1 8 22z m64-4h0a199 199 0 0 0-67 32l-21 74a63 63 0 0 1-33 39 73 73 0 0 1-13 5c0 2 0 4 0 7 0 46 22 99 58 141a200 200 0 0 1 266 0c36-42 58-95 58-141 0-2 0-4 0-7a69 69 0 0 1-13-5 63 63 0 0 1-33-39l-21-74a209 209 0 0 0-124-40 219 219 0 0 0-57 8z m178 4a64 64 0 0 1 8-23l-33 10a215 215 0 0 1 25 13z m140 69l-22-77c-6-23-33-36-60-29a53 53 0 0 0-30 22 42 42 0 0 0-5 34l21 77a42 42 0 0 0 22 26 53 53 0 0 0 38 3c27-7 43-32 36-56z" horiz-adv-x="1000" />

<glyph glyph-name="theme_64" unicode="&#xe83d;" d="M447 203a293 293 0 0 1 46 37l65 65 172-276 62 62-43 153 74 74-72 72-34-33-24 84 47 46c38 39 61 84 80 128a37 37 0 0 1-8 41l-5 5a37 37 0 0 1-41 7l-4-1a386 386 0 0 1-122-80l-47-46-84 23 34 34-72 72-75-74-153 43-62-62 277-171-66-66a324 324 0 0 1-34-41l-2-3-147-9-32-32 124-82 21-22 82-122 31 32 9 140z m304 155l40-40-49-49-17 62z m-76 64l91-325-32-32-159 257z m-204 216l40-40-27-27-62 18z m4-216l-257 159 32 32 325-91z m-269-158l134 8-7-13c-7-13-14-27-21-43l-7-18z m128-92l-11 10 10 25c22 51 46 87 76 117l247 247a363 363 0 0 0 115 74l4 2a14 14 0 0 0 16-3h0l5-4a14 14 0 0 0 3-16c-21-48-42-87-75-121l-248-247c-35-35-77-57-117-74z m78-114l-64 95 20 8c15 6 27 12 39 18l13 7z" horiz-adv-x="1000" />

<glyph glyph-name="theme_65" unicode="&#xe83e;" d="M500 668a318 318 0 1 1 318-318 319 319 0 0 1-318 318z m0-613a295 295 0 1 0 295 295 295 295 0 0 0-295-295z m-125 278c0 1 1 1 2 1a59 59 0 0 1 24 22 60 60 0 0 1 9 32 65 65 0 0 1-9 33 60 60 0 0 1-24 23 72 72 0 0 1-35 8h-47a13 13 0 0 1-10-3 13 13 0 0 1-4-10v-178a14 14 0 0 1 24-10 13 13 0 0 1 4 10v66h33c2 0 3 0 5 0l45-73a13 13 0 0 1 5-5 14 14 0 0 1 7-2 12 12 0 0 1 12 7 14 14 0 0 1-2 14z m-66 19v75h33a44 44 0 0 0 21-5 37 37 0 0 0 15-13 39 39 0 0 0 5-21 34 34 0 0 0-5-19 36 36 0 0 0-15-13 47 47 0 0 0-21-4z m232 75a14 14 0 0 1 9 4 12 12 0 0 1 4 9 13 13 0 0 1-4 9 13 13 0 0 1-9 4h-81a13 13 0 0 1-10-4 13 13 0 0 1-4-10v-178a13 13 0 0 1 14-14h81a13 13 0 0 1 9 4 13 13 0 0 1 4 9 12 12 0 0 1-4 9 14 14 0 0 1-9 4h-68v65h60a13 13 0 0 1 9 4 13 13 0 0 1 0 18 13 13 0 0 1-9 3h-60v64z m175-159l-40 65c1 1 2 1 3 1a59 59 0 0 1 32 54 65 65 0 0 1-8 33 61 61 0 0 1-24 23 72 72 0 0 1-35 8h-47a13 13 0 0 1-14-13v-178a14 14 0 0 1 24-10 13 13 0 0 1 4 10v66h33c2 0 3 0 5 0l44-73a13 13 0 0 1 6-5 14 14 0 0 1 6-2 12 12 0 0 1 12 7 14 14 0 0 1-1 14z m-51 88a47 47 0 0 0-21-4h-34v75h34a44 44 0 0 0 21-5 37 37 0 0 0 14-13 40 40 0 0 0 6-21 35 35 0 0 0-6-19 36 36 0 0 0-14-13z" horiz-adv-x="1000" />

<glyph glyph-name="theme_241" unicode="&#xe83f;" d="M771 102l63 343a9 9 0 0 1-2 8h0a10 10 0 0 1-8 3h-187v85a137 137 0 1 1-274 0v-85h-186c-4 0-7 0-8-2l-1-1a9 9 0 0 1-2-8l63-343a97 97 0 0 1 93-80h356a98 98 0 0 1 93 80z m-385 439a115 115 0 0 0 229 0v-85h-229z m292-496h-356a73 73 0 0 0-71 60l-60 328h618l-60-328a73 73 0 0 0-71-60z m-52 297a11 11 0 0 1-11-11v-50a11 11 0 0 1 3-8 11 11 0 0 1 19 8v50a11 11 0 0 1-11 11z m-252 0a11 11 0 0 1-11-11v-50a11 11 0 1 1 23 0v50a11 11 0 0 1-12 11z" horiz-adv-x="1000" />

<glyph glyph-name="bus-clear" unicode="&#xe840;" d="M134 600c22 0 44-4 66-12 16-5 32-13 45-26 12-11 20-25 26-41 5-17 8-36 8-54 0-12-1-23-4-34s-8-21-14-31c-6-9-14-18-22-25-10-8-21-14-33-19 51-7 88-56 85-112 1-20-3-39-10-58-6-17-15-32-27-45-13-13-28-23-45-30-20-8-41-12-62-13h-147v500h134z m732 0c23 1 47-3 69-11 21-8 39-21 54-37l-18-38c-1-3-4-6-7-9-2-2-6-3-9-3-5 1-9 3-12 6-6 4-12 8-18 12-8 5-16 9-25 12-10 4-22 6-34 6-11 0-21-2-32-6-8-3-17-8-23-14-6-7-9-15-11-23-4-9-5-18-5-27-1-11 2-22 8-31 7-9 15-16 24-21 10-7 21-12 32-16l38-14c13-5 26-10 38-16 12-7 24-15 33-25 10-11 18-22 23-36 6-16 9-33 9-51 1-21-3-42-10-62-6-18-16-35-29-50-13-14-29-26-47-33-19-9-40-13-62-13-14 0-27 2-41 5-14 4-28 9-41 16-12 5-23 12-33 20-11 8-20 17-28 27l20 38c2 3 4 6 7 8 3 0 6 0 9 0 6-1 12-4 16-8l20-16c9-6 19-11 29-15 13-5 27-8 41-8 21-2 42 6 58 21 15 15 23 35 22 57 1 12-2 23-9 34-6 9-13 16-23 21-10 7-21 12-33 15l-37 14c-13 4-26 9-38 16-12 6-23 14-33 24-10 11-17 24-23 37-6 18-9 37-9 56 0 17 4 35 10 51 6 17 15 32 27 44 12 14 27 24 44 31 18 8 38 12 59 12z m-467 0v-296c0-18 2-36 6-54 4-15 11-29 20-41 9-11 19-20 31-27 14-6 28-9 42-9 29-1 57 12 75 36 8 12 15 26 19 41 5 17 7 36 7 54v296h68v-300c0-27-4-55-12-81-7-23-18-44-33-62-15-18-32-33-53-42-44-20-94-20-139 0-20 10-38 24-52 42-15 20-26 42-34 66-7 26-11 53-11 81v296h66z m-242-277l-11 0h-81v-157h81c13 0 26 2 38 6 9 4 18 10 25 18 6 7 11 16 14 25 3 11 4 22 4 33 1 20-6 40-19 55-17 15-39 22-61 20l10 0z m-13 212l-10-1h-69v-154h66c22-2 45 5 62 20 15 15 22 36 21 57 2 22-5 44-20 59-17 14-39 21-60 18l10 1z" horiz-adv-x="1000" />

<glyph glyph-name="metro-clear" unicode="&#xe841;" d="M277 461l177-319h92l177 319v-445h111v668h-111l-223-416 0 0 0 0 0 0-223 416h-111v-668h111v445z" horiz-adv-x="1000" />

<glyph glyph-name="rer-clear" unicode="&#xe842;" d="M624 579v-60h-214v-138h171v-58h-171v-142h215l-1-60h-291v458h291z m172 0c25 0 50-5 74-12 18-6 36-14 51-26 13-11 23-25 29-41 7-17 10-34 10-52 0-15-2-30-7-45-4-13-11-25-19-37-9-11-20-21-32-28-13-9-28-16-43-20 9-6 17-14 23-23l118-172h-63c-12-1-22 5-28 15l-100 153c-3 4-7 8-12 11-5 3-12 4-18 4h-41v-185h-71v458h129z m-667 0c24 0 49-4 72-11 19-6 36-14 51-26 13-11 23-25 30-41 13-32 15-67 4-100-4-13-10-26-19-37-9-11-20-21-32-29-13-8-28-15-43-19 9-6 17-14 22-23l119-172h-64c-12 0-23 6-27 17l-102 153c-3 5-7 9-12 12-5 2-12 3-18 3h-39v-185h-71v458h129z m14-60l-13 0h-59v-160h58c14 0 29 2 42 6 12 4 22 10 31 17 8 8 14 17 18 27 4 10 6 22 6 33 2 22-7 43-24 58-21 14-46 21-72 19h13z m662 0l-13 0h-59l2-160h56c14 0 29 2 42 6 12 3 22 9 31 17 8 7 14 17 18 27 4 10 6 22 6 33 2 22-7 43-24 58-21 14-46 21-72 19h13z" horiz-adv-x="1000" />

<glyph glyph-name="tram-clear" unicode="&#xe843;" d="M444 16h112v557h278v111h-668v-111h278v-557z" horiz-adv-x="1000" />
</font>
</defs>
</svg>
