<svg xmlns="http://www.w3.org/2000/svg" width="24" height="24" viewBox="0 0 24 24"><path fill-rule="evenodd" d="M12 0c6.627 0 12 5.373 12 12 0 3.913-1.873 7.389-4.771 9.58l-.05.036q-.795.596-1.684 1.055A11.95 11.95 0 0 1 12 24a11.95 11.95 0 0 1-5.32-1.24l-.013-.007a12 12 0 0 1-1.74-1.058A11.98 11.98 0 0 1 0 12C0 5.373 5.373 0 12 0M7.556 20.96A9.96 9.96 0 0 0 12 22c1.66 0 3.227-.405 4.605-1.121C15.48 19.122 13.864 18 12.1 18c-1.784 0-3.418 1.162-4.544 2.96m10.735-1.186C16.806 17.465 14.585 16 12.1 16c-2.518 0-4.77 1.51-6.256 3.881A9.98 9.98 0 0 1 2 12C2 6.477 6.477 2 12 2s10 4.477 10 10a9.98 9.98 0 0 1-3.709 7.774M12.1 5a5 5 0 1 0 0 10 5 5 0 0 0 0-10m0 2a3 3 0 1 1 0 6 3 3 0 0 1 0-6" clip-rule="evenodd"/></svg>