<svg xmlns="http://www.w3.org/2000/svg" width="24" height="24" viewBox="0 0 24 24"><path d="M18.154 14.83V9.17a1.24 1.24 0 0 0-.618-1.08l-4.935-2.852a1.2 1.2 0 0 0-1.202 0L6.464 8.09a1.25 1.25 0 0 0-.618 1.08v5.658a1.24 1.24 0 0 0 .618 1.08l4.935 2.853a1.2 1.2 0 0 0 1.202 0l4.935-2.852a1.24 1.24 0 0 0 .618-1.078M12 6.668l3.903 2.255L12 11.175 8.097 8.923zm-4.615 3.619 3.846 2.221v4.38l-3.846-2.222Zm5.384 6.6v-4.379l3.846-2.219v4.378zM22 4.307v3.847a.77.77 0 1 1-1.538 0V5.077h-3.077a.77.77 0 1 1 0-1.539h3.846a.77.77 0 0 1 .769.77M7.385 19.692a.77.77 0 0 1-.77.77H2.77a.77.77 0 0 1-.769-.77v-3.846a.77.77 0 1 1 1.538 0v3.077h3.077a.77.77 0 0 1 .77.77M22 15.845v3.846a.77.77 0 0 1-.77.77h-3.845a.77.77 0 1 1 0-1.539h3.077v-3.077a.77.77 0 1 1 1.538 0M2 8.154V4.308a.77.77 0 0 1 .77-.77h3.845a.77.77 0 0 1 0 1.539H3.538v3.077a.77.77 0 0 1-1.538 0"/></svg>