<svg xmlns="http://www.w3.org/2000/svg" width="24" height="24" viewBox="0 0 24 24"><path fill-rule="evenodd" d="M19.08 7.08a13.6 13.6 0 0 1-2.19 6.38c4.19.86 7.11 2.78 7.11 5.02C24 21.53 18.63 24 12 24S0 21.53 0 18.46c0-2.22 2.92-4.14 7.11-5a13.6 13.6 0 0 1-2.19-6.38 7.08 7.08 0 1 1 14.16 0m-2 0A5.09 5.09 0 0 0 12 2a5.09 5.09 0 0 0-5.08 5.08c0 2.33 1.79 5.44 3.59 7.93.49.7 1.02 1.36 1.49 1.94.49-.58.98-1.24 1.49-1.94 1.8-2.49 3.59-5.6 3.59-7.93M12 22c-6.2 0-10-2.28-10-3.52 0-1 2.31-2.55 6.26-3.2A42 42 0 0 0 12 20a42 42 0 0 0 3.74-4.72c4 .65 6.26 2.24 6.26 3.2C22 19.72 18.2 22 12 22m0-12a3.34 3.34 0 1 0-3.33-3.33A3.33 3.33 0 0 0 12 10m0-4.67a1.34 1.34 0 1 1-1.33 1.34A1.33 1.33 0 0 1 12 5.33" clip-rule="evenodd"/></svg>