<svg xmlns="http://www.w3.org/2000/svg" width="24" height="24" viewBox="0 0 24 24"><path d="M19.692 5.462h-2.666l-1.31-1.966a.78.78 0 0 0-.64-.342H8.924a.78.78 0 0 0-.64.342l-1.31 1.966H4.307A2.31 2.31 0 0 0 2 7.769v10.77a2.31 2.31 0 0 0 2.308 2.307h15.384A2.31 2.31 0 0 0 22 18.538V7.77a2.31 2.31 0 0 0-2.308-2.307m.77 13.076a.77.77 0 0 1-.77.77H4.308a.77.77 0 0 1-.77-.77V7.77a.77.77 0 0 1 .77-.77h3.077a.78.78 0 0 0 .64-.342l1.31-1.966h5.328l1.312 1.966a.78.78 0 0 0 .64.342h3.077a.77.77 0 0 1 .77.77zM12 8.538A4.231 4.231 0 1 0 12 17a4.231 4.231 0 0 0 0-8.462m0 6.924a2.692 2.692 0 1 1 0-5.385 2.692 2.692 0 0 1 0 5.385"/></svg>