<svg xmlns="http://www.w3.org/2000/svg" width="24" height="24" viewBox="0 0 24 24"><path d="M11.813 0q-.034 0-.067.002C5.236.137 0 5.457 0 12c0 6.627 5.373 12 12 12 6.538-.007 11.852-5.237 11.996-11.742l.004-.07-.002-.042L24 12c0-1.89-.45-3.671-1.229-5.262l-.007-.017-.035-.073C20.76 2.71 16.702 0 12 0h-.188m.812 1.62a10.4 10.4 0 0 1 8.277 5.001l-8.277 4.215zM11 1.645v10.542c0 .448.364.812.813.812h10.54c-.503 5.275-4.947 9.4-10.353 9.4C6.259 22.394 1.606 17.741 1.6 12c0-5.406 4.125-9.85 9.4-10.354m10.62 6.395c.427 1.038.691 2.16.76 3.334h-7.31z"/></svg>