<svg xmlns="http://www.w3.org/2000/svg" width="24" height="24" viewBox="0 0 24 24"><path d="M.815 0h5.37c.459 0 .795.375.814.815.02.44-.388.814-.814.814h-3.34l2.78 2.78 2.129 2.128c.34.338.315.871 0 1.216-.313.34-.898.318-1.217 0l-.771-.772-3.391-3.39-.746-.745v3.339c0 .456-.372.795-.814.814C.375 7.02 0 6.611 0 6.185V.815C0 .372.375 0 .815 0m18.82 1.629h-1.82c-.459 0-.795-.372-.814-.814-.02-.44.388-.815.814-.815h5.371c.442 0 .814.375.814.815v5.37c0 .456-.372.795-.814.814-.44.02-.815-.388-.815-.814v-3.34l-2.78 2.78-2.128 2.129c-.338.34-.871.315-1.216 0-.34-.313-.318-.898 0-1.217l.772-.771 1.13-1.13q1.128-1.131 2.26-2.261l.745-.746zm0 22.371h-1.82c-.459 0-.795-.375-.814-.814-.02-.44.388-.815.814-.815h3.696l-2.434-2.78-1.862-2.128c-.296-.34-.276-.874 0-1.216.273-.34.785-.318 1.064 0l.675.772 2.968 3.39.449.513v-3.107c0-.456.372-.795.815-.814.44-.02.814.388.814.814v5.371a.8.8 0 0 1-.105.393 1 1 0 0 1-.11.174.66.66 0 0 1-.56.246l-.04.001zm-15.27-1.629h1.82c.459 0 .795.372.814.815.02.44-.388.814-.814.814H.815a.8.8 0 0 1-.394-.105 1 1 0 0 1-.174-.11.66.66 0 0 1-.246-.56L0 23.186v-5.37c0-.456.372-.795.815-.814.44-.02.814.388.814.814v3.696l2.78-2.434 2.128-1.862c.34-.296.874-.276 1.216 0 .34.273.318.785 0 1.064l-.772.675-3.39 2.968-.513.449z"/></svg>