<svg width="24" height="24" viewBox="0 0 24 24" fill="none" xmlns="http://www.w3.org/2000/svg">
<path fill-rule="evenodd" clip-rule="evenodd" d="M19 10C18.6088 10.0044 18.2195 10.0548 17.84 10.15L16 6L15 4H10L11 6H14L14.89 8H9L7.19 10.53C6.51134 10.1849 5.76135 10.0034 5 10C2.23858 10 0 12.2386 0 15C0 17.7614 2.23858 20 5 20C7.76142 20 10 17.7614 10 15C9.99748 13.8082 9.56419 12.6575 8.78 11.76L10 10H15.75L16.14 10.88C14.1054 12.2791 13.3968 14.9538 14.4718 17.1767C15.5468 19.3997 18.0835 20.505 20.4435 19.7788C22.8035 19.0527 24.28 16.7125 23.9195 14.2698C23.5589 11.8271 21.4692 10.0133 19 10ZM5 18C3.34315 18 2 16.6569 2 15C2 13.3431 3.34315 12 5 12C5.34208 12.0024 5.68089 12.0667 6 12.19L4 15H6.47L7.56 13.46C7.84352 13.924 7.9956 14.4563 8 15C8 16.6569 6.65685 18 5 18ZM16.2047 16.0716C16.6479 17.2307 17.759 17.9972 19 18C20.6569 18 22 16.6569 22 15C22 13.3431 20.6569 12 19 12H18.68L20 15H18L17 12.77C16.0776 13.6001 15.7614 14.9125 16.2047 16.0716Z" fill="#333333"/>
</svg>
