<svg width="24" height="24" viewBox="0 0 24 24" fill="none" xmlns="http://www.w3.org/2000/svg">
<path d="M 9.0546875 1 L 9.0546875 4 L 5.0546875 4 L 5.0546875 12.1875 L 2.0546875 14.195312 L 4.5644531 21.78125 L 1.90625 20.896484 L 0 22.167969 L 1.109375 23.832031 L 2.203125 23.103516 L 5.0546875 24.054688 L 8.0234375 23.064453 L 10.523438 24.064453 L 13.523438 23.064453 L 16.054688 24.076172 L 18.585938 23.064453 L 21.630859 24.080078 L 24.001953 22.894531 L 23.107422 21.105469 L 21.478516 21.919922 L 19.279297 21.1875 C 20.298791 18.764685 22.054688 14.203125 22.054688 14.203125 L 19.054688 12.191406 L 19.054688 4 L 15.054688 4 L 15.054688 1 L 9.0546875 1 z M 11.054688 3 L 13.054688 3 L 13.054688 4 L 11.054688 4 L 11.054688 3 z M 7.0546875 6 L 9.0546875 6 L 15.054688 6 L 17.054688 6 L 17.054688 10.630859 L 12.054688 7.2988281 L 7.0546875 10.630859 L 7.0546875 6 z M 11.054688 10.679688 L 11.054688 21.779297 L 10.585938 21.935547 L 8.0859375 20.935547 L 6.6796875 21.404297 L 4.5878906 15.080078 L 11.054688 10.679688 z M 13.054688 10.689453 L 19.412109 15.072266 L 16.814453 21.619141 L 16.054688 21.923828 L 13.585938 20.935547 L 13.054688 21.113281 L 13.054688 10.689453 z M 8.0546875 18 L 8.0546875 20 L 10.054688 20 L 10.054688 18 L 8.0546875 18 z M 14.054688 18 L 14.054688 20 L 16.054688 20 L 16.054688 18 L 14.054688 18 z" fill="#333333" />
</svg>
