<svg width="24" height="24" viewBox="0 0 24 24" fill="none" xmlns="http://www.w3.org/2000/svg">
<path fill-rule="evenodd" clip-rule="evenodd" d="M0 0V24H24V0H0ZM22 22H2V2H22V22ZM17.64 15C17.4141 15.0053 17.1895 14.9645 16.98 14.88C16.8192 14.8113 16.6652 14.7276 16.52 14.63L16.19 14.37C16.1242 14.3007 16.0352 14.258 15.94 14.25C15.8909 14.2364 15.8391 14.2364 15.79 14.25C15.746 14.2826 15.7087 14.3234 15.68 14.37L15.35 14.99C15.4825 15.1506 15.6335 15.295 15.8 15.42C15.9679 15.5487 16.1489 15.6593 16.34 15.75C16.5506 15.8563 16.7718 15.9401 17 16C17.2162 16.0518 17.4377 16.0786 17.66 16.08C18.0036 16.0839 18.3443 16.0158 18.66 15.88C18.9475 15.7588 19.2039 15.5742 19.41 15.34C19.6199 15.1046 19.7798 14.829 19.88 14.53C19.9916 14.2086 20.0457 13.8701 20.04 13.53C20.045 13.2471 19.9975 12.9656 19.9 12.7C19.8112 12.4897 19.6859 12.2968 19.53 12.13C19.3735 11.9718 19.195 11.8371 19 11.73C18.8013 11.6299 18.5977 11.5397 18.39 11.46L17.78 11.23C17.5976 11.1669 17.4231 11.083 17.26 10.98C17.1113 10.894 16.982 10.7782 16.88 10.64C16.7833 10.4879 16.7345 10.3102 16.74 10.13C16.7405 9.98302 16.7676 9.83734 16.82 9.7C16.851 9.56454 16.9125 9.43797 17 9.33C17.1078 9.22581 17.2377 9.14721 17.38 9.1C17.5418 9.03345 17.7151 8.99947 17.89 9C18.0783 8.99459 18.2657 9.02866 18.44 9.1C18.5756 9.15123 18.7061 9.21483 18.83 9.29C18.9307 9.3506 19.0276 9.4174 19.12 9.49C19.174 9.54262 19.2448 9.5745 19.32 9.58C19.3741 9.58 19.4267 9.56246 19.47 9.53C19.5188 9.49018 19.5567 9.43855 19.58 9.38L19.86 8.77C19.6208 8.5093 19.3272 8.30445 19 8.17C18.6427 8.03536 18.2611 7.97743 17.88 8C17.5535 7.99607 17.2299 8.0608 16.93 8.19C16.6596 8.30266 16.4172 8.47334 16.22 8.69C16.0286 8.89399 15.8821 9.13587 15.79 9.4C15.6901 9.6653 15.6393 9.94653 15.64 10.23C15.6329 10.5359 15.6803 10.8407 15.78 11.13C15.8668 11.3503 15.9921 11.5535 16.15 11.73C16.3011 11.8942 16.4807 12.0297 16.68 12.13C16.8769 12.231 17.0808 12.3179 17.29 12.39L17.89 12.61C18.0768 12.6655 18.2551 12.7462 18.42 12.85C18.5684 12.937 18.6949 13.0567 18.79 13.2C18.8922 13.3645 18.9411 13.5566 18.93 13.75C18.9521 14.095 18.8218 14.4322 18.5736 14.6728C18.3253 14.9133 17.9841 15.0329 17.64 15ZM8.43 15.31C8.20401 15.5246 7.93462 15.6883 7.64 15.79C7.29797 15.9207 6.93605 15.9917 6.57 16H4V8H6.33C6.7208 8.00413 7.10864 8.06821 7.48 8.19C7.77079 8.26559 8.04081 8.40573 8.27 8.6C8.47058 8.78088 8.6249 9.0072 8.72 9.26C8.81489 9.54015 8.86222 9.83422 8.86 10.13C8.86271 10.3124 8.83914 10.4943 8.79 10.67C8.74084 10.8467 8.65948 11.0128 8.55 11.16C8.44427 11.3179 8.31238 11.4565 8.16 11.57C7.98582 11.6975 7.79375 11.7986 7.59 11.87C8.47903 11.984 9.12921 12.765 9.08 13.66C9.08748 13.9784 9.02962 14.2949 8.91 14.59C8.80446 14.8622 8.64062 15.1079 8.43 15.31ZM6.33 9.05H5.14V11.52H6.28C6.67064 11.5541 7.0598 11.4399 7.37 11.2C7.62112 10.9623 7.75311 10.625 7.73 10.28C7.76441 9.9314 7.63945 9.58593 7.39 9.34C7.08354 9.11796 6.70681 9.01489 6.33 9.05ZM5.14 14.94V12.43H6.55C6.93414 12.399 7.31594 12.5132 7.62 12.75C7.84973 12.984 7.97275 13.3024 7.96 13.63C7.96016 13.8064 7.93318 13.9818 7.88 14.15C7.8341 14.304 7.75177 14.4446 7.64 14.56C7.51671 14.6858 7.36617 14.7816 7.2 14.84C6.99166 14.9143 6.77105 14.9483 6.55 14.94H5.14ZM11.11 15.81C10.7642 15.6514 10.4571 15.4193 10.21 15.13C9.95566 14.8152 9.76235 14.4557 9.64 14.07C9.50837 13.6494 9.44424 13.2107 9.45 12.77V8H10.57V12.77C10.5689 13.0602 10.6059 13.3494 10.68 13.63C10.75 13.8728 10.8654 14.1002 11.02 14.3C11.1695 14.478 11.3531 14.6242 11.56 14.73C11.7858 14.8332 12.0318 14.8845 12.28 14.88C12.7717 14.9007 13.2437 14.6851 13.55 14.3C13.7006 14.1013 13.8156 13.878 13.89 13.64C13.9647 13.3561 14.0017 13.0636 14 12.77V8H15.16V12.83C15.1625 13.2712 15.095 13.71 14.96 14.13C14.8387 14.4981 14.6449 14.8381 14.39 15.13C14.1472 15.4239 13.839 15.6567 13.49 15.81C12.7289 16.13 11.8711 16.13 11.11 15.81Z" fill="#333333"/>
</svg>
