<svg width="24" height="24" viewBox="0 0 24 24" fill="none" xmlns="http://www.w3.org/2000/svg">
<path fill-rule="evenodd" clip-rule="evenodd" d="M0 0V24H24V0H0ZM22 22H2V2H22V22ZM5.45 12.77H6.11C6.21675 12.7634 6.32344 12.784 6.42 12.83C6.49777 12.8813 6.56277 12.9497 6.61 13.03L8.33 15.7C8.41119 15.8862 8.59694 16.0047 8.8 16H9.87L7.87 13C7.77833 12.8373 7.64777 12.6999 7.49 12.6C7.74969 12.5257 7.99605 12.411 8.22 12.26C8.42432 12.1253 8.60366 11.9561 8.75 11.76C8.89889 11.5654 9.01075 11.3451 9.08 11.11C9.2541 10.5347 9.22587 9.91705 9 9.36C8.89136 9.08738 8.72007 8.84415 8.5 8.65C8.24548 8.44526 7.95331 8.29238 7.64 8.2C7.24512 8.07478 6.83419 8.00741 6.42 8H4.25V16H5.45V12.77ZM5.45 9.05H6.45C6.88091 9.01605 7.30984 9.13658 7.66 9.39C7.93994 9.64414 8.08745 10.0129 8.06 10.39C8.06336 10.5912 8.02946 10.7912 7.96 10.98C7.89368 11.1553 7.78756 11.3127 7.65 11.44C7.5026 11.5742 7.32893 11.6764 7.14 11.74C6.90705 11.8123 6.66384 11.8461 6.42 11.84H5.45V9.05ZM14.61 14.92H11.21V12.47H13.92V11.47H11.21V9.08H14.6V8.04H10V15.96H14.6L14.61 14.92ZM16.31 12.77H17C17.1068 12.7634 17.2134 12.784 17.31 12.83C17.3853 12.8842 17.4498 12.952 17.5 13.03L19.2 15.7C19.2895 15.869 19.4691 15.9705 19.66 15.96H20.73L18.73 12.96C18.6327 12.8016 18.5032 12.6653 18.35 12.56C18.6073 12.4877 18.8507 12.3728 19.07 12.22C19.2751 12.0827 19.4574 11.914 19.61 11.72C19.7513 11.5207 19.8625 11.3017 19.94 11.07C20.0128 10.8198 20.0499 10.5606 20.05 10.3C20.0566 9.98587 20.0023 9.67344 19.89 9.38C19.7849 9.10549 19.613 8.86148 19.39 8.67C19.1368 8.46323 18.8442 8.31012 18.53 8.22C18.13 8.08506 17.712 8.0109 17.29 8H15.11V16H16.31V12.77ZM16.23 9.05H17.23C17.6611 9.01426 18.0906 9.13496 18.44 9.39C18.7199 9.64414 18.8674 10.0129 18.84 10.39C18.8434 10.5912 18.8095 10.7912 18.74 10.98C18.6737 11.1553 18.5676 11.3127 18.43 11.44C18.2858 11.5785 18.1111 11.6812 17.92 11.74C17.6872 11.813 17.4439 11.8468 17.2 11.84H16.26L16.23 9.05Z" fill="#333333"/>
</svg>
