<svg version="1.1" viewBox="0 0 32 46" xmlns="http://www.w3.org/2000/svg">
 <path d="m16 0c-8.8323 0.010561-15.99 7.2984-16 16.292 0 12.458 16 29.708 16 29.708s16-17.25 16-29.708c-0.010354-8.9933-7.1678-16.281-16-16.292z" clip-rule="evenodd" fill="currentColor" fill-rule="evenodd" stroke-width="1.8994"/>
 <circle cx="16.25" cy="15.25" r="8.21" fill="#fff"/>
 <path d="m15.477 14.065v2.4461h-3.9138v-4.403h-0.97844v6.3599h0.97844v-0.97844h9.7844v0.97844h0.97844v-4.403zm0.97844 2.4461v-1.4677h4.8922v1.4677zm-2.9353-0.48922c0.81056 0 1.4677-0.65707 1.4677-1.4677 0-0.81056-0.6571-1.4677-1.4677-1.4677-0.81056 0-1.4677 0.6571-1.4677 1.4677 0 0.81059 0.6571 1.4677 1.4677 1.4677zm0-1.9569c0.27019 0 0.48922 0.21902 0.48922 0.48922s-0.21903 0.48922-0.48922 0.48922c-0.27019 0-0.48922-0.21902-0.48922-0.48922s0.21903-0.48922 0.48922-0.48922z" clip-rule="evenodd" fill="currentColor" fill-rule="evenodd" stroke-width=".48922"/>
</svg>
