<svg version="1.1" viewBox="0 0 32 46" xmlns="http://www.w3.org/2000/svg">
 <path d="m16 0c-8.8323 0.010561-15.99 7.2984-16 16.292 0 12.458 16 29.708 16 29.708s16-17.25 16-29.708c-0.010354-8.9933-7.1678-16.281-16-16.292z" clip-rule="evenodd" fill="currentColor" fill-rule="evenodd" stroke-width="1.8994"/>
 <circle cx="16.25" cy="15.25" r="8.21" fill="#fff"/>
 <path d="m10.903 10.048v10.135h10.135v-10.135zm9.29 9.29h-8.4454v-8.4455h8.4454zm-5.0673-3.1459h1.1106c0.09974 0.0085 0.20007 0.0085 0.29981 0 0.4713-0.07221 0.87453-0.37701 1.0726-0.81076 0.11963-0.26451 0.16908-0.55537 0.14357-0.84455-0.0035-0.26248-0.08108-0.51865-0.2238-0.73898-0.26852-0.43924-0.75224-0.70044-1.2668-0.68408h-1.9805v4.4508h0.84454zm0-2.2507h1.1612c0.28339-0.01549 0.53443 0.18136 0.58696 0.46028 0.08293 0.25134 0.03374 0.52754-0.1309 0.73475-0.1138 0.12981-0.27925 0.20248-0.45183 0.19847h-1.1655z" clip-rule="evenodd" fill="currentColor" fill-rule="evenodd" stroke-width=".42227"/>
</svg>
