<svg version="1.1" viewBox="0 0 32 46" xmlns="http://www.w3.org/2000/svg">
 <path d="m16 0c-8.8323 0.010561-15.99 7.2984-16 16.292 0 12.458 16 29.708 16 29.708s16-17.25 16-29.708c-0.010354-8.9933-7.1678-16.281-16-16.292z" clip-rule="evenodd" fill="currentColor" fill-rule="evenodd" stroke-width="1.8994"/>
 <circle cx="16.25" cy="15.25" r="8.21" fill="#fff"/>
 <path d="m20.931 9.8564v2.3221h0.92978v2.1364h-0.92978v6.6877h-2.3212v-1.3933h-4.6442v1.3933h-2.3221v-6.6877h-0.92885v-2.1364h0.92885v-2.3221zm-8.3587 8.1274c0 0.38426 0.31237 0.69664 0.69664 0.69664s0.69664-0.31237 0.69664-0.69664-0.31237-0.69664-0.69664-0.69664-0.69664 0.31237-0.69664 0.69664zm6.7342 0.69664c-0.38426 0-0.69664-0.31237-0.69664-0.69664s0.31237-0.69664 0.69664-0.69664c0.38426 0 0.69664 0.31237 0.69664 0.69664s-0.31237 0.69664-0.69664 0.69664zm-6.7342-2.3221h7.4308v-5.5731h-7.4308z" clip-rule="evenodd" fill="currentColor" fill-rule="evenodd" stroke-width=".46442"/>
</svg>
