<svg width="24" height="24" viewBox="0 0 24 24" fill="none" xmlns="http://www.w3.org/2000/svg">
<path fill-rule="evenodd" clip-rule="evenodd" d="M13.4856 1.1648C16.936 1.99938 19.3649 5.09005 19.36 8.64C19.3602 10.885 18.378 13.0176 16.672 14.4768L18.4 24L11.68 21.888L4.96001 24L6.67841 14.4576C3.98449 12.1457 3.22612 8.28871 4.84421 5.12896C6.46229 1.96922 10.0351 0.33021 13.4856 1.1648ZM11.68 2.88C8.49885 2.88 5.92001 5.45884 5.92001 8.64C5.92001 10.1677 6.52687 11.6327 7.60708 12.7129C8.68729 13.7931 10.1524 14.4 11.68 14.4C14.8612 14.4 17.44 11.8212 17.44 8.64C17.44 5.45884 14.8612 2.88 11.68 2.88ZM15.9424 21.216L12.256 20.064L11.68 19.8816L11.104 20.064L7.40801 21.216L8.42561 15.5904C9.44387 16.0691 10.5549 16.3181 11.68 16.32C12.8008 16.3161 13.9076 16.0705 14.9248 15.6L15.9424 21.216ZM11.7664 12.8928C14.1523 12.8928 16.0864 10.9587 16.0864 8.5728C16.0864 6.18693 14.1523 4.2528 11.7664 4.2528C9.38054 4.2528 7.44641 6.18693 7.44641 8.5728C7.45169 10.9565 9.38273 12.8875 11.7664 12.8928ZM11.7664 6.1728C13.0919 6.1728 14.1664 7.24732 14.1664 8.5728C14.1664 9.89829 13.0919 10.9728 11.7664 10.9728C10.4409 10.9728 9.36641 9.89829 9.36641 8.5728C9.36641 7.24732 10.4409 6.1728 11.7664 6.1728Z" fill="#333333"/>
</svg>
