<svg width="24" height="24" viewBox="0 0 24 24" fill="none" xmlns="http://www.w3.org/2000/svg">
<path fill-rule="evenodd" clip-rule="evenodd" d="M24 24V15.94L20 13.54V8L15 5L12 6.76V0H0V24H24ZM10 17.94V19.94V21.94H8V20H4V22H2V2H10V17.94ZM14 21.94V15.94L18 13.54V9.1L15 7.28L12 9.1V21.94H14ZM22 22H16V17.1L19 15.3L22 17.1V22ZM8 3.97H4V5.97H8V3.97ZM13.99 9.97H15.98V11.96H13.99V9.97ZM18 17.97H19.99V19.96H18V17.97ZM4 7.97H8V9.97H4V7.97ZM8 11.97H4V13.97H8V11.97ZM4 15.97H8V17.97H4V15.97Z" fill="#333333"/>
</svg>
