<svg xmlns="http://www.w3.org/2000/svg" width="24" height="24" viewBox="0 0 24 24"><path fill-rule="evenodd" d="M13.486 1.165A7.68 7.68 0 0 1 19.36 8.64a7.68 7.68 0 0 1-2.688 5.837L18.4 24l-6.72-2.112L4.96 24l1.718-9.542a7.68 7.68 0 0 1 6.808-13.293M11.68 2.88a5.76 5.76 0 1 0 0 11.52 5.76 5.76 0 0 0 0-11.52m4.262 18.336-3.686-1.152-.576-.182-.576.182-3.696 1.152 1.018-5.626a7.7 7.7 0 0 0 3.254.73 7.8 7.8 0 0 0 3.245-.72zm-4.176-8.323a4.32 4.32 0 1 0-4.32-4.32 4.33 4.33 0 0 0 4.32 4.32m0-6.72a2.4 2.4 0 1 1 0 4.8 2.4 2.4 0 0 1 0-4.8" clip-rule="evenodd"/></svg>