<?xml version="1.0" encoding="UTF-8"?>
<!-- Uploaded to: SVG Repo, www.svgrepo.com, Generator: SVG Repo Mixer Tools -->
<svg enable-background="new 0 0 32 32" version="1.1" viewBox="0 0 32 32" xml:space="preserve" xmlns="http://www.w3.org/2000/svg">
<path d="m16 3c-7.1679 0-13 5.8321-13 13 0 7.1679 5.8321 13 13 13 7.1679 0 13-5.8321 13-13 0-7.1679-5.8321-13-13-13zm0 2c6.087 0 11 4.913 11 11 0 6.087-4.913 11-11 11-6.087 0-11-4.913-11-11 0-6.087 4.913-11 11-11zm-0.099609 5c-3.3238 0-6 2.6762-6 6s2.6762 6 6 6c2.4 0 4.4491-1.4448 5.4043-3.4746l-1.8086-0.85156c-0.6448 1.3702-1.9957 2.3262-3.5957 2.3262-2.2762 0-4-1.7238-4-4s1.7238-4 4-4c1.6 0 2.9509 0.95597 3.5957 2.3262l1.8086-0.85156c-0.9552-2.0298-3.0043-3.4746-5.4043-3.4746z" enable-background="accumulate" stop-color="#000000" stroke-miterlimit="10"/>

</svg>
