<svg width="24" height="24" viewBox="0 0 24 24" fill="none" xmlns="http://www.w3.org/2000/svg">
<path fill-rule="evenodd" clip-rule="evenodd" d="M0 24V0H24V24H0ZM2 22H22V2H2V22ZM11 17.53H13V19.51H11V17.53ZM14 8.79C13.9946 7.61978 13.0502 6.67092 11.88 6.66C10.7036 6.66 9.75 7.61363 9.75 8.79H7.62C7.62086 6.83772 8.94866 5.13588 10.8421 4.66024C12.7356 4.1846 14.71 5.0569 15.6334 6.777C16.5568 8.4971 16.1927 10.6247 14.75 11.94L13 13.41V15.53H11V12.53L13.3 10.36C13.7488 9.96207 14.0039 9.38978 14 8.79Z" fill="#333333"/>
</svg>
