<?xml version="1.0" encoding="UTF-8"?>
<svg width="534px" height="350px" viewBox="0 0 534 350" version="1.1" xmlns="http://www.w3.org/2000/svg" xmlns:xlink="http://www.w3.org/1999/xlink">
    <title>Illustration</title>
    <g id="Homepage" stroke="none" stroke-width="1" fill="none" fill-rule="evenodd">
        <g id="Homepage-/-Guides" transform="translate(-697.000000, -322.000000)">
            <g id="Illustration" transform="translate(697.000000, 322.000000)">
                <path d="M93,108 C52,144 57.7054524,189.325311 36.7597828,213.895369 C26.9424025,225.423937 15.5369165,236.42827 7.9602089,248.688007 C0.383501274,260.947745 -3.12765592,275.014713 3.50196325,287.531969 C10.0796081,299.948057 25.7469921,309.255525 42.7137352,315.80846 C77.1842899,329.121266 117.78782,332.928866 157.409612,335.085586 C245.090368,339.863481 333.233118,337.794133 421.144871,335.724785 C453.680825,334.956827 486.355376,334.179672 518.360036,330.174334 C536.13527,327.948635 503.538744,206.222166 496.5,181 C489.461256,155.777834 517.788969,41.0132454 429,7.5 C340.211031,-26.0132454 134,72 93,108 Z" id="BG" fill="#B4BABE" fill-rule="nonzero" opacity="0.1"></path>
                <g id="Personnage" transform="translate(225.000000, 29.000000)">
                    <path d="M173.595506,141.076905 L148.853347,166.561974 C148.853347,166.561974 101.072335,178.81424 113.018549,161.6593 C119.785635,151.94229 118.88592,137.194518 116.832725,126.231963 C115.914309,121.26068 114.638544,116.385463 113.018549,111.656447 C113.018549,111.656447 174.460616,69.0385227 165.928705,101.387334 C163.398737,110.980673 163.045003,118.378852 163.794765,124.032385 C165.586505,137.44186 173.595506,141.076905 173.595506,141.076905 Z" id="Path" fill="#F8BD95" fill-rule="nonzero"></path>
                    <path d="M105.893258,248.002882 L190.087079,240.16994 L169.5,138 C163.5,150.666667 153.333333,157.333333 139,158 C124.666667,158.666667 113.666667,152 106,138 L105.893258,248.002882 Z" id="Path" fill="#F9F9FB" fill-rule="nonzero"></path>
                    <path d="M163.5,124 C163.5,123.333333 167.248531,125.536366 174.745593,130.609099 C174.745593,130.609099 186.727636,139.464189 230.371275,146.331311 C230.371275,146.331311 236.788436,146.331311 241.069115,169.912414 L295.830948,253.916221 C295.830948,253.916221 322.359586,276.496699 300.111627,299.112598 L247.844003,304.819885 C247.844003,304.819885 245.8645,296.093408 247.844003,287.904899 C249.606979,280.612084 256.743886,273.785173 236.5879,273.322149 L246.108048,264.050432 C246.108048,264.050432 239.124846,252.432063 236.560295,244.099424 C233.995744,235.766784 206.006115,226.407885 206.006115,226.407885 L208.574523,297.146768 L170.02142,304.01389 L164.468108,172.382984 C164.200842,166.174573 164.650531,159.979631 165.39366,153.818289 C166.502176,144.627499 165.341503,132.866012 164,127.5 C163.5,125.5 163.5,124.5 163.5,124 Z" id="Path" fill="#434F57" fill-rule="nonzero"></path>
                    <path d="M117.176966,129.597983 L62.7252463,146.271554 C62.7252463,146.271554 54.650335,140.375415 44.8746358,186.583247 L10.4490057,258.34692 C10.4490057,258.34692 -9.54291199,280.939188 5.77950046,300.093887 C21.1019129,319.248586 52.1150703,309.157061 52.1150703,309.157061 C52.1150703,309.157061 49.9740378,296.741158 51.2470928,284.435159 C51.9177639,277.952109 49.7984937,280.631195 53.8510254,277.929395 C54.7623638,277.321811 54.6853494,268.08668 56.8889467,267.520173 L65.1347332,236.726225 L116.725258,260.774481 L116.742978,175.138329 C116.742978,173.981748 116.784315,170.330936 116.866991,164.185893 C116.991004,154.968328 119.181559,142.230444 117.610955,131.332853 L117.176966,129.597983 Z" id="Path" fill="#434F57" fill-rule="nonzero"></path>
                    <path d="M112.8266,289.213242 L112.523776,288.027362 C111.957022,285.792328 110.023392,284.176741 107.734151,284.020484 L80.6633262,282.184463 L61.8270996,274.491591 L72.3426037,261.31298 C74.0845379,259.130961 73.8400559,255.963965 71.7841846,254.074928 L52.1150703,270.989914 C49.9397362,272.675258 48.2296305,274.645555 46.9072052,277.06196 C44.6633653,285.471101 45.4282044,294.399966 49.0695022,302.304992 L52.1839517,309.066264 L52.1839517,309.066264 L74.031752,311.153412 C78.9602869,311.624973 83.933273,311.125509 88.6728899,309.688502 L100.274672,306.164346 C102.241641,305.567221 103.269576,303.393573 102.486123,301.482214 L110.751281,299.88895 C112.293185,299.590387 113.460031,298.312427 113.626723,296.741485 L113.765633,295.402139 L114.271266,295.402139 C115.896516,295.402139 117.213385,294.079534 117.213385,292.447206 C117.213385,291.001827 116.174336,289.771303 114.754674,289.534127 L112.8266,289.213242 Z" id="Fill-1397" fill="#FCD7B8"></path>
                    <path d="M253.43896,284.876066 L253.136135,283.690186 C252.569382,281.455152 250.635751,279.839565 248.346511,279.683308 L221.275686,277.847287 L202.439459,270.154416 L212.954963,256.975804 C214.696897,254.793785 214.452415,251.626789 212.396544,249.737752 L192.72743,266.652738 C190.552096,268.338082 188.84199,270.30838 187.519565,272.724784 C185.275725,281.133926 186.040564,290.062791 189.681862,297.967816 L192.796311,304.729088 L192.796311,304.729088 L214.644112,306.816236 C219.572646,307.287798 224.545633,306.788333 229.285249,305.351326 L240.887032,301.82717 C242.854,301.230045 243.881936,299.056397 243.098482,297.145038 L251.363641,295.551774 C252.905544,295.253211 254.07239,293.975251 254.239082,292.40431 L254.377993,291.064963 L254.883626,291.064963 C256.508876,291.064963 257.825744,289.742358 257.825744,288.11003 C257.825744,286.664652 256.786696,285.434127 255.367033,285.196951 L253.43896,284.876066 Z" id="Fill-1397" fill="#FCD7B8" transform="translate(220.936700, 278.363112) scale(-1, 1) translate(-220.936700, -278.363112) "></path>
                    <g id="Livre" transform="translate(48.606742, 175.138329)" fill-rule="nonzero">
                        <path d="M13.0196629,1.73487032 L13.0196629,5.22787025 L94.6095506,21.685879 C94.6095506,21.685879 53.0725564,6.22137474 13.0196629,1.73487032 Z" id="Path" fill="#EBEDEF"></path>
                        <path d="M182.275281,-2.27373675e-13 L182.275281,3.45143956 L94.6095506,21.685879 C94.6095506,21.685879 142.375167,4.43756515 182.275281,-2.27373675e-13 Z" id="Path" fill="#EBEDEF"></path>
                        <polygon id="Path" fill="#FFFFFF" points="11.1374098 3.46974063 5.20786517 7.86775914 94.6095506 30.3602305 94.6095506 21.5597867"></polygon>
                        <polygon id="Path" fill="#FFFFFF" points="183.338588 1.73487032 189.219101 6.17880736 94.6095506 30.3602305 94.6095506 21.4768048"></polygon>
                        <polygon id="Path" fill="#F0B13D" points="0 3.46974063 82.6332339 22.5953046 88.5337079 142.259366 16.2296282 119.699422"></polygon>
                        <polygon id="Path" fill="#F0B13D" points="192.691011 3.46974063 105.025281 23.6142568 109.920366 143.994236 191.221161 118.934263"></polygon>
                        <path d="M78.9859551,22.5533141 C78.9859551,22.5533141 93.6061917,31.4072563 108.97676,22.5533141 L111.969101,144.861671 L87.9629781,144.861671 L78.9859551,22.5533141 Z" id="Path" fill="#EC9A03"></path>
                    </g>
                    <path d="M112.8266,289.213242 L112.523776,288.027362 C111.957022,285.792328 110.023392,284.176741 107.734151,284.020484 L80.6633262,282.184463 L61.8270996,274.491591 L56.454958,274.459654 C54.2796238,276.144999 55.6074395,278.115296 54.2850141,280.5317 L52.9830479,287.904899 L52.9830479,290.073487 L52.1839517,309.066264 L74.031752,311.153412 C78.9602869,311.624973 83.933273,311.125509 88.6728899,309.688502 L100.274672,306.164346 C102.241641,305.567221 103.269576,303.393573 102.486123,301.482214 L110.751281,299.88895 C112.293185,299.590387 113.460031,298.312427 113.626723,296.741485 L113.765633,295.402139 L114.271266,295.402139 C115.896516,295.402139 117.213385,294.079534 117.213385,292.447206 C117.213385,291.001827 116.174336,289.771303 114.754674,289.534127 L112.8266,289.213242 Z" id="Fill-1397-Copy" fill="#FCD7B8"></path>
                    <path d="M244.690303,285.309784 L244.387479,284.123904 C243.820725,281.888869 241.887095,280.273283 239.597854,280.117026 L212.527029,278.281005 L193.690802,270.588133 L188.318661,270.556196 C186.143327,272.24154 187.471142,274.211838 186.148717,276.628242 L184.846751,284.001441 L184.846751,286.170029 L184.047655,305.162805 L205.895455,307.249954 C210.82399,307.721515 215.796976,307.222051 220.536593,305.785043 L232.138375,302.260888 C234.105344,301.663763 235.133279,299.490115 234.349826,297.578756 L242.614984,295.985491 C244.156888,295.686929 245.323734,294.408969 245.490426,292.838027 L245.629336,291.498681 L246.134969,291.498681 C247.760219,291.498681 249.077088,290.176076 249.077088,288.543747 C249.077088,287.098369 248.038039,285.867845 246.618377,285.630669 L244.690303,285.309784 Z" id="Fill-1397-Copy" fill="#FCD7B8" transform="translate(216.562371, 288.989193) scale(-1, 1) translate(-216.562371, -288.989193) "></path>
                    <path d="M151.548388,126.368876 C149.184553,127.81918 143.513716,132.440922 137.006207,132.440922 C130.498697,132.440922 124.550487,130.304647 122.5,129 C121.608878,128.433013 122.338188,127.087987 121.5,126.5 C120.787605,126.000256 121.179357,127.020867 120.5,126.5 C102.412655,112.632338 94.8097315,89.9933319 92.5378675,74.7714064 C90.3844233,60.342917 94.9434839,47.0070509 102.99679,37.0703324 C111.624536,26.4248325 124.262791,19.6806939 136.954337,19.6746534 C148.752639,19.6261976 160.079248,25.4131883 168.423632,35.7529448 C176.768016,46.0927013 181.440907,60.1311336 181.406752,74.7566376 C176.189306,100.779539 168.514266,115.959654 151.548388,126.368876 Z" id="Path" fill="#FCD7B8" fill-rule="nonzero"></path>
                    <ellipse id="Oval" fill="#FCD7B8" fill-rule="nonzero" transform="translate(181.500000, 87.000000) rotate(18.000000) translate(-181.500000, -87.000000) " cx="181.5" cy="87" rx="6.5" ry="12"></ellipse>
                    <ellipse id="Oval-Copy" fill="#FCD7B8" fill-rule="nonzero" transform="translate(97.500000, 87.000000) rotate(-10.000000) translate(-97.500000, -87.000000) " cx="97.5" cy="87" rx="6.5" ry="12"></ellipse>
                    <path d="M156.5,116 C135.376108,104.101217 114.5,117.5 114.5,117.5 C111.641903,114.630987 110.141903,113.130987 110,113 C105.874471,109.19182 100.540422,98.4346498 93.9978539,80.7284908 C93.7781527,80.1339134 93.4455348,79.2244165 93,78 C93.0166778,78.7119383 92.4582235,77.2739352 92.5,78 C94.0965223,105.747116 114.409354,145.345814 137.038457,144.995685 C160.2597,144.636393 176.443379,120.930198 176.5,93 C176.367962,91.7685104 176.201295,91.2685104 176,91.5 C175.425761,92.1603754 175.156908,91.7192195 174.5,92.5 C171.701937,95.8256896 165.701937,103.659023 156.5,116 Z M136.5,128 C127.939597,128 121,125.985238 121,123.5 C121,121.014762 127.939597,119 136.5,119 C145.060403,119 152,121.014734 152,123.5 C152,125.985266 145.060403,128 136.5,128 Z" id="Shape" fill="#1C2D37" fill-rule="nonzero"></path>
                    <path d="M164.854281,26.9572359 C175.286144,26.9572359 190.580802,50.1294484 180.963725,76.0576369 C178.271354,89.1863203 176.616779,96.667108 176,98.5 C175.72198,99.3261967 176.188403,94.7175181 176,95 C175.904251,95.1435606 175.237585,94.9768939 174,94.5 C172.989286,97.0589255 172.655953,97.3922588 173,95.5 C173.516071,92.6616118 175.151343,90.8462638 176,83.5 C176.565771,78.6024908 176.600137,73.6486648 176.103097,68.6385221 C176.103097,68.6385221 175.269339,65.1465621 165,46 C160.570684,54.2264999 123.722833,65.6402224 95.359174,59.8554262 C95.359174,59.8554262 94.8085445,78.4394071 95,84.5 C95.0363265,85.649928 92.9740808,78.2924766 93,79.5 C82.403446,42.0048701 95.2227666,19.5 127.5,19.5 C151.952253,19.5 164.854281,26.9572359 164.854281,26.9572359 Z" id="Fill-651" fill="#1C2D37"></path>
                    <path d="M93.1494675,38.064681 C94.713799,33.212239 97.4179311,28.8066872 101.0347,25.2181193 C111.868637,14.4931871 129.624949,12.2287774 138.733567,0 C140.920756,3.39348071 139.228484,8.61250006 135.467971,10.0711804 C144.18317,10.0145653 154.308803,9.24954176 159.240919,2.05235524 C161.730396,7.85653537 160.658733,14.5778948 156.488259,19.316759 C164.223287,19.6684211 172.476404,24.9263895 172.976365,32.6657512 C173.309434,37.8217691 170.081739,42.7034648 165.851581,45.66041 C161.621424,48.6173551 156.503513,49.9747929 151.466057,51.0872468 C136.761262,54.3345939 83.5541189,67.9454971 93.1494675,38.064681 Z" id="Path" fill="#1C2D37" fill-rule="nonzero"></path>
                </g>
                <g id="Livre" transform="translate(74.000000, 311.000000)">
                    <path d="M114,6.82204913 L114,2.44817256 C114,1.09646495 112.895863,0 111.533491,0 L9.33749682,0 C4.18003218,0 0,4.15098862 0,9.27022169 L0,16.72858 C0,21.8490114 4.18003218,26 9.33749682,26 L111.533491,26 C112.895863,26 114,24.9035351 114,23.5506291 L114,19.1779509 C114,17.8250449 112.895863,16.72858 111.533491,16.72858 L13.0915615,16.72858 C11.0184393,16.72858 9.33749682,15.059317 9.33749682,12.9994008 C9.33749682,10.940683 11.0184393,9.27022169 13.0915615,9.27022169 L111.533491,9.27022169 C112.895863,9.27022169 114,8.17375674 114,6.82204913" id="Fill-402" fill="#434F57"></path>
                    <path d="M111,9 L111,17 L13.4122823,17 C10.9750351,17 9,15.2095116 9,13 C9,10.7904884 10.9750351,9 13.4122823,9 L111,9 Z" id="Fill-407" fill="#F9F9FB"></path>
                </g>
                <g id="Livre" transform="translate(73.000000, 232.000000)">
                    <path d="M114,6.82324745 L114,2.44937088 C114,1.09646495 112.895852,0 111.533465,0 L9.33638894,0 C4.18007643,0 0,4.15098862 0,9.27142001 L0,16.7297783 C0,21.8502097 4.18007643,26 9.33638894,26 L111.533465,26 C112.895852,26 114,24.9047334 114,23.5518274 L114,19.1779509 C114,17.8262433 112.895852,16.7297783 111.533465,16.7297783 L13.0917001,16.7297783 C11.0173492,16.7297783 9.33638894,15.0605153 9.33638894,13.0005992 C9.33638894,10.9418814 11.0173492,9.27142001 13.0917001,9.27142001 L111.533465,9.27142001 C112.895852,9.27142001 114,8.17495506 114,6.82324745" id="Fill-403" fill="#04AF6E"></path>
                    <path d="M111,9 L111,17 L13.4108645,17 C10.9736173,17 9,15.2092238 9,12.9993572 C9,10.7907762 10.9736173,9 13.4108645,9 L111,9 Z" id="Fill-408" fill="#F9F9FB"></path>
                </g>
                <g id="Livre" transform="translate(81.000000, 285.000000)">
                    <path d="M99,6.82204913 L99,2.44817256 C99,1.09526663 97.9002671,0 96.5433289,0 L9.29905305,0 C4.16456234,0 0,4.15098862 0,9.27022169 L0,16.72858 C0,21.8490114 4.16456234,26 9.29905305,26 L96.5433289,26 C97.9002671,26 99,24.9035351 99,23.5506291 L99,19.1767525 C99,17.8250449 97.9002671,16.72858 96.5433289,16.72858 L13.0393468,16.72858 C10.9744931,16.72858 9.29905305,15.059317 9.29905305,12.9994008 C9.29905305,10.940683 10.9744931,9.27022169 13.0393468,9.27022169 L96.5433289,9.27022169 C97.9002671,9.27022169 99,8.17375674 99,6.82204913" id="Fill-404" fill="#D6DBDE"></path>
                    <path d="M96,9 L96,17 L12.7622079,17 C10.6845888,17 9,15.2092238 9,13.0006428 C9,10.7907762 10.6845888,9 12.7622079,9 L96,9 Z" id="Fill-406" fill="#F9F9FB"></path>
                </g>
                <g id="Livre" transform="translate(96.000000, 207.000000)">
                    <path d="M99,6.82204913 L99,2.44817256 C99,1.09646495 97.9002537,0 96.5432991,0 L9.29796404,0 C4.16341099,0 0,4.15098862 0,9.27022169 L0,16.72858 C0,21.8490114 4.16341099,26 9.29796404,26 L96.5432991,26 C97.9002537,26 99,24.9035351 99,23.5506291 L99,19.1779509 C99,17.8250449 97.9002537,16.72858 96.5432991,16.72858 L13.0383032,16.72858 C10.9734245,16.72858 9.29796404,15.059317 9.29796404,12.9994008 C9.29796404,10.940683 10.9734245,9.27022169 13.0383032,9.27022169 L96.5432991,9.27022169 C97.9002537,9.27022169 99,8.17495506 99,6.82204913" id="Fill-405" fill="#777E83"></path>
                    <path d="M96,9 L96,17 L12.7634172,17 C10.6845888,17 9,15.2095116 9,13 C9,10.7917738 10.6845888,9 12.7634172,9 L96,9 Z" id="Fill-409" fill="#F9F9FB"></path>
                </g>
                <g id="Livre" transform="translate(96.000000, 259.000000)">
                    <path d="M99,6.82293299 L99,2.449258 C99,1.09641442 97.9002537,0 96.5432991,0 L9.29796404,0 C4.16341099,0 0,4.15199558 0,9.27099272 L0,16.7290073 C0,21.8492027 4.16341099,26 9.29796404,26 L96.5432991,26 C97.9002537,26 99,24.9035856 99,23.550742 L99,19.177067 C99,17.8254217 97.9002537,16.7290073 96.5432991,16.7290073 L13.0383032,16.7290073 C10.9734245,16.7290073 9.29796404,15.0598212 9.29796404,13 C9.29796404,10.9413771 10.9734245,9.27099272 13.0383032,9.27099272 L96.5432991,9.27099272 C97.9002537,9.27099272 99,8.1745783 99,6.82293299" id="Fill-410" fill="#F0B13D"></path>
                    <path d="M96,9 L96,17 L12.7634172,17 C10.6845888,17 9,15.2092238 9,12.9993572 C9,10.7907762 10.6845888,9 12.7634172,9 L96,9 Z" id="Fill-411" fill="#F9F9FB"></path>
                </g>
                <g id="Bâtiments" transform="translate(114.000000, 148.000000)" fill-rule="nonzero">
                    <polygon id="Path" fill="#017F4F" points="0 36.8563095 9.11807053 26 27.0447715 26 38 36.6681104 37.7787026 36.810368 37.8577086 36.810368 37.8577086 59 0.0124958453 59 0.0124958453 36.810368"></polygon>
                    <rect id="Rectangle" fill="#017F4F" transform="translate(7.000000, 28.500000) rotate(-180.000000) translate(-7.000000, -28.500000) " x="6" y="25" width="2" height="7"></rect>
                    <polygon id="Path" fill="#04AF6E" points="8.87331156 26 20 39.1177939 20 59 0 59 0 36.6223193"></polygon>
                    <rect id="Rectangle" fill="#3F3D56" x="14" y="42" width="4" height="4"></rect>
                    <rect id="Rectangle" fill="#3F3D56" x="14" y="47" width="4" height="4"></rect>
                    <rect id="Rectangle" fill="#FFFFFF" x="14" y="42" width="4" height="4"></rect>
                    <rect id="Rectangle" fill="#FFFFFF" x="14" y="47" width="4" height="4"></rect>
                    <rect id="Rectangle" fill="#3F3D56" x="8" y="42" width="4" height="4"></rect>
                    <rect id="Rectangle" fill="#3F3D56" x="8" y="47" width="4" height="4"></rect>
                    <rect id="Rectangle" fill="#FFFFFF" x="8" y="42" width="4" height="4"></rect>
                    <rect id="Rectangle" fill="#FFFFFF" x="8" y="47" width="4" height="4"></rect>
                    <rect id="Rectangle" fill="#3F3D56" x="2" y="42" width="4" height="4"></rect>
                    <rect id="Rectangle" fill="#3F3D56" x="2" y="47" width="4" height="4"></rect>
                    <rect id="Rectangle" fill="#FFFFFF" x="2" y="42" width="4" height="4"></rect>
                    <rect id="Rectangle" fill="#FFFFFF" x="2" y="47" width="4" height="4"></rect>
                    <rect id="Rectangle" fill="#04AF6E" x="45" y="0" width="2" height="5"></rect>
                    <rect id="Rectangle" fill="#04AF6E" x="31" y="5" width="16" height="54"></rect>
                    <rect id="Rectangle" fill="#017F4F" x="47" y="5" width="6" height="54"></rect>
                    <rect id="Rectangle" fill="#FFFFFF" x="34" y="9" width="2" height="2"></rect>
                    <rect id="Rectangle" fill="#FFFFFF" x="38" y="9" width="2" height="2"></rect>
                    <rect id="Rectangle" fill="#FFFFFF" x="42" y="9" width="2" height="2"></rect>
                    <rect id="Rectangle" fill="#FFFFFF" x="34" y="15" width="2" height="2"></rect>
                    <rect id="Rectangle" fill="#FFFFFF" x="38" y="15" width="2" height="2"></rect>
                    <rect id="Rectangle" fill="#FFFFFF" x="42" y="15" width="2" height="2"></rect>
                    <rect id="Rectangle" fill="#FFFFFF" x="34" y="20" width="2" height="2"></rect>
                    <rect id="Rectangle" fill="#FFFFFF" x="38" y="20" width="2" height="2"></rect>
                    <rect id="Rectangle" fill="#FFFFFF" x="42" y="20" width="2" height="2"></rect>
                    <rect id="Rectangle" fill="#FFFFFF" x="34" y="26" width="2" height="2"></rect>
                    <rect id="Rectangle" fill="#FFFFFF" x="38" y="26" width="2" height="2"></rect>
                    <rect id="Rectangle" fill="#FFFFFF" x="42" y="26" width="2" height="2"></rect>
                    <rect id="Rectangle" fill="#FFFFFF" x="34" y="31" width="2" height="2"></rect>
                    <rect id="Rectangle" fill="#FFFFFF" x="38" y="31" width="2" height="2"></rect>
                    <rect id="Rectangle" fill="#FFFFFF" x="42" y="31" width="2" height="2"></rect>
                    <rect id="Rectangle" fill="#FFFFFF" x="34" y="37" width="2" height="2"></rect>
                    <rect id="Rectangle" fill="#FFFFFF" x="38" y="37" width="2" height="2"></rect>
                    <rect id="Rectangle" fill="#FFFFFF" x="42" y="37" width="2" height="2"></rect>
                    <rect id="Rectangle" fill="#FFFFFF" x="34" y="42" width="2" height="2"></rect>
                    <rect id="Rectangle" fill="#FFFFFF" x="38" y="42" width="2" height="2"></rect>
                    <rect id="Rectangle" fill="#FFFFFF" x="42" y="42" width="2" height="2"></rect>
                    <rect id="Rectangle" fill="#FFFFFF" x="34" y="48" width="2" height="2"></rect>
                    <rect id="Rectangle" fill="#FFFFFF" x="38" y="48" width="2" height="2"></rect>
                    <rect id="Rectangle" fill="#FFFFFF" x="38" y="54" width="2" height="5"></rect>
                    <rect id="Rectangle" fill="#FFFFFF" x="42" y="48" width="2" height="2"></rect>
                    <rect id="Rectangle" fill="#017F4F" x="47" y="0" width="1" height="5"></rect>
                    <rect id="Rectangle" fill="#04AF6E" x="66" y="24" width="2" height="3"></rect>
                    <rect id="Rectangle" fill="#04AF6E" x="52" y="26" width="16" height="33"></rect>
                    <rect id="Rectangle" fill="#017F4F" x="68" y="26" width="6" height="33"></rect>
                    <rect id="Rectangle" fill="#FFFFFF" x="55" y="31" width="2" height="2"></rect>
                    <rect id="Rectangle" fill="#FFFFFF" x="59" y="31" width="2" height="2"></rect>
                    <rect id="Rectangle" fill="#FFFFFF" x="63" y="31" width="2" height="2"></rect>
                    <rect id="Rectangle" fill="#FFFFFF" x="55" y="37" width="2" height="2"></rect>
                    <rect id="Rectangle" fill="#FFFFFF" x="59" y="37" width="2" height="2"></rect>
                    <rect id="Rectangle" fill="#FFFFFF" x="63" y="37" width="2" height="2"></rect>
                    <rect id="Rectangle" fill="#FFFFFF" x="55" y="42" width="2" height="2"></rect>
                    <rect id="Rectangle" fill="#FFFFFF" x="59" y="42" width="2" height="2"></rect>
                    <rect id="Rectangle" fill="#FFFFFF" x="63" y="42" width="2" height="2"></rect>
                    <rect id="Rectangle" fill="#FFFFFF" x="55" y="48" width="2" height="2"></rect>
                    <rect id="Rectangle" fill="#FFFFFF" x="59" y="48" width="2" height="2"></rect>
                    <rect id="Rectangle" fill="#FFFFFF" x="59" y="54" width="2" height="5"></rect>
                    <rect id="Rectangle" fill="#FFFFFF" x="63" y="48" width="2" height="2"></rect>
                    <rect id="Rectangle" fill="#017F4F" x="68" y="24" width="1" height="3"></rect>
                </g>
            </g>
        </g>
    </g>
</svg>