<?xml version="1.0" encoding="UTF-8"?>
<svg width="567px" height="348px" viewBox="0 0 567 348" version="1.1" xmlns="http://www.w3.org/2000/svg" xmlns:xlink="http://www.w3.org/1999/xlink">
    <title>Illustration</title>
    <g id="Homepage" stroke="none" stroke-width="1" fill="none" fill-rule="evenodd">
        <g id="Homepage-/-Calculateur" transform="translate(-693.000000, -312.000000)">
            <g id="Illustration" transform="translate(693.000000, 312.000000)">
                <g id="Personnage" transform="translate(0.000000, 44.000000)">
                    <ellipse id="Oval" fill="#F1F2F2" cx="50.5" cy="220.5" rx="50.5" ry="15.5"></ellipse>
                    <path d="M41.2078761,32.6998487 C41.9977264,32.9272694 42.7554519,33.0577334 43.4489279,33.0577334 C47.3242219,33.0577334 50.4079283,26.6910882 51.5,18 C51.728664,16.180212 51.9678378,14.4987823 52,12.4856363 C50.7450389,12.1961917 38.7310739,8.25375659 38.7310739,5 C35.9697405,9.66319497 30.3506995,6.42583549 27.9368549,14.6095609 C27.8977465,14.6052834 27.8586381,14.6017188 27.8174346,14.6017188 C24.8326246,14.6017188 24.6238136,23.0775979 29.647848,23.5673723 C29.722573,23.8161806 29.7986948,24.0521564 29.8755149,24.2738738 L29.8755149,33.546082 L21,37.8171722 L21,49 L50.4940293,49 L50.4940293,37.7109475 L41.2085745,33.4377185 L41.2078761,32.6998487 Z" id="Fill-151" fill="#EA9057"></path>
                    <path d="M31.4182991,3.98880583 C28.5569903,3.98880583 24.1746826,9.82288176 26.8131017,16.3045255 L26.8261779,16.3197702 L28.3335063,18 L28.3335063,14.4102073 C28.3335063,14.4102073 29.7641607,14.5593401 32.5808915,9.77317082 C33.796383,11.8292153 43.4911913,15.058438 51.2709317,13.612181 C51.2709317,13.612181 51.5445779,16.1076702 51.5,18 C54.4058867,8.62584232 48.3198727,0 39.4666958,0 C32.7597976,0 31.4182991,3.98880583 31.4182991,3.98880583 Z" id="Fill-121" fill="#1C2D37"></path>
                    <path d="M50,49 L50,38.0388675 L40.7618211,33.8897657 L40.7618211,33.1733292 C38.1495361,32.4388952 35.1808411,30.6599176 33,29 L50,49 Z" id="Fill-152" fill="#BC7142"></path>
                    <path d="M63,207.730769 C63.513955,210.57211 63.8772564,212.418264 64.0899045,213.269231 C64.3025525,214.120198 64.5447535,214.697121 64.8165075,215 L72.8091402,213.269231 C73.0636199,212.964024 73.0636199,212.387101 72.8091402,211.538462 C72.5546606,210.689822 71.8280576,208.843668 70.6293313,206 L63,207.730769 Z" id="Fill-159" fill="#EA9057"></path>
                    <polygon id="Fill-160" fill="#EA9057" points="22 208.125 21 216 29 216 29 207"></polygon>
                    <path d="M21.4163546,87 L16.6832278,107.205811 C15.3159891,113.040565 14.7770826,119.04134 15.0833272,125.029398 L19.4751699,211 L31.6394599,211 L36.8330048,121.77892 L62.5393528,208.947204 L72,206.827787 L53.457114,87 L21.4163546,87 Z" id="Fill-163" fill="#434F57"></path>
                    <path d="M8.5,60 C7.16666667,62.6666667 6.66666667,67 7,73 L14.2727273,66.1886792 L19,54 C13.3333333,55.3333333 9.83333333,57.3333333 8.5,60 Z" id="Path" fill="#1C2D37"></path>
                    <path d="M58.3127053,44.5769392 C56.7796187,41.5009562 54.2350184,39.0508959 51.1090965,37.6430991 C44.1604748,34.3326009 40.686164,32.7923748 40.686164,33.0224208 C40.686164,33.3674898 40.3346999,35.1394084 39.6317716,35.8450709 C38.9288434,36.5507335 38.5910505,37.256396 36.1171304,37.256396 C33.3054173,37.256396 32.2510249,36.5507335 30.8451684,35.1394084 C29.4393119,33.7280833 29.4393119,33.0224208 29.4393119,33.0224208 L18.1206733,38.3198295 C14.6390696,39.939325 12.0761932,43.0555308 11.1497337,46.7934253 L9.75732065,53.1338032 C8.5,58.5 9,56.5 8,61 C7,65.5 19.9110316,71.7611773 19.9110316,71.7611773 L16.4351391,105 L56.5020499,105 L54.7447292,83.4772925 L61,49.9710237 L58.3127053,44.5769392 Z" id="Fill-165" fill="#1C2D37"></path>
                    <path d="M40.1917539,90.9991632 L64.5475458,90.0568286 C65.8268063,90.0071948 66.9343912,89.1293843 67.3019709,87.8729383 L77.9507075,51.5132907 C78.1770701,50.7411295 77.5942036,49.9703864 76.8078183,50.0008758 L52.1765147,50.9538461 C51.0620074,50.9963894 50.0977163,51.7614601 49.7765167,52.8562415 L39.049557,89.4860391 C38.8225021,90.2589094 39.4053687,91.0289435 40.1917539,90.9991632" id="Fill-170" fill="#434F57"></path>
                    <path d="M72.4783481,65 L66.1578294,65.4167805 C65.6910417,65.4481281 65.329014,65.8378357 65.3340026,66.3059123 L64.7054427,66.3443844 C64.2970926,66.3700324 63.9649963,66.6842208 63.9165359,67.0903146 L63.8395694,67.7471892 L63.8360062,67.7471892 C63.3685059,67.7536012 62.9943631,68.1368968 63,68.6049734 C63.0043402,68.9483721 63.2152855,69.2547236 63.5338413,69.3815389 L64.9498827,69.9429458 C64.9470321,70.6639405 65.3653593,71.3208151 66.0195747,71.6228919 L70.4180685,73.6554985 C71.0573182,73.9511633 71.7671205,74.059455 72.4648077,73.9689744 C74.034782,73.765215 75.3047295,72.5946673 75.6354005,71.0479485 L75.9083465,69.7683967 C76.2033848,68.3905274 75.7757931,66.9570874 74.7745158,65.964651 C74.1623469,65.35836 73.3399454,65.012824 72.4783481,65" id="Fill-172" fill="#EA9057"></path>
                    <path d="M41.1187581,41.5459169 L45.6442907,51.6711125 C45.8991976,52.2425195 46.2729614,52.7598652 46.7326909,53.1793533 L47.5377782,53.9143127 C47.7246602,54.0847083 47.9855473,53.9868506 47.9877899,53.7452857 L47.9997503,52.7051197 C48.0064781,52.1104458 47.8771558,51.5020855 47.6215013,50.9306785 L43.0967164,40.8054829 C42.8208786,40.1889108 42.155579,39.855647 41.6083888,40.0602587 C41.0626936,40.264186 40.843668,40.9300291 41.1187581,41.5459169" id="Fill-173" fill="#FFFFFF"></path>
                    <path d="M45.5618121,43.1064688 C45.2604472,42.6853275 44.7954039,42.4157685 44.2846993,42.3685777 L40.3704679,42.0082124 C39.8372838,41.9588766 39.3069097,42.1333392 38.9036848,42.4908446 L36.8643787,44.2948165 C36.5700386,44.5550804 36.3199549,44.86325 36.1239623,45.2064551 L33.6217204,49.2476955 L9.89819049,68.7567619 C7.55751945,70.6815707 7.35028717,74.2380338 9.45070926,76.4309716 C11.5398916,78.6110391 15.0428843,77.3037644 17,75 C18.3047438,73.4641571 24.9735038,66.0028607 37.0062801,52.6161108 L41.2190665,49.9791514 L44.3296581,50.0885481 C45.0518099,50.1135734 45.6889614,49.6087759 45.8421025,48.8894752 L46.0128057,48.6835521 C46.3071458,48.3281918 46.4265678,47.8555697 46.3359476,47.4001079 L46.1582196,46.5063446 L47.1634717,47.1677294 C47.3102905,47.2635409 47.4936384,47.2821311 47.6559118,47.2170652 C47.9860785,47.0855032 48.104798,46.671512 47.8961608,46.3797877 L45.5618121,43.1064688 Z" id="Fill-174" fill="#EA9057"></path>
                    <path d="M32.616173,50 L8.89777951,68.9986114 C6.55761525,70.8730575 6.35042784,74.3364657 8.45039517,76.4720252 C10.5391252,78.5950513 14.0135528,78.4919985 15.9702447,76.2485122 L36.5,54 L32.616173,50 Z" id="Fill-174-Copy" fill="#1C2D37"></path>
                    <polygon id="Fill-175" fill="#0B1115" points="20.3094648 72.0575219 29 62 20 77"></polygon>
                    <path d="M18,218.640239 C18,216.781015 19.5697462,213.893115 20.3023656,212.975395 C22.6374124,211.111622 29.3509624,212.336843 29.5972753,213.210766 C29.6563904,213.433705 31,216.033388 31,218.640239 C31,221.24709 29.140437,223 24.2633617,223 C19.3862864,223 18,220.499463 18,218.640239 Z" id="Path" fill="#434F57" fill-rule="nonzero"></path>
                    <path d="M83.6560706,217.513884 C81.1294562,217.513884 72.5382613,218.631158 70.5084048,218.845451 C68.4785483,219.059744 66.1867552,219.043121 64.9071562,218.845451 C62.7469078,218.511741 61.7826298,216.457986 62.0409729,215.462685 C62.299316,214.467385 65.8963151,212.738492 69.0564563,211.467324 C72.2165975,210.196157 74.39633,209 74.39633,209 C74.39633,209 77.5839577,209.238095 83.9592131,209.714286 C85.4415278,214.914018 85.3404803,217.513884 83.6560706,217.513884 Z" id="Path" fill="#434F57" fill-rule="nonzero" transform="translate(73.500000, 214.000000) scale(-1, 1) translate(-73.500000, -214.000000) "></path>
                </g>
                <g id="Pointillés" transform="translate(158.000000, 162.883825)" stroke="#D6DBDE" stroke-dasharray="10">
                    <line x1="2.99887922" y1="64.6885442" x2="210.919644" y2="143.024769" id="Path-2" transform="translate(106.959262, 103.856656) rotate(4.531630) translate(-106.959262, -103.856656) "></line>
                    <line x1="138.566575" y1="8.25068001" x2="345.433425" y2="85.9816697" id="Path-2-Copy" transform="translate(242.000000, 47.116175) rotate(4.579628) translate(-242.000000, -47.116175) "></line>
                    <line x1="222.514307" y1="86.9908025" x2="279.202898" y2="126.853137" id="Path-2-Copy-2" transform="translate(250.858603, 106.921970) rotate(-10.105936) translate(-250.858603, -106.921970) "></line>
                    <line x1="211.244333" y1="152.05367" x2="341.516205" y2="95.4750881" id="Path-5" transform="translate(276.380269, 123.764379) rotate(0.999999) translate(-276.380269, -123.764379) "></line>
                    <line x1="78.6809428" y1="88.9028336" x2="210.319057" y2="29.8295161" id="Path-5-Copy-3" transform="translate(144.500000, 59.366175) rotate(2.403877) translate(-144.500000, -59.366175) "></line>
                    <line x1="85.4603313" y1="27.8274817" x2="135.539669" y2="65.404868" id="Path-2-Copy-2" transform="translate(110.500000, 46.616175) rotate(-12.317939) translate(-110.500000, -46.616175) "></line>
                    <line x1="225.257519" y1="90.0976691" x2="282.079015" y2="65.5899112" id="Path-5-Copy-2" transform="translate(253.668267, 77.843790) rotate(1.054218) translate(-253.668267, -77.843790) "></line>
                    <line x1="6.38009875" y1="48.5910172" x2="140.619901" y2="5.64133246" id="Path-5-Copy" transform="translate(73.500000, 27.116175) rotate(-3.908492) translate(-73.500000, -27.116175) "></line>
                </g>
                <g id="Blocs" transform="translate(179.000000, 91.000000)">
                    <g id="Bloc-gris" transform="translate(68.000000, 0.000000)">
                        <polygon id="5-gris" fill="#777E83" points="53.5 79 53.5 0 0.5 21.5 0.5 100.5"></polygon>
                        <polygon id="4-gris" fill="#B4BABE" points="53.5 0 53.5 79 106.5 103.5 106.5 24.5"></polygon>
                        <polygon id="1-gris" fill="#B4BABE" points="0.5 21.5 0.5 100.5 53.5 125 53.5 46"></polygon>
                        <polygon id="2-gris" fill="#777E83" points="106.5 103.5 106.5 24.5 53.5 46 53.5 125"></polygon>
                        <polygon id="Top-gris" fill="#D6DBDE" points="53.5 46 0.5 21.5 53.5 0 106.5 24.5"></polygon>
                    </g>
                    <g id="Bloc-bleu" transform="translate(0.000000, 28.000000)">
                        <polygon id="5-bleu" fill="#117BAD" points="53.5 79 53.5 0 0.5 21.5 0.5 100.5"></polygon>
                        <polygon id="4-bleu" fill="#1997D2" points="53.5 0 53.5 79 106.5 103.5 106.5 24.5"></polygon>
                        <polygon id="1-bleu" fill="#1997D2" points="0.5 21.5 0.5 100.5 53.5 125 53.5 46"></polygon>
                        <polygon id="2-bleu" fill="#117BAD" points="106.5 103.5 106.5 24.5 53.5 46 53.5 125"></polygon>
                        <polygon id="Top-bleu" fill="#65B9E0" points="53.5 46 0.5 21.5 53.5 0 106.5 24.5"></polygon>
                    </g>
                    <g id="Blocs-orange-+-vert" transform="translate(70.000000, 30.000000)">
                        <polygon id="6-orange" fill="#EC9A03" points="118 80.5 118 0 0 50 0 132"></polygon>
                        <polygon id="5-orange" fill="#F0B13D" points="118 0 118 74 178 103 178 28"></polygon>
                        <polygon id="1-orange" fill="#EC9A03" points="118 53 118 131 178 103 178 28"></polygon>
                        <polygon id="2-orange" fill="#F0B13D" points="0 49.5 0 132 118 186.5 118 103.5"></polygon>
                        <g id="Bloc-vert" transform="translate(144.000000, 32.000000)">
                            <polygon id="5-vert" fill="#83A60A" points="42.5 83.5 42.5 0 0 18 -1.1937118e-12 101"></polygon>
                            <polygon id="4-vert" fill="#98C00D" points="42.5 0 42.5 83.5 91 106 91 23"></polygon>
                            <polygon id="1-vert" fill="#98C00D" points="0 18 0 100.5 48.5 123.5 48.5 41"></polygon>
                            <polygon id="2-vert" fill="#83A60A" points="91 106 91 23 48.5 41 48.5 123.5"></polygon>
                            <polygon id="Top-vert" fill="#BCDB51" points="48.5 41 0 18 42.5 0 91 23"></polygon>
                        </g>
                        <polygon id="3-orange" fill="#EC9A03" points="176.5 162.5 176.5 79.5 118 103.5 118 186.5"></polygon>
                        <path d="M0,49.5 L118,0 L178,28 L119,52.5 L176.5,79.5 L118,103.5 L58,76 L0,49.5 Z" id="Top-orange" fill="#FFC65F"></path>
                    </g>
                </g>
                <g id="Open-space" transform="translate(398.000000, 60.000000)">
                    <g id="Group-7" transform="translate(58.978259, 0.000000)">
                        <g id="Communes">
                            <circle id="Oval" fill="#FFEDCC" opacity="0.868675595" cx="22" cy="22" r="22"></circle>
                            <path d="M32.0217409,23.6666667 L24.5217409,23.6666667 L24.5217409,22.8333333 L22.8550743,22.8333333 L22.8550743,21.1666667 L28.6884076,21.1666667 L28.6884076,12 L15.3550743,12 L15.3550743,21.1666667 L21.1884076,21.1666667 L21.1884076,22.8333333 L19.5217409,22.8333333 L19.5217409,23.6666667 L12.0217409,23.6666667 L12.0217409,32 L13.6884076,32 L13.6884076,27.7666667 L30.3550743,27.7666667 L30.3550743,32 L32.0217409,32 L32.0217409,27.7666667 L32.0217409,27.7666667 L32.0217409,23.6666667 Z M17.0217409,13.6666667 L27.0217409,13.6666667 L27.0217409,19.5 L17.0217409,19.5 L17.0217409,13.6666667 Z M13.6884076,25.3333333 L30.3550743,25.3333333 L30.3550743,26.1 L13.6884076,26.1 L13.6884076,25.3333333 Z" id="BG-icon" fill="#F0B13D" fill-rule="nonzero"></path>
                        </g>
                        <text id="120-m²" font-family="BradleyHandITCTT-Bold, Bradley Hand" font-size="14" font-style="expanded" font-weight="bold" fill="#EC9A03">
                            <tspan x="0.02174094" y="60">120 m²</tspan>
                        </text>
                    </g>
                    <g id="Flèche" transform="translate(26.000000, 37.601127) scale(-1, 1) rotate(-159.000000) translate(-26.000000, -37.601127) translate(3.000000, 25.601127)" fill="#D6DBDE" fill-rule="nonzero">
                        <path d="M31.9485188,23.0634363 C28.1749417,23.0634363 23.9673588,22.474144 19.8379303,20.7040517 C12.2187188,17.4369132 6.45581025,10.9137132 2.71161025,1.3161132 C2.60075311,1.03088243 2.74154168,0.710205508 3.02644454,0.598882431 C3.30968454,0.4881132 3.63283311,0.628790123 3.74424454,0.913467047 C7.37703311,10.2241747 12.938736,16.5402363 20.2752617,19.6860824 C32.140856,24.7726055 44.7026331,19.7530978 44.828456,19.7015901 C45.1105874,19.5858363 45.4353988,19.7209747 45.5517988,20.0039901 C45.6676445,20.2870055 45.5318445,20.6104517 45.2486045,20.7262055 C45.1626903,20.7622055 39.4047703,23.0634363 31.9485188,23.0634363 Z" id="Path"></path>
                        <path d="M0.554330252,9.61106705 C0.499455967,9.61106705 0.443473109,9.60275935 0.388044538,9.58559012 C0.0959359665,9.49365166 -0.0659154621,9.18294397 0.0255416808,8.89106705 L2.69941597,0.387867047 C2.75484454,0.212851662 2.89341597,0.0760516619 3.06912454,0.0234362773 C3.24372454,-0.0297329535 3.43606168,0.0090362773 3.57851311,0.124790123 L11.1755531,6.30682089 C11.4127874,6.5001132 11.4482617,6.84903628 11.2553703,7.08608243 C11.0624788,7.32368243 10.7132788,7.35968243 10.4754903,7.16583628 L3.51199882,1.49888243 L1.08311882,9.22282089 C1.00829025,9.4593132 0.789901681,9.61106705 0.554330252,9.61106705 Z" id="Path"></path>
                    </g>
                </g>
                <g id="Communes" transform="translate(248.000000, 0.000000)">
                    <g id="Group-8" transform="translate(40.000000, 0.000000)">
                        <g id="Réunion">
                            <circle id="Oval" fill="#D6DBDE" opacity="0.422549293" cx="22" cy="22" r="22"></circle>
                            <path d="M22,12 L32,18.6666667 L32,32 L12,32 L12,18.6666667 L22,12 Z M19.8333333,26.425 C18.375,26.425 17.125,28.1833333 17,30.3333333 L17,30.3333333 L22.6666667,30.3333333 C22.5416667,28.1833333 21.2916667,26.425 19.8333333,26.425 Z M25.325,28.275 C24.826121,28.3422158 24.3942197,28.6551877 24.175,29.1083333 C24.2585007,29.5121053 24.3114286,29.9216 24.3333333,30.3333333 L24.3333333,30.3333333 L26.9333333,30.2916667 C26.725,29.1083333 25.9916667,28.275 25.325,28.275 Z M22,14 L13.6666667,19.5583333 L13.6666667,30.3333333 L15.35,30.3333333 C15.4833333,27.2583333 17.4416667,24.7583333 19.8416667,24.7583333 C21.4650132,24.8529314 22.8994111,25.8467183 23.5583333,27.3333333 L23.5583333,27.3333333 L23.7276527,27.1974648 C24.1916745,26.8538967 24.7525221,26.661545 25.3333333,26.65 C26.95,26.65 28.3583333,28.25 28.6166667,30.3333333 L28.6166667,30.3333333 L30.3333333,30.3333333 L30.3333333,19.5583333 L22,14 Z M25.3333333,21.7 C26.4701194,21.7 27.3916667,22.6215472 27.3916667,23.7583333 C27.3916667,24.8951194 26.4701194,25.8166667 25.3333333,25.8166667 C24.1965472,25.8166667 23.275,24.8951194 23.275,23.7583333 C23.275,22.6215472 24.1965472,21.7 25.3333333,21.7 Z M25.3333333,22.925 C24.873096,22.925 24.5,23.298096 24.5,23.7583333 C24.5,24.2185706 24.873096,24.5916667 25.3333333,24.5916667 C25.7935706,24.5916667 26.1666667,24.2185706 26.1666667,23.7583333 C26.1666667,23.298096 25.7935706,22.925 25.3333333,22.925 Z M19.8333333,18.3583333 C20.5758712,18.3583333 21.2876382,18.6549759 21.810339,19.1823717 C22.3330399,19.7097675 22.6233362,20.4241587 22.6166667,21.1666667 C22.6028889,22.7005293 21.3507134,23.9341149 19.8168162,23.9250011 C18.2829191,23.9157857 17.0455731,22.6673259 17.050112,21.1334081 C17.0546759,19.5994903 18.2994088,18.3583952 19.8333333,18.3583333 Z M20.2782703,20.1173501 C19.8619084,19.9366069 19.3775681,20.0258743 19.0529996,20.3431764 C18.728431,20.6604785 18.6282217,21.1426737 18.7994927,21.5630208 C18.9707638,21.9833678 19.3794331,22.2582196 19.8333333,22.2583334 C20.4404187,22.2584855 20.9364086,21.7735999 20.95,21.1666667 C20.9601619,20.7128802 20.6946323,20.2980934 20.2782703,20.1173501 Z" id="BG-icon" fill="#777E83" fill-rule="nonzero"></path>
                        </g>
                        <text id="30-m²" font-family="BradleyHandITCTT-Bold, Bradley Hand" font-size="14" font-style="expanded" font-weight="bold" fill="#777E83">
                            <tspan x="3" y="60">30 m²</tspan>
                        </text>
                    </g>
                    <g id="Flèche-Copy" transform="translate(23.000000, 57.500000) scale(-1, 1) rotate(-125.000000) translate(-23.000000, -57.500000) translate(0.000000, 46.000000)" fill="#D6DBDE" fill-rule="nonzero">
                        <path d="M31.8951433,22.8524902 C28.1278706,22.8524902 23.9273172,22.2685878 19.8047875,20.5146853 C12.1983053,17.2774292 6.4450247,10.8138927 2.70708004,1.30407558 C2.5964081,1.02145363 2.73696146,0.703709726 3.02138834,0.593404848 C3.30415514,0.48364875 3.62676383,0.623038994 3.73798913,0.905112165 C7.3647085,10.1306609 12.9171196,16.3889536 20.2413883,19.5060268 C32.0871591,24.5460268 44.6279496,19.5724292 44.7535623,19.5213927 C45.0352223,19.4066975 45.3594911,19.5406 45.4756966,19.8210268 C45.5913488,20.1014536 45.4557757,20.4219414 45.1730089,20.5366366 C45.0872381,20.5723073 39.3389377,22.8524902 31.8951433,22.8524902 Z" id="Path"></path>
                        <path d="M0.553404147,9.52316095 C0.498621539,9.52316095 0.442732211,9.51492924 0.387396242,9.49791704 C0.0957756888,9.40681948 -0.0658053388,9.09895363 0.025499009,8.80974631 L2.69490612,0.384319482 C2.75024209,0.210904848 2.88858201,0.0753560674 3.06399703,0.0232219211 C3.23830533,-0.0294610057 3.43032114,0.00895362843 3.57253458,0.12364875 L11.1568824,6.24913656 C11.3937204,6.44066095 11.4291354,6.78639265 11.2365662,7.0212707 C11.043997,7.25669753 10.6953804,7.29236826 10.4579891,7.10029509 L3.50613142,1.48517314 L1.08130929,9.13846582 C1.00660573,9.37279509 0.788582013,9.52316095 0.553404147,9.52316095 Z" id="Path"></path>
                    </g>
                </g>
                <g id="Réunion" transform="translate(465.000000, 273.000000)">
                    <g id="Group-6" transform="translate(58.000000, 9.000000)">
                        <g id="Bureaux">
                            <circle id="Oval" fill="#BCDB51" opacity="0.184035528" cx="22" cy="22" r="22"></circle>
                            <path d="M32,12 L32,25.3333333 L22.8333333,25.3333333 L22.8333333,28.6666667 L25.3333333,32 L23.25,32 L22,30.3333333 L20.75,32 L18.6666667,32 L21.1666667,28.6666667 L21.1666667,25.3333333 L12,25.3333333 L12,12 L32,12 Z M30.3333333,13.6666667 L13.6666667,13.6666667 L13.6666667,23.6666667 L30.3333333,23.6666667 L30.3333333,13.6666667 Z M22.8333333,17.8333333 L22.8333333,22 L21.1666667,22 L21.1666667,17.8333333 L22.8333333,17.8333333 Z M26.1666667,15.3333333 L26.1666667,22 L24.5,22 L24.5,15.3333333 L26.1666667,15.3333333 Z M19.5,20.3333333 L19.5,22 L17.8333333,22 L17.8333333,20.3333333 L19.5,20.3333333 Z" id="BG-icon-Copy" fill="#98C00D" fill-rule="nonzero"></path>
                        </g>
                        <text id="20-m²" font-family="BradleyHandITCTT-Bold, Bradley Hand" font-size="14" font-style="expanded" font-weight="bold" fill="#98C00D">
                            <tspan x="3" y="60">20 m²</tspan>
                        </text>
                    </g>
                    <g id="Flèche" transform="translate(30.500000, 28.500000) rotate(71.000000) translate(-30.500000, -28.500000) translate(9.000000, 4.000000)" fill="#D6DBDE" fill-rule="nonzero">
                        <path d="M29.7508893,35.515165 C26.011384,35.5203688 21.8426105,34.9428004 17.7529263,33.1961101 C10.2070489,29.9721622 4.50523779,23.5220771 0.808180026,14.0254777 C0.69872014,13.743248 0.838683094,13.4255766 1.12116823,13.3149692 C1.40200474,13.2049124 1.72204012,13.3437365 1.83205005,13.6254171 C5.41910096,22.8381426 10.9218108,29.0834361 18.1877235,32.187695 C29.939115,37.2069711 42.3944455,32.2201273 42.5192038,32.1689591 C42.7989487,32.053969 43.1206396,32.1873076 43.2355954,32.4673363 C43.3500019,32.7473658 43.2149786,33.0677719 42.9341352,33.1827636 C42.8489466,33.2185235 37.1398177,35.5047777 29.7508893,35.515165 Z" id="Path" transform="translate(22.023618, 24.396199) rotate(-61.000000) translate(-22.023618, -24.396199) "></path>
                        <path d="M2.02508114,41.7853358 C1.97070232,41.7853358 1.91523648,41.7772644 1.86033223,41.7603435 C1.57098888,41.6697281 1.41103053,41.3623457 1.50206746,41.0732545 L4.16361411,32.6511969 C4.2187854,32.4778511 4.35629573,32.3422238 4.53049093,32.2898896 C4.70358833,32.2370085 4.89413498,32.2751238 5.03513937,32.3895248 L12.5549954,38.4993166 C12.7898191,38.6903506 12.8244883,39.0357425 12.6330091,39.2706909 C12.4415292,39.5061877 12.0954321,39.5423132 11.8600599,39.3507317 L4.96731638,33.7499971 L2.54963471,41.4002294 C2.47515317,41.6344656 2.25852558,41.7850083 2.02508114,41.7853358 Z" id="Path" transform="translate(7.116588, 37.025901) rotate(-61.000000) translate(-7.116588, -37.025901) "></path>
                    </g>
                </g>
                <g id="Bureaux" transform="translate(140.000000, 252.000000)">
                    <g id="Group-5" transform="translate(53.000000, 30.000000)">
                        <g id="Bureaux">
                            <circle id="Oval" fill="#65B9E0" opacity="0.303478423" cx="22" cy="22" r="22"></circle>
                            <path d="M32,13.6666667 L32,12 L12,12 L12,32 L15.3333333,32 L15.3333333,32 L17,32 L17,32 L27,32 L27,32 L28.6666667,32 L28.6666667,32 L32,32 L32,30.3333333 L32,30.3333333 L32,13.6666667 Z M16.8780488,30.5365854 L16.8780488,27.6097561 L27.1219512,27.6097561 L27.1219512,30.5365854 L16.8780488,30.5365854 Z M30.5365854,30.5365854 L28.8292683,30.5365854 L28.8292683,25.4146341 L22.8536585,25.4146341 L22.8536585,23.7073171 L27.9756098,23.7073171 L27.9756098,15.1707317 L16.0243902,15.1707317 L16.0243902,23.7073171 L21.1463415,23.7073171 L21.1463415,25.4146341 L15.1707317,25.4146341 L15.1707317,30.5365854 L13.4634146,30.5365854 L13.4634146,13.4634146 L30.5365854,13.4634146 L30.5365854,30.5365854 Z M17.8536585,21.7560976 L17.8536585,16.8780488 L26.1463415,16.8780488 L26.1463415,21.7560976 L17.8536585,21.7560976 Z" id="BG-Icon" fill="#1997D2" fill-rule="nonzero"></path>
                        </g>
                        <text id="30-m²" font-family="BradleyHandITCTT-Bold, Bradley Hand" font-size="14" font-style="expanded" font-weight="bold" fill="#1997D2">
                            <tspan x="3" y="60">30 m²</tspan>
                        </text>
                    </g>
                    <g id="Flèche-Copy-2" transform="translate(30.500000, 29.500000) rotate(110.000000) translate(-30.500000, -29.500000) translate(9.000000, 5.000000)" fill="#D6DBDE" fill-rule="nonzero">
                        <path d="M29.7508893,35.515165 C26.011384,35.5203688 21.8426105,34.9428004 17.7529263,33.1961101 C10.2070489,29.9721622 4.50523779,23.5220771 0.808180026,14.0254777 C0.69872014,13.743248 0.838683094,13.4255766 1.12116823,13.3149692 C1.40200474,13.2049124 1.72204012,13.3437365 1.83205005,13.6254171 C5.41910096,22.8381426 10.9218108,29.0834361 18.1877235,32.187695 C29.939115,37.2069711 42.3944455,32.2201273 42.5192038,32.1689591 C42.7989487,32.053969 43.1206396,32.1873076 43.2355954,32.4673363 C43.3500019,32.7473658 43.2149786,33.0677719 42.9341352,33.1827636 C42.8489466,33.2185235 37.1398177,35.5047777 29.7508893,35.515165 Z" id="Path" transform="translate(22.023618, 24.396199) rotate(-61.000000) translate(-22.023618, -24.396199) "></path>
                        <path d="M2.02508114,41.7853358 C1.97070232,41.7853358 1.91523648,41.7772644 1.86033223,41.7603435 C1.57098888,41.6697281 1.41103053,41.3623457 1.50206746,41.0732545 L4.16361411,32.6511969 C4.2187854,32.4778511 4.35629573,32.3422238 4.53049093,32.2898896 C4.70358833,32.2370085 4.89413498,32.2751238 5.03513937,32.3895248 L12.5549954,38.4993166 C12.7898191,38.6903506 12.8244883,39.0357425 12.6330091,39.2706909 C12.4415292,39.5061877 12.0954321,39.5423132 11.8600599,39.3507317 L4.96731638,33.7499971 L2.54963471,41.4002294 C2.47515317,41.6344656 2.25852558,41.7850083 2.02508114,41.7853358 Z" id="Path" transform="translate(7.116588, 37.025901) rotate(-61.000000) translate(-7.116588, -37.025901) "></path>
                    </g>
                </g>
                <g id="Compteur" transform="translate(103.000000, 27.000000)" fill="#00915A">
                    <rect id="Rectangle" fill-opacity="0.159992351" x="0" y="0" width="73" height="41" rx="5"></rect>
                    <text id="m²" font-family="BNPPSans, BNPP Sans" font-size="14" font-weight="normal">
                        <tspan x="81" y="26">m²</tspan>
                    </text>
                    <text id="200" font-family="BNPPSans, BNPP Sans" font-size="30" font-weight="normal">
                        <tspan x="13" y="31">200</tspan>
                    </text>
                </g>
            </g>
        </g>
    </g>
</svg>