<svg width="24" height="24" viewBox="0 0 24 24" fill="none" xmlns="http://www.w3.org/2000/svg">
<path fill-rule="evenodd" clip-rule="evenodd" d="M4 2H2V4H0V0H2H4V2ZM2 12H0V16H2V12ZM0 6H2V10H0V6ZM22 4H20V2H18V0H20H22V4ZM20 6H22V10H20V6ZM16 0H12V2H16V0ZM6 20H10V22H6V20ZM0 18H2V20H4V22H0V20V18ZM6 0H10V2H6V0ZM10.26 15.64L10.26 15.6445L10.26 15.6523V15.64ZM10.26 15.6445C10.2671 13.346 11.7341 11.3046 13.9126 10.5661C16.0992 9.82477 18.515 10.5613 19.9161 12.3964C21.3172 14.2315 21.3912 16.756 20.1 18.67L24 22.59L22.58 24L18.64 20C17.7651 20.6308 16.7185 20.9797 15.64 21C12.678 21 10.2734 18.6059 10.26 15.6445ZM19.03 15.64C19.034 17.012 18.2107 18.2512 16.9442 18.7791C15.6778 19.3069 14.2181 19.0194 13.2465 18.0506C12.2749 17.0819 11.983 15.623 12.5071 14.355C13.0312 13.087 14.268 12.26 15.64 12.26C17.4966 12.2764 18.9946 13.7833 19 15.64H19.03Z" fill="#333333"/>
</svg>
