<svg width="24" height="24" viewBox="0 0 24 24" fill="none" xmlns="http://www.w3.org/2000/svg">
<path fill-rule="evenodd" clip-rule="evenodd" d="M19.08 7.08C18.8965 9.35665 18.1434 11.5506 16.89 13.46C21.08 14.32 24 16.24 24 18.48C24 21.53 18.63 24 12 24C5.37 24 0 21.53 0 18.46C0 16.24 2.92 14.32 7.11 13.46C5.85659 11.5506 5.1035 9.35665 4.92 7.08C4.92 3.16982 8.08982 0 12 0C15.9102 0 19.08 3.16982 19.08 7.08ZM17.08 7.08C17.0745 4.27668 14.8033 2.0055 12 2C9.19668 2.0055 6.9255 4.27668 6.92 7.08C6.92 9.41 8.71 12.52 10.51 15.01C11 15.71 11.53 16.37 12 16.95C12.49 16.37 12.98 15.71 13.49 15.01C15.29 12.52 17.08 9.41 17.08 7.08ZM12 22C5.8 22 2 19.72 2 18.48C2 17.48 4.31 15.93 8.26 15.28C9.39137 16.9414 10.6413 18.5188 12 20C13.3587 18.5188 14.6086 16.9414 15.74 15.28C19.74 15.93 22 17.52 22 18.48C22 19.72 18.2 22 12 22ZM12 10C13.3527 10.004 14.5743 9.19176 15.0938 7.94279C15.6133 6.69381 15.3282 5.2548 14.3717 4.29828C13.4152 3.34176 11.9762 3.05664 10.7272 3.57617C9.47822 4.0957 8.66594 5.31728 8.66999 6.67C8.66999 8.50911 10.1609 10 12 10ZM12 5.33C12.5429 5.32595 13.0345 5.64985 13.2451 6.15024C13.4557 6.65063 13.3435 7.22862 12.9611 7.61393C12.5786 7.99924 12.0015 8.11573 11.4995 7.90893C10.9976 7.70212 10.67 7.21289 10.67 6.67C10.6673 6.31553 10.8063 5.97467 11.056 5.72308C11.3057 5.47149 11.6455 5.32999 12 5.33Z" fill="#333333"/>
</svg>
