<svg width="24" height="24" viewBox="0 0 24 24" fill="none" xmlns="http://www.w3.org/2000/svg">
<path fill-rule="evenodd" clip-rule="evenodd" d="M17.0915 15.6207L24 22.5662L22.5675 24L15.659 17.0647C11.699 20.2888 5.91084 19.8475 2.48439 16.0603C-0.942055 12.2731 -0.808634 6.46428 2.78807 2.8387C6.38478 -0.786887 12.1871 -0.961479 15.9949 2.4413C19.8027 5.84409 20.2845 11.6344 17.0915 15.6207ZM9.58357 1.9434C5.37534 1.9434 1.96389 5.35802 1.96389 9.57016C1.96389 11.5929 2.76668 13.5328 4.19565 14.9631C5.62461 16.3934 7.56271 17.1969 9.58357 17.1969C13.7918 17.1969 17.2032 13.7823 17.2032 9.57016C17.2032 5.35802 13.7918 1.9434 9.58357 1.9434Z" fill="#333333"/>
</svg>
