<svg width="19" height="24" viewBox="0 0 19 24" fill="none" xmlns="http://www.w3.org/2000/svg">
<path fill-rule="evenodd" clip-rule="evenodd" d="M13.9964 12.5105H8.47641V7.86515C10.4267 7.36208 11.6983 5.48873 11.4445 3.4925C11.1907 1.49628 9.49068 0 7.47641 0C5.46215 0 3.7621 1.49628 3.5083 3.4925C3.25449 5.48873 4.52611 7.36208 6.47641 7.86515V14.5085H12.8864L16.9964 21.6114L18.7264 20.6124L13.9964 12.5105ZM7.47641 6.007C6.37185 6.007 5.47641 5.11246 5.47641 4.00899C5.47641 2.90552 6.37185 2.01098 7.47641 2.01098C8.58098 2.01098 9.47641 2.90552 9.47641 4.00899C9.47641 4.53889 9.2657 5.04709 8.89063 5.42179C8.51556 5.79649 8.00685 6.007 7.47641 6.007ZM2.28641 18.4046C2.97138 20.4414 4.84707 21.8418 6.99641 21.9211C9.38641 21.9911 11.1464 20.7223 12.2364 18.1349L14.1064 18.6244C13.7964 21.2718 10.7364 23.7893 7.62641 23.9891C4.13316 24.1802 1.00411 21.8452 0.196415 18.4446C-0.573585 15.3777 0.996415 11.7812 3.57641 10.5525L4.57641 12.2508C2.28641 14.1189 1.53641 16.1369 2.28641 18.4046Z" fill="#333333"/>
</svg>
