<svg width="24" height="24" viewBox="0 0 24 24" fill="none" xmlns="http://www.w3.org/2000/svg">
<path fill-rule="evenodd" clip-rule="evenodd" d="M12 0L0 8V24H24V8L12 0ZM2 22V9.07L12 2.4L22 9.07V22H2ZM8.69 10.63C6.8692 10.6247 5.34849 12.0164 5.19269 13.8305C5.0369 15.6446 6.29806 17.2752 8.0931 17.5804C9.88814 17.8857 11.6174 16.7636 12.07 15H13.81V17H15.81V15H16.81V17H18.81V15V13H12C11.5194 11.5817 10.1875 10.628 8.69 10.63ZM8.69 15.63C7.86157 15.63 7.19 14.9584 7.19 14.13C7.19 13.3016 7.86157 12.63 8.69 12.63C9.51843 12.63 10.19 13.3016 10.19 14.13C10.19 14.9584 9.51843 15.63 8.69 15.63Z" fill="#333333"/>
</svg>
