<svg width="17" height="15" viewBox="0 0 17 15" fill="none" xmlns="http://www.w3.org/2000/svg">
<path d="M14.375 1.875H12.2094L11.1445 0.278125C11.0875 0.192618 11.0102 0.122502 10.9196 0.0739887C10.829 0.0254751 10.7278 6.17226e-05 10.625 0H5.625C5.52221 6.17226e-05 5.42102 0.0254751 5.3304 0.0739887C5.23978 0.122502 5.16252 0.192618 5.10547 0.278125L4.03984 1.875H1.875C1.37772 1.875 0.900806 2.07254 0.549175 2.42417C0.197544 2.77581 0 3.25272 0 3.75V12.5C0 12.9973 0.197544 13.4742 0.549175 13.8258C0.900806 14.1775 1.37772 14.375 1.875 14.375H14.375C14.8723 14.375 15.3492 14.1775 15.7008 13.8258C16.0525 13.4742 16.25 12.9973 16.25 12.5V3.75C16.25 3.25272 16.0525 2.77581 15.7008 2.42417C15.3492 2.07254 14.8723 1.875 14.375 1.875ZM15 12.5C15 12.6658 14.9342 12.8247 14.8169 12.9419C14.6997 13.0592 14.5408 13.125 14.375 13.125H1.875C1.70924 13.125 1.55027 13.0592 1.43306 12.9419C1.31585 12.8247 1.25 12.6658 1.25 12.5V3.75C1.25 3.58424 1.31585 3.42527 1.43306 3.30806C1.55027 3.19085 1.70924 3.125 1.875 3.125H4.375C4.47792 3.12507 4.57927 3.09972 4.67004 3.0512C4.76081 3.00268 4.83819 2.93249 4.89531 2.84688L5.95937 1.25H10.2898L11.3547 2.84688C11.4118 2.93249 11.4892 3.00268 11.58 3.0512C11.6707 3.09972 11.7721 3.12507 11.875 3.125H14.375C14.5408 3.125 14.6997 3.19085 14.8169 3.30806C14.9342 3.42527 15 3.58424 15 3.75V12.5ZM8.125 4.375C7.44513 4.375 6.78052 4.57661 6.21523 4.95432C5.64993 5.33204 5.20934 5.8689 4.94916 6.49703C4.68899 7.12515 4.62091 7.81631 4.75355 8.48312C4.88619 9.14993 5.21358 9.76244 5.69432 10.2432C6.17506 10.7239 6.78757 11.0513 7.45438 11.1839C8.12119 11.3166 8.81235 11.2485 9.44047 10.9883C10.0686 10.7282 10.6055 10.2876 10.9832 9.72227C11.3609 9.15698 11.5625 8.49237 11.5625 7.8125C11.5615 6.90114 11.199 6.02739 10.5545 5.38296C9.91011 4.73853 9.03636 4.37603 8.125 4.375ZM8.125 10C7.69235 10 7.26942 9.8717 6.90969 9.63134C6.54996 9.39097 6.26958 9.04933 6.10401 8.64962C5.93845 8.24991 5.89513 7.81007 5.97953 7.38574C6.06394 6.96141 6.27228 6.57163 6.5782 6.2657C6.88413 5.95978 7.27391 5.75144 7.69824 5.66703C8.12257 5.58263 8.56241 5.62595 8.96212 5.79151C9.36183 5.95708 9.70347 6.23746 9.94384 6.59719C10.1842 6.95692 10.3125 7.37985 10.3125 7.8125C10.3125 8.39266 10.082 8.94906 9.6718 9.3593C9.26156 9.76953 8.70516 10 8.125 10Z" fill="#050505"/>
</svg>
