<svg width="17" height="14" viewBox="0 0 17 14" fill="none" xmlns="http://www.w3.org/2000/svg">
<path d="M12.5 2.5H1.25C0.918479 2.5 0.600537 2.6317 0.366116 2.86612C0.131696 3.10054 0 3.41848 0 3.75V12.5C0 12.8315 0.131696 13.1495 0.366116 13.3839C0.600537 13.6183 0.918479 13.75 1.25 13.75H12.5C12.8315 13.75 13.1495 13.6183 13.3839 13.3839C13.6183 13.1495 13.75 12.8315 13.75 12.5V3.75C13.75 3.41848 13.6183 3.10054 13.3839 2.86612C13.1495 2.6317 12.8315 2.5 12.5 2.5ZM12.5 12.5H1.25V3.75H12.5V12.5ZM16.25 1.25V10.625C16.25 10.7908 16.1842 10.9497 16.0669 11.0669C15.9497 11.1842 15.7908 11.25 15.625 11.25C15.4592 11.25 15.3003 11.1842 15.1831 11.0669C15.0658 10.9497 15 10.7908 15 10.625V1.25H3.125C2.95924 1.25 2.80027 1.18415 2.68306 1.06694C2.56585 0.949731 2.5 0.79076 2.5 0.625C2.5 0.45924 2.56585 0.300269 2.68306 0.183058C2.80027 0.0658481 2.95924 0 3.125 0H15C15.3315 0 15.6495 0.131696 15.8839 0.366116C16.1183 0.600537 16.25 0.918479 16.25 1.25Z" fill="black"/>
</svg>
