<svg width="24" height="24" viewBox="0 0 24 24" fill="none" xmlns="http://www.w3.org/2000/svg">
<path fill-rule="evenodd" clip-rule="evenodd" d="M14.5698 6.72479C13.3806 5.01129 11.4704 4 9.40106 4C6.00206 4 3.23978 6.7716 3.23978 10.18L3.03924 10.2417C1.25377 10.8371 0 12.5062 0 14.3842C0 16.7907 1.95697 18.7571 4.36343 18.7571H19.6261L19.8373 18.752C22.1466 18.641 23.999 16.7202 23.999 14.3936C24.0458 12.2681 22.4727 10.4328 20.3752 10.0957C20.0381 7.98891 18.2403 6.42515 16.0867 6.42515C15.581 6.42515 15.0473 6.52819 14.5698 6.72479ZM5.24489 9.97161C5.35342 7.76256 7.17783 6 9.40106 6C10.8093 6 12.108 6.68544 12.9267 7.86511L13.8439 9.18657L15.3312 8.57417L15.4745 8.52215C15.6711 8.45966 15.8868 8.42515 16.0867 8.42515C17.2439 8.42515 18.2163 9.26142 18.4003 10.4117L18.629 11.8408L20.0579 12.0704L20.2171 12.1017C21.2643 12.3462 22.0227 13.2929 21.9995 14.3496C21.999 15.6869 20.9272 16.7571 19.6261 16.7571H4.36343L4.20236 16.7516C2.97779 16.6677 2 15.6349 2 14.3842C2 13.3505 2.73546 12.4004 3.78294 12.1048L5.23978 11.6937V10.18L5.24489 9.97161Z" fill="#333333"/>
</svg>
