<svg width="24" height="24" viewBox="0 0 24 24" fill="none" xmlns="http://www.w3.org/2000/svg">
<path fill-rule="evenodd" clip-rule="evenodd" d="M9 0C4.02944 0 0 4.02944 0 9C0 13.0613 2.69008 16.4943 6.38561 17.6144C7.50569 21.3099 10.9387 24 15 24C19.9706 24 24 19.9706 24 15C24 10.9377 21.3086 7.50401 17.6117 6.38478C17.1857 4.98214 16.4194 3.69151 15.364 2.63604C13.6761 0.948212 11.3869 0 9 0ZM15.3292 6.00591C14.2069 3.63778 11.7947 2 9 2C5.13401 2 2 5.13401 2 9C2 11.7947 3.63778 14.2069 6.00591 15.3292C6.00198 15.2199 6 15.1102 6 15C6 10.0294 10.0294 6 15 6C15.1102 6 15.2199 6.00198 15.3292 6.00591ZM8.06227 15.9377C8.0212 15.631 8 15.318 8 15C8 11.134 11.134 8 15 8C15.318 8 15.631 8.0212 15.9377 8.06227C15.9788 8.369 16 8.68203 16 9C16 12.866 12.866 16 9 16C8.68203 16 8.369 15.9788 8.06227 15.9377ZM8.67083 17.9941C8.78007 17.998 8.8898 18 9 18C13.9706 18 18 13.9706 18 9C18 8.89004 17.998 8.78028 17.994 8.67078C20.3622 9.79301 22 12.2052 22 15C22 18.866 18.866 22 15 22C12.2053 22 9.79308 20.3622 8.67083 17.9941Z" fill="#333333"/>
</svg>
