<svg width="17" height="14" viewBox="0 0 17 14" fill="none" xmlns="http://www.w3.org/2000/svg">
<path d="M13.125 9.17422V4.57578C13.1254 4.39835 13.0793 4.22392 12.9913 4.06985C12.9033 3.91579 12.7765 3.78746 12.6234 3.69766L8.6125 1.38125C8.46428 1.29568 8.29615 1.25062 8.125 1.25062C7.95385 1.25062 7.78572 1.29568 7.6375 1.38125L3.62734 3.69766C3.47418 3.78736 3.3472 3.91565 3.25906 4.06972C3.17092 4.22379 3.12469 4.39828 3.125 4.57578V9.17422C3.12461 9.35165 3.17072 9.52608 3.25872 9.68015C3.34672 9.83421 3.47354 9.96254 3.62656 10.0523L7.6375 12.3688C7.78574 12.4542 7.95387 12.4993 8.125 12.4993C8.29613 12.4993 8.46426 12.4542 8.6125 12.3688L12.6227 10.0523C12.7758 9.96264 12.9028 9.83435 12.9909 9.68028C13.0791 9.52621 13.1253 9.35172 13.125 9.17422ZM8.125 2.54297L11.2961 4.375L8.125 6.20547L4.95391 4.375L8.125 2.54297ZM4.375 5.48359L7.5 7.28828V10.8461L4.375 9.04141V5.48359ZM8.75 10.8461V7.28828L11.875 5.48359V9.04141L8.75 10.8461ZM16.25 0.625V3.75C16.25 3.91576 16.1842 4.07473 16.0669 4.19194C15.9497 4.30915 15.7908 4.375 15.625 4.375C15.4592 4.375 15.3003 4.30915 15.1831 4.19194C15.0658 4.07473 15 3.91576 15 3.75V1.25H12.5C12.3342 1.25 12.1753 1.18415 12.0581 1.06694C11.9408 0.949731 11.875 0.79076 11.875 0.625C11.875 0.45924 11.9408 0.300269 12.0581 0.183058C12.1753 0.0658481 12.3342 0 12.5 0H15.625C15.7908 0 15.9497 0.0658481 16.0669 0.183058C16.1842 0.300269 16.25 0.45924 16.25 0.625ZM4.375 13.125C4.375 13.2908 4.30915 13.4497 4.19194 13.5669C4.07473 13.6842 3.91576 13.75 3.75 13.75H0.625C0.45924 13.75 0.300268 13.6842 0.183058 13.5669C0.065848 13.4497 0 13.2908 0 13.125V10C0 9.83424 0.065848 9.67527 0.183058 9.55806C0.300268 9.44085 0.45924 9.375 0.625 9.375C0.79076 9.375 0.949731 9.44085 1.06694 9.55806C1.18415 9.67527 1.25 9.83424 1.25 10V12.5H3.75C3.91576 12.5 4.07473 12.5658 4.19194 12.6831C4.30915 12.8003 4.375 12.9592 4.375 13.125ZM16.25 10V13.125C16.25 13.2908 16.1842 13.4497 16.0669 13.5669C15.9497 13.6842 15.7908 13.75 15.625 13.75H12.5C12.3342 13.75 12.1753 13.6842 12.0581 13.5669C11.9408 13.4497 11.875 13.2908 11.875 13.125C11.875 12.9592 11.9408 12.8003 12.0581 12.6831C12.1753 12.5658 12.3342 12.5 12.5 12.5H15V10C15 9.83424 15.0658 9.67527 15.1831 9.55806C15.3003 9.44085 15.4592 9.375 15.625 9.375C15.7908 9.375 15.9497 9.44085 16.0669 9.55806C16.1842 9.67527 16.25 9.83424 16.25 10ZM0 3.75V0.625C0 0.45924 0.065848 0.300269 0.183058 0.183058C0.300268 0.0658481 0.45924 0 0.625 0H3.75C3.91576 0 4.07473 0.0658481 4.19194 0.183058C4.30915 0.300269 4.375 0.45924 4.375 0.625C4.375 0.79076 4.30915 0.949731 4.19194 1.06694C4.07473 1.18415 3.91576 1.25 3.75 1.25H1.25V3.75C1.25 3.91576 1.18415 4.07473 1.06694 4.19194C0.949731 4.30915 0.79076 4.375 0.625 4.375C0.45924 4.375 0.300268 4.30915 0.183058 4.19194C0.065848 4.07473 0 3.91576 0 3.75Z" fill="black"/>
</svg>
