<svg width="24" height="24" viewBox="0 0 24 24" fill="none" xmlns="http://www.w3.org/2000/svg">
<path fill-rule="evenodd" clip-rule="evenodd" d="M23 9H24V3H0V9H1C2.65685 9 4 10.3431 4 12C4 13.6569 2.65685 15 1 15H0V21H24V15H23C21.3431 15 20 13.6569 20 12C20 10.3431 21.3431 9 23 9ZM22 16.9V19H2V16.9C4.33032 16.4268 6.00501 14.3779 6.00501 12C6.00501 9.62212 4.33032 7.57319 2 7.1V5H22V7.1C19.6697 7.57319 17.995 9.62212 17.995 12C17.995 14.3779 19.6697 16.4268 22 16.9ZM12 7.87L13.23 10.37L16 10.78L14 12.72L14.47 15.47L12 14.17L9.53 15.47L10 12.72L8 10.78L10.77 10.37L12 7.87Z" fill="#333333"/>
</svg>
