<svg width="24" height="24" viewBox="0 0 24 24" fill="none" xmlns="http://www.w3.org/2000/svg">
<path fill-rule="evenodd" clip-rule="evenodd" d="M6.00019 23H7.20015V10.7778H6.00019C5.59719 10.7774 5.19517 10.8183 4.80023 10.9V10.7778C4.80023 6.72769 8.02368 3.44444 12 3.44444C15.9763 3.44444 19.1998 6.72769 19.1998 10.7778V10.9C18.8048 10.8183 18.4028 10.7774 17.9998 10.7778H16.7998V23H17.9998C20.5823 23 22.8751 21.3168 23.6917 18.8214C24.5084 16.326 23.6657 13.5782 21.5997 12V10.7778C21.5997 5.37766 17.3018 1 12 1C6.69824 1 2.40031 5.37766 2.40031 10.7778V12C0.33431 13.5782 -0.508381 16.326 0.308277 18.8214C1.12493 21.3168 3.41769 23 6.00019 23ZM19.1998 13.43C20.6409 13.9464 21.605 15.3329 21.605 16.8889C21.605 18.4449 20.6409 19.8314 19.1998 20.3478V13.43ZM4.80023 20.3478V13.43C3.35915 13.9464 2.39496 15.3329 2.39496 16.8889C2.39496 18.4449 3.35915 19.8314 4.80023 20.3478Z" fill="#333333"/>
</svg>
