<svg width="24" height="24" viewBox="0 0 24 24" fill="none" xmlns="http://www.w3.org/2000/svg">
<path d="M 10 0 L 0 5 L 0 10 L 7 10 L 7 22 L 5 22 L 5 24 L 7 24 L 13 24 L 15 24 L 15 22 L 13 22 L 13 10 L 20 10 L 20 15 L 18 15 L 18 18 L 24 18 L 24 15 L 22 15 L 22 10 L 24 10 L 24 5 L 24 4.9980469 L 10 0 z M 11 2.4804688 L 18.054688 5 L 11 5 L 11 2.4804688 z M 9 2.7363281 L 9 5 L 4.4726562 5 L 9 2.7363281 z M 2 7 L 7 7 L 7 8 L 2 8 L 2 7 z M 9 7 L 11 7 L 11 10 L 11 22 L 9 22 L 9 7 z M 13 7 L 22 7 L 22 8 L 13 8 L 13 7 z " fill="#333333" />
</svg>
