<svg width="24" height="24" viewBox="0 0 24 24" fill="none" xmlns="http://www.w3.org/2000/svg">
<path fill-rule="evenodd" clip-rule="evenodd" d="M2.18691 3.48418C2.5646 2.57964 3.45048 1.99332 4.4293 2.00006C5.75257 2.00006 6.8253 3.07457 6.8253 4.40006C6.83203 5.38051 6.24669 6.26786 5.34365 6.64619C4.44061 7.02451 3.39886 6.81881 2.70672 6.12551C2.01457 5.43221 1.80922 4.38873 2.18691 3.48418ZM17.0083 8.30839C15.4048 8.24904 13.8988 9.07857 13.0899 10.4667H13.0316V8.66673H9.09652V22.0001H13.2562V15.3917C13.2562 13.6501 13.589 11.9667 15.7521 11.9667C17.8456 11.9667 17.8428 13.8246 17.8404 15.3494L17.8403 15.5001V22.0001H22V14.6667C22 11.0751 21.2263 8.30839 17.0083 8.30839ZM2.36607 8.65006H6.50916V22.0001H2.36607V8.65006Z" fill="#333333"/>
</svg>
