<svg width="24" height="24" viewBox="0 0 24 24" fill="none" xmlns="http://www.w3.org/2000/svg">
<path fill-rule="evenodd" clip-rule="evenodd" d="M22 3V0H15V1V3H13V11H24V3H22ZM17 2H20V3H17V2ZM15 9H22V5H15V9ZM11.1275 9.04384C10.4502 10.6818 8.85244 11.75 7.07999 11.75C5.91926 11.7527 4.80516 11.2934 3.98347 10.4736C3.16177 9.65378 2.69999 8.54073 2.69999 7.38C2.69594 5.60755 3.76053 4.00738 5.39689 3.32628C7.03326 2.64519 8.91882 3.01745 10.1736 4.26933C11.4283 5.52122 11.8049 7.40591 11.1275 9.04384ZM9.45999 7.38C9.45999 6.06556 8.39443 5 7.07999 5C5.76555 5 4.69999 6.06556 4.69999 7.38C4.69999 8.69444 5.76555 9.76 7.07999 9.76C8.39443 9.76 9.45999 8.69444 9.45999 7.38ZM7.09 12.62C3.17 12.62 0 16.79 0 21.93C0.00358331 22.6237 0.0637832 23.316 0.18 24H14C14.1162 23.316 14.1764 22.6237 14.18 21.93C14.18 16.79 11 12.62 7.09 12.62ZM2 22V21.93C2 18.69 3.56 15.87 5.63 14.93L6.43 16L5 19L7 21L9 19L7.57 16L8.41 14.89C10.55 15.75 12.18 18.62 12.18 21.89V22H2Z" fill="#333333"/>
</svg>
