<svg width="24" height="24" viewBox="0 0 24 24" fill="none" xmlns="http://www.w3.org/2000/svg">
<path fill-rule="evenodd" clip-rule="evenodd" d="M18.0091 13.5635C19.7863 13.6124 21.3139 12.3121 21.5495 10.5499C21.7852 8.78773 20.6529 7.13182 18.9253 6.71203V4.97925H20.917V2.98755H18.9253V1.9917H20.917V0H16.9336V6.80166C15.3289 7.35397 14.3577 8.98445 14.6363 10.6585C14.9149 12.3326 16.3618 13.5607 18.0589 13.5635H18.0091ZM18.0091 8.58423C18.8341 8.58423 19.5029 9.25302 19.5029 10.078C19.5029 10.903 18.8341 11.5718 18.0091 11.5718C17.1841 11.5718 16.5154 10.903 16.5154 10.078C16.5154 9.25302 17.1841 8.58423 18.0091 8.58423ZM14.205 17.9552L13.966 18.2041H19.0149H20.9967V20.1959V22.0083V24H19.0149H10.5303H9.69378L9.11618 23.4025L3.53942 17.6863H2.98174H1V15.9336H2.98174H3.2805H4.37593L10.5502 21.9087H19.0349L19.0149 19.917H12.0739L8.06058 16.5809L9.17593 15.4656L11.6556 17.7062L12.8108 16.551L8.21992 11.9502H3.2805H2.9917H1V11.8506V9.85892H2.98174H8.20996H9.04647L9.62407 10.4564L14.2249 15.1469L15.5992 16.561L14.205 17.9552Z" fill="#333333"/>
</svg>
