<svg width="24" height="24" viewBox="0 0 24 24" fill="none" xmlns="http://www.w3.org/2000/svg">
<path d="M21 6.66565C20.8235 6.75707 20.6178 6.77465 20.4283 6.71453C20.2388 6.65441 20.0809 6.5215 19.9894 6.34502C19.2735 4.93079 18.1899 3.73549 16.8525 2.88471C16.7692 2.83214 16.697 2.76367 16.6401 2.6832C16.5832 2.60274 16.5427 2.51186 16.521 2.41575C16.4992 2.31964 16.4966 2.22019 16.5132 2.12307C16.5299 2.02594 16.5656 1.93306 16.6181 1.84971C16.6707 1.76636 16.7392 1.69418 16.8196 1.6373C16.9001 1.58041 16.991 1.53993 17.0871 1.51817C17.1832 1.4964 17.2826 1.49378 17.3798 1.51045C17.4769 1.52713 17.5698 1.56276 17.6531 1.61533C19.2118 2.61334 20.4775 4.00742 21.3206 5.65502C21.4121 5.83157 21.4296 6.0372 21.3695 6.2267C21.3094 6.41621 21.1765 6.57409 21 6.66565ZM3.34782 6.75002C3.48522 6.74996 3.61996 6.71216 3.73735 6.64074C3.85473 6.56932 3.95024 6.46702 4.01344 6.34502C4.72932 4.93079 5.8129 3.73549 7.15032 2.88471C7.31864 2.77854 7.4379 2.60985 7.48186 2.41575C7.52581 2.22165 7.49086 2.01804 7.38469 1.84971C7.27852 1.68138 7.10983 1.56212 6.91573 1.51817C6.72163 1.47421 6.51802 1.50916 6.34969 1.61533C4.79101 2.61334 3.52536 4.00742 2.68219 5.65502C2.62298 5.76932 2.59418 5.89694 2.59857 6.02559C2.60295 6.15424 2.64038 6.2796 2.70725 6.3896C2.77411 6.4996 2.86817 6.59053 2.98035 6.65366C3.09254 6.71678 3.21909 6.74997 3.34782 6.75002ZM20.7947 16.4944C20.9276 16.7222 20.998 16.9811 20.9989 17.2449C20.9998 17.5086 20.9312 17.768 20.7998 17.9967C20.6685 18.2255 20.4792 18.4156 20.251 18.5478C20.0228 18.6801 19.7638 18.7498 19.5 18.75H15.675C15.5029 19.5977 15.043 20.3599 14.3732 20.9073C13.7034 21.4547 12.865 21.7538 12 21.7538C11.135 21.7538 10.2966 21.4547 9.62681 20.9073C8.95705 20.3599 8.49714 19.5977 8.325 18.75H4.5C4.2364 18.7495 3.97758 18.6795 3.74963 18.5471C3.52168 18.4147 3.33265 18.2246 3.20156 17.9959C3.07048 17.7672 3.00199 17.508 3.00297 17.2444C3.00396 16.9808 3.0744 16.7221 3.20719 16.4944C4.05188 15.0366 4.5 12.9638 4.5 10.5C4.5 8.5109 5.29018 6.60324 6.6967 5.19672C8.10322 3.7902 10.0109 3.00002 12 3.00002C13.9891 3.00002 15.8968 3.7902 17.3033 5.19672C18.7098 6.60324 19.5 8.5109 19.5 10.5C19.5 12.9628 19.9481 15.0356 20.7947 16.4944ZM14.1206 18.75H9.87938C10.0348 19.1882 10.3221 19.5675 10.7018 19.8358C11.0816 20.104 11.5351 20.2481 12 20.2481C12.4649 20.2481 12.9185 20.104 13.2982 19.8358C13.6779 19.5675 13.9652 19.1882 14.1206 18.75ZM19.5 17.25C18.5025 15.5372 18 13.2666 18 10.5C18 8.90872 17.3679 7.3826 16.2426 6.25738C15.1174 5.13216 13.5913 4.50002 12 4.50002C10.4087 4.50002 8.88258 5.13216 7.75736 6.25738C6.63214 7.3826 6 8.90872 6 10.5C6 13.2675 5.49563 15.5381 4.5 17.25H19.5Z" fill="#333333"/>
</svg>
