<svg width="24" height="24" viewBox="0 0 24 24" fill="none" xmlns="http://www.w3.org/2000/svg">
<path fill-rule="evenodd" clip-rule="evenodd" d="M14.772 4.81327L17.8844 1.70136L18.2146 1.51073C22.8377 -1.09942 24.9542 0.509728 22.9231 5.38457L22.847 5.56718L19.1806 9.23321L20.7487 21.5799L17.5 24L13.7257 14.6875L10.571 17.842L11.071 20.8432L8.28131 23.6328L5.69799 19.113L4.88599 18.301L0.3671 15.7186L3.15677 12.929L6.15599 13.428L9.36931 10.2151L0.0256958 5.82553L2.93244 2.83135L14.772 4.81327ZM21.7335 2.21852L21.729 2.17495L21.7021 2.1758C21.6515 2.17869 21.5827 2.19037 21.4965 2.2117L21.3011 2.26747C21.1921 2.30204 21.0663 2.34685 20.9244 2.40275L20.6197 2.52959C20.4569 2.60067 20.2786 2.68342 20.0858 2.77872L19.6809 2.98629L19.2386 3.22885L19.116 3.29795L6.8432 15.5709L3.84299 15.071L3.63299 15.281L6.1124 16.6982L7.30179 17.8875L8.71799 20.366L8.92799 20.156L8.42899 17.1567L21.15 4.43395L21.2862 4.08898C21.5069 3.50359 21.6455 3.01938 21.7039 2.64467L21.724 2.4908C21.7356 2.37953 21.7378 2.28842 21.7335 2.21852ZM18.6085 20.6856L17.4595 11.2656L15.3565 13.3686L18.1115 21.0586L18.6085 20.6856ZM12.5782 6.42352L3.62641 4.98914L3.3358 5.28818L10.4176 8.43835L12.5782 6.42352Z" fill="#333333"/>
</svg>
