<svg width="24" height="24" viewBox="0 0 24 24" fill="none" xmlns="http://www.w3.org/2000/svg">
<path fill-rule="evenodd" clip-rule="evenodd" d="M24 12C24 12 18.63 4 12 4C10.2107 4.04793 8.46412 4.55777 6.93 5.48L1.45 0L0 1.45L5.17 6.62C3.19004 8.14774 1.44774 9.96082 0 12C0 12 5.37 20 12 20C13.7893 19.9521 15.5359 19.4422 17.07 18.52L22.55 24L24 22.55L18.83 17.38C20.81 15.8523 22.5523 14.0392 24 12ZM12 6C16.12 6 19.87 10 21.49 12C20.3099 13.5086 18.9345 14.8537 17.4 16L15.08 13.68C15.3601 13.1647 15.5047 12.5865 15.5 12C15.5 11.0717 15.1313 10.1815 14.4749 9.52513C13.8185 8.86875 12.9283 8.5 12 8.5C11.4304 8.50369 10.8705 8.64796 10.37 8.92L8.37 6.92C9.49179 6.3347 10.7348 6.01965 12 6ZM2.51 12C4.13 14 7.88 18 12 18C13.2652 17.9803 14.5082 17.6653 15.63 17.08L13.63 15.08C13.1295 15.352 12.5696 15.4963 12 15.5C10.067 15.5 8.5 13.933 8.5 12C8.50369 11.4304 8.64796 10.8705 8.92 10.37L6.6 8.05C5.06872 9.18087 3.69349 10.509 2.51 12Z" fill="#333333"/>
</svg>
