<svg width="24" height="24" viewBox="0 0 24 24" fill="none" xmlns="http://www.w3.org/2000/svg">
<path fill-rule="evenodd" clip-rule="evenodd" d="M12 4C5.37 4 0 12 0 12C0 12 5.37 20 12 20C18.63 20 24 12 24 12C24 12 18.63 4 12 4ZM12 18C7.88 18 4.13 14 2.51 12C4.13 10 7.88 6 12 6C16.12 6 19.87 10 21.49 12C19.87 14 16.12 18 12 18ZM12 8.5C10.067 8.5 8.5 10.067 8.5 12C8.5 13.933 10.067 15.5 12 15.5C13.933 15.5 15.5 13.933 15.5 12C15.5 10.067 13.933 8.5 12 8.5ZM12 13.5C11.1716 13.5 10.5 12.8284 10.5 12C10.5 11.1716 11.1716 10.5 12 10.5C12.8284 10.5 13.5 11.1716 13.5 12C13.5 12.8284 12.8284 13.5 12 13.5Z" fill="#333333"/>
</svg>
