<svg width="24" height="24" viewBox="0 0 24 24" fill="none" xmlns="http://www.w3.org/2000/svg">
<path fill-rule="evenodd" clip-rule="evenodd" d="M4 12C4 7.58172 7.58172 4 12 4C14.1217 4 16.1566 4.84285 17.6569 6.34315C19.1571 7.84344 20 9.87827 20 12C20 16.4183 16.4183 20 12 20C7.58172 20 4 16.4183 4 12ZM12 18.6667C15.6819 18.6667 18.6667 15.6819 18.6667 12C18.6667 8.3181 15.6819 5.33333 12 5.33333C8.3181 5.33333 5.33333 8.3181 5.33333 12C5.33333 15.6819 8.3181 18.6667 12 18.6667Z" fill="#333333"/>
</svg>
