<svg width="24" height="24" viewBox="0 0 24 24" fill="none" xmlns="http://www.w3.org/2000/svg">
<path fill-rule="evenodd" clip-rule="evenodd" d="M12 4C7.58172 4 4 7.58172 4 12C4 16.4183 7.58172 20 12 20C16.4183 20 20 16.4183 20 12C20 9.87827 19.1571 7.84344 17.6569 6.34315C16.1566 4.84285 14.1217 4 12 4ZM12 18.6667C8.3181 18.6667 5.33333 15.6819 5.33333 12C5.33333 8.3181 8.3181 5.33333 12 5.33333C15.6819 5.33333 18.6667 8.3181 18.6667 12C18.6667 15.6819 15.6819 18.6667 12 18.6667ZM12 16C14.2091 16 16 14.2091 16 12C16 9.79086 14.2091 8 12 8C9.79086 8 8 9.79086 8 12C8 14.2091 9.79086 16 12 16Z" fill="#333333"/>
</svg>
