<svg width="24" height="24" viewBox="0 0 24 24" fill="none" xmlns="http://www.w3.org/2000/svg">
<path fill-rule="evenodd" clip-rule="evenodd" d="M14 5C14 2.23858 16.2386 0 19 0C20.3261 0 21.5979 0.526784 22.5355 1.46447C23.4732 2.40215 24 3.67392 24 5C24 7.76142 21.7614 10 19 10C16.2386 10 14 7.76142 14 5ZM16 5C16 6.65685 17.3431 8 19 8C19.7957 8 20.5587 7.68393 21.1213 7.12132C21.6839 6.55871 22 5.79565 22 5C22 3.34315 20.6569 2 19 2C17.3431 2 16 3.34315 16 5ZM19.08 3.03H18.08V5.92H18.62H19.08H20.28V4.92H19.08V3.03ZM0 24H13V5H0V24ZM2 7H11V22H2V7ZM4 9H9V12H4V9ZM9 14H4V15H9V14ZM4 16H9V17H4V16ZM9 18H4V19H9V18Z" fill="#333333"/>
</svg>
