<svg width="24" height="24" viewBox="0 0 24 24" fill="none" xmlns="http://www.w3.org/2000/svg">
<path fill-rule="evenodd" clip-rule="evenodd" d="M0 8L12 0L24 8V24H0V8ZM9.4 17.31C7.65 17.31 6.15 19.42 6 22H12.8C12.65 19.42 11.15 17.31 9.4 17.31ZM14.8 22C14.7737 21.5059 14.7102 21.0145 14.61 20.53C14.8731 19.9862 15.3913 19.6107 15.99 19.53C16.79 19.53 17.67 20.53 17.92 21.95L14.8 22ZM19.94 22H22V9.07L12 2.4L2 9.07V22H4.02C4.18 18.31 6.53 15.31 9.41 15.31C11.358 15.4235 13.0793 16.6161 13.87 18.4C14.4621 17.8858 15.2159 17.5956 16 17.58C17.94 17.58 19.63 19.5 19.94 22ZM6.06013 10.9601C6.0656 9.11939 7.55928 7.63007 9.39999 7.63C10.291 7.62996 11.1452 7.98597 11.7724 8.61885C12.3996 9.25172 12.748 10.109 12.74 11C12.7235 12.8406 11.2208 14.3209 9.38017 14.3099C7.53949 14.2989 6.05467 12.8008 6.06013 10.9601ZM8.15938 11.4756C8.3649 11.98 8.8553 12.3099 9.39999 12.31C10.1285 12.3102 10.7237 11.7283 10.74 11C10.7522 10.4555 10.4335 9.95771 9.93391 9.74082C9.43427 9.52393 8.85307 9.63105 8.46358 10.0118C8.0741 10.3926 7.95385 10.9712 8.15938 11.4756ZM16 16.58C17.3641 16.58 18.47 15.4741 18.47 14.11C18.47 12.7459 17.3641 11.64 16 11.64C14.6359 11.64 13.53 12.7459 13.53 14.11C13.53 15.4741 14.6359 16.58 16 16.58ZM16 13.11C16.5523 13.11 17 13.5577 17 14.11C17 14.6623 16.5523 15.11 16 15.11C15.4477 15.11 15 14.6623 15 14.11C15 13.5577 15.4477 13.11 16 13.11Z" fill="#333333"/>
</svg>
