<svg width="24" height="24" viewBox="0 0 24 24" fill="none" xmlns="http://www.w3.org/2000/svg">
<path fill-rule="evenodd" clip-rule="evenodd" d="M16.1851 17.1418C16.9329 16.3933 17.9461 15.9722 19.0031 15.9703V15.9904C21.2107 15.9904 23.0003 17.7834 23.0003 19.9952C23.0003 22.207 21.2107 24 19.0031 24C16.7955 24 15.0059 22.207 15.0059 19.9952C15.0051 19.6222 15.0589 19.2511 15.1658 18.8939L6.82174 13.8878C5.64703 15.0632 3.86944 15.3887 2.35571 14.7056C0.841971 14.0226 -0.0927472 12.4731 0.00730836 10.8128C0.107364 9.15241 1.22136 7.72688 2.80613 7.23123C4.3909 6.73558 6.11648 7.273 7.14152 8.58146L16.0652 4.66675C16.0299 4.45824 16.0099 4.24743 16.0052 4.03599C15.9902 2.07981 17.388 0.399033 19.311 0.06073C21.2341 -0.277573 23.1197 0.825617 23.7707 2.66991C24.4217 4.51421 23.6476 6.55984 21.9398 7.50808C20.232 8.45632 18.0904 8.02965 16.8746 6.49896L7.95094 10.4137C7.98622 10.6222 8.00626 10.833 8.0109 11.0444C8.0108 11.414 7.95694 11.7817 7.85102 12.1357L16.1851 17.1418ZM22.001 4.03599C22.001 2.93009 21.1062 2.03359 20.0024 2.03359C18.8986 2.03359 18.0038 2.93009 18.0038 4.03599C18.0038 5.14189 18.8986 6.0384 20.0024 6.0384C21.1062 6.0384 22.001 5.14189 22.001 4.03599ZM4.01373 13.0468C2.90995 13.0468 2.01515 12.1503 2.01515 11.0444C2.01515 9.93852 2.90995 9.04201 4.01373 9.04201C5.11752 9.04201 6.01232 9.93852 6.01232 11.0444C6.01232 12.1503 5.11752 13.0468 4.01373 13.0468ZM17.2049 20.7555C17.5082 21.4809 18.2181 21.9516 19.0031 21.9475V21.9375C20.0683 21.9375 20.9317 21.0724 20.9317 20.0052C20.9317 19.2187 20.4583 18.5098 19.7327 18.2098C19.007 17.9097 18.1724 18.0778 17.6188 18.6353C17.0651 19.1929 16.9017 20.03 17.2049 20.7555Z" fill="#333333"/>
</svg>
