<svg width="24" height="24" viewBox="0 0 24 24" fill="none" xmlns="http://www.w3.org/2000/svg">
<path fill-rule="evenodd" clip-rule="evenodd" d="M22 6.01504L21.31 2.00501H2.69L2 6.01504C2.00151 6.75571 2.44953 7.42197 3.13383 7.70122C3.81814 7.98047 4.60293 7.81728 5.12 7.28822L6.36 6.01504H6.74L8 7.28822C8.33247 7.63528 8.79005 7.83394 9.27 7.8396C9.75945 7.83749 10.2277 7.6389 10.57 7.28822L11.81 6.01504H12.19L13.41 7.28822C13.7523 7.6389 14.2206 7.83749 14.71 7.8396C15.1969 7.83934 15.6627 7.64025 16 7.28822L17.26 6.01504H17.64L18.88 7.28822C19.3971 7.81728 20.1819 7.98047 20.8662 7.70122C21.5505 7.42197 21.9985 6.75571 22 6.01504ZM24 6.01504C23.9997 6.96599 23.6427 7.88207 23 8.58145V24H1V8.58145C0.357262 7.88207 0.000313663 6.96599 0 6.01504L1 0H23L24 6.01504ZM11 21.995V13.9749H5V21.995H3V9.74436C3.26871 9.80853 3.54378 9.84215 3.82 9.84461C4.84673 9.83961 5.82916 9.42472 6.55 8.69173C7.2655 9.42975 8.24841 9.84615 9.275 9.84615C10.3016 9.84615 11.2845 9.42975 12 8.69173C12.7155 9.42975 13.6984 9.84615 14.725 9.84615C15.7516 9.84615 16.7345 9.42975 17.45 8.69173C18.1708 9.42472 19.1533 9.83961 20.18 9.84461C20.4562 9.84215 20.7313 9.80853 21 9.74436V21.995H11ZM19 13.9749H15V17.985H19V13.9749Z" fill="#333333"/>
</svg>
