<svg width="25" height="24" viewBox="0 0 25 24" fill="none" xmlns="http://www.w3.org/2000/svg">
<path fill-rule="evenodd" clip-rule="evenodd" d="M12.1285 4.66871L25 2.99976L23.331 15.8827L20.2103 12.7506L12.9287 20.0322L9.70508 16.7972L4.84682 21.644L0 16.7972L4.84682 11.9389L6.47005 10.3271L9.70508 7.09212L12.9287 10.3271L15.3635 7.90373L12.1285 4.66871ZM21.7194 11.0012L22.3596 5.65143L17.0326 6.33731L18.5873 7.90338L16.9755 9.51517L14.5521 11.9386L12.9288 13.5618L11.317 11.9386L9.70523 10.3268L8.08201 11.9386L6.47021 13.5618L3.23519 16.7968L4.84698 18.4086L8.08201 15.1736L9.70523 13.5618L11.317 15.1736L12.8717 16.854L18.5873 11.1384L20.2105 9.51517L21.7194 11.0012Z" fill="#333333"/>
</svg>
