<svg width="24" height="24" viewBox="0 0 24 24" fill="none" xmlns="http://www.w3.org/2000/svg">
<path fill-rule="evenodd" clip-rule="evenodd" d="M3.51472 3.51472C-1.17157 8.20101 -1.17157 15.799 3.51472 20.4853C8.20101 25.1716 15.799 25.1716 20.4853 20.4853C25.1716 15.799 25.1716 8.20101 20.4853 3.51472C18.2348 1.26428 15.1826 0 12 0C8.8174 0 5.76515 1.26428 3.51472 3.51472ZM4.25674 18.329L18.329 4.25674C14.401 1.03827 8.59553 1.26234 4.92893 4.92893C1.26234 8.59553 1.03827 14.401 4.25674 18.329ZM5.67095 19.7433C9.59896 22.9617 15.4045 22.7377 19.0711 19.0711C22.7377 15.4045 22.9617 9.59896 19.7433 5.67095L5.67095 19.7433Z" fill="#333333"/>
</svg>
