<svg width="24" height="24" viewBox="0 0 24 24" fill="none" xmlns="http://www.w3.org/2000/svg">
<path fill-rule="evenodd" clip-rule="evenodd" d="M19.6084 13.6111L14.5993 12.6093L12.7559 10.3652L12.4053 12.8297L17.0237 23.1685L15.2404 24L11.3834 15.4645L10.1512 18.3097L5.5428 24L4 22.7177L8.60838 17.1876L10.3515 12.6894L10.8525 9.16303L7.59654 9.73407L6.00364 13.7414L4.18033 12.98L6.18397 7.97087L11.163 7.14937L11.2432 6.60839C9.70151 5.81846 8.97068 4.01878 9.52512 2.37766C10.0796 0.736532 11.7521 -0.2512 13.4569 0.0556735C15.1618 0.362547 16.3849 1.8715 16.3323 3.60295C16.2797 5.3344 14.9671 6.76628 13.2468 6.96905L13.1366 7.68034L15.6912 10.7459L19.9991 11.6075L19.6084 13.6111ZM14.3789 3.46267C14.3789 2.63274 13.7061 1.95994 12.8761 1.95994C12.0462 1.95994 11.3734 2.63274 11.3734 3.46267C11.3734 4.29261 12.0462 4.9654 12.8761 4.9654C13.7061 4.9654 14.3789 4.29261 14.3789 3.46267Z" fill="#333333"/>
</svg>
